<svg width="301" height="250" viewBox="0 0 301 250" fill="none" xmlns="http://www.w3.org/2000/svg">
<path d="M126.959 18.1967H118.461C118.461 18.1967 115.483 39.6584 107.382 48.6885C99.7182 57.2404 85.3603 54.8906 85.3603 54.8906C85.3603 54.8906 85.3603 54.9043 85.3466 54.9316C79.8002 53.4152 73.4614 53.7568 69.1444 54.8906C62.3821 56.6803 57.4914 59.7814 57.4914 59.7814C57.4914 59.7814 47.0543 66.3797 47.3002 78.9753C47.4914 88.7431 54.8275 100.382 54.7729 101.216C54.1308 110.546 53.4067 110.219 54.3767 113.538C56.7401 121.598 90.1964 118.279 90.7838 114.576C91.3166 111.229 89.7729 105.615 90.5515 98.0737C91.7811 86.1885 94.2264 81.9535 97.0133 74.6174C112.382 73.3743 122.3 64.6857 125.388 50.7513C128.584 36.3797 126.959 18.1967 126.959 18.1967Z" fill="white"/>
<path d="M70.7845 118.811C62.7927 118.811 55.2244 117.473 54.0905 113.62C53.4484 111.434 53.5304 110.724 53.831 108.101C54.0085 106.598 54.2408 104.522 54.473 101.188C54.4457 101.011 53.9676 100.055 53.4621 99.0437C51.4129 94.959 47.1506 86.4754 47.0004 78.989C46.7545 66.3661 57.2326 59.6038 57.3282 59.5355C57.3829 59.5081 62.3282 56.3797 69.0632 54.6038C73.0113 53.5655 79.3228 53.0191 85.2654 54.6038C85.3064 54.5901 85.361 54.5901 85.402 54.5901C85.5386 54.6174 99.678 56.8032 107.151 48.4836C115.088 39.6311 118.121 18.3743 118.148 18.1557C118.175 18.0054 118.298 17.8961 118.448 17.8961H126.946C127.11 17.8961 127.233 18.0191 127.246 18.1693C127.26 18.3469 128.845 36.571 125.689 50.8333C122.533 65.0682 112.424 73.6202 97.2326 74.918C96.7681 76.1338 96.3173 77.2677 95.8801 78.3606C93.7353 83.7158 91.8774 88.3469 90.8665 98.1147C90.4293 102.363 90.7299 106.025 90.9894 108.975C91.1807 111.311 91.3446 113.156 91.0987 114.631C90.7299 116.899 81.6588 118.279 75.6479 118.661C74.0495 118.757 72.4102 118.811 70.7845 118.811ZM77.3009 54.2213C74.1588 54.2213 71.29 54.6448 69.2408 55.1775C62.6015 56.9262 57.7244 59.9999 57.6698 60.0273C57.5605 60.0956 47.3692 66.6939 47.6151 78.9617C47.7654 86.3114 51.973 94.7131 54.0086 98.7568C54.8419 100.41 55.1014 100.956 55.0878 101.216C54.8555 104.563 54.6233 106.639 54.4457 108.156C54.1452 110.751 54.0769 111.366 54.6779 113.443C55.9348 117.732 66.7408 118.606 75.6069 118.046C84.2545 117.5 90.2927 115.792 90.4976 114.522C90.7299 113.115 90.5659 111.202 90.3747 109.003C90.1288 106.038 89.8146 102.336 90.2517 98.0327C91.2763 88.183 93.1479 83.5109 95.3064 78.1147C95.7709 76.9672 96.2353 75.7786 96.7271 74.5081C96.7681 74.3989 96.8637 74.3169 96.9867 74.3169C112 73.101 121.987 64.7131 125.088 50.683C128.011 37.4726 126.85 20.8333 126.659 18.4835H118.708C118.326 20.9699 115.17 40.4098 107.601 48.8661C100.347 56.9535 87.0687 55.4098 85.4703 55.1912C85.4157 55.2185 85.3337 55.2185 85.2654 55.2049C82.6288 54.5081 79.8829 54.2213 77.3009 54.2213Z" fill="#582583"/>
<path d="M232.863 235.164H84.571C79.9672 235.164 76.4562 230.956 77.1939 226.298L109.093 25.2187C109.68 21.5165 112.809 18.798 116.47 18.798H264.762C269.366 18.798 272.877 23.0056 272.139 27.6641L240.254 228.743C239.653 232.446 236.525 235.164 232.863 235.164Z" fill="white"/>
<path d="M232.862 235.465H84.5701C82.316 235.465 80.1848 234.467 78.7094 232.746C77.1794 230.956 76.5236 228.593 76.8925 226.257L108.791 25.1641C109.406 21.298 112.63 18.4974 116.469 18.4974H264.761C267.015 18.4974 269.147 19.4947 270.622 21.216C272.152 23.0056 272.808 25.369 272.439 27.7051L240.554 228.784C239.925 232.65 236.688 235.465 232.862 235.465ZM116.469 19.0985C112.931 19.0985 109.953 21.6942 109.392 25.2597L77.4936 226.353C77.152 228.511 77.7668 230.697 79.1739 232.35C80.54 233.948 82.5072 234.864 84.5701 234.864H232.862C236.401 234.864 239.379 232.268 239.939 228.702L271.824 27.6231C272.166 25.4647 271.551 23.2789 270.144 21.6259C268.778 20.0275 266.811 19.1122 264.748 19.1122H116.469V19.0985Z" fill="#582583"/>
<path d="M228.148 234.631H79.8552C75.2513 234.631 71.7404 230.424 72.4781 225.792L104.377 25.0548C104.964 21.3662 108.093 18.6476 111.754 18.6476H260.033C264.637 18.6476 268.148 22.8553 267.41 27.4864L235.525 228.224C234.937 231.926 231.809 234.631 228.148 234.631Z" fill="white"/>
<path d="M228.147 234.945H79.8551C77.601 234.945 75.4699 233.948 73.9944 232.227C72.478 230.451 71.8087 228.088 72.1775 225.751L104.076 25.0138C104.691 21.1477 107.915 18.3471 111.754 18.3471H260.033C262.287 18.3471 264.418 19.3444 265.893 21.0657C267.41 22.8416 268.079 25.205 267.71 27.5411L235.825 228.279C235.21 232.145 231.973 234.945 228.147 234.945ZM111.754 18.9619C108.216 18.9619 105.238 21.5438 104.677 25.1094L72.7786 225.833C72.4371 227.992 73.0518 230.164 74.4453 231.817C75.8114 233.415 77.7786 234.331 79.8551 234.331H228.147C231.686 234.331 234.664 231.749 235.224 228.183L267.109 27.4455C267.451 25.287 266.836 23.1149 265.443 21.4619C264.076 19.8635 262.109 18.9482 260.033 18.9482H111.754V18.9619Z" fill="#582583"/>
<path d="M203.9 37.2952H160.922C154.05 37.2952 148.832 30.9974 149.979 24.0984L150.976 18.0465C151.072 17.4318 151.605 16.981 152.206 16.981H218.422C219.2 16.981 219.788 17.6913 219.651 18.47L218.64 24.6039C217.424 31.9263 211.195 37.2952 203.9 37.2952Z" fill="white"/>
<path d="M203.9 37.5957H160.922C157.602 37.5957 154.46 36.134 152.288 33.5657C150.061 30.9427 149.105 27.4591 149.679 24.0438L150.676 17.9919C150.799 17.2269 151.455 16.6804 152.206 16.6804H218.422C218.873 16.6804 219.31 16.8853 219.597 17.2269C219.897 17.5821 220.034 18.0602 219.952 18.5247L218.941 24.6586C217.684 32.1586 211.373 37.5957 203.9 37.5957ZM152.206 17.2952C151.742 17.2952 151.345 17.6367 151.277 18.1012L150.28 24.1531C149.747 27.4045 150.649 30.6968 152.753 33.1832C154.802 35.6012 157.78 36.9946 160.922 36.9946H203.9C211.072 36.9946 217.138 31.7624 218.34 24.5629L219.351 18.4291C219.392 18.1422 219.324 17.8553 219.132 17.623C218.955 17.4045 218.695 17.2952 218.422 17.2952H152.206Z" fill="#582583"/>
<path d="M174.965 30.2322H193.326C194.022 30.2322 194.61 29.7678 194.733 29.071L197.246 12.7186C198.257 6.21585 193.339 0.314209 186.891 0.314209C181.741 0.314209 177.356 4.12568 176.536 9.3306L173.558 28.6066C173.421 29.4809 174.091 30.2322 174.965 30.2322ZM182.479 10.3825L182.492 10.2596C182.834 8.15574 184.623 6.59836 186.714 6.59836C189.364 6.59836 191.372 9.03006 190.935 11.7077L190.921 11.8306C190.58 13.9344 188.79 15.4918 186.7 15.4918C184.05 15.4918 182.028 13.0465 182.479 10.3825Z" fill="white"/>
<path d="M193.326 30.5328H174.965C174.446 30.5328 173.968 30.3142 173.64 29.9317C173.326 29.5628 173.175 29.0574 173.257 28.5519L176.236 9.27596C177.069 3.89344 181.55 0 186.891 0C189.992 0 192.957 1.36612 194.992 3.75683C197.11 6.22951 198.039 9.5082 197.533 12.7596L195.02 29.112C194.883 29.9454 194.186 30.5328 193.326 30.5328ZM186.891 0.601092C181.85 0.601092 177.629 4.28962 176.837 9.37159L173.859 28.6475C173.804 28.9754 173.886 29.2896 174.104 29.5355C174.309 29.7814 174.624 29.918 174.965 29.918H193.326C193.886 29.918 194.337 29.5492 194.432 29.0164L196.946 12.6639C197.424 9.59017 196.55 6.48907 194.542 4.153C192.602 1.89891 189.815 0.601092 186.891 0.601092ZM186.7 15.7924C185.375 15.7924 184.104 15.2049 183.23 14.1803C182.328 13.1148 181.946 11.7213 182.178 10.3415L182.192 10.2186C182.561 7.95082 184.46 6.31148 186.714 6.31148C188.039 6.31148 189.309 6.89891 190.184 7.9235C191.085 8.98907 191.468 10.3825 191.236 11.7623L191.222 11.8852C190.839 14.153 188.94 15.7924 186.7 15.7924ZM182.779 10.4372C182.574 11.6393 182.916 12.8689 183.708 13.7842C184.46 14.6721 185.553 15.1776 186.714 15.1776C188.667 15.1776 190.32 13.7432 190.634 11.776L190.648 11.653C190.853 10.4508 190.512 9.22131 189.719 8.30601C188.968 7.41803 187.875 6.91257 186.714 6.91257C184.76 6.91257 183.121 8.347 182.793 10.3142L182.779 10.4372Z" fill="#582583"/>
<path d="M188.97 158.224H182.754C181.961 158.224 181.21 157.869 180.691 157.268C180.158 156.639 179.926 155.82 180.049 155L192.904 73.6201C193.123 72.2677 194.256 71.2841 195.609 71.2841H201.825C202.617 71.2841 203.368 71.6392 203.888 72.2403C204.42 72.8688 204.653 73.6884 204.53 74.5081L191.674 155.888C191.47 157.24 190.322 158.224 188.97 158.224ZM193.505 73.7157L180.65 155.096C180.554 155.738 180.732 156.38 181.155 156.871C181.565 157.35 182.139 157.623 182.754 157.623H188.97C190.021 157.623 190.909 156.858 191.073 155.792L203.929 74.4125C204.024 73.7704 203.847 73.1283 203.437 72.6365C203.027 72.1584 202.453 71.8852 201.838 71.8852H195.623C194.557 71.8852 193.669 72.6502 193.505 73.7157Z" fill="#582583"/>
<path d="M170.867 158.224H164.651C163.859 158.224 163.107 157.882 162.588 157.268C162.056 156.639 161.823 155.82 161.946 155L171.277 94.5081C171.482 93.142 172.629 92.1584 173.982 92.1584H180.211C181.004 92.1584 181.755 92.4999 182.274 93.1147C182.807 93.7431 183.039 94.5628 182.916 95.3824L173.586 155.874C173.353 157.227 172.22 158.224 170.867 158.224ZM173.968 92.7731C172.916 92.7731 172.028 93.5518 171.864 94.6174L162.534 155.109C162.438 155.751 162.616 156.393 163.039 156.885C163.449 157.363 164.023 157.623 164.638 157.623H170.853C171.905 157.623 172.793 156.844 172.957 155.779L182.288 95.2868C182.383 94.6447 182.206 94.0027 181.782 93.5108C181.372 93.0327 180.799 92.7731 180.184 92.7731H173.968Z" fill="#582583"/>
<path d="M152.766 158.224H146.551C145.758 158.224 145.007 157.882 144.488 157.268C143.955 156.639 143.723 155.82 143.846 155L150.813 110.177C151.018 108.811 152.165 107.828 153.518 107.828H159.734C160.526 107.828 161.277 108.169 161.797 108.784C162.329 109.412 162.562 110.232 162.439 111.052L155.471 155.874C155.266 157.24 154.119 158.224 152.766 158.224ZM151.4 110.273L144.433 155.096C144.337 155.738 144.515 156.38 144.939 156.871C145.348 157.35 145.922 157.609 146.537 157.609H152.753C153.805 157.609 154.693 156.83 154.857 155.779L161.824 110.956C161.919 110.314 161.742 109.672 161.318 109.18C160.909 108.702 160.335 108.443 159.72 108.443H153.504C152.452 108.443 151.564 109.208 151.4 110.273Z" fill="#582583"/>
<path d="M134.666 158.224H128.45C127.658 158.224 126.906 157.869 126.387 157.268C125.854 156.639 125.622 155.82 125.745 155L130.335 125.847C130.554 124.494 131.688 123.497 133.04 123.497H139.256C140.048 123.497 140.8 123.852 141.319 124.453C141.852 125.082 142.084 125.902 141.961 126.721L137.371 155.874C137.166 157.24 136.018 158.224 134.666 158.224ZM133.04 124.098C131.988 124.098 131.1 124.863 130.936 125.929L126.346 155.082C126.251 155.724 126.428 156.366 126.852 156.858C127.261 157.336 127.835 157.609 128.45 157.609H134.666C135.718 157.609 136.606 156.844 136.77 155.779L141.36 126.626C141.455 125.984 141.278 125.341 140.854 124.85C140.445 124.372 139.871 124.098 139.256 124.098H133.04Z" fill="#582583"/>
<path d="M116.537 158.224H110.307C109.529 158.224 108.777 157.882 108.258 157.281C107.725 156.667 107.479 155.847 107.602 155.041L109.911 138.77C110.102 137.404 111.264 136.38 112.616 136.38H118.846C119.624 136.38 120.376 136.721 120.895 137.322C121.428 137.937 121.673 138.757 121.551 139.563L119.242 155.833C119.051 157.199 117.889 158.224 116.537 158.224ZM110.512 138.852L108.204 155.123C108.108 155.765 108.299 156.393 108.723 156.885C109.132 157.35 109.706 157.623 110.321 157.623H116.551C117.602 157.623 118.504 156.817 118.654 155.765L120.963 139.481C121.059 138.839 120.867 138.21 120.444 137.718C120.034 137.254 119.46 136.981 118.846 136.981H112.616C111.564 136.981 110.663 137.787 110.512 138.852Z" fill="#582583"/>
<path d="M107.631 179.85C105.349 179.85 103.491 177.964 103.491 175.642C103.491 173.32 105.349 171.434 107.631 171.434C109.912 171.434 111.77 173.32 111.77 175.642C111.77 177.964 109.912 179.85 107.631 179.85ZM107.631 172.035C105.691 172.035 104.106 173.647 104.106 175.642C104.106 177.623 105.691 179.249 107.631 179.249C109.57 179.249 111.155 177.637 111.155 175.642C111.155 173.661 109.57 172.035 107.631 172.035Z" fill="#582583"/>
<path d="M104.351 195.943C102.07 195.943 100.212 194.057 100.212 191.735C100.212 189.412 102.07 187.527 104.351 187.527C106.633 187.527 108.491 189.412 108.491 191.735C108.491 194.057 106.633 195.943 104.351 195.943ZM104.351 188.128C102.411 188.128 100.827 189.74 100.827 191.735C100.827 193.716 102.411 195.341 104.351 195.341C106.291 195.341 107.876 193.729 107.876 191.735C107.876 189.74 106.305 188.128 104.351 188.128Z" fill="#582583"/>
<path d="M101.469 212.814C99.188 212.814 97.3301 210.929 97.3301 208.606C97.3301 206.284 99.188 204.399 101.469 204.399C103.751 204.399 105.609 206.284 105.609 208.606C105.609 210.929 103.751 212.814 101.469 212.814ZM101.469 205.014C99.5295 205.014 97.9448 206.626 97.9448 208.62C97.9448 210.615 99.5295 212.227 101.469 212.227C103.409 212.227 104.994 210.615 104.994 208.62C104.994 206.626 103.409 205.014 101.469 205.014Z" fill="#582583"/>
<path d="M159.817 175.943H118.793C118.629 175.943 118.492 175.806 118.492 175.642C118.492 175.478 118.629 175.341 118.793 175.341H159.817C159.981 175.341 160.118 175.478 160.118 175.642C160.118 175.806 159.981 175.943 159.817 175.943Z" fill="#582583"/>
<path d="M157.248 191.899H152.986C152.822 191.899 152.686 191.762 152.686 191.598C152.686 191.434 152.822 191.298 152.986 191.298H157.248C157.412 191.298 157.549 191.434 157.549 191.598C157.549 191.762 157.412 191.899 157.248 191.899Z" fill="white"/>
<path d="M145.185 191.899H116.237C116.073 191.899 115.937 191.762 115.937 191.598C115.937 191.434 116.073 191.298 116.237 191.298H145.185C145.349 191.298 145.486 191.434 145.486 191.598C145.486 191.762 145.349 191.899 145.185 191.899Z" fill="#582583"/>
<path d="M153.915 208.388H112.89C112.726 208.388 112.59 208.251 112.59 208.087C112.59 207.923 112.726 207.787 112.89 207.787H153.915C154.079 207.787 154.216 207.923 154.216 208.087C154.216 208.251 154.079 208.388 153.915 208.388Z" fill="#582583"/>
<path d="M110.444 101.94C110.444 101.94 116.578 101.844 119.789 100.464C122.999 99.0709 122.944 101.489 122.043 102.336C121.305 103.019 116.879 105.492 112.903 105.779L110.444 101.94Z" fill="white"/>
<path d="M112.903 106.079C112.793 106.079 112.698 106.024 112.643 105.942L110.184 102.104C110.13 102.008 110.116 101.899 110.171 101.803C110.225 101.707 110.321 101.639 110.43 101.639C110.485 101.639 116.537 101.53 119.651 100.177C121.619 99.3168 122.37 99.8905 122.643 100.3C123.094 100.983 122.78 102.035 122.233 102.541C121.386 103.333 116.865 105.779 112.916 106.065C112.916 106.079 112.903 106.079 112.903 106.079ZM110.99 102.227L113.053 105.451C116.946 105.109 121.209 102.677 121.824 102.104C122.192 101.762 122.411 101.038 122.151 100.628C121.865 100.191 121.045 100.232 119.911 100.724C117.206 101.912 112.575 102.172 110.99 102.227Z" fill="#582583"/>
<path d="M101.494 99.6445L104.541 93.6336L107.368 95.273C107.519 95.3686 107.655 95.4915 107.751 95.6418L107.929 95.915C108.147 96.2566 108.543 96.4615 108.953 96.4342C109.172 96.4205 109.39 96.4751 109.582 96.5844L130.565 108.757C130.743 108.852 130.893 108.975 131.043 109.125L135.374 113.483L129.595 112.472C129.281 112.418 128.967 112.322 128.68 112.186L106.726 102.049C106.535 101.967 106.371 101.83 106.262 101.653L106.235 101.612C106.016 101.284 105.633 101.093 105.237 101.12L105.046 101.134C104.868 101.147 104.677 101.106 104.513 101.038L101.494 99.6445Z" fill="white"/>
<path d="M135.373 113.784C135.36 113.784 135.332 113.784 135.319 113.784L129.54 112.773C129.198 112.718 128.87 112.609 128.556 112.459L106.603 102.322C106.371 102.213 106.166 102.035 106.015 101.83L105.988 101.789C105.824 101.543 105.551 101.407 105.264 101.421L105.073 101.434C104.84 101.448 104.608 101.407 104.403 101.311L101.398 99.9178C101.33 99.8768 101.261 99.8221 101.234 99.7402C101.207 99.6582 101.207 99.5762 101.248 99.5079L104.294 93.497C104.335 93.4287 104.403 93.3604 104.485 93.3467C104.567 93.3194 104.649 93.3331 104.717 93.3741L107.545 95.0134C107.737 95.1227 107.914 95.2866 108.037 95.4779L108.215 95.7511C108.379 96.0107 108.666 96.1473 108.966 96.1336C109.253 96.12 109.526 96.1883 109.772 96.3249L130.756 108.497C130.947 108.606 131.138 108.757 131.289 108.907L135.619 113.265C135.715 113.36 135.728 113.497 135.674 113.62C135.592 113.729 135.483 113.784 135.373 113.784ZM105.291 100.819C105.756 100.819 106.207 101.052 106.48 101.448L106.507 101.489C106.589 101.612 106.712 101.707 106.849 101.776L128.802 111.912C129.075 112.035 129.349 112.131 129.636 112.172L134.485 113.019L130.824 109.344C130.701 109.221 130.564 109.112 130.414 109.03L109.431 96.8577C109.294 96.7757 109.13 96.7347 108.966 96.7484C108.447 96.7757 107.955 96.5298 107.668 96.0926L107.491 95.8194C107.422 95.7101 107.327 95.6145 107.204 95.5462L104.663 94.0708L101.903 99.5079L104.622 100.765C104.745 100.819 104.881 100.847 105.004 100.833L105.196 100.819C105.25 100.819 105.264 100.819 105.291 100.819Z" fill="#582583"/>
<path d="M129.978 111.079C129.937 111.079 129.897 111.065 129.856 111.052C129.705 110.983 129.637 110.806 129.705 110.656L130.511 108.839C130.58 108.688 130.757 108.62 130.907 108.688C131.058 108.757 131.126 108.934 131.058 109.084L130.252 110.901C130.197 111.011 130.088 111.079 129.978 111.079Z" fill="#582583"/>
<path d="M99.6636 90.9833L104.226 93.4423C104.459 93.5653 104.554 93.8658 104.431 94.0981L101.754 99.2347C101.631 99.4806 101.33 99.5626 101.098 99.4396L96.5351 96.9806C95.6198 96.4888 95.2647 95.3549 95.7291 94.4533L97.1636 91.7074C97.628 90.8194 98.7483 90.4915 99.6636 90.9833Z" fill="#582583"/>
<path d="M101.317 99.8084C101.194 99.8084 101.057 99.7811 100.948 99.7128L96.3849 97.2538C95.333 96.68 94.9095 95.3685 95.456 94.3303L96.8904 91.5844C97.1499 91.0789 97.5871 90.7101 98.1336 90.5461C98.6937 90.3685 99.2811 90.4368 99.8139 90.7237L104.377 93.1827C104.759 93.3877 104.896 93.8658 104.705 94.2483L102.027 99.3849C101.931 99.5762 101.767 99.7128 101.563 99.7811C101.481 99.7948 101.399 99.8084 101.317 99.8084ZM98.762 91.0516C98.6117 91.0516 98.4614 91.0789 98.3112 91.1199C97.9286 91.2429 97.6144 91.5024 97.4232 91.8576L95.9887 94.6035C95.5926 95.3549 95.9068 96.2975 96.6718 96.721L101.235 99.18C101.276 99.2073 101.33 99.2073 101.371 99.1937C101.412 99.18 101.453 99.1527 101.481 99.0981L104.158 93.9614C104.199 93.8795 104.172 93.7565 104.076 93.7155L99.5133 91.2565C99.2811 91.1199 99.0215 91.0516 98.762 91.0516Z" fill="#582583"/>
<path d="M106.331 100.533C106.276 100.533 106.235 100.519 106.194 100.492C106.044 100.41 105.989 100.232 106.071 100.082L107.588 97.2539C107.67 97.1036 107.847 97.0489 107.998 97.1309C108.148 97.2129 108.202 97.3905 108.12 97.5407L106.604 100.369C106.549 100.478 106.44 100.533 106.331 100.533Z" fill="#582583"/>
<path d="M116.18 102.705C116.126 102.705 116.085 102.691 116.03 102.664L109.773 99.1528C109.623 99.0708 109.568 98.8795 109.65 98.7429C109.732 98.5927 109.924 98.538 110.06 98.62L116.317 102.131C116.467 102.213 116.522 102.404 116.44 102.541C116.385 102.636 116.29 102.705 116.18 102.705Z" fill="#582583"/>
<path d="M128.572 109.931C128.517 109.931 128.476 109.918 128.422 109.89L125.976 108.524C125.826 108.442 125.772 108.265 125.854 108.115C125.935 107.964 126.127 107.91 126.263 107.992L128.709 109.358C128.859 109.44 128.914 109.617 128.832 109.768C128.777 109.863 128.668 109.931 128.572 109.931Z" fill="#582583"/>
<path d="M100.866 97.6637C100.812 97.6637 100.771 97.65 100.716 97.6227L97.2323 95.7101C97.082 95.6282 97.0274 95.4506 97.1094 95.3003C97.1913 95.15 97.3689 95.0954 97.5192 95.1774L101.003 97.0899C101.153 97.1719 101.208 97.3495 101.126 97.4998C101.085 97.609 100.975 97.6637 100.866 97.6637Z" fill="white"/>
<path d="M99.3916 104.344C99.3916 104.344 104.815 105.109 108.476 102.281C111.591 99.8769 117.889 106.762 118.435 107.637C119.2 108.88 117.52 110.82 115.566 109.713C115.566 109.713 115.047 112.787 110.84 113.292C106.632 113.798 104.829 111.052 103.708 110.642C102.575 110.232 99.3369 110.205 99.3369 110.205L99.3916 104.344Z" fill="white"/>
<path d="M109.801 113.675C107.219 113.675 105.648 112.445 104.555 111.585C104.173 111.284 103.831 111.024 103.585 110.929C102.52 110.533 99.3503 110.519 99.323 110.519C99.241 110.519 99.1591 110.492 99.1044 110.423C99.0498 110.369 99.0225 110.287 99.0225 110.205L99.0771 104.33C99.0771 104.249 99.1181 104.167 99.1864 104.098C99.2547 104.044 99.3367 104.016 99.4323 104.03C99.4869 104.044 104.774 104.74 108.298 102.035C108.954 101.53 109.787 101.352 110.744 101.53C114.104 102.145 118.271 106.776 118.695 107.473C119.104 108.128 118.968 109.003 118.353 109.645C117.834 110.191 116.864 110.601 115.757 110.136C115.457 111.024 114.35 113.169 110.88 113.593C110.498 113.647 110.143 113.675 109.801 113.675ZM99.6372 109.918C100.484 109.932 102.834 110.014 103.804 110.369C104.145 110.492 104.501 110.765 104.938 111.12C106.085 112.022 107.807 113.374 110.798 113.005C114.719 112.527 115.238 109.795 115.266 109.672C115.279 109.576 115.348 109.494 115.43 109.453C115.525 109.412 115.621 109.412 115.703 109.467C116.659 110 117.465 109.699 117.902 109.248C118.244 108.88 118.462 108.306 118.162 107.814C117.793 107.227 113.763 102.718 110.621 102.158C109.815 102.008 109.173 102.145 108.654 102.541C105.43 105.041 100.949 104.822 99.6782 104.699L99.6372 109.918Z" fill="#582583"/>
<path d="M62.5064 60.6967C62.5064 60.6967 55.0747 63.8251 51.1403 76.5573C48.9681 83.5792 49.3643 93.6065 60.061 106.926C62.1922 109.59 65.1976 112.24 68.5856 112.623L101.058 112.937L100.908 102.541C100.908 102.541 75.7304 99.2622 71.9463 97.8415C68.5993 96.5846 63.7359 80.1639 63.2304 72.1174L62.5064 60.6967Z" fill="white"/>
<path d="M101.059 113.251L68.5863 112.937C68.5726 112.937 68.5589 112.937 68.5589 112.937C64.8567 112.514 61.7693 109.549 59.8294 107.131C58.6819 105.697 57.5617 104.235 56.5234 102.814C56.4278 102.678 56.4551 102.486 56.5917 102.391C56.7283 102.295 56.9196 102.322 57.0152 102.459C58.0535 103.88 59.1464 105.328 60.2939 106.762C62.1655 109.085 65.1163 111.94 68.5999 112.35L100.745 112.664L100.608 102.841C97.7802 102.473 75.4442 99.5218 71.8376 98.1693C68.8185 97.0354 65.2529 85.642 63.8048 78.3059C63.7775 78.142 63.8731 77.9781 64.0371 77.9507C64.201 77.9234 64.3649 78.019 64.3923 78.183C66.0726 86.6393 69.6382 96.6939 72.0562 97.5956C75.7584 98.989 100.704 102.24 100.95 102.268C101.1 102.281 101.209 102.418 101.209 102.568L101.359 112.964C101.359 113.046 101.332 113.128 101.278 113.183C101.223 113.21 101.141 113.251 101.059 113.251Z" fill="#582583"/>
<path d="M128.668 19.3852C129.051 20.3688 129.788 23.0191 128.572 24.795C127.48 26.3934 125.198 26.4481 123.887 25.0273C123.204 24.2759 122.876 23.0464 122.37 21.3251C122.124 20.4781 121.742 19.8907 121.332 19.3579C121.059 19.0164 120.649 18.8114 120.212 18.8114L116.346 18.7978C116.346 18.7978 116.373 17.295 117.493 16.694C118.477 16.1612 121.018 16.5983 121.223 16.2978C123.463 12.9371 127.152 15.4235 128.668 19.3852Z" fill="white"/>
<path d="M126.168 26.3387C125.212 26.3387 124.31 25.9426 123.654 25.2185C122.971 24.4672 122.63 23.306 122.151 21.7076L122.056 21.3934C121.81 20.5464 121.414 19.9726 121.072 19.5355C120.854 19.2622 120.539 19.112 120.198 19.112L116.332 19.0983C116.25 19.0983 116.168 19.071 116.113 19.0027C116.059 18.948 116.031 18.8661 116.031 18.7841C116.031 18.7158 116.086 17.0901 117.343 16.4207C117.971 16.0792 119.091 16.0928 119.979 16.1065C120.362 16.1065 120.84 16.1202 120.99 16.0792C122.015 14.5628 123.231 14.3579 124.064 14.4535C125.936 14.6584 127.889 16.5983 128.914 19.2896C129.146 19.877 130.198 22.9234 128.777 24.9863C128.217 25.7923 127.343 26.2978 126.359 26.3661C126.318 26.3387 126.25 26.3387 126.168 26.3387ZM116.687 18.4835L120.212 18.4972C120.744 18.4972 121.236 18.7431 121.564 19.1666C121.947 19.6584 122.37 20.2732 122.643 21.2294L122.739 21.5437C123.19 23.0737 123.504 24.1666 124.105 24.8223C124.692 25.4644 125.512 25.7923 126.359 25.7376C127.151 25.683 127.862 25.2732 128.313 24.6311C129.556 22.8278 128.586 20.0409 128.381 19.4945C127.438 17.0491 125.649 15.2185 124.023 15.0409C123.039 14.9316 122.179 15.4098 121.482 16.4617C121.318 16.7213 120.922 16.7213 119.993 16.7076C119.214 16.6939 118.149 16.6803 117.643 16.9535C116.988 17.295 116.769 18.06 116.687 18.4835Z" fill="#582583"/>
<path d="M65.4552 211.803L63.0918 223.169L69.294 224.918L72.7093 213.866L65.4552 211.803Z" fill="white"/>
<path d="M69.2945 225.219C69.2672 225.219 69.2398 225.219 69.2125 225.205L63.0103 223.456C62.8601 223.415 62.7644 223.265 62.7918 223.101L65.1551 211.735C65.1688 211.653 65.2235 211.585 65.2918 211.544C65.3601 211.503 65.4557 211.489 65.5377 211.516L72.7918 213.566C72.8737 213.593 72.942 213.648 72.9694 213.716C73.0103 213.784 73.0103 213.866 72.9967 213.948L69.5677 225.014C69.5404 225.137 69.4174 225.219 69.2945 225.219ZM63.4475 222.951L69.0896 224.549L72.3273 214.071L65.6879 212.186L63.4475 222.951Z" fill="#582583"/>
<path d="M61.0427 232.746C61.1111 233.839 62.4498 234.713 63.5291 234.877C67.2859 235.451 76.1247 235.205 78.5154 235.369C81.6302 235.588 87.4772 235.355 87.7094 233.361C87.9826 230.943 85.3733 227.404 79.1302 225.465C75.9061 224.467 72.4772 219.508 70.9744 219.413C69.458 219.331 66.7805 223.238 66.7805 223.238L62.4772 221.776C62.4772 221.79 60.6876 227.2 61.0427 232.746Z" fill="white"/>
<path d="M80.4817 235.724C79.3342 235.724 78.5282 235.669 78.5008 235.669C77.6812 235.615 76.0691 235.601 74.2112 235.587C70.5364 235.574 65.9735 235.546 63.4872 235.164C62.2304 234.973 60.8233 233.962 60.7413 232.746C60.3861 227.213 62.162 221.735 62.1894 221.68C62.2167 221.598 62.2713 221.544 62.3396 221.503C62.408 221.462 62.4899 221.462 62.5719 221.489L66.6566 222.883C67.2713 222.022 69.4981 219.03 70.9872 219.112C71.7795 219.153 72.8314 220.164 74.1566 221.434C75.6457 222.855 77.5036 224.631 79.2249 225.164C85.6866 227.159 88.3096 230.82 88.0227 233.388C87.7768 235.424 83.2003 235.724 80.4817 235.724ZM62.6675 222.172C62.3123 223.361 61.0418 228.019 61.3424 232.719C61.397 233.62 62.5582 234.413 63.5692 234.577C66.0008 234.945 70.55 234.973 74.1976 234.986C76.0692 235 77.6948 235 78.5282 235.068C81.9981 235.314 87.2167 234.918 87.3943 233.333C87.6675 230.943 84.8806 227.582 79.02 225.765C77.162 225.191 75.2495 223.361 73.7194 221.885C72.5719 220.792 71.4926 219.754 70.9325 219.727C69.9489 219.672 68.009 221.967 67.0118 223.429C66.9298 223.538 66.7932 223.593 66.6566 223.552L62.6675 222.172Z" fill="#582583"/>
<path d="M82.1093 232.773C81.2897 232.773 80.388 232.732 79.4317 232.678C78.011 232.609 76.5492 232.527 75.1011 232.596C71.8224 232.746 69.0219 232.609 67.2596 232.486C63.9809 232.24 63.8443 232.036 63.7897 231.954C63.735 231.858 63.7214 231.735 63.776 231.639C63.858 231.489 64.0356 231.434 64.1858 231.516C64.705 231.653 69.2678 232.254 75.0601 231.995C76.5356 231.926 78.011 232.008 79.4454 232.077C81.6175 232.186 83.6667 232.295 84.8416 231.79C84.9918 231.721 85.1694 231.79 85.2377 231.954C85.3061 232.104 85.2377 232.281 85.0738 232.35C84.3224 232.678 83.2979 232.773 82.1093 232.773Z" fill="#582583"/>
<path d="M74.0901 228.88C74.0081 228.88 73.9398 228.852 73.8715 228.798C73.7486 228.675 73.7486 228.484 73.8715 228.374L76.1393 226.052C76.2622 225.929 76.4535 225.929 76.5628 226.052C76.6857 226.175 76.6857 226.366 76.5628 226.475L74.295 228.798C74.2404 228.839 74.1584 228.88 74.0901 228.88Z" fill="#582583"/>
<path d="M31.8484 211.271L31.5342 219.194L37.067 220.519L38.0506 211.325L31.8484 211.271Z" fill="white"/>
<path d="M37.0677 220.833C37.0404 220.833 37.0267 220.833 36.9994 220.82L31.4666 219.481C31.33 219.454 31.2344 219.317 31.2344 219.18L31.5486 211.257C31.5486 211.093 31.6852 210.97 31.8491 210.97L38.0513 211.025C38.1333 211.025 38.2152 211.066 38.2699 211.12C38.3245 211.189 38.3519 211.271 38.3519 211.353L37.3683 220.56C37.3546 220.642 37.3136 220.724 37.2453 220.779C37.1907 220.806 37.136 220.833 37.0677 220.833ZM31.8491 218.948L36.8081 220.15L37.7234 211.626L32.1497 211.571L31.8491 218.948Z" fill="#582583"/>
<path d="M37.9171 234.932C35.7039 235.246 32.0837 235.383 27.7941 234.932C25.8679 234.727 25.1302 232.063 25.458 230.683C26.4007 226.858 28.0263 220.683 30.8132 217.309L31.8378 219.358L32.8078 217.35C32.9444 217.118 33.1766 216.954 33.4362 216.926L35.5127 216.94C35.9498 216.885 36.3597 217.172 36.4416 217.609L36.7695 219.194L38.5455 217.145L39.9252 232.254C40.1028 233.552 39.2012 234.754 37.9171 234.932Z" fill="white"/>
<path d="M33.1899 235.519C31.6735 235.519 29.8429 235.437 27.7664 235.232C27.0287 235.15 26.3866 234.754 25.8948 234.058C25.1298 232.978 24.9522 231.503 25.1708 230.615C26.291 226.025 27.9303 220.342 30.5806 217.118C30.6489 217.036 30.7445 216.995 30.8538 217.008C30.9495 217.022 31.0451 217.077 31.0861 217.172L31.8238 218.675L32.5205 217.227C32.7118 216.899 33.026 216.68 33.3812 216.626C33.3948 216.626 33.4085 216.626 33.4221 216.626L35.485 216.639C36.0724 216.571 36.6052 216.967 36.7281 217.541L36.9331 218.525L38.2992 216.94C38.3812 216.844 38.5041 216.817 38.6271 216.844C38.7363 216.885 38.832 216.981 38.832 217.104L40.2254 232.241C40.4167 233.689 39.3921 235.027 37.944 235.232C37.1653 235.342 35.526 235.519 33.1899 235.519ZM30.7582 217.883C28.0396 221.489 26.4549 227.951 25.7582 230.765C25.5806 231.503 25.7309 232.787 26.3866 233.716C26.7691 234.262 27.2609 234.577 27.821 234.631C31.4413 235.014 35.1981 235.014 37.862 234.631C38.9822 234.467 39.7609 233.429 39.6243 232.309L38.3128 217.896L37.0014 219.399C36.9194 219.481 36.8101 219.522 36.7008 219.495C36.5915 219.467 36.5096 219.372 36.4822 219.262L36.1544 217.678C36.0997 217.404 35.8402 217.213 35.5533 217.254C35.5396 217.254 35.526 217.254 35.5123 217.254L33.4631 217.241C33.2992 217.268 33.1626 217.363 33.0806 217.514L32.1243 219.508C32.0697 219.618 31.9741 219.686 31.8511 219.686C31.7418 219.686 31.6325 219.618 31.5779 219.522L30.7582 217.883Z" fill="#582583"/>
<path d="M31.7558 233.047C30.3351 233.047 28.805 232.924 27.275 232.568C27.111 232.527 27.0154 232.363 27.0427 232.2C27.0837 232.036 27.2476 231.94 27.4116 231.967C32.6302 233.156 38.081 231.626 38.1356 231.612C38.2996 231.571 38.4635 231.653 38.5045 231.817C38.5454 231.981 38.4635 232.145 38.2995 232.186C38.1356 232.254 35.3077 233.047 31.7558 233.047Z" fill="#582583"/>
<path d="M30.4861 227.186C30.3222 227.186 30.1855 227.063 30.1855 226.899C30.1855 226.735 30.3085 226.585 30.4724 226.585L35.4588 226.421C35.6227 226.421 35.773 226.544 35.773 226.708C35.773 226.872 35.65 227.022 35.4861 227.022L30.4861 227.186Z" fill="#582583"/>
<path d="M90.2662 116.353C92.3701 128.634 96.1815 158.812 87.9438 181.38C80.8537 200.806 75.799 210.478 73.8591 213.989C73.3264 214.945 72.2608 215.492 71.1815 215.342L66.1269 214.686C64.6242 214.495 63.5859 213.101 63.8318 211.598C65.6761 200.041 72.9985 143.771 71.0449 138.579L39.6788 212.322C39.3373 213.101 38.5723 213.607 37.7116 213.593L32.4111 213.538C31.2362 213.525 30.2936 212.541 30.3209 211.353C31.8919 151.667 49.3646 142.049 54.4876 113.511C54.5012 113.443 56.1679 115.451 56.2225 115.492C61.3455 118.456 63.9138 118.224 71.7826 118.661C80.2936 119.126 88.1897 115.915 90.0613 115.997C90.1843 116.038 90.2389 116.216 90.2662 116.353Z" fill="#582583"/>
<path d="M80.8953 59.1667L82.3434 51.735C82.4527 51.2296 82.8625 50.8607 83.368 50.8061L86.2778 50.4782C86.9062 50.4099 87.398 49.9318 87.4936 49.317L88.1494 45.164C88.1494 45.164 88.1494 45.1503 88.163 45.1503L89.5428 44.399C89.816 44.2487 89.9253 43.9072 89.7751 43.6339L88.3133 40.7788C88.0264 40.2186 87.6439 37.0902 87.0155 37.1176C87.0155 37.1176 76.5237 33.47 73.4363 37.8143C72.6166 38.9618 72.5346 40.4919 73.0811 41.7897L73.7915 43.4563C74.5292 45.1777 74.6931 47.1175 74.133 48.9208C73.9281 49.5629 73.6548 50.1777 73.2996 50.7514L69.3516 56.899C72.2204 58.3334 75.3625 59.1121 78.5729 59.1531L80.8953 59.1667Z" fill="white"/>
<path d="M80.8941 59.4809C80.8804 59.4809 80.8804 59.4809 80.8941 59.4809L78.5853 59.4399C75.3613 59.3853 72.1236 58.6066 69.2411 57.1448C69.1591 57.1039 69.1045 57.0356 69.0908 56.9536C69.0635 56.8716 69.0771 56.776 69.1318 56.7077L73.0799 50.5601C73.4214 50.0137 73.6946 49.4126 73.8859 48.7979C74.405 47.1312 74.2957 45.2733 73.558 43.5519L72.8476 41.8853C72.2329 40.4509 72.3832 38.8115 73.2302 37.6093C76.3449 33.2241 86.2493 36.4891 87.1099 36.776C87.6837 36.817 87.9569 37.8416 88.3258 39.4673C88.4351 39.9454 88.5444 40.4509 88.6263 40.6011L90.0881 43.4563C90.3067 43.8798 90.1427 44.4126 89.7192 44.6312L88.4624 45.3142L87.8203 49.3306C87.6974 50.082 87.0963 50.6694 86.3312 50.7514L83.4214 51.0793C83.0389 51.1203 82.7384 51.4071 82.6564 51.776L81.2083 59.2077C81.1537 59.3716 81.0307 59.4809 80.8941 59.4809ZM69.8012 56.7623C72.5334 58.0738 75.5526 58.7979 78.5853 58.8388L80.6345 58.8662L82.0416 51.6804C82.1782 51.0519 82.6837 50.5738 83.3258 50.5055L86.2356 50.1776C86.7138 50.123 87.1099 49.7405 87.1919 49.2623L87.8476 45.1093C87.8613 45.0137 87.9296 44.9181 88.0116 44.8771L89.405 44.1257C89.528 44.0574 89.5826 43.8935 89.5143 43.7569L88.0526 40.9017C87.9433 40.6968 87.8476 40.2733 87.6974 39.6175C87.5471 38.9618 87.2466 37.5957 87.0007 37.4044C86.9733 37.4044 86.946 37.3907 86.9323 37.3907C86.8231 37.3498 76.6181 33.8662 73.7083 37.9782C72.9843 39.0028 72.8613 40.4235 73.3804 41.6667L74.0908 43.3334C74.8832 45.1913 75.0061 47.1995 74.4323 49.0028C74.2274 49.6722 73.9269 50.3142 73.558 50.9017L69.8012 56.7623Z" fill="#582583"/>
<path d="M78.8455 41.7214C78.3127 40.3826 77.4657 39.8771 77.616 39.1257C77.7116 38.6613 78.1078 38.3744 78.3401 38.2104C79.4603 37.3908 80.9357 37.8962 83.9002 38.4563C87.575 39.1531 87.9985 39.2623 88.6952 38.9891C90.4575 38.2924 91.4685 36.1203 91.5368 34.3306C91.5641 33.8252 91.6051 31.1612 89.3373 29.7951C87.7116 28.7979 85.5259 28.8798 83.7636 29.9727C83.6133 29.4536 83.2854 28.7296 82.5887 28.3744C80.922 27.5274 78.4494 29.4263 77.575 30.0957C76.769 30.7104 75.3483 31.9946 74.3237 34.2623C73.9958 34.0847 72.7663 33.4427 71.4275 33.8662C69.433 34.5082 68.9412 36.9399 68.9002 37.1722C68.4084 39.8634 70.6078 42.2132 72.2745 43.9755C73.1898 44.9454 73.6816 45.3279 74.2144 45.6831C74.5286 45.9017 74.9521 45.9153 75.2799 45.7241C75.2799 45.7241 75.2936 45.7241 75.2936 45.7104C75.7308 45.4645 75.881 44.9044 75.6215 44.4673L75.5395 44.3306C75.2253 43.8115 75.0067 43.2377 74.9384 42.6367C74.8838 42.1585 74.9248 41.6531 75.2253 41.3935C75.7171 40.97 76.5641 41.2569 76.6871 41.2842C77.3018 41.4891 77.698 41.9399 77.9302 42.3771C78.2308 42.8689 79.0914 42.3225 78.8455 41.7214Z" fill="#582583"/>
<path d="M253.492 249.7H147.345C140.979 249.7 136.211 243.853 137.495 237.609L153.602 159.29C154.954 152.705 160.747 147.978 167.468 147.978H258.52L253.492 249.7Z" fill="white"/>
<path d="M253.493 250H147.345C144.217 250 141.293 248.607 139.313 246.189C137.332 243.757 136.567 240.615 137.195 237.541L153.302 159.221C154.681 152.527 160.638 147.664 167.468 147.664H258.52C258.602 147.664 258.684 147.691 258.739 147.76C258.793 147.814 258.821 147.896 258.821 147.978L253.793 249.713C253.793 249.877 253.657 250 253.493 250ZM167.468 148.265C160.925 148.265 155.214 152.924 153.889 159.331L137.783 237.65C137.195 240.533 137.919 243.511 139.777 245.792C141.635 248.074 144.395 249.385 147.345 249.385H253.206L258.192 148.265H167.468Z" fill="#582583"/>
<path d="M267.085 249.7H246.484C240.117 249.7 235.35 243.853 236.634 237.609L254.366 151.339C254.776 149.372 256.497 147.965 258.492 147.965H263.792C265.992 147.965 267.822 149.645 268 151.844L275.254 240.833C275.65 245.601 271.88 249.7 267.085 249.7Z" fill="white"/>
<path d="M267.085 250H246.484C243.356 250 240.432 248.607 238.451 246.189C236.47 243.757 235.705 240.615 236.334 237.541L254.066 151.271C254.49 149.18 256.361 147.664 258.492 147.664H263.793C266.129 147.664 268.11 149.495 268.301 151.817L275.555 240.806C275.746 243.169 274.94 245.519 273.328 247.268C271.73 249.003 269.462 250 267.085 250ZM258.506 148.265C256.662 148.265 255.05 149.577 254.667 151.393L236.935 237.664C236.347 240.547 237.071 243.525 238.929 245.806C240.787 248.088 243.547 249.399 246.498 249.399H267.099C269.326 249.399 271.388 248.497 272.905 246.858C274.394 245.246 275.145 243.06 274.968 240.861L267.714 151.872C267.55 149.85 265.842 148.279 263.806 148.279H258.506V148.265Z" fill="#582583"/>
<path d="M260.527 246.94H246.497C244.297 246.94 242.234 245.956 240.841 244.249C239.448 242.541 238.901 240.314 239.352 238.156L245.172 209.836C245.199 209.672 245.363 209.563 245.527 209.604C245.691 209.631 245.8 209.795 245.759 209.959L239.939 238.279C239.529 240.26 240.035 242.295 241.305 243.866C242.59 245.437 244.475 246.339 246.497 246.339H260.527C260.691 246.339 260.827 246.476 260.827 246.639C260.827 246.803 260.691 246.94 260.527 246.94Z" fill="#582583"/>
<path d="M267.084 246.94C266.92 246.94 266.783 246.803 266.783 246.639C266.783 246.476 266.92 246.339 267.084 246.339C268.45 246.339 269.707 245.779 270.636 244.782C271.565 243.771 272.015 242.473 271.893 241.107L270.239 220.833C270.226 220.67 270.349 220.519 270.513 220.506C270.677 220.492 270.827 220.615 270.841 220.779L272.494 241.052C272.617 242.582 272.111 244.058 271.073 245.178C270.048 246.312 268.627 246.94 267.084 246.94Z" fill="#582583"/>
<path d="M265.95 164.659C265.799 164.659 265.663 164.536 265.649 164.385L265.308 160.164C265.294 160 265.417 159.85 265.581 159.836C265.745 159.823 265.895 159.946 265.909 160.109L266.25 164.331C266.264 164.495 266.141 164.645 265.977 164.659C265.963 164.659 265.963 164.659 265.95 164.659Z" fill="#582583"/>
<path d="M252.508 175.915C252.495 175.915 252.467 175.915 252.454 175.915C252.29 175.888 252.181 175.724 252.222 175.56L257.085 151.899C257.222 151.23 257.823 150.738 258.519 150.738H263.82C264.571 150.738 265.213 151.325 265.282 152.077L265.514 154.85C265.528 155.014 265.405 155.164 265.241 155.178C265.077 155.191 264.926 155.068 264.913 154.905L264.681 152.131C264.64 151.694 264.271 151.353 263.834 151.353H258.533C258.137 151.353 257.782 151.639 257.7 152.036L252.836 175.697C252.768 175.82 252.645 175.915 252.508 175.915Z" fill="#582583"/>
<path d="M239.039 189.385H155.925C155.761 189.385 155.624 189.249 155.624 189.085C155.624 188.921 155.761 188.784 155.925 188.784H239.039C241.375 188.784 243.384 187.2 243.916 184.932L251.239 153.989C251.28 153.825 251.444 153.73 251.608 153.757C251.772 153.798 251.867 153.962 251.84 154.126L244.517 185.068C243.903 187.609 241.649 189.385 239.039 189.385Z" fill="#582583"/>
<path d="M206.961 189.085L204.639 198.484C204.256 200.068 202.849 201.202 201.21 201.202H184.748C182.959 201.202 181.661 199.495 182.139 197.76L184.543 189.085H206.961Z" fill="white"/>
<path d="M201.196 201.489H184.735C183.778 201.489 182.904 201.052 182.33 200.301C181.756 199.549 181.565 198.579 181.825 197.664L184.229 188.989C184.27 188.853 184.379 188.771 184.516 188.771H206.934C207.03 188.771 207.112 188.812 207.18 188.894C207.235 188.962 207.262 189.058 207.235 189.153L204.912 198.552C204.516 200.273 202.986 201.489 201.196 201.489ZM184.762 189.385L182.412 197.828C182.207 198.566 182.357 199.331 182.808 199.932C183.273 200.533 183.97 200.888 184.721 200.888H201.183C202.685 200.888 203.97 199.864 204.311 198.415L206.551 189.399H184.762V189.385Z" fill="#582583"/>
<path d="M231.443 242.131H143.15C142.986 242.131 142.85 241.995 142.85 241.831C142.85 241.667 142.986 241.53 143.15 241.53H231.443C231.606 241.53 231.743 241.667 231.743 241.831C231.757 241.995 231.62 242.131 231.443 242.131Z" fill="#582583"/>
<path d="M188.437 144.413H181.552C179.694 144.413 178.178 145.929 178.178 147.787H191.812C191.812 145.915 190.295 144.413 188.437 144.413Z" fill="white"/>
<path d="M191.812 148.088H178.178C178.015 148.088 177.878 147.951 177.878 147.787C177.878 145.765 179.531 144.112 181.553 144.112H188.438C190.46 144.112 192.113 145.765 192.113 147.787C192.113 147.951 191.976 148.088 191.812 148.088ZM178.493 147.473H191.484C191.334 145.915 190.023 144.713 188.438 144.713H181.553C179.954 144.713 178.643 145.929 178.493 147.473Z" fill="#582583"/>
<path d="M243.684 144.413H236.799C234.941 144.413 233.425 145.929 233.425 147.787H247.059C247.045 145.915 245.542 144.413 243.684 144.413Z" fill="#582583"/>
<path d="M247.045 148.088H233.411C233.247 148.088 233.11 147.951 233.11 147.787C233.11 145.765 234.763 144.112 236.785 144.112H243.684C245.706 144.112 247.359 145.765 247.359 147.787C247.359 147.951 247.222 148.088 247.045 148.088ZM233.739 147.473H246.731C246.58 145.915 245.269 144.713 243.684 144.713H236.785C235.201 144.713 233.889 145.929 233.739 147.473Z" fill="#582583"/>
<path d="M241.88 144.235L242.987 137.637C243.779 132.951 240.623 129.167 235.938 129.167H194.613C189.94 129.167 185.5 132.965 184.722 137.637L183.615 144.235H186.785L187.645 139.098C188.26 135.451 191.703 132.5 195.35 132.5H234.107C237.755 132.5 240.2 135.451 239.585 139.098L238.725 144.235H241.88Z" fill="white"/>
<path d="M241.881 144.536H238.711C238.616 144.536 238.534 144.495 238.479 144.426C238.424 144.358 238.397 144.262 238.411 144.18L239.271 139.044C239.558 137.35 239.162 135.779 238.165 134.59C237.195 133.429 235.747 132.801 234.094 132.801H195.337C191.84 132.801 188.52 135.642 187.932 139.139L187.072 144.276C187.044 144.426 186.922 144.536 186.771 144.536H183.602C183.506 144.536 183.424 144.495 183.37 144.426C183.315 144.358 183.288 144.262 183.301 144.18L184.408 137.582C185.214 132.773 189.79 128.853 194.599 128.853H235.924C238.26 128.853 240.31 129.754 241.689 131.394C243.11 133.074 243.67 135.301 243.26 137.678L242.154 144.276C242.154 144.426 242.031 144.536 241.881 144.536ZM239.08 143.921H241.621L242.687 137.568C243.055 135.369 242.55 133.32 241.238 131.776C239.968 130.273 238.083 129.44 235.938 129.44H194.613C190.077 129.44 185.774 133.128 185.009 137.664L183.957 143.907H186.498L187.318 139.03C187.96 135.26 191.539 132.186 195.323 132.186H234.08C235.911 132.186 237.523 132.896 238.616 134.194C239.736 135.519 240.173 137.268 239.859 139.139L239.08 143.921Z" fill="#582583"/>
<path d="M233.888 126.421H197.59C196.129 126.421 194.735 127.609 194.489 129.071L193.957 132.241C193.711 133.702 194.694 134.891 196.156 134.891H232.454C233.916 134.891 235.309 133.702 235.555 132.241L236.088 129.071C236.334 127.609 235.35 126.421 233.888 126.421Z" fill="white"/>
<path d="M232.467 135.191H196.155C195.363 135.191 194.666 134.877 194.188 134.317C193.71 133.743 193.519 132.992 193.642 132.186L194.175 129.017C194.448 127.418 195.964 126.107 197.563 126.107H233.874C234.666 126.107 235.363 126.421 235.841 126.981C236.319 127.555 236.511 128.306 236.388 129.112L235.855 132.282C235.595 133.894 234.065 135.191 232.467 135.191ZM197.59 126.721C196.265 126.721 195.022 127.801 194.789 129.112L194.257 132.282C194.147 132.91 194.297 133.484 194.666 133.921C195.022 134.344 195.554 134.577 196.169 134.577H232.481C233.806 134.577 235.049 133.497 235.281 132.186L235.814 129.017C235.923 128.388 235.773 127.814 235.404 127.377C235.049 126.954 234.516 126.721 233.901 126.721H197.59Z" fill="#582583"/>
<path d="M211.648 135.191H196.156C195.364 135.191 194.667 134.877 194.189 134.317C193.711 133.743 193.52 132.992 193.643 132.186L194.176 129.017C194.449 127.418 195.965 126.107 197.563 126.107H209.667C209.831 126.107 209.968 126.243 209.968 126.407C209.968 126.571 209.831 126.708 209.667 126.708H197.563C196.238 126.708 194.995 127.787 194.763 129.098L194.23 132.268C194.121 132.896 194.271 133.47 194.64 133.907C194.995 134.331 195.528 134.563 196.143 134.563H211.635C211.798 134.563 211.935 134.7 211.935 134.864C211.935 135.027 211.812 135.191 211.648 135.191Z" fill="#582583"/>
<path d="M246.293 242.131C246.184 242.131 246.088 242.077 246.034 241.981C245.952 241.831 246.006 241.653 246.143 241.571L260.214 233.552V154.057C260.214 153.894 260.351 153.757 260.515 153.757C260.678 153.757 260.815 153.894 260.815 154.057V233.73C260.815 233.839 260.76 233.935 260.665 233.989L246.43 242.104C246.402 242.118 246.348 242.131 246.293 242.131Z" fill="#582583"/>
<path d="M245.746 145.97C245.746 145.97 252.085 148.333 254.558 146.339C257.044 144.344 250.705 140.997 249.216 141.243C247.727 141.503 245.746 145.97 245.746 145.97Z" fill="#582583"/>
<path d="M213.914 196.64L219.87 207.077L223.094 202.596L217.876 192.405L213.914 196.64Z" fill="white"/>
<path d="M219.871 207.377H219.857C219.748 207.377 219.666 207.309 219.611 207.227L213.655 196.79C213.587 196.681 213.6 196.53 213.696 196.435L217.671 192.213C217.74 192.145 217.835 192.104 217.931 192.118C218.027 192.131 218.109 192.186 218.163 192.282L223.382 202.473C223.436 202.569 223.423 202.691 223.354 202.787L220.13 207.254C220.062 207.323 219.966 207.377 219.871 207.377ZM214.283 196.681L219.898 206.517L222.74 202.582L217.808 192.937L214.283 196.681Z" fill="#582583"/>
<path d="M217.809 205.478C219.38 208.716 223.355 216.585 227.194 220.355C228.123 221.271 229.708 220.847 230.049 219.577C231.251 215.041 232.044 205.574 227.577 198.129C227.577 198.129 225.445 197.883 221.47 198.62L222.358 202.35L221.866 201.995C221.129 201.476 220.131 201.517 219.448 202.104L218.301 203.088C217.618 203.675 217.413 204.659 217.809 205.478Z" fill="#582583"/>
<path d="M227.822 219.303C227.781 219.303 227.754 219.303 227.713 219.29C227.563 219.235 227.481 219.058 227.535 218.894C230.923 209.918 226.347 199.344 226.306 199.249C226.238 199.099 226.306 198.921 226.456 198.853C226.606 198.784 226.784 198.853 226.852 199.003C226.893 199.112 231.579 209.905 228.095 219.112C228.054 219.222 227.945 219.303 227.822 219.303Z" fill="white"/>
<path d="M220.118 210.301C220.022 210.301 219.926 210.246 219.858 210.164C219.762 210.028 219.803 209.836 219.954 209.741L222.932 207.801C223.068 207.705 223.26 207.746 223.355 207.896C223.451 208.033 223.41 208.224 223.26 208.32L220.282 210.26C220.227 210.287 220.172 210.301 220.118 210.301Z" fill="white"/>
<path d="M221.606 212.951C221.511 212.951 221.429 212.91 221.36 212.828C221.265 212.691 221.279 212.5 221.415 212.405L224.147 210.301C224.284 210.205 224.475 210.219 224.571 210.355C224.666 210.492 224.653 210.683 224.516 210.779L221.784 212.883C221.743 212.937 221.675 212.951 221.606 212.951Z" fill="white"/>
<path d="M195.036 196.885C195.036 197.131 189.571 209.058 189.571 209.058L195.787 209.549L200.008 199.358L195.036 196.885Z" fill="white"/>
<path d="M195.773 209.864C195.76 209.864 195.76 209.864 195.746 209.864L189.53 209.372C189.434 209.358 189.339 209.303 189.298 209.222C189.243 209.14 189.243 209.03 189.284 208.935C191.388 204.331 194.571 197.336 194.721 196.831C194.735 196.749 194.79 196.667 194.858 196.626C194.954 196.571 195.063 196.571 195.158 196.612L200.131 199.099C200.268 199.167 200.336 199.344 200.281 199.481L196.06 209.672C196.005 209.782 195.896 209.864 195.773 209.864ZM190.022 208.784L195.582 209.235L199.612 199.508L195.186 197.295C194.858 198.129 193.738 200.683 190.022 208.784Z" fill="#582583"/>
<path d="M195.282 206.571C195.282 206.571 194.039 203.593 190.815 205.082C190.815 205.082 184.886 213.648 182.686 220.724C182.058 222.719 184.121 224.522 186.02 223.661C190.487 221.64 197.481 217.405 201.498 209.549C201.498 209.549 200.255 206.325 198.274 204.823L195.282 206.571Z" fill="#582583"/>
<path d="M184.503 221.804C184.244 221.804 184.093 221.79 184.066 221.776C183.902 221.749 183.779 221.599 183.807 221.435C183.834 221.271 183.984 221.148 184.148 221.175C184.216 221.189 190.815 221.94 199.749 209.618C199.845 209.481 200.036 209.454 200.173 209.549C200.309 209.645 200.337 209.836 200.241 209.973C192.276 220.97 186.17 221.804 184.503 221.804Z" fill="white"/>
<path d="M189.572 215.082C189.518 215.082 189.463 215.069 189.422 215.041L186.444 213.306C186.293 213.224 186.253 213.033 186.334 212.896C186.416 212.746 186.608 212.705 186.744 212.787L189.722 214.522C189.873 214.604 189.914 214.795 189.832 214.932C189.777 215.028 189.668 215.082 189.572 215.082Z" fill="white"/>
<path d="M191.061 212.842C191.006 212.842 190.965 212.828 190.91 212.801L187.686 211.066C187.536 210.984 187.481 210.806 187.563 210.656C187.645 210.506 187.823 210.451 187.973 210.533L191.197 212.268C191.348 212.35 191.402 212.528 191.32 212.678C191.266 212.787 191.17 212.842 191.061 212.842Z" fill="white"/>
<path d="M226.825 136.749C226.825 136.749 210.637 139.645 198.97 151.885C196.019 154.973 194.981 159.426 196.252 163.497C198.847 171.858 204.489 187.145 213.916 198.634L221.115 192.418C221.115 192.418 219.38 178.006 214.653 169.058C209.94 160.109 237.509 140.724 237.509 140.724L226.825 136.749Z" fill="white"/>
<path d="M213.916 198.921C213.902 198.921 213.902 198.921 213.889 198.921C213.807 198.907 213.738 198.88 213.684 198.812C204.176 187.227 198.506 171.762 195.965 163.579C194.667 159.399 195.733 154.836 198.752 151.667C210.35 139.495 226.607 136.476 226.771 136.448C226.826 136.435 226.88 136.448 226.935 136.462L237.618 140.437C237.727 140.478 237.796 140.574 237.809 140.683C237.823 140.793 237.768 140.902 237.686 140.97C237.413 141.161 210.391 160.301 214.927 168.907C219.613 177.801 221.402 192.227 221.416 192.377C221.43 192.473 221.389 192.582 221.307 192.637L214.107 198.853C214.053 198.894 213.984 198.921 213.916 198.921ZM226.799 137.063C225.555 137.309 210.227 140.506 199.189 152.09C196.32 155.096 195.309 159.426 196.539 163.402C199.039 171.489 204.626 186.708 213.943 198.183L220.788 192.282C220.583 190.683 218.752 177.473 214.38 169.194C209.886 160.656 233.11 143.497 236.853 140.806L226.799 137.063Z" fill="#582583"/>
<path d="M193.043 199.126L201.486 201.612C201.486 201.612 216.882 169.058 221.363 164.344C225.83 159.618 234.532 151.926 243.712 149.181C252.906 146.448 252.906 139.495 252.906 139.495L237.264 135.028C237.264 135.028 215.406 144.467 208.207 155.15C200.994 165.82 193.043 199.126 193.043 199.126Z" fill="white"/>
<path d="M201.485 201.913C201.458 201.913 201.43 201.913 201.403 201.899L192.961 199.413C192.81 199.372 192.715 199.208 192.756 199.058C192.838 198.73 200.802 165.588 207.947 154.973C215.119 144.331 236.922 134.836 237.141 134.741C237.209 134.713 237.277 134.713 237.346 134.727L252.988 139.194C253.124 139.235 253.206 139.344 253.206 139.481C253.206 139.549 253.097 146.694 243.794 149.467C233.534 152.514 224.19 161.776 221.567 164.549C217.182 169.181 201.909 201.421 201.745 201.749C201.717 201.844 201.608 201.913 201.485 201.913ZM193.411 198.907L201.335 201.243C202.838 198.06 216.84 168.675 221.144 164.126C223.794 161.339 233.22 151.981 243.63 148.88C251.581 146.517 252.482 140.902 252.592 139.7L237.277 135.328C235.679 136.038 215.269 145.178 208.452 155.301C201.704 165.301 194.204 195.656 193.411 198.907Z" fill="#582583"/>
<path d="M265.569 113.88C261.347 105.437 254.394 104.194 254.394 104.194L242.468 103.197C238.738 102.951 234.776 105.246 233.301 108.689L222.345 134.262C222.345 134.262 224.585 140.232 234.517 141.216C244.449 142.213 251.279 141.585 254.517 145.56C256.648 148.183 256.58 130.697 255.35 116.872L265.569 113.88Z" fill="white"/>
<path d="M254.926 146.134C254.749 146.134 254.53 146.052 254.284 145.751C251.866 142.773 247.194 142.445 240.719 142.008C238.847 141.885 236.73 141.735 234.489 141.516C224.476 140.519 222.153 134.618 222.071 134.358C222.044 134.29 222.044 134.208 222.071 134.126L233.028 108.552C234.53 105.055 238.588 102.623 242.495 102.883L254.421 103.88C254.517 103.893 261.607 105.246 265.842 113.743C265.883 113.825 265.883 113.921 265.842 114.003C265.801 114.085 265.732 114.153 265.651 114.167L255.678 117.09C256.538 126.926 257.235 145.232 255.145 146.079C255.077 146.12 255.008 146.134 254.926 146.134ZM222.686 134.262C223.055 135.055 225.678 140.027 234.558 140.915C236.784 141.134 238.902 141.284 240.773 141.407C247.399 141.858 252.181 142.186 254.763 145.369C254.872 145.506 254.926 145.519 254.94 145.519C254.967 145.505 255.883 145.041 255.924 135.833C255.951 130.26 255.623 123.183 255.077 116.899C255.063 116.749 255.159 116.626 255.295 116.585L265.159 113.689C261.033 105.765 254.435 104.495 254.366 104.481L242.467 103.497C238.82 103.251 235.008 105.533 233.615 108.798L222.686 134.262Z" fill="#582583"/>
<path d="M233.682 135.915L239.146 133.429L243.367 135.164C243.367 135.164 266.25 132.869 256.127 116.653C256.086 116.585 263.859 114.385 263.859 114.385C263.859 114.385 273.094 136.407 243.873 136.899C243.873 136.899 242.384 137.391 240.389 136.407C238.408 135.41 234.925 137.404 233.682 135.915Z" fill="white"/>
<path d="M242.876 137.336C242.22 137.336 241.305 137.2 240.253 136.68C239.406 136.257 238.217 136.435 237.056 136.612C235.595 136.831 234.228 137.036 233.45 136.107C233.395 136.038 233.368 135.943 233.381 135.847C233.409 135.751 233.463 135.683 233.545 135.642L239.01 133.156C239.092 133.115 239.174 133.115 239.256 133.156L243.409 134.863C244.392 134.754 254.761 133.402 257.644 127.5C259.064 124.59 258.463 120.997 255.854 116.817C255.799 116.735 255.799 116.639 255.827 116.544C255.895 116.353 255.922 116.312 263.75 114.098C263.901 114.057 264.051 114.126 264.119 114.276C264.16 114.358 267.685 122.978 263.368 129.59C260.171 134.481 253.627 137.049 243.901 137.213C243.791 137.241 243.422 137.336 242.876 137.336ZM238.914 135.806C239.488 135.806 240.034 135.888 240.526 136.134C242.37 137.049 243.764 136.612 243.778 136.612C243.805 136.598 243.832 136.598 243.873 136.598C253.409 136.435 259.802 133.962 262.89 129.249C266.633 123.525 264.215 116.189 263.682 114.754C261.155 115.465 257.657 116.475 256.592 116.803C259.16 121.038 259.693 124.727 258.204 127.76C255.034 134.221 243.873 135.41 243.409 135.465C243.354 135.465 243.313 135.465 243.258 135.437L239.16 133.743L234.256 135.97C234.884 136.298 235.895 136.148 236.961 135.997C237.616 135.915 238.286 135.806 238.914 135.806Z" fill="#582583"/>
<path d="M212.863 137.883H234.407L218.437 113.306C217.931 112.541 217.071 112.077 216.128 112.077H198.642C197.535 112.077 196.852 113.265 197.453 114.18L212.863 137.883Z" fill="#582583"/>
<path d="M212.996 122.196C213.44 121.513 212.764 120.286 211.487 119.455C210.209 118.624 208.813 118.504 208.369 119.187C207.925 119.87 208.6 121.097 209.878 121.928C211.155 122.759 212.551 122.879 212.996 122.196Z" fill="white"/>
<path d="M211.921 122.937C210.65 122.937 209.066 122.022 208.301 120.847C207.877 120.205 207.782 119.563 208.041 119.085C208.273 118.661 208.751 118.429 209.38 118.429C210.65 118.429 212.235 119.344 213 120.519C213.424 121.161 213.519 121.803 213.26 122.281C213.041 122.705 212.563 122.937 211.921 122.937ZM209.394 119.044C208.997 119.044 208.71 119.167 208.588 119.385C208.437 119.659 208.533 120.068 208.82 120.519C209.462 121.503 210.883 122.336 211.935 122.336C212.331 122.336 212.618 122.213 212.741 121.995C212.891 121.721 212.795 121.312 212.508 120.861C211.866 119.877 210.432 119.044 209.394 119.044Z" fill="#582583"/>
<path d="M214.38 139.727H247.522C248.396 139.727 249.106 139.016 249.106 138.142V137.732H212.781V138.142C212.781 139.016 213.492 139.727 214.38 139.727Z" fill="#582583"/>
<path d="M256.634 46.0521C265.759 43.1696 277.549 56.257 275.172 67.0357C274.516 70.0002 275.24 74.4947 271.989 76.1341C266.21 79.0439 262.59 75.5193 261.101 77.8554C259.817 79.8772 264.38 82.8007 263.833 87.0494C263.013 93.3472 251.702 96.3936 250.418 96.7352C249.461 96.9947 235.964 100.437 229.557 93.2515C228.013 91.5166 225.992 88.1696 227.071 86.0384C228.109 84.0166 231.265 84.4401 232.043 82.3089C232.713 80.4647 230.582 79.4264 230.8 77.3362C231.21 73.3198 239.516 73.1013 240.486 68.8936C241.265 65.5193 236.429 63.5384 237.262 60.1914C237.931 57.5002 241.401 57.4319 246.948 53.9756C253.587 49.8772 253.177 47.145 256.634 46.0521Z" fill="#582583"/>
<path d="M246.443 102.459C246.224 102.35 243.232 98.8253 241.483 96.7488C241.62 96.175 241.593 95.9837 241.552 95.1094C241.552 95.1094 242.453 94.2078 242.098 93.0193C241.675 91.6531 240.377 92.746 240.377 92.746C240.377 92.746 239.776 91.6941 237.508 93.5111C235.24 95.328 232.85 93.1149 232.85 93.1149C232.85 93.1149 232.85 94.481 234.052 96.134C234.708 97.0493 234.817 98.2515 234.858 99.3717L236.128 99.1941C236.825 100.027 237.344 100.424 238.3 100.82C238.3 100.82 239.065 100.683 239.844 100.027L241.238 103.197L239.817 103.948C239.817 103.948 239.503 105.943 243.218 106.435C246.948 106.926 249.926 103.948 249.926 103.948C249.926 103.948 247.932 103.197 246.443 102.459Z" fill="white"/>
<path d="M244.079 106.79C243.792 106.79 243.491 106.776 243.177 106.735C241.593 106.53 240.5 106.025 239.912 105.246C239.407 104.563 239.502 103.935 239.502 103.907C239.516 103.812 239.571 103.73 239.666 103.689L240.828 103.074L239.707 100.519C238.997 101.011 238.368 101.134 238.341 101.134C238.287 101.148 238.218 101.134 238.177 101.12C237.248 100.738 236.688 100.342 235.991 99.5356L234.885 99.6996C234.803 99.7132 234.707 99.6859 234.653 99.6313C234.584 99.5766 234.543 99.4947 234.543 99.4127C234.516 98.3061 234.407 97.1722 233.792 96.3389C232.549 94.6313 232.535 93.2105 232.535 93.1422C232.535 93.0192 232.603 92.91 232.713 92.869C232.822 92.8143 232.945 92.8417 233.041 92.9236C233.136 93.0056 235.267 94.9318 237.303 93.3061C238.382 92.4455 239.27 92.063 239.94 92.1996C240.131 92.2406 240.281 92.3089 240.39 92.3908C240.664 92.2132 241.155 91.9673 241.62 92.1039C241.975 92.2132 242.235 92.5001 242.371 92.9646C242.713 94.0712 242.098 94.9591 241.852 95.246V95.2597C241.893 95.9564 241.907 96.2023 241.811 96.6941C245.8 101.421 246.483 102.131 246.593 102.227C248.054 102.951 250.008 103.689 250.021 103.689C250.117 103.73 250.185 103.812 250.213 103.907C250.24 104.003 250.199 104.112 250.131 104.18C250.022 104.276 247.467 106.79 244.079 106.79ZM240.117 104.126C240.131 104.29 240.185 104.577 240.418 104.891C240.896 105.519 241.879 105.943 243.259 106.12C246.06 106.489 248.464 104.768 249.352 104.044C248.669 103.771 247.358 103.251 246.319 102.719C246.224 102.664 246.005 102.568 241.265 96.9264C241.21 96.858 241.183 96.7624 241.196 96.6668C241.306 96.1613 241.306 96.0111 241.265 95.2597L241.251 95.1231C241.251 95.0411 241.278 94.9591 241.333 94.8908C241.36 94.8635 242.098 94.0985 241.797 93.1012C241.715 92.8417 241.606 92.6914 241.456 92.6367C241.169 92.5548 240.732 92.828 240.568 92.9646C240.5 93.0192 240.404 93.0466 240.322 93.0329C240.226 93.0192 240.158 92.9646 240.117 92.8826C240.117 92.8826 240.035 92.7734 239.817 92.746C239.543 92.705 238.888 92.7733 237.699 93.7433C235.978 95.1231 234.175 94.358 233.259 93.7843C233.382 94.3034 233.669 95.0821 234.297 95.9428C234.926 96.8171 235.09 97.9236 235.144 99.0165L236.073 98.8799C236.183 98.8663 236.278 98.9072 236.347 98.9892C237.016 99.7815 237.481 100.137 238.314 100.492C238.519 100.437 239.079 100.26 239.639 99.7815C239.707 99.7269 239.817 99.6996 239.899 99.7132C239.994 99.7406 240.062 99.7952 240.103 99.8908L241.497 103.06C241.565 103.211 241.497 103.374 241.36 103.456L240.117 104.126Z" fill="#582583"/>
<path d="M239.844 100.328C239.762 100.328 239.681 100.301 239.612 100.232C239.503 100.109 239.517 99.9182 239.64 99.8089L240.049 99.4401C240.172 99.3308 240.364 99.3444 240.473 99.4674C240.582 99.5903 240.568 99.7816 240.446 99.8909L240.036 100.26C239.981 100.314 239.913 100.328 239.844 100.328Z" fill="#582583"/>
<path d="M119.953 59.3854L106.62 90.2597L118.41 86.3663L124.912 96.9674L132.918 63.9892L119.953 59.3854Z" fill="white"/>
<path d="M124.913 97.2679C124.804 97.2679 124.708 97.2133 124.654 97.1176L118.274 86.7215L106.716 90.5329C106.607 90.5739 106.484 90.5329 106.402 90.451C106.32 90.369 106.307 90.2324 106.348 90.1231L119.681 59.2488C119.749 59.0985 119.913 59.0302 120.063 59.0849L133.028 63.6887C133.178 63.7433 133.26 63.8936 133.219 64.0439L125.214 97.022C125.186 97.145 125.091 97.2269 124.968 97.2543C124.94 97.2679 124.927 97.2679 124.913 97.2679ZM118.41 86.0657C118.52 86.0657 118.615 86.1204 118.67 86.216L124.79 96.1887L132.55 64.1805L120.118 59.7679L107.167 89.7543L118.315 86.0794C118.342 86.0657 118.383 86.0657 118.41 86.0657Z" fill="#582583"/>
<path d="M131.702 65.1229L140.814 97.5L147.508 87.0355L159.243 91.1612L144.653 60.5191L131.702 65.1229Z" fill="white"/>
<path d="M140.814 97.8006C140.8 97.8006 140.786 97.8006 140.773 97.8006C140.65 97.7869 140.554 97.6913 140.527 97.582L131.401 65.2186C131.36 65.0683 131.442 64.9044 131.592 64.8497L144.543 60.2459C144.693 60.1913 144.857 60.2596 144.926 60.3962L159.516 91.0246C159.571 91.1339 159.543 91.2705 159.461 91.3525C159.379 91.4481 159.256 91.4754 159.133 91.4344L147.631 87.3907L141.073 97.6503C141.019 97.7459 140.923 97.8006 140.814 97.8006ZM132.071 65.3142L140.937 96.7623L147.262 86.8716C147.344 86.7487 147.48 86.7077 147.617 86.7486L158.655 90.6284L144.502 60.9017L132.071 65.3142Z" fill="#582583"/>
<path d="M158.204 51.489L154.57 55.9153L156.237 61.3797L151.182 64.0573L150.635 69.7677L144.939 70.3142L142.261 75.3688L136.797 73.6885L132.37 77.3224L127.958 73.6885L122.493 75.3688L119.816 70.3142L114.119 69.7677L113.573 64.0573L108.518 61.3797L110.185 55.9153L106.551 51.489L110.185 47.0765L108.518 41.5983L113.573 38.9207L114.119 33.224L119.816 32.6776L122.493 27.6093L127.958 29.2896L132.37 25.6557L136.797 29.2896L142.261 27.6093L144.939 32.6776L150.635 33.224L151.182 38.9207L156.237 41.5983L154.556 47.0765L158.204 51.489Z" fill="#582583"/>
<path d="M132.219 69.9452C142.322 69.9452 150.511 61.7555 150.511 51.6529C150.511 41.5503 142.322 33.3605 132.219 33.3605C122.117 33.3605 113.927 41.5503 113.927 51.6529C113.927 61.7555 122.117 69.9452 132.219 69.9452Z" fill="white"/>
<path d="M132.22 70.2459C121.974 70.2459 113.627 61.8989 113.627 51.653C113.627 41.3934 121.96 33.0601 132.22 33.0601C142.466 33.0601 150.813 41.4071 150.813 51.653C150.813 61.8989 142.466 70.2459 132.22 70.2459ZM132.22 33.6612C122.302 33.6612 114.242 41.7349 114.242 51.653C114.242 61.571 122.315 69.6448 132.22 69.6448C142.138 69.6448 150.198 61.571 150.198 51.653C150.198 41.7213 142.138 33.6612 132.22 33.6612Z" fill="#582583"/>
<path d="M131.318 60.9016C131.073 60.9016 130.84 60.8059 130.663 60.6283L123.641 53.3333C123.286 52.9644 123.299 52.3906 123.668 52.0491C124.037 51.6939 124.611 51.7076 124.952 52.0764L131.196 58.5655L140.185 45.4917C140.471 45.0819 141.032 44.9726 141.455 45.2595C141.865 45.5464 141.974 46.1065 141.687 46.53L132.07 60.5191C131.92 60.7513 131.66 60.8879 131.4 60.9152C131.373 60.9016 131.346 60.9016 131.318 60.9016Z" fill="#582583"/>
<path d="M204.544 49.3034L201.211 49.8225L199.052 47.4728C198.588 46.9673 197.686 47.2405 197.536 47.9236L196.812 51.1203L193.711 52.5274C193.041 52.828 192.973 53.7159 193.601 54.0301L196.497 55.4919L196.743 58.7023C196.798 59.399 197.645 59.6722 198.191 59.1804L200.705 56.8853L203.956 57.4591C204.653 57.582 205.254 56.8717 204.967 56.2433L203.629 53.3607L205.405 50.5056C205.76 49.9181 205.268 49.1941 204.544 49.3034Z" fill="#582583"/>
<path d="M217.646 42.1585L214.367 42.8143L212.154 40.5329C211.676 40.041 210.801 40.3416 210.678 41.052L210.064 44.317L207.044 45.8607C206.389 46.1886 206.361 47.0902 206.976 47.3908L209.872 48.7569L210.214 51.9946C210.282 52.6913 211.143 52.9509 211.662 52.4181L214.066 50.0001L217.304 50.4645C218.001 50.5602 218.561 49.8225 218.26 49.2077L216.84 46.3389L218.493 43.388C218.848 42.7323 218.356 42.0219 217.646 42.1585Z" fill="#582583"/>
<path d="M231.866 36.1886L228.615 36.694L226.552 34.2623C226.115 33.7432 225.241 34.0028 225.077 34.7132L224.339 38.0055L221.306 39.4263C220.65 39.7268 220.582 40.6421 221.17 40.9836L223.956 42.5137L224.148 45.8197C224.189 46.5301 225.008 46.8306 225.541 46.3252L228.014 43.9755L231.17 44.6039C231.853 44.7405 232.44 44.0028 232.167 43.3607L230.91 40.3826L232.672 37.4591C233.028 36.8443 232.563 36.0929 231.866 36.1886Z" fill="#582583"/>
<path d="M245.583 30.3689L242.359 31.011L240.187 28.6612C239.722 28.1558 238.862 28.4563 238.725 29.1804L238.124 32.5L235.146 34.0438C234.504 34.3716 234.463 35.3006 235.078 35.6011L237.933 37.0219L238.261 40.3279C238.329 41.0383 239.162 41.2979 239.682 40.7787L242.045 38.3334L245.214 38.8252C245.897 38.9345 246.457 38.1694 246.157 37.541L244.763 34.6175L246.403 31.6257C246.772 30.97 246.266 30.2323 245.583 30.3689Z" fill="#582583"/>
</svg>
