<svg width="252" height="250" viewBox="0 0 252 250" fill="none" xmlns="http://www.w3.org/2000/svg">
<path d="M186.424 236.366H74.4022C69.5798 236.366 66.1509 232.473 66.7656 227.664L94.3476 10.1915C94.9624 5.38277 99.3613 1.48933 104.184 1.48933L210.577 0.246155C222.79 0.246155 224.443 5.38277 223.842 10.1779L196.26 227.651C195.645 232.473 191.247 236.366 186.424 236.366Z" fill="#582583"/>
<path d="M179.679 236.366H67.6708C62.8484 236.366 59.4194 232.459 60.0342 227.623L87.6162 9.04371C88.2309 4.2213 92.6298 0.300537 97.4522 0.300537H209.474C214.296 0.300537 217.725 4.20764 217.111 9.04371L189.529 227.623C188.914 232.459 184.501 236.366 179.679 236.366Z" fill="white"/>
<path d="M179.673 236.667H67.6644C65.26 236.667 63.1015 235.724 61.5988 234.03C60.0824 232.309 59.413 230.027 59.7272 227.582L87.3092 9.00279C87.9376 4.04378 92.4868 6.10352e-05 97.4458 6.10352e-05H209.468C211.872 6.10352e-05 214.031 0.942683 215.533 2.63667C217.05 4.35798 217.719 6.63941 217.405 9.0711L189.823 227.664C189.194 232.623 184.645 236.667 179.673 236.667ZM97.4458 0.601153C92.7737 0.601153 88.4977 4.39897 87.8966 9.0711L60.3146 227.664C60.0278 229.918 60.6425 232.049 62.0496 233.634C63.4294 235.205 65.4239 236.066 67.6644 236.066H179.673C184.345 236.066 188.621 232.268 189.222 227.596L216.804 9.00279C217.091 6.74869 216.476 4.61755 215.069 3.03285C213.689 1.46181 211.694 0.601153 209.454 0.601153H97.4458Z" fill="#582583"/>
<path d="M66.4091 227.923L92.7479 19.2076C92.8845 18.0874 93.9091 17.1857 95.0157 17.1857H207.639C208.759 17.1857 209.538 18.0874 209.401 19.2076L183.062 227.923C182.926 229.044 181.901 229.945 180.794 229.945H68.1714C67.0512 229.945 66.2725 229.044 66.4091 227.923Z" fill="white"/>
<path d="M152.044 11.7217C151.088 11.7217 150.227 11.3528 149.626 10.6697C149.025 9.98668 148.752 9.07138 148.875 8.11509C149.12 6.16154 150.91 4.57684 152.864 4.57684C153.82 4.57684 154.681 4.9457 155.282 5.62876C155.883 6.31182 156.156 7.22712 156.033 8.1834C155.787 10.137 153.998 11.7217 152.044 11.7217ZM152.877 5.17794C151.224 5.17794 149.694 6.53039 149.489 8.1834C149.394 8.97575 149.599 9.71346 150.09 10.2736C150.569 10.82 151.265 11.1206 152.044 11.1206C153.697 11.1206 155.227 9.7681 155.432 8.11509C155.528 7.32274 155.323 6.58504 154.831 6.02493C154.353 5.47848 153.656 5.17794 152.877 5.17794Z" fill="#582583"/>
<path d="M199.961 94.1393C199.948 94.1393 199.934 94.1393 199.92 94.1393C199.756 94.112 199.633 93.9617 199.661 93.7978L209.101 19.1667C209.155 18.7158 209.032 18.2923 208.759 17.9645C208.486 17.6503 208.09 17.4863 207.639 17.4863H95.016C94.046 17.4863 93.1581 18.2787 93.0488 19.235L88.6908 53.8251C88.6635 53.9891 88.5133 54.112 88.3493 54.0847C88.1854 54.0574 88.0624 53.9071 88.0897 53.7432L92.4477 19.153C92.6116 17.8962 93.7592 16.8716 95.016 16.8716H207.639C208.267 16.8716 208.827 17.1175 209.21 17.5546C209.606 18.0055 209.784 18.5929 209.702 19.2213L200.262 93.8525C200.235 94.03 200.112 94.1393 199.961 94.1393Z" fill="#582583"/>
<path d="M75.8454 150.847C75.8317 150.847 75.818 150.847 75.8044 150.847C75.6405 150.833 75.5175 150.683 75.5448 150.506L76.3918 143.484C76.4055 143.32 76.5694 143.197 76.7334 143.224C76.8973 143.238 77.0202 143.388 76.9929 143.566L76.1459 150.588C76.1323 150.738 75.9956 150.847 75.8454 150.847Z" fill="#582583"/>
<path d="M70.5631 195.328C70.5495 195.328 70.5358 195.328 70.5222 195.328C70.3582 195.301 70.2353 195.15 70.2626 194.986L74.7845 159.112C74.8118 158.948 74.9621 158.839 75.126 158.853C75.2899 158.88 75.4129 159.03 75.3856 159.194L70.8637 195.068C70.8364 195.219 70.7134 195.328 70.5631 195.328Z" fill="#582583"/>
<path d="M98.385 230.342L68.1664 230.246C67.538 230.246 66.9915 230 66.5954 229.563C66.1992 229.112 66.0216 228.525 66.1036 227.896L68.8085 206.476C68.8358 206.312 68.9861 206.202 69.15 206.216C69.314 206.243 69.4369 206.394 69.4096 206.558L66.7047 227.965C66.65 228.416 66.773 228.839 67.0462 229.167C67.3194 229.481 67.7156 229.645 68.1664 229.645L98.385 229.741C98.5489 229.741 98.6855 229.877 98.6855 230.041C98.6855 230.219 98.5489 230.342 98.385 230.342Z" fill="#582583"/>
<path d="M192.8 39.8498H132.227C131.011 39.8498 129.836 39.3306 129.03 38.429C128.21 37.5274 127.814 36.3115 127.937 35.0957C128.156 32.8826 130.014 31.2159 132.227 31.2159H192.8C194.016 31.2159 195.191 31.735 195.997 32.6366C196.803 33.5383 197.213 34.7541 197.09 35.97C196.871 38.1831 195.027 39.8498 192.8 39.8498ZM132.227 31.817C130.314 31.817 128.729 33.2514 128.524 35.164C128.415 36.2022 128.757 37.2541 129.467 38.0328C130.164 38.8115 131.175 39.2623 132.227 39.2623H192.8C194.713 39.2623 196.298 37.8279 196.503 35.9153C196.612 34.8771 196.27 33.8252 195.56 33.0465C194.863 32.2678 193.852 31.817 192.8 31.817H132.227Z" fill="#582583"/>
<path d="M191.194 55.6013H142.655C141.44 55.6013 140.265 55.0822 139.459 54.1805C138.639 53.2789 138.243 52.063 138.366 50.8472C138.584 48.6341 140.442 46.9674 142.655 46.9674H191.194C192.409 46.9674 193.584 47.4865 194.39 48.3882C195.21 49.2898 195.606 50.5057 195.483 51.7215C195.265 53.9346 193.42 55.6013 191.194 55.6013ZM142.669 47.5685C140.756 47.5685 139.172 49.0029 138.967 50.9155C138.858 51.9537 139.199 53.0057 139.909 53.7843C140.606 54.563 141.617 55.0139 142.669 55.0139H191.207C193.12 55.0139 194.705 53.5794 194.909 51.6669C195.019 50.6286 194.677 49.5767 193.967 48.798C193.27 48.0193 192.259 47.5685 191.207 47.5685H142.669Z" fill="#582583"/>
<path d="M115.147 164.632C111.964 165.082 108.931 162.419 108.412 158.675L101.923 112.419L113.426 110.779L119.915 157.118C120.447 160.834 118.303 164.181 115.147 164.632Z" fill="white"/>
<path d="M114.452 164.987C113.236 164.987 112.034 164.577 110.996 163.784C109.465 162.623 108.414 160.779 108.127 158.716L101.638 112.459C101.61 112.295 101.733 112.145 101.897 112.118L113.4 110.478C113.482 110.465 113.564 110.492 113.618 110.533C113.687 110.588 113.728 110.656 113.741 110.738L120.231 157.077C120.763 160.929 118.509 164.454 115.19 164.918C114.944 164.959 114.698 164.987 114.452 164.987ZM102.266 112.678L108.7 158.634C108.96 160.533 109.93 162.241 111.337 163.293C112.471 164.14 113.796 164.508 115.094 164.331C118.086 163.907 120.108 160.697 119.616 157.172L113.168 111.134L102.266 112.678Z" fill="#582583"/>
<path d="M131.067 79.0575L99.0042 85.8198L85.1654 91.5438L78.5397 96.5165L78.4851 96.5575C77.2556 97.3772 76.5179 100.205 76.7364 103.497C76.955 106.749 78.0616 109.426 79.373 110.123H79.3184L86.1627 114.03L100.548 117.76L133.54 120.027L166.354 141.598L166.6 141.721C158.376 136.189 151.559 119.016 150.179 98.3608C148.813 77.7187 153.294 59.8635 160.712 53.3334L131.436 78.7433L131.067 79.0575Z" fill="white"/>
<path d="M172.795 143.579C183.546 142.858 190.865 121.481 189.144 95.8318C187.423 70.183 177.313 49.9753 166.563 50.6966C155.813 51.4179 148.493 72.7952 150.214 98.444C151.935 124.093 162.045 144.301 172.795 143.579Z" fill="white"/>
<path d="M172.224 143.893C167.074 143.893 161.978 139.331 157.812 130.97C153.536 122.391 150.721 110.82 149.902 98.3743C148.659 79.5218 152.265 62.3223 159.082 54.5628C161.363 51.9672 163.877 50.5737 166.568 50.3961C170.776 50.1366 174.984 52.9371 178.741 58.4972C182.374 63.8797 185.325 71.4207 187.265 80.3141C187.306 80.4781 187.197 80.642 187.033 80.6693C186.869 80.7103 186.705 80.601 186.678 80.4371C182.812 62.6912 174.984 50.9699 167.101 50.9699C166.937 50.9699 166.773 50.9699 166.609 50.9835C164.082 51.1475 161.705 52.4726 159.533 54.9453C152.798 62.5956 149.26 79.6311 150.489 98.3196C152.17 123.77 162.142 143.921 172.716 143.265C175.243 143.101 177.62 141.776 179.792 139.303C186.527 131.653 190.066 114.617 188.836 95.9289C188.577 92.0081 188.112 88.1284 187.456 84.3988C187.429 84.2349 187.538 84.0846 187.702 84.0437C187.866 84.0163 188.017 84.1256 188.057 84.2896C188.713 88.0464 189.178 91.9535 189.437 95.8879C190.68 114.74 187.074 131.94 180.257 139.699C177.976 142.295 175.462 143.688 172.771 143.866C172.593 143.893 172.415 143.893 172.224 143.893Z" fill="#582583"/>
<path d="M171.938 138.497C167.376 138.497 162.854 134.454 159.165 127.049C155.381 119.467 152.895 109.221 152.171 98.2241C151.064 81.5574 154.261 66.3525 160.299 59.4809C162.321 57.1858 164.561 55.9426 166.938 55.7924C173.318 55.3962 179.739 63.1967 183.687 76.1476C183.742 76.3115 183.646 76.4754 183.482 76.5301C183.318 76.5847 183.154 76.4891 183.1 76.3251C179.234 63.6475 173.072 56.0246 166.966 56.3934C164.739 56.5301 162.649 57.7049 160.736 59.8771C154.794 66.6393 151.665 81.6667 152.758 98.1831C154.22 120.287 162.772 137.896 171.925 137.896C172.075 137.896 172.225 137.896 172.376 137.883C180.832 137.35 187.02 121.694 186.788 101.448C186.788 101.284 186.925 101.148 187.089 101.148C187.253 101.148 187.389 101.284 187.389 101.448C187.499 111.311 186.078 120.492 183.387 127.295C180.641 134.235 176.734 138.21 172.417 138.484C172.253 138.497 172.089 138.497 171.938 138.497Z" fill="#582583"/>
<path d="M164.544 108.289C167.036 108.122 168.733 103.171 168.334 97.231C167.936 91.2912 165.593 86.6116 163.101 86.7788C160.609 86.946 158.912 91.8967 159.311 97.8365C159.709 103.776 162.052 108.456 164.544 108.289Z" fill="white"/>
<path d="M164.401 108.593C161.764 108.593 159.401 103.921 159.004 97.8417C158.718 93.4154 159.565 89.3717 161.19 87.5275C161.764 86.8854 162.392 86.5302 163.089 86.4892C165.78 86.3116 168.226 91.0384 168.636 97.2406C168.922 101.667 168.075 105.711 166.45 107.555C165.876 108.197 165.248 108.552 164.551 108.593C164.496 108.593 164.455 108.593 164.401 108.593ZM163.226 87.0767C163.198 87.0767 163.157 87.0767 163.13 87.0767C162.611 87.104 162.105 87.3909 161.655 87.91C160.138 89.645 159.332 93.5111 159.619 97.787C159.988 103.456 162.242 108.129 164.524 107.978C165.043 107.951 165.548 107.664 165.999 107.145C167.515 105.41 168.321 101.544 168.034 97.2679C167.652 91.6941 165.466 87.0767 163.226 87.0767Z" fill="#582583"/>
<path d="M166.619 142.022C166.578 142.022 166.537 142.008 166.496 141.994L166.25 141.872C166.236 141.872 166.223 141.858 166.209 141.844L133.463 120.314L100.54 118.06C100.526 118.06 100.499 118.06 100.485 118.046L86.1135 114.331C86.0861 114.331 86.0588 114.317 86.0452 114.303L79.2009 110.396C79.1599 110.369 79.1326 110.341 79.1053 110.3C77.7255 109.413 76.6736 106.735 76.455 103.525C76.2364 100.137 76.9741 97.2404 78.3266 96.3251L78.3676 96.2978L85.0069 91.3114C85.0206 91.2978 85.0479 91.2841 85.0752 91.2704L98.914 85.5464C98.9277 85.5327 98.955 85.5327 98.9686 85.5327L130.963 78.7841L160.567 53.101C160.69 52.9917 160.881 53.0054 160.991 53.1283C161.045 53.183 161.072 53.265 161.072 53.3469C161.072 53.4289 161.031 53.5109 160.977 53.5518C153.409 60.2185 149.215 78.224 150.553 98.3333C151.892 118.47 158.436 135.806 166.838 141.475C166.974 141.557 167.015 141.735 166.933 141.872C166.837 141.967 166.728 142.022 166.619 142.022ZM100.622 117.459L133.586 119.727C133.641 119.727 133.682 119.754 133.736 119.781L163.286 139.208C156.305 131.694 151.086 116.093 149.911 98.3743C148.75 80.7786 151.81 64.7677 157.657 56.3934L131.277 79.2896C131.236 79.3169 131.195 79.3442 131.141 79.3579L99.1053 86.1202L85.3211 91.8032L78.6954 96.7896C78.6818 96.8032 78.6818 96.8032 78.6681 96.8169C77.5206 97.5819 76.8512 100.382 77.0561 103.484C77.261 106.53 78.2993 109.208 79.5424 109.863C79.5834 109.891 79.6244 109.918 79.6517 109.959L86.3184 113.77L100.622 117.459Z" fill="#582583"/>
<path d="M131.171 78.9755L160.734 53.3198C153.329 59.8498 148.835 77.705 150.201 98.3471C151.567 119.016 158.398 136.175 166.622 141.708L166.376 141.585L133.616 120.041L132.851 119.549C129.053 117.022 125.898 109.262 125.297 99.9181C124.682 90.328 127.387 82.1995 130.788 79.276L131.171 78.9755Z" fill="white"/>
<path d="M166.615 142.022C166.574 142.022 166.533 142.008 166.492 141.995L166.246 141.872C166.233 141.872 166.219 141.858 166.205 141.844L133.446 120.301L132.681 119.809C128.664 117.145 125.577 109.167 124.989 99.9455C124.32 89.481 127.421 81.7761 130.59 79.0575L130.959 78.7433L160.522 53.0875C160.645 52.9782 160.836 52.9919 160.946 53.1149C161 53.1695 161.028 53.2515 161.028 53.3334C161.028 53.4154 160.987 53.4974 160.932 53.5384C153.364 60.205 149.17 78.2105 150.508 98.3198C151.847 118.456 158.391 135.792 166.793 141.462C166.929 141.544 166.97 141.721 166.888 141.858C166.834 141.967 166.724 142.022 166.615 142.022ZM157.653 56.3935L131.355 79.2078L130.987 79.522C127.831 82.2269 124.976 90.1094 125.604 99.9181C126.178 108.962 129.17 116.749 133.022 119.317L133.787 119.809L163.282 139.208C156.301 131.694 151.082 116.093 149.907 98.3744C148.746 80.7788 151.806 64.7542 157.653 56.3935Z" fill="#582583"/>
<path d="M85.8022 114.126C85.7475 114.126 85.7065 114.112 85.6519 114.085L79.1765 110.383C79.1355 110.355 79.1082 110.328 79.0808 110.287C77.7011 109.399 76.6492 106.722 76.4306 103.511C76.212 100.123 76.9497 97.227 78.3022 96.3117L78.3431 96.2844L84.9825 91.298C85.1191 91.2024 85.3104 91.2297 85.406 91.3527C85.5016 91.4893 85.4743 91.6806 85.3513 91.7762L78.6983 96.7898C78.6847 96.8035 78.6847 96.8035 78.671 96.8172C77.5235 97.5822 76.8541 100.383 77.059 103.484C77.2639 106.53 78.3022 109.208 79.5453 109.864C79.5863 109.891 79.6273 109.918 79.6546 109.959L85.9934 113.579C86.1437 113.661 86.1847 113.853 86.1027 113.989C86.0207 114.071 85.9114 114.126 85.8022 114.126Z" fill="#582583"/>
<path d="M86.2583 114.017C84.1135 112.896 82.3922 108.415 82.0506 103.115C81.6818 97.5001 83.1982 92.5138 85.384 91.4619L78.5397 96.5165L78.4851 96.5575C77.2556 97.3772 76.5179 100.205 76.7364 103.497C76.955 106.749 78.0616 109.426 79.373 110.123H79.3184L86.2583 114.017Z" fill="white"/>
<path d="M86.253 114.331C86.212 114.331 86.1573 114.317 86.1164 114.29C86.0617 114.262 86.0071 114.235 85.9524 114.194L79.1765 110.383C79.1355 110.355 79.1082 110.328 79.0808 110.287C77.7011 109.399 76.6492 106.721 76.4306 103.511C76.212 100.123 76.9497 97.2269 78.3022 96.3116L78.3431 96.2843L84.3541 91.8308C84.641 91.5439 84.9278 91.3253 85.2421 91.175C85.3787 91.1067 85.5563 91.1614 85.6246 91.2843C85.7065 91.4209 85.6656 91.5848 85.5426 91.6805L84.7093 92.2952C83.0426 94.0302 82.018 98.4155 82.3322 103.074C82.6737 108.156 84.2721 112.459 86.2393 113.661L86.3896 113.743C86.5262 113.825 86.5808 114.003 86.5125 114.153C86.4716 114.262 86.3623 114.331 86.253 114.331ZM79.6273 109.946L84.4087 112.637C83.0153 110.588 82.018 107.131 81.7448 103.142C81.4852 99.2761 82.1 95.6695 83.2748 93.3881L78.6847 96.7898C78.671 96.8034 78.671 96.8034 78.6573 96.8171C77.5098 97.5821 76.8404 100.383 77.0453 103.484C77.2502 106.53 78.2885 109.208 79.5317 109.864C79.559 109.877 79.6 109.905 79.6273 109.946Z" fill="#582583"/>
<path d="M100.042 117.623L100.657 117.759C97.2822 117.049 94.4407 110.259 93.8943 102.104C93.3478 93.784 95.6292 86.7212 98.9899 85.8195L98.5254 86.0108L85.397 91.4343C83.1839 92.4452 81.6538 97.4589 82.0227 103.115C82.3779 108.565 84.2631 113.156 86.4762 114.112L100.042 117.623Z" fill="white"/>
<path d="M100.658 118.06C100.644 118.06 100.617 118.06 100.59 118.06C100.576 118.06 100.562 118.06 100.549 118.046L99.9749 117.923H99.9612L86.423 114.413C86.4093 114.413 86.3957 114.399 86.382 114.399C84.0186 113.388 82.106 108.757 81.7372 103.142C81.3547 97.418 82.8847 92.2677 85.2754 91.1748L98.1443 85.8469C98.3902 85.7103 98.6498 85.601 98.9093 85.5327C99.0596 85.4917 99.2235 85.5737 99.2782 85.724C99.3328 85.8743 99.2508 86.0382 99.1142 86.0928L98.3629 86.4071C95.494 88.0464 93.6907 94.6038 94.1962 102.09C94.729 110.164 97.5159 116.749 100.672 117.459L100.713 117.473C100.877 117.514 100.972 117.664 100.945 117.828C100.931 117.964 100.795 118.06 100.658 118.06ZM86.6142 113.825L98.5951 116.94C96.0405 114.576 94.0596 108.934 93.6088 102.131C93.1853 95.6693 94.4831 89.836 96.7372 87.0901L85.535 91.7213C83.3902 92.7049 81.9967 97.7049 82.3519 103.101C82.7071 108.388 84.4968 112.882 86.6142 113.825Z" fill="#582583"/>
<path d="M163.1 86.7764C160.614 86.9266 158.797 91.8857 159.302 97.8146C160.136 107.76 164.015 108.32 164.494 108.347C164.507 108.347 164.507 108.361 164.494 108.361L154.398 111.107C153.551 107.077 152.95 102.733 152.649 98.1971C152.362 93.8529 152.376 89.6452 152.636 85.6835L163.1 86.7764Z" fill="#582583"/>
<path d="M154.386 111.407C154.332 111.407 154.277 111.394 154.222 111.366C154.154 111.325 154.099 111.257 154.086 111.175C153.225 107.036 152.624 102.678 152.337 98.2242C152.05 93.9482 152.05 89.7269 152.323 85.6695C152.323 85.5876 152.364 85.5056 152.433 85.4646C152.501 85.41 152.569 85.3826 152.651 85.3963L163.116 86.4892C163.266 86.5029 163.389 86.6395 163.389 86.7897C163.389 86.94 163.266 87.0766 163.102 87.0903C162.556 87.1176 162.05 87.4182 161.558 87.9783C160.028 89.7542 159.236 93.6887 159.577 97.8007C160.397 107.514 164.072 108.033 164.482 108.06C164.632 108.074 164.755 108.197 164.769 108.333C164.782 108.484 164.687 108.62 164.536 108.661L154.441 111.407C154.441 111.407 154.414 111.407 154.386 111.407ZM152.911 86.0247C152.651 89.9591 152.665 94.0438 152.938 98.1832C153.225 102.5 153.785 106.721 154.618 110.738L163.416 108.347C161.968 107.637 159.646 105.342 159.004 97.8417C158.635 93.5247 159.468 89.4947 161.121 87.5821C161.34 87.3225 161.572 87.1176 161.804 86.9537L152.911 86.0247Z" fill="#582583"/>
<path d="M158.244 206.803L156.659 201.025L150.116 201.325C149.514 200.055 148.804 198.839 148.012 197.719L151.482 192.172L147.219 187.951L141.7 191.476C140.553 190.683 139.337 190 138.08 189.413L138.312 182.869L132.506 181.353L129.501 187.159C128.121 187.049 126.728 187.063 125.32 187.186L122.247 181.407L116.454 182.992L116.755 189.536C115.484 190.137 114.269 190.847 113.148 191.639L107.602 188.183L103.381 192.445L106.905 197.965C106.113 199.112 105.43 200.328 104.842 201.585L98.2986 201.353L96.7822 207.145L102.588 210.15C102.479 211.53 102.493 212.924 102.616 214.331L96.8369 217.405L98.4216 223.183L104.965 222.883C105.566 224.153 106.277 225.369 107.069 226.489L103.599 232.036L107.861 236.257L113.381 232.732C114.528 233.525 115.744 234.208 117.001 234.795L116.769 241.339L122.575 242.855L125.58 237.049C126.96 237.159 128.353 237.145 129.76 237.022L132.834 242.801L138.626 241.216L138.326 234.672C139.596 234.071 140.812 233.361 141.932 232.568L147.479 236.025L151.7 231.762L148.176 226.243C148.968 225.096 149.651 223.88 150.239 222.623L156.782 222.855L158.299 217.063L152.493 214.058C152.602 212.678 152.588 211.284 152.465 209.877L158.244 206.803ZM131.591 226.981C123.367 229.235 114.87 224.399 112.616 216.175C110.361 207.951 115.211 199.467 123.435 197.213C131.659 194.959 140.157 199.795 142.411 208.019C144.665 216.243 139.815 224.741 131.591 226.981Z" fill="white"/>
<path d="M122.556 243.156C122.529 243.156 122.501 243.156 122.474 243.142L116.668 241.626C116.531 241.585 116.436 241.462 116.449 241.325L116.668 234.987C115.52 234.44 114.4 233.798 113.348 233.088L107.993 236.503C107.87 236.585 107.72 236.558 107.624 236.462L103.362 232.241C103.266 232.145 103.239 231.981 103.321 231.872L106.682 226.489C105.971 225.451 105.316 224.344 104.755 223.183L98.403 223.47C98.2664 223.484 98.1298 223.388 98.1024 223.252L96.5177 217.473C96.4767 217.336 96.5451 217.2 96.668 217.131L102.283 214.153C102.173 212.869 102.173 211.585 102.255 210.328L96.627 207.405C96.5041 207.336 96.4358 207.2 96.4768 207.063L97.9931 201.271C98.0341 201.134 98.1571 201.038 98.2937 201.052L104.646 201.271C105.193 200.123 105.835 199.003 106.545 197.951L103.116 192.596C103.034 192.473 103.061 192.323 103.157 192.227L107.378 187.965C107.474 187.869 107.638 187.842 107.747 187.924L113.13 191.284C114.168 190.574 115.275 189.918 116.436 189.358L116.149 183.019C116.149 182.883 116.231 182.746 116.367 182.719L122.16 181.134C122.296 181.093 122.433 181.161 122.501 181.284L125.493 186.885C126.777 186.776 128.061 186.776 129.318 186.858L132.242 181.23C132.31 181.107 132.447 181.038 132.583 181.079L138.389 182.596C138.526 182.637 138.622 182.76 138.608 182.896L138.389 189.235C139.537 189.782 140.657 190.41 141.709 191.134L147.064 187.719C147.187 187.637 147.337 187.664 147.433 187.76L151.695 191.981C151.791 192.077 151.818 192.241 151.736 192.35L148.376 197.732C149.086 198.771 149.742 199.877 150.302 201.038L156.654 200.752C156.791 200.752 156.928 200.834 156.955 200.97L158.54 206.749C158.581 206.885 158.512 207.022 158.389 207.09L152.775 210.069C152.884 211.353 152.884 212.637 152.802 213.894L158.43 216.817C158.553 216.885 158.622 217.022 158.581 217.159L157.064 222.951C157.023 223.088 156.914 223.17 156.777 223.17H156.764L150.411 222.951C149.865 224.099 149.223 225.219 148.512 226.271L151.941 231.626C152.023 231.749 151.996 231.899 151.9 231.995L147.679 236.257C147.583 236.353 147.419 236.38 147.31 236.298L141.928 232.937C140.889 233.648 139.783 234.304 138.622 234.864L138.908 241.202C138.908 241.339 138.827 241.476 138.69 241.503L132.898 243.088C132.761 243.129 132.624 243.06 132.556 242.937L129.564 237.336C128.28 237.446 126.982 237.446 125.739 237.364L122.816 242.992C122.775 243.101 122.665 243.156 122.556 243.156ZM117.064 241.107L122.406 242.5L125.302 236.913C125.357 236.804 125.48 236.735 125.589 236.749C126.941 236.858 128.335 236.845 129.714 236.722C129.837 236.708 129.947 236.776 130.001 236.885L132.966 242.446L138.294 240.984L138.007 234.686C138.007 234.563 138.075 234.454 138.184 234.399C139.441 233.798 140.643 233.101 141.75 232.323C141.846 232.254 141.982 232.254 142.078 232.309L147.419 235.642L151.299 231.722L147.898 226.407C147.829 226.312 147.829 226.175 147.898 226.079C148.676 224.946 149.359 223.743 149.947 222.5C150.001 222.391 150.111 222.309 150.234 222.323L156.545 222.541L157.939 217.213L152.337 214.317C152.228 214.263 152.16 214.153 152.174 214.03C152.283 212.678 152.269 211.298 152.146 209.905C152.133 209.782 152.201 209.672 152.31 209.618L157.884 206.653L156.422 201.339L150.111 201.626C149.988 201.64 149.878 201.558 149.824 201.448C149.223 200.191 148.526 198.989 147.747 197.883C147.679 197.787 147.679 197.651 147.734 197.555L151.067 192.213L147.146 188.334L141.832 191.735C141.736 191.804 141.6 191.804 141.504 191.735C140.37 190.957 139.168 190.273 137.925 189.7C137.816 189.645 137.747 189.536 137.747 189.413L137.966 183.115L132.624 181.722L129.728 187.309C129.674 187.418 129.551 187.487 129.441 187.473C128.089 187.364 126.695 187.377 125.316 187.5C125.193 187.514 125.083 187.446 125.029 187.336L122.064 181.776L116.736 183.238L117.023 189.536C117.023 189.659 116.955 189.768 116.846 189.823C115.589 190.424 114.387 191.12 113.28 191.899C113.184 191.967 113.048 191.967 112.952 191.913L107.611 188.579L103.731 192.5L107.133 197.814C107.201 197.91 107.201 198.047 107.133 198.142C106.354 199.276 105.671 200.478 105.083 201.722C105.029 201.831 104.919 201.899 104.796 201.899L98.485 201.681L97.0915 207.008L102.693 209.905C102.802 209.959 102.87 210.069 102.857 210.191C102.747 211.544 102.761 212.924 102.884 214.317C102.898 214.44 102.829 214.549 102.72 214.604L97.1462 217.569L98.6079 222.883L104.919 222.596C105.042 222.596 105.152 222.664 105.206 222.773C105.807 224.03 106.504 225.232 107.283 226.339C107.351 226.435 107.351 226.571 107.296 226.667L103.963 232.008L107.884 235.888L113.198 232.487C113.294 232.418 113.43 232.418 113.526 232.487C114.66 233.265 115.862 233.948 117.105 234.522C117.214 234.577 117.283 234.686 117.283 234.809L117.064 241.107ZM127.529 227.842C120.616 227.842 114.25 223.252 112.337 216.271C111.231 212.213 111.764 207.978 113.84 204.331C115.917 200.683 119.305 198.06 123.362 196.954C131.736 194.659 140.411 199.604 142.706 207.965C143.813 212.022 143.28 216.257 141.204 219.905C139.127 223.552 135.739 226.175 131.682 227.282C130.302 227.651 128.908 227.842 127.529 227.842ZM127.515 196.981C126.19 196.981 124.851 197.159 123.526 197.514C119.619 198.579 116.367 201.107 114.373 204.618C112.365 208.129 111.859 212.213 112.925 216.107C115.124 224.153 123.471 228.907 131.531 226.708C135.439 225.642 138.69 223.115 140.684 219.604C142.679 216.093 143.198 212.008 142.133 208.115C140.288 201.394 134.168 196.981 127.515 196.981Z" fill="#582583"/>
<path d="M205.321 202.473L205.581 198.102L200.991 196.776C200.868 195.752 200.663 194.755 200.389 193.785L204.092 190.766L202.138 186.858L197.493 188.006C196.879 187.186 196.209 186.435 195.471 185.725L197.165 181.257L193.518 178.853L190.075 182.159C189.146 181.763 188.176 181.449 187.179 181.203L186.4 176.49L182.029 176.23L180.704 180.82C179.679 180.943 178.682 181.148 177.712 181.435L174.693 177.746L170.772 179.7L171.92 184.331C171.1 184.946 170.348 185.615 169.638 186.353L165.171 184.673L162.767 188.32L166.073 191.763C165.676 192.692 165.362 193.662 165.116 194.659L160.403 195.438L160.144 199.809L164.734 201.134C164.857 202.159 165.062 203.156 165.335 204.126L161.633 207.145L163.586 211.052L168.231 209.905C168.846 210.725 169.515 211.476 170.253 212.186L168.559 216.653L172.206 219.058L175.649 215.752C176.578 216.148 177.548 216.462 178.545 216.708L179.324 221.421L183.695 221.681L185.021 217.091C186.045 216.968 187.042 216.763 188.012 216.476L191.032 220.164L194.952 218.211L193.805 213.58C194.624 212.965 195.376 212.296 196.086 211.558L200.553 213.238L202.958 209.591L199.652 206.148C200.048 205.219 200.362 204.249 200.608 203.252L205.321 202.473ZM182.165 210.192C175.95 209.823 171.209 204.495 171.592 198.293C171.961 192.091 177.302 187.35 183.518 187.719C189.734 188.088 194.474 193.416 194.092 199.618C193.723 205.834 188.381 210.561 182.165 210.192Z" fill="white"/>
<path d="M183.676 221.968H183.662L179.291 221.708C179.154 221.694 179.031 221.599 179.018 221.462L178.28 216.94C177.392 216.722 176.531 216.435 175.712 216.093L172.406 219.263C172.31 219.358 172.146 219.372 172.037 219.304L168.389 216.899C168.266 216.817 168.225 216.667 168.266 216.544L169.892 212.254C169.25 211.626 168.649 210.957 168.102 210.246L163.649 211.353C163.512 211.38 163.375 211.325 163.307 211.189L161.354 207.282C161.285 207.159 161.326 207.008 161.436 206.913L164.974 204.017C164.728 203.156 164.55 202.268 164.441 201.366L160.042 200.096C159.906 200.055 159.81 199.932 159.824 199.795L160.083 195.424C160.097 195.287 160.192 195.164 160.329 195.151L164.851 194.413C165.069 193.525 165.356 192.664 165.698 191.845L162.528 188.552C162.433 188.457 162.419 188.293 162.487 188.183L164.892 184.536C164.974 184.413 165.124 184.372 165.247 184.427L169.537 186.039C170.165 185.396 170.834 184.795 171.559 184.249L170.466 179.809C170.438 179.672 170.493 179.536 170.63 179.467L174.55 177.514C174.673 177.446 174.824 177.487 174.919 177.596L177.815 181.134C178.676 180.888 179.564 180.711 180.466 180.601L181.736 176.202C181.777 176.066 181.9 175.984 182.037 175.984L186.408 176.243C186.545 176.257 186.668 176.353 186.682 176.489L187.419 181.011C188.307 181.23 189.168 181.517 189.988 181.858L193.294 178.689C193.389 178.593 193.553 178.58 193.662 178.648L197.31 181.052C197.433 181.134 197.474 181.284 197.433 181.407L195.807 185.697C196.449 186.325 197.05 186.995 197.597 187.705L202.05 186.599C202.187 186.571 202.324 186.626 202.392 186.763L204.345 190.67C204.414 190.793 204.373 190.943 204.263 191.039L200.725 193.935C200.971 194.795 201.149 195.683 201.258 196.585L205.657 197.855C205.794 197.896 205.889 198.019 205.875 198.156L205.616 202.528C205.602 202.664 205.507 202.787 205.37 202.801L200.848 203.539C200.63 204.427 200.343 205.287 200.001 206.107L203.171 209.399C203.266 209.495 203.28 209.659 203.212 209.768L200.807 213.416C200.725 213.539 200.575 213.58 200.452 213.525L196.162 211.913C195.534 212.555 194.851 213.156 194.141 213.702L195.233 218.142C195.261 218.279 195.206 218.416 195.069 218.484L191.149 220.437C191.026 220.506 190.875 220.465 190.78 220.355L187.884 216.817C187.023 217.063 186.135 217.241 185.233 217.35L183.963 221.749C183.936 221.886 183.813 221.968 183.676 221.968ZM179.564 221.121L183.457 221.353L184.714 216.995C184.742 216.872 184.851 216.79 184.974 216.776C185.985 216.653 186.968 216.462 187.911 216.175C188.02 216.148 188.157 216.175 188.225 216.271L191.094 219.782L194.578 218.033L193.485 213.634C193.457 213.511 193.498 213.388 193.594 213.32C194.386 212.719 195.151 212.049 195.835 211.339C195.916 211.257 196.039 211.216 196.162 211.271L200.411 212.869L202.556 209.618L199.414 206.353C199.332 206.271 199.304 206.134 199.359 206.025C199.742 205.123 200.069 204.167 200.302 203.183C200.329 203.06 200.425 202.978 200.548 202.951L205.028 202.213L205.261 198.334L200.903 197.077C200.78 197.049 200.698 196.94 200.684 196.817C200.561 195.806 200.37 194.823 200.083 193.88C200.056 193.757 200.083 193.634 200.179 193.566L203.69 190.697L201.941 187.213L197.528 188.306C197.406 188.334 197.283 188.293 197.214 188.197C196.613 187.405 195.944 186.653 195.22 185.957C195.138 185.875 195.097 185.752 195.151 185.629L196.763 181.38L193.512 179.235L190.247 182.377C190.165 182.459 190.028 182.487 189.919 182.432C189.018 182.049 188.061 181.722 187.078 181.489C186.955 181.462 186.873 181.366 186.845 181.243L186.108 176.763L182.214 176.53L180.957 180.888C180.93 181.011 180.821 181.093 180.698 181.107C179.687 181.23 178.703 181.421 177.761 181.708C177.638 181.735 177.515 181.708 177.447 181.612L174.578 178.101L171.094 179.85L172.187 184.249C172.214 184.372 172.173 184.495 172.078 184.563C171.285 185.164 170.52 185.834 169.837 186.544C169.755 186.626 169.632 186.667 169.509 186.612L165.261 185.014L163.116 188.265L166.258 191.53C166.34 191.612 166.367 191.749 166.313 191.858C165.93 192.76 165.602 193.716 165.37 194.7C165.343 194.823 165.247 194.905 165.124 194.932L160.643 195.67L160.411 199.549L164.769 200.806C164.892 200.834 164.974 200.943 164.988 201.066C165.11 202.077 165.302 203.06 165.589 204.003C165.616 204.126 165.589 204.249 165.493 204.317L161.982 207.186L163.731 210.67L168.143 209.577C168.266 209.549 168.389 209.59 168.457 209.686C169.059 210.478 169.728 211.23 170.452 211.927C170.534 212.008 170.575 212.131 170.52 212.254L168.908 216.503L172.16 218.648L175.425 215.506C175.507 215.424 175.643 215.396 175.753 215.451C176.654 215.834 177.61 216.148 178.594 216.394C178.717 216.421 178.799 216.517 178.826 216.64L179.564 221.121ZM182.843 210.519C182.61 210.519 182.378 210.519 182.146 210.492C179.059 210.315 176.231 208.935 174.182 206.626C172.132 204.317 171.108 201.353 171.285 198.265C171.668 191.899 177.16 187.036 183.526 187.405C186.613 187.582 189.441 188.962 191.49 191.271C193.539 193.58 194.564 196.544 194.386 199.631C194.031 205.765 188.922 210.519 182.843 210.519ZM182.187 209.891C188.225 210.246 193.43 205.629 193.785 199.604C193.963 196.681 192.979 193.866 191.039 191.681C189.1 189.495 186.408 188.197 183.485 188.019C177.447 187.664 172.242 192.282 171.886 198.306C171.709 201.23 172.692 204.044 174.632 206.23C176.586 208.416 179.263 209.727 182.187 209.891Z" fill="#582583"/>
<path d="M218.002 231.981L219.996 245.082L224.833 242.623L223.453 229.563L218.002 231.981Z" fill="white"/>
<path d="M219.991 245.382C219.95 245.382 219.896 245.369 219.855 245.355C219.773 245.314 219.704 245.232 219.691 245.137L217.696 232.049C217.682 231.912 217.751 231.79 217.874 231.735L223.324 229.303C223.406 229.262 223.516 229.276 223.598 229.317C223.68 229.371 223.734 229.453 223.748 229.549L225.128 242.609C225.141 242.732 225.073 242.855 224.964 242.91L220.128 245.369C220.087 245.369 220.046 245.382 219.991 245.382ZM218.324 232.172L220.223 244.617L224.499 242.445L223.188 230L218.324 232.172Z" fill="#582583"/>
<path d="M218.735 240.122C218.189 241.379 217.656 243.77 217.123 246.885C216.877 248.36 218.025 249.699 219.541 249.699H237.314C238.544 249.699 239.118 248.21 238.202 247.404C234.664 244.275 229.241 240.805 224.568 238.77L222.779 241.284C222.793 241.297 218.885 239.767 218.735 240.122Z" fill="white"/>
<path d="M237.329 250H219.555C218.736 250 217.957 249.645 217.438 249.016C216.919 248.401 216.7 247.609 216.837 246.83C217.424 243.36 217.943 241.188 218.462 240C218.572 239.74 218.722 239.399 222.697 240.929L224.35 238.606C224.432 238.483 224.583 238.442 224.719 238.511C229.309 240.505 234.828 244.002 238.435 247.185C238.954 247.636 239.118 248.319 238.872 248.961C238.613 249.59 238.012 250 237.329 250ZM218.954 240.369C218.476 241.53 217.984 243.62 217.424 246.926C217.315 247.527 217.492 248.155 217.889 248.62C218.298 249.112 218.9 249.385 219.542 249.385H237.315C237.848 249.385 238.162 249.043 238.285 248.729C238.408 248.415 238.394 247.964 238.012 247.623C234.501 244.522 229.173 241.134 224.678 239.139L223.039 241.461C222.957 241.571 222.82 241.612 222.684 241.571C221.208 240.997 219.446 240.41 218.954 240.369Z" fill="#582583"/>
<path d="M237.001 248.47H218.271C218.107 248.47 217.971 248.333 217.971 248.169C217.971 248.005 218.107 247.869 218.271 247.869H237.001C237.165 247.869 237.301 248.005 237.301 248.169C237.301 248.333 237.165 248.47 237.001 248.47Z" fill="#582583"/>
<path d="M226.793 244.713C226.739 244.713 226.684 244.699 226.643 244.672C226.506 244.59 226.452 244.399 226.534 244.262L228.364 241.175C228.446 241.024 228.637 240.983 228.774 241.065C228.911 241.147 228.965 241.339 228.883 241.475L227.053 244.563C226.998 244.658 226.902 244.713 226.793 244.713Z" fill="#582583"/>
<path d="M229.46 245.164C229.405 245.164 229.364 245.15 229.309 245.123C229.159 245.041 229.118 244.863 229.186 244.713L230.375 242.596C230.457 242.445 230.634 242.404 230.785 242.473C230.935 242.555 230.976 242.732 230.908 242.882L229.719 245C229.664 245.109 229.569 245.164 229.46 245.164Z" fill="#582583"/>
<path d="M229.972 147.677C229.972 147.677 243.442 168.074 248.032 181.024C248.906 183.484 248.237 186.229 246.311 188.005C240.969 192.964 229.521 203.429 222.185 209.276L219.985 203.702C219.985 203.702 222.636 190.806 232.581 185L220.245 166.598L217.526 152.281L229.972 147.677Z" fill="#582583"/>
<path d="M206.617 153.197C206.617 153.197 210.606 183.689 211.221 191.476C211.836 199.262 211.276 207.924 210.961 214.29C210.661 220.642 217.874 235.437 217.874 235.437L224.828 234.208L226.112 162.582L227.983 149.331L206.617 153.197Z" fill="#582583"/>
<path d="M225.302 208.265C225.138 208.265 225.001 208.128 225.001 207.964L225.042 196.94C225.042 196.776 225.179 196.639 225.343 196.639C225.506 196.639 225.643 196.776 225.643 196.94L225.602 207.964C225.602 208.142 225.465 208.265 225.302 208.265Z" fill="white"/>
<path d="M226.021 174.18C225.857 174.18 225.721 174.043 225.721 173.879V168.183C225.721 168.087 225.775 167.991 225.857 167.937L229.204 165.71C229.341 165.614 229.532 165.655 229.628 165.792C229.723 165.929 229.682 166.12 229.546 166.215L226.322 168.36V173.893C226.322 174.043 226.185 174.18 226.021 174.18Z" fill="white"/>
<path d="M209.386 169.576C209.304 169.576 209.209 169.535 209.154 169.467C209.045 169.344 209.058 169.153 209.195 169.044C209.236 169.016 212.856 165.861 214.072 158.142C214.099 157.978 214.25 157.869 214.413 157.896C214.577 157.923 214.687 158.074 214.659 158.238C213.403 166.202 209.728 169.372 209.564 169.494C209.523 169.549 209.454 169.576 209.386 169.576Z" fill="white"/>
<path d="M242.58 127.732C242.58 127.732 243.851 126.653 244.861 126.107C245.872 125.56 248.987 120.902 248.987 120.902C248.987 120.902 248.892 128.251 245.668 129.372L242.58 127.732Z" fill="white"/>
<path d="M245.661 129.672C245.606 129.672 245.565 129.659 245.524 129.631L242.437 127.992C242.355 127.951 242.287 127.855 242.273 127.76C242.259 127.664 242.3 127.568 242.382 127.5C242.437 127.459 243.68 126.393 244.705 125.847C245.402 125.478 247.492 122.582 248.721 120.738C248.789 120.628 248.94 120.574 249.063 120.615C249.186 120.656 249.281 120.779 249.268 120.902C249.268 121.216 249.131 128.47 245.757 129.645C245.729 129.672 245.688 129.672 245.661 129.672ZM243.106 127.678L245.675 129.044C247.847 128.142 248.448 123.962 248.612 121.967C247.628 123.388 245.784 125.943 244.992 126.38C244.336 126.735 243.557 127.322 243.106 127.678Z" fill="#582583"/>
<path d="M239.454 128.648H243.115L250.042 118.634H246.476L239.454 128.648Z" fill="#582583"/>
<path d="M243.107 128.948H239.446C239.336 128.948 239.227 128.88 239.172 128.784C239.118 128.689 239.131 128.566 239.2 128.47L246.222 118.456C246.276 118.374 246.372 118.333 246.467 118.333H250.033C250.142 118.333 250.252 118.402 250.306 118.497C250.361 118.593 250.347 118.716 250.293 118.811L243.366 128.825C243.298 128.893 243.202 128.948 243.107 128.948ZM240.019 128.347H242.943L249.459 118.934H246.618L240.019 128.347Z" fill="#582583"/>
<path d="M240.248 128.648H243.909L250.835 118.634H247.27L240.248 128.648Z" fill="white"/>
<path d="M243.899 128.948H240.238C240.128 128.948 240.019 128.88 239.964 128.784C239.91 128.689 239.923 128.566 239.992 128.47L247.014 118.456C247.068 118.374 247.164 118.333 247.259 118.333H250.825C250.934 118.333 251.044 118.402 251.098 118.497C251.153 118.593 251.139 118.716 251.085 118.811L244.158 128.825C244.09 128.893 243.994 128.948 243.899 128.948ZM240.825 128.347H243.749L250.265 118.934H247.423L240.825 128.347Z" fill="#582583"/>
<path d="M242.567 127.732C242.567 127.732 238.018 135 233.769 134.249C230.763 133.716 229.206 130.464 226.638 126.831C224.056 123.197 220.941 121.27 220.941 121.27C220.941 121.27 215.367 119.385 208.537 119.672C201.829 119.959 195.941 124.167 193.591 130.451C191.774 135.342 190.449 142.473 191.61 152.322C193.837 171.093 209.534 168.648 209.534 168.648L212.075 164.645C212.075 164.645 205.053 164.18 203.414 154.508C202.813 150.97 204.165 145.71 204.165 145.71L205.285 153.784C205.436 154.918 206.351 155.792 207.498 155.902C208.783 156.025 210.722 156.011 213.427 155.505C218.987 154.467 224.479 150.97 228.018 150.56C230.395 150.287 230.968 148.852 230.845 146.954C232.225 147.268 233.591 147.336 234.848 147.022C243.714 144.809 245.326 129.59 245.326 129.59L242.567 127.732Z" fill="white"/>
<path d="M207.738 169.057C205.484 169.057 201.55 168.607 198.025 165.929C194.296 163.101 192.041 158.538 191.304 152.35C190.306 143.962 190.99 136.557 193.298 130.342C195.675 123.975 201.645 119.658 208.503 119.372C215.306 119.085 220.949 120.956 221.017 120.984C221.044 120.997 221.058 120.997 221.071 121.011C221.194 121.093 224.268 123.005 226.85 126.653C227.342 127.336 227.793 128.019 228.216 128.661C230.033 131.38 231.481 133.538 233.79 133.948C233.981 133.989 234.186 134.003 234.378 134.003C238.216 134.003 242.246 127.65 242.287 127.582C242.328 127.514 242.397 127.459 242.479 127.445C242.561 127.432 242.643 127.445 242.711 127.486L245.457 129.344C245.552 129.413 245.593 129.508 245.593 129.631C245.525 130.26 243.858 145.082 234.883 147.322C233.776 147.596 232.52 147.609 231.126 147.336C231.153 149.481 230.129 150.642 228.025 150.874C226.386 151.066 224.309 151.926 221.919 152.937C219.337 154.03 216.399 155.26 213.462 155.806C211.181 156.229 209.159 156.366 207.451 156.202C206.167 156.079 205.143 155.109 204.965 153.825L204.077 147.432C203.735 149.249 203.312 152.227 203.681 154.454C205.265 163.784 212 164.331 212.069 164.344C212.178 164.358 212.274 164.413 212.315 164.508C212.369 164.604 212.356 164.713 212.301 164.809L209.76 168.811C209.719 168.88 209.637 168.934 209.555 168.948C209.5 168.962 208.804 169.057 207.738 169.057ZM209.979 119.945C209.514 119.945 209.036 119.959 208.544 119.973C201.919 120.26 196.167 124.413 193.872 130.56C191.591 136.694 190.921 144.003 191.905 152.281C192.615 158.306 194.801 162.732 198.38 165.451C202.957 168.934 208.421 168.47 209.337 168.361L211.563 164.863C209.91 164.536 204.514 162.855 203.107 154.549C202.506 150.997 203.804 145.847 203.858 145.628C203.899 145.492 204.022 145.396 204.173 145.396C204.323 145.41 204.432 145.519 204.459 145.656L205.58 153.73C205.716 154.727 206.522 155.492 207.52 155.587C208.653 155.697 210.593 155.71 213.367 155.191C216.235 154.658 219.145 153.429 221.7 152.363C224.145 151.339 226.249 150.451 227.984 150.26C229.91 150.041 230.675 149.057 230.539 146.967C230.539 146.872 230.566 146.776 230.648 146.721C230.716 146.653 230.812 146.639 230.908 146.653C232.356 146.981 233.653 146.995 234.774 146.721C242.82 144.713 244.787 131.434 245.006 129.727L242.67 128.142C241.782 129.481 237.711 135.232 233.735 134.522C231.167 134.057 229.678 131.817 227.765 128.975C227.328 128.333 226.891 127.664 226.399 126.981C224.022 123.62 221.14 121.721 220.812 121.53C220.375 121.393 215.744 119.945 209.979 119.945Z" fill="#582583"/>
<path d="M204.73 145.027C204.703 145.027 204.676 145.027 204.635 145.014C204.471 144.959 204.389 144.795 204.444 144.631L207.231 135.833C207.285 135.669 207.449 135.587 207.613 135.642C207.777 135.697 207.859 135.861 207.804 136.024L205.017 144.822C204.976 144.945 204.867 145.027 204.73 145.027Z" fill="#582583"/>
<path d="M230.727 145.109C230.577 145.109 230.44 144.986 230.427 144.836C229.976 140.15 225.085 129.331 225.044 129.221C224.976 129.071 225.044 128.893 225.194 128.825C225.345 128.757 225.522 128.825 225.591 128.975C225.795 129.426 230.563 140 231.028 144.781C231.041 144.945 230.918 145.096 230.755 145.109C230.755 145.109 230.741 145.109 230.727 145.109Z" fill="#582583"/>
<path d="M213.091 110.656L206.848 120C206.848 120 212.08 122.254 215.277 122.732C218.473 123.211 214.566 119.836 214.566 119.836L217.094 114.085L213.091 110.656Z" fill="white"/>
<path d="M215.802 123.074C215.597 123.074 215.392 123.047 215.201 123.019C212.005 122.541 206.923 120.355 206.704 120.273C206.622 120.232 206.554 120.164 206.54 120.082C206.513 120 206.526 119.904 206.581 119.822L212.824 110.478C212.879 110.41 212.947 110.355 213.029 110.342C213.111 110.328 213.207 110.355 213.261 110.41L217.264 113.839C217.36 113.921 217.401 114.071 217.346 114.194L214.901 119.741C215.693 120.451 217.1 121.858 216.745 122.637C216.595 122.978 216.212 123.074 215.802 123.074ZM207.291 119.863C208.494 120.355 212.647 122.036 215.311 122.432C216.103 122.555 216.212 122.391 216.212 122.391C216.335 122.118 215.447 121.011 214.354 120.055C214.259 119.973 214.218 119.822 214.272 119.7L216.704 114.153L213.125 111.093L207.291 119.863Z" fill="#582583"/>
<path d="M225.154 106.202C223.419 104.672 221.247 106.12 219.225 104.249C218.296 103.388 218.241 102.609 217.107 102.104C216.356 101.776 215.004 101.517 214.075 102.172C212.9 103.006 213.692 104.399 212.64 107.432C211.903 109.563 210.96 110.465 211.452 111.243C211.943 112.022 213.159 111.517 213.747 112.323C214.512 113.374 212.982 114.932 213.392 116.394C213.651 117.323 214.894 118.634 218.023 119.317C218.528 119.426 219.047 119.167 219.239 118.689C219.498 118.074 219.812 117.295 220.058 116.53C221.219 112.869 220.714 111.435 221.657 110.997C223.105 110.314 224.73 112.637 225.796 111.995C226.93 111.325 226.943 107.773 225.154 106.202Z" fill="#582583"/>
<path d="M217.676 107.733L218.318 107.992C218.318 107.992 216.473 112.2 216.186 113.47C215.886 114.754 219.779 115.97 219.779 115.97L220.408 115.533L220.886 115.67C221.036 115.711 221.186 115.683 221.323 115.601C221.446 115.519 221.528 115.369 221.542 115.219C221.624 114.044 221.883 111.476 222.717 109.618C222.703 109.618 220.927 107.309 217.676 107.733Z" fill="white"/>
<path d="M217.955 107.773C218.064 107.773 218.174 107.733 218.242 107.705C218.31 107.678 218.351 107.678 218.42 107.705C218.584 107.773 218.652 107.951 218.597 108.101V108.115C218.256 108.921 217.914 109.727 217.586 110.533C217.258 111.339 216.931 112.159 216.657 112.965C216.589 113.17 216.521 113.375 216.493 113.552C216.466 113.648 216.507 113.771 216.616 113.921C216.821 114.194 217.176 114.454 217.532 114.659C218.256 115.082 219.075 115.41 219.868 115.683L219.608 115.724C219.827 115.588 220.032 115.437 220.25 115.301L220.278 115.287C220.346 115.246 220.428 115.232 220.496 115.26C220.633 115.314 220.769 115.369 220.906 115.424L220.988 115.451C221.002 115.465 221.029 115.465 221.043 115.465C221.084 115.465 221.125 115.465 221.166 115.437C221.248 115.396 221.302 115.314 221.316 115.232L221.343 114.809C221.398 114.208 221.452 113.62 221.534 113.019C221.698 111.831 221.944 110.642 222.422 109.495L222.463 109.795C222.204 109.481 221.849 109.181 221.493 108.921C221.125 108.675 220.742 108.457 220.319 108.306C219.909 108.156 219.472 108.047 219.034 108.006C218.816 107.978 218.597 107.965 218.379 107.978C218.269 107.978 218.16 107.992 218.051 107.992H218.01C218.01 107.992 218.023 107.978 218.037 107.951C218.037 107.91 218.01 107.814 217.955 107.773ZM217.368 107.692C217.436 107.637 217.518 107.528 217.655 107.473C217.723 107.446 217.791 107.418 217.86 107.405C217.887 107.405 217.928 107.391 217.942 107.391H217.982C218.105 107.377 218.228 107.377 218.351 107.377C218.597 107.364 218.843 107.377 219.089 107.405C219.581 107.459 220.059 107.569 220.523 107.746C220.988 107.924 221.425 108.156 221.821 108.429C222.231 108.716 222.586 109.03 222.928 109.44C222.996 109.522 223.01 109.645 222.969 109.741C222.737 110.26 222.545 110.82 222.395 111.38C222.231 111.94 222.108 112.514 222.013 113.101C221.903 113.675 221.835 114.263 221.78 114.85L221.767 115.069C221.753 115.151 221.767 115.192 221.739 115.314C221.698 115.519 221.562 115.711 221.384 115.806C221.289 115.861 221.193 115.888 221.084 115.902C221.029 115.902 220.974 115.916 220.92 115.902C220.865 115.902 220.81 115.888 220.783 115.875C220.633 115.847 220.483 115.834 220.346 115.793L220.592 115.752C220.387 115.902 220.168 116.052 219.963 116.189C219.881 116.243 219.786 116.257 219.704 116.23C218.843 115.957 218.023 115.629 217.231 115.178C216.835 114.946 216.439 114.7 216.111 114.276C216.029 114.167 215.961 114.044 215.906 113.894C215.865 113.743 215.838 113.579 215.879 113.416C215.933 113.156 216.002 112.965 216.07 112.746C216.357 111.899 216.685 111.079 217.013 110.273C217.34 109.454 217.696 108.648 218.051 107.855L218.215 108.265C218.064 108.211 217.887 108.115 217.75 108.006C217.573 107.91 217.463 107.787 217.368 107.692Z" fill="#582583"/>
<path d="M216.224 110.697C216.224 110.697 216.661 108.211 215.486 108.252C214.325 108.293 213.915 111.038 216.224 110.697Z" fill="white"/>
<path d="M26.4921 145.123C26.3281 145.56 26.0959 145.956 25.7817 146.325C24.962 147.24 23.7325 147.623 22.5577 147.978C21.5877 148.265 20.6041 148.566 19.5932 148.566C17.585 148.579 15.7271 147.486 13.7189 147.391C12.3664 147.322 11.0413 147.719 9.70246 147.951C7.17514 148.374 5.15328 147.363 3.2817 145.71C-0.037976 142.787 0.13962 134.563 3.35 129.344C6.75164 123.839 12.0385 124.126 12.7762 119.399C13.1997 116.68 11.4101 115.546 12.3118 112.65C12.7899 111.134 14.156 109.836 16.8883 107.227C20.6451 103.648 22.2025 103.115 22.7489 102.937C23.6779 102.65 25.5358 102.09 27.5167 102.91C28.1178 103.156 29.5795 103.757 30.0986 105.219C30.6587 106.749 29.8391 108.279 29.4019 109.112C28.4046 110.97 27.1478 111.475 26.4374 112.336C23.2544 116.243 29.2516 121.776 27.8309 130.601C27.5303 132.5 26.7653 134.208 26.2735 136.052C25.6314 138.443 26.6287 139.057 26.7926 141.202C26.8746 142.5 26.9429 143.921 26.4921 145.123Z" fill="#582583"/>
<path d="M44.3826 229.577L42.8936 232.828C42.9619 233.101 43.1121 233.374 43.4127 233.716C44.9974 235.519 49.2733 234.085 50.2979 233.743C54.0548 232.486 54.5329 230.929 57.9209 229.727C60.2433 228.907 62.3334 228.825 63.6859 228.88C63.522 228.552 63.2487 228.033 62.7296 227.568C62.0056 226.913 60.7624 226.257 58.7269 226.243C54.6558 226.23 44.3826 229.577 44.3826 229.577Z" fill="white"/>
<path d="M45.9595 234.905C44.4567 234.905 43.6234 234.44 43.1726 233.921C42.8584 233.552 42.6671 233.238 42.5851 232.91C42.5715 232.842 42.5715 232.773 42.5988 232.719L44.0879 229.467C44.1289 229.385 44.1835 229.331 44.2655 229.303C44.689 229.167 54.607 225.943 58.678 225.943C58.6917 225.943 58.6917 225.943 58.7054 225.943C60.9048 225.943 62.2026 226.708 62.8994 227.336C63.4458 227.828 63.7463 228.375 63.9239 228.743C63.9649 228.839 63.9649 228.948 63.9103 229.044C63.8556 229.126 63.76 229.194 63.6507 229.181C61.6698 229.112 59.7709 229.385 57.995 230.014C56.4103 230.574 55.4813 231.202 54.5114 231.872C53.4595 232.596 52.3666 233.347 50.372 234.017C48.4731 234.659 47.0387 234.905 45.9595 234.905ZM43.1999 232.855C43.2682 233.06 43.4048 233.265 43.6234 233.525C44.1698 234.14 45.7409 234.959 50.1808 233.456C52.0933 232.814 53.1453 232.09 54.1698 231.38C55.1261 230.711 56.1234 230.028 57.7901 229.44C59.4431 228.853 61.219 228.566 63.0496 228.566C63.0769 228.566 63.1043 228.566 63.1453 228.566C62.995 228.32 62.7901 228.047 62.5032 227.787C61.6015 226.981 60.2901 226.544 58.7054 226.544H58.6917C54.9485 226.544 45.7682 229.454 44.5933 229.836L43.1999 232.855Z" fill="#582583"/>
<path d="M57.2329 244.741C57.2329 244.741 64.1318 247.391 64.1318 242.869C64.1318 242.719 58.4624 224.427 58.4624 224.427L50.334 228.825L57.2329 244.741Z" fill="white"/>
<path d="M61.0807 245.806C59.2091 245.806 57.2419 245.055 57.1189 245.014C57.037 244.986 56.9823 244.932 56.955 244.85L50.0561 228.921C49.9878 228.784 50.0561 228.607 50.1927 228.538L58.3211 224.139C58.4031 224.098 58.4987 224.085 58.5807 224.126C58.6626 224.153 58.731 224.235 58.7583 224.317C64.4413 242.664 64.4413 242.801 64.4413 242.855C64.4413 243.935 64.0725 244.727 63.3621 245.232C62.72 245.67 61.9004 245.806 61.0807 245.806ZM57.4468 244.495C58.1162 244.727 61.4222 245.82 62.9933 244.741C63.5397 244.358 63.8129 243.757 63.8129 242.896C63.6353 242.213 60.179 231.052 58.2665 224.85L50.7118 228.935L57.4468 244.495Z" fill="#582583"/>
<path d="M56.3775 249.467H73.4813C73.9458 249.467 74.301 249.058 74.2327 248.607L74.1097 247.637C73.7819 246.776 73.1671 246.052 72.3474 245.629L63.0715 240.656C63.0715 240.656 60.0797 241.284 60.3392 244.426C60.3392 244.426 58.331 242.486 56.4731 243.853C56.4731 243.853 55.7491 246.257 55.8037 248.935C55.8174 249.221 56.077 249.467 56.3775 249.467Z" fill="white"/>
<path d="M73.4763 249.768H56.3725C55.908 249.768 55.5118 249.385 55.4982 248.921C55.4435 246.243 56.1402 243.853 56.1812 243.757C56.1949 243.689 56.2359 243.634 56.2905 243.607C57.6293 242.637 59.1184 243.17 60.0337 243.798C60.1976 240.997 62.9845 240.369 63.0118 240.369C63.0801 240.355 63.1484 240.369 63.2167 240.396L72.4927 245.369C73.367 245.834 74.0501 246.612 74.3916 247.541C74.4053 247.569 74.4053 247.582 74.4053 247.61L74.5282 248.579C74.5692 248.88 74.4736 249.194 74.2687 249.413C74.0774 249.645 73.7769 249.768 73.4763 249.768ZM56.7277 244.03C56.5911 244.508 56.0583 246.626 56.0993 248.921C56.0993 249.071 56.2222 249.181 56.3725 249.181H73.4763C73.6129 249.181 73.7359 249.126 73.8315 249.017C73.9271 248.921 73.9545 248.784 73.9408 248.648L73.8178 247.705C73.5173 246.926 72.9435 246.284 72.2058 245.888L63.0392 240.97C62.5337 241.107 60.4299 241.844 60.6484 244.399C60.6621 244.522 60.5938 244.645 60.4845 244.7C60.3752 244.754 60.2386 244.727 60.143 244.645C60.061 244.563 58.3397 242.951 56.7277 244.03Z" fill="#582583"/>
<path d="M68.6943 246.271C68.6807 246.271 68.667 246.271 68.6533 246.271C64.1451 245.56 61.4812 243.197 61.3583 243.101C61.2353 242.992 61.2217 242.801 61.3309 242.678C61.4402 242.555 61.6315 242.541 61.7544 242.65C61.7818 242.678 64.4184 245 68.7353 245.669C68.8993 245.697 69.0085 245.847 68.9812 246.011C68.9676 246.161 68.8446 246.271 68.6943 246.271Z" fill="#582583"/>
<path d="M73.6035 248.661H56.4041C56.2401 248.661 56.1035 248.525 56.1035 248.361C56.1035 248.197 56.2401 248.06 56.4041 248.06H73.6035C73.7674 248.06 73.9041 248.197 73.9041 248.361C73.9041 248.538 73.7674 248.661 73.6035 248.661Z" fill="#582583"/>
<path d="M20.7585 234.399C19.2421 234.071 16.3459 233.429 15.7038 231.448C15.212 229.946 16.2503 228.388 16.4962 228.033C19.4197 223.648 29.0918 222.405 34.5699 226.694C37.4661 228.962 39.4197 232.951 38.3951 234.222C37.7803 235 36.4688 234.249 33.2585 233.976C27.2885 233.457 25.7585 235.506 20.7585 234.399Z" fill="white"/>
<path d="M23.6232 235.041C22.7625 235.041 21.8063 234.946 20.686 234.7C19.0877 234.344 16.1095 233.689 15.4128 231.544C15.0713 230.478 15.3445 229.208 16.2325 227.869C17.544 225.902 20.1669 224.481 23.4456 223.948C27.6532 223.279 31.8746 224.208 34.7434 226.462C36.9019 228.156 38.7052 230.929 38.9374 232.91C39.0057 233.566 38.9101 234.071 38.6232 234.426C38.1177 235.055 37.3254 234.918 36.0002 234.686C35.2762 234.563 34.3746 234.399 33.227 234.29C30.4538 234.044 28.6095 234.372 26.9838 234.659C25.9046 234.85 24.8527 235.041 23.6232 235.041ZM20.8226 234.112C23.4046 234.686 25.0166 234.399 26.8882 234.071C28.5412 233.771 30.4265 233.443 33.2817 233.689C34.4565 233.798 35.3718 233.962 36.1095 234.085C37.3664 234.303 37.8855 234.385 38.1451 234.044C38.3227 233.825 38.391 233.456 38.3363 232.978C38.1587 231.394 36.615 228.702 34.3746 226.94C31.6287 224.795 27.5849 223.894 23.5412 224.549C20.4265 225.055 17.9538 226.38 16.7379 228.211C15.9593 229.385 15.6997 230.478 15.9866 231.366C16.5877 233.17 19.3336 233.784 20.8226 234.112Z" fill="#582583"/>
<path d="M21.5939 226.23C21.3479 226.38 24.4764 245.424 24.4764 245.424L30.7195 246.189L30.4463 227.842L21.5939 226.23Z" fill="white"/>
<path d="M30.7058 246.489C30.6922 246.489 30.6785 246.489 30.6649 246.489L24.4217 245.724C24.2851 245.71 24.1895 245.601 24.1621 245.478C24.1485 245.437 23.3698 240.656 22.6321 235.929C21.102 226.175 21.184 226.12 21.4162 225.97C21.4845 225.929 21.5528 225.915 21.6348 225.929L30.4873 227.541C30.6239 227.568 30.7332 227.691 30.7332 227.828L31.0064 246.175C31.0064 246.257 30.9654 246.339 30.9108 246.407C30.8561 246.462 30.7878 246.489 30.7058 246.489ZM24.7359 245.164L30.4053 245.861L30.1457 228.101L21.8944 226.598C22.0583 228.511 23.6157 238.388 24.7359 245.164Z" fill="#582583"/>
<path d="M40.8396 249.467H23.6538C23.6538 249.467 23.0254 245.205 24.009 243.306L24.5418 243.907C24.815 244.221 25.2932 244.249 25.6074 243.962C26.2904 243.347 27.4926 242.35 28.5309 241.872C30.5391 240.956 37.274 245.505 39.856 247.049C40.4708 247.418 40.8396 248.074 40.8396 248.784V249.467Z" fill="white"/>
<path d="M40.8327 249.768H23.6469C23.4966 249.768 23.3737 249.659 23.3464 249.508C23.319 249.331 22.7043 245.123 23.7289 243.169C23.7699 243.087 23.8655 243.019 23.9611 243.006C24.0568 242.992 24.1524 243.033 24.2207 243.101L24.7535 243.702C24.8354 243.798 24.9447 243.839 25.0677 243.853C25.1906 243.853 25.2999 243.825 25.3956 243.743C26.1879 243.033 27.3628 242.077 28.3873 241.612C30.1087 240.833 34.4119 243.333 38.6606 245.984C39.166 246.298 39.6169 246.585 39.9857 246.803C40.6824 247.227 41.1196 247.978 41.1196 248.798V249.481C41.1333 249.645 40.9966 249.768 40.8327 249.768ZM23.9201 249.167H40.5322V248.784C40.5322 248.183 40.218 247.623 39.6988 247.309C39.33 247.09 38.8792 246.803 38.36 246.489C35.5185 244.727 30.2316 241.435 28.6606 242.159C27.6496 242.623 26.4475 243.634 25.819 244.194C25.6141 244.385 25.3409 244.467 25.054 244.467C24.7671 244.454 24.5212 244.331 24.33 244.112L24.1114 243.866C23.524 245.506 23.8108 248.32 23.9201 249.167Z" fill="#582583"/>
<path d="M40.0214 248.429H24.0105C23.8466 248.429 23.71 248.292 23.71 248.129C23.71 247.965 23.8466 247.828 24.0105 247.828H40.0214C40.1854 247.828 40.322 247.965 40.322 248.129C40.322 248.292 40.1854 248.429 40.0214 248.429Z" fill="#582583"/>
<path d="M32.8228 246.38C32.7819 246.38 32.7272 246.366 32.6862 246.353L27.7272 243.853C27.5769 243.784 27.5223 243.593 27.5906 243.443C27.6589 243.293 27.8502 243.238 28.0004 243.306L32.9594 245.806C33.1097 245.874 33.1644 246.066 33.0961 246.216C33.0414 246.325 32.9321 246.38 32.8228 246.38Z" fill="#582583"/>
<path d="M63.6676 228.866C60.3616 218.388 57.0282 207.924 53.6676 197.473C49.1321 183.374 44.5419 169.303 39.8971 155.246C32.684 156.093 16.5774 150.615 18.2578 157.787C19.0911 161.339 19.0091 162.131 18.9271 163.443C18.2304 173.771 17.1512 181.161 17.1785 183.743C17.2058 186.038 17.3015 192.91 17.1375 202.323C17.1102 203.853 17.0692 205.492 17.0009 207.473C16.6457 217.418 15.9763 219.836 15.9353 227.937C15.9217 229.071 15.9353 230.178 15.949 231.243C19.6239 230.519 23.8179 230.328 28.2577 231.325C31.7687 232.118 32.1785 232.924 35.3343 233.361C36.3725 233.497 37.3425 233.552 38.2714 233.525C35.6758 198.921 35.867 190.997 35.867 190.997C36.8506 198.689 38.0801 206.708 39.5965 215.014C40.7168 221.12 41.919 227.022 43.1894 232.719C46.9326 231.612 50.225 229.672 54.6922 228.853C57.0419 228.415 60.0337 228.238 63.6676 228.866Z" fill="#582583"/>
<path d="M35.8676 190.711C35.7036 190.711 35.567 190.588 35.567 190.424L35.1025 173.457C35.1025 173.361 35.1435 173.252 35.2392 173.197L37.4523 171.681C37.5889 171.585 37.7801 171.626 37.8758 171.763C37.9714 171.899 37.9304 172.09 37.7938 172.186L35.7173 173.62L36.1681 190.424C36.1818 190.574 36.0452 190.711 35.8676 190.711C35.8812 190.711 35.8812 190.711 35.8676 190.711Z" fill="white"/>
<path d="M58.939 124.741L56.0565 124.932C55.715 126.175 55.0729 127.992 53.8434 129.905C52.6958 131.68 50.2641 135.465 47.2997 135.56C44.2532 135.656 42.0264 129.18 38.1467 125.752C33.0784 125.314 28.7751 125.519 25.51 125.861C21.2478 126.312 18.0237 127.063 16.7122 127.391C13.4882 128.197 10.715 129.18 8.33791 130.137C6.95813 134.508 2.92808 145.178 4.70404 157.855C6.0565 167.555 16.5483 173.675 19.3762 176.831C20.0729 176.052 20.6603 175.137 21.1385 174.167C20.3188 172.678 19.0756 170.451 17.5592 167.746C14.6631 162.555 14.0893 161.571 13.8434 161.107C12.5592 158.661 11.9855 154.618 14.2669 147.514C14.1576 148.853 14.1303 150.314 14.2259 151.858C14.4855 155.956 14.7177 159.549 17.1494 161.216C19.1986 162.637 20.7013 161.189 29.4035 159.713C36.5346 158.511 39.5401 158.798 41.6439 156.161C42.8051 154.713 43.1603 153.047 43.2833 151.844C42.7232 149.208 42.1767 146.53 41.6303 143.853C44.021 145.109 46.7259 145.642 48.98 145.26C55.2915 144.221 61.0155 135.56 58.939 124.741Z" fill="white"/>
<path d="M19.3635 177.131C19.2816 177.131 19.1996 177.09 19.145 177.036C18.5029 176.312 17.41 175.41 16.1532 174.372C11.8909 170.82 5.44277 165.451 4.39086 157.91C2.75152 146.216 6.05753 136.121 7.64223 131.271C7.7925 130.834 7.91545 130.424 8.0384 130.069C8.06573 129.987 8.13403 129.918 8.216 129.877C11.0985 128.716 13.8444 127.814 16.6313 127.118C19.4045 126.421 22.4646 125.888 25.4701 125.574C29.6504 125.137 33.9264 125.096 38.175 125.465C38.2433 125.465 38.298 125.492 38.3526 125.533C39.9783 126.968 41.3444 128.962 42.5329 130.711C44.1996 133.156 45.634 135.26 47.2324 135.26C47.2461 135.26 47.2734 135.26 47.287 135.26C50.0876 135.178 52.451 131.503 53.5849 129.741C54.5548 128.238 55.2789 126.599 55.7707 124.85C55.798 124.727 55.9073 124.631 56.0439 124.631L58.9264 124.44C59.0767 124.427 59.2133 124.536 59.2406 124.686C60.3608 130.492 59.3089 136.243 56.3717 140.465C54.3909 143.306 51.7816 145.123 49.0357 145.588C46.9045 145.943 44.3909 145.519 42.0548 144.427C42.6149 147.227 43.1067 149.59 43.5849 151.817C43.5849 151.845 43.5985 151.872 43.5849 151.913C43.4073 153.689 42.8335 155.192 41.8772 156.38C40.1832 158.498 37.9018 158.812 33.7761 159.386C32.5193 159.563 31.0985 159.754 29.4455 160.041C26.3034 160.574 24.0903 161.107 22.4783 161.489C19.5821 162.186 18.3799 162.473 16.9592 161.489C14.4182 159.741 14.1859 156.107 13.9127 151.899C13.8717 151.271 13.8581 150.629 13.8444 149.987C12.6422 154.686 12.7242 158.388 14.0903 160.984C14.1996 161.202 14.4045 161.558 14.8827 162.418C15.4155 163.361 16.2898 164.918 17.8062 167.623C19.3226 170.328 20.5657 172.555 21.3854 174.044C21.44 174.126 21.44 174.235 21.3854 174.331C20.8526 175.383 20.2515 176.298 19.5821 177.063C19.5275 177.09 19.4455 177.131 19.3635 177.131ZM8.57119 130.369C8.4619 130.697 8.35261 131.052 8.216 131.448C6.64496 136.257 3.36627 146.257 4.97829 157.814C6.00288 165.137 12.3417 170.41 16.5357 173.907C17.6695 174.85 18.6668 175.683 19.3499 176.38C19.869 175.752 20.3608 175.014 20.7843 174.181C19.9646 172.692 18.7488 170.519 17.287 167.896C15.7843 165.205 14.8963 163.648 14.3635 162.705C13.8581 161.817 13.6805 161.489 13.5575 161.257C11.8909 158.088 12.0275 153.443 13.9674 147.432C14.0083 147.282 14.1586 147.2 14.3089 147.227C14.4592 147.254 14.5685 147.391 14.5548 147.541C14.4455 148.976 14.4318 150.424 14.5138 151.845C14.7734 155.902 15.0056 159.399 17.3007 160.984C18.5029 161.817 19.4728 161.585 22.328 160.888C23.9537 160.506 26.1668 159.973 29.3362 159.427C30.9892 159.14 32.4237 158.948 33.6805 158.771C37.7925 158.197 39.8553 157.91 41.3991 155.984C42.2734 154.891 42.8062 153.511 42.9701 151.872C42.4646 149.495 41.9455 146.967 41.3308 143.921C41.3034 143.812 41.3581 143.689 41.44 143.621C41.5357 143.552 41.6586 143.539 41.7543 143.593C44.1176 144.836 46.7269 145.342 48.9127 144.973C51.5084 144.536 53.981 142.814 55.8663 140.11C58.6668 136.08 59.6914 130.615 58.6942 125.055L56.2898 125.219C55.798 126.954 55.0603 128.58 54.0903 130.069C52.9018 131.913 50.4291 135.765 47.3144 135.861C47.287 135.861 47.2597 135.861 47.2461 135.861C45.3335 135.861 43.8034 133.634 42.0411 131.052C40.8799 129.358 39.5685 127.432 38.0247 126.052C33.8581 125.697 29.6504 125.738 25.5384 126.161C22.5466 126.476 19.5138 127.008 16.7816 127.692C14.063 128.375 11.3717 129.249 8.57119 130.369Z" fill="#582583"/>
<path d="M55.6153 120.588L57.159 115.465C57.2683 115.11 57.6098 114.877 57.9787 114.918C58.4022 114.959 58.7027 115.342 58.6617 115.765L58.4432 117.869L60.4787 119.508C61.1071 120.014 61.353 120.847 61.0934 121.612L60.4104 123.634C60.0688 124.645 59.1399 125.342 58.0743 125.396L57.3639 125.437C56.2574 125.492 55.2464 124.836 54.8366 123.812L54.3585 122.61C54.0579 121.858 54.4541 120.998 55.2328 120.738L55.6153 120.588Z" fill="white"/>
<path d="M57.2296 125.724C56.0547 125.724 54.9892 125.014 54.5383 123.907L54.0602 122.705C53.8826 122.254 53.8963 121.776 54.1012 121.339C54.3061 120.902 54.6613 120.588 55.1258 120.437L55.3717 120.355L56.8608 115.383C57.011 114.891 57.4892 114.577 58.0083 114.631C58.5821 114.7 59.0056 115.219 58.9509 115.806L58.746 117.746L60.6586 119.276C61.3826 119.85 61.6695 120.834 61.369 121.708L60.6859 123.73C60.3034 124.864 59.2788 125.629 58.0903 125.697L57.3799 125.738C57.3252 125.724 57.2706 125.724 57.2296 125.724ZM57.8717 115.219C57.6668 115.219 57.4892 115.355 57.4209 115.547L55.8771 120.67C55.8498 120.765 55.7815 120.834 55.6859 120.875L55.2897 121.011C54.9892 121.107 54.7569 121.312 54.634 121.599C54.4974 121.885 54.4974 122.2 54.6067 122.487L55.0848 123.689C55.44 124.59 56.3416 125.164 57.3252 125.123L58.0356 125.082C58.9782 125.041 59.7979 124.426 60.0985 123.525L60.7815 121.503C61.0001 120.861 60.7815 120.151 60.2624 119.727L58.2269 118.088C58.1449 118.019 58.1039 117.924 58.1176 117.814L58.3362 115.711C58.3635 115.451 58.1722 115.232 57.9263 115.205C57.9127 115.219 57.899 115.219 57.8717 115.219Z" fill="#582583"/>
<path d="M55.6074 120.587L57.3834 120.82C57.3834 120.82 57.6429 122.254 56.5227 122.227L55.6074 120.587Z" fill="white"/>
<path d="M56.5517 122.528C56.538 122.528 56.5244 122.528 56.5107 122.528C56.3468 122.528 56.2101 122.391 56.2238 122.213C56.2375 122.036 56.3604 121.926 56.538 121.913C56.7156 121.926 56.8522 121.872 56.9479 121.763C57.0981 121.585 57.1254 121.284 57.1118 121.066L55.5817 120.875C55.4178 120.847 55.2948 120.697 55.3222 120.533C55.3495 120.369 55.4998 120.26 55.6637 120.273L57.4397 120.506C57.5763 120.519 57.6719 120.615 57.6992 120.752C57.7129 120.847 57.8495 121.667 57.426 122.159C57.2621 122.336 57.0025 122.528 56.5517 122.528Z" fill="#582583"/>
<path d="M58.5332 121.148C58.5196 121.148 58.5059 121.148 58.4786 121.148C58.3147 121.12 58.2054 120.97 58.2327 120.806L58.6699 118.265C58.6972 118.101 58.8475 117.992 59.0114 118.019C59.1753 118.047 59.2846 118.197 59.2573 118.361L58.8201 120.902C58.8065 121.038 58.6835 121.148 58.5332 121.148Z" fill="#582583"/>
<path d="M59.8028 121.763C59.7891 121.763 59.7618 121.763 59.7481 121.763C59.5842 121.735 59.4749 121.571 59.5022 121.407L59.8711 119.385C59.8984 119.222 60.0623 119.112 60.2263 119.14C60.3902 119.167 60.4995 119.331 60.4722 119.495L60.1033 121.517C60.076 121.653 59.9531 121.763 59.8028 121.763Z" fill="#582583"/>
<path d="M41.5234 142.227C41.3868 142.227 41.2639 142.131 41.2366 141.995L39.2147 133.101C39.1737 132.937 39.283 132.773 39.4469 132.746C39.6109 132.705 39.7748 132.814 39.8021 132.978L41.824 141.872C41.865 142.036 41.7557 142.2 41.5918 142.227C41.5644 142.227 41.5508 142.227 41.5234 142.227Z" fill="#582583"/>
<path d="M17.572 178.415C17.449 178.415 17.3397 178.347 17.2988 178.224C17.2305 178.074 17.3124 177.896 17.4627 177.828C23.4463 175.396 22.572 161.954 22.5583 161.817C22.5447 161.653 22.6676 161.503 22.8316 161.489C23.0091 161.476 23.1458 161.598 23.1594 161.762C23.2004 162.336 24.0747 175.779 17.6949 178.374C17.654 178.415 17.613 178.415 17.572 178.415Z" fill="white"/>
<path d="M30.8017 125.506C28.9711 125.205 27.6596 123.58 27.7552 121.736L27.9055 118.867C29.6405 118.73 31.0749 117.91 31.0749 117.364C31.0749 117.091 30.4328 114.495 30.0367 113.416C30.3782 113.143 30.7744 112.391 30.064 111.927C29.3399 111.462 27.7143 108.539 27.7143 108.539C25.7061 106.216 25.1323 109.495 23.6296 109.768C22.5913 109.96 22.0312 110.588 22.4274 111.94C22.8235 113.293 22.0722 112.61 21.3072 112.227C20.5421 111.845 20.023 112.145 20.4465 113.375C20.87 114.604 22.3864 115.342 22.3864 115.342L23.1104 116.763L21.5804 123.73C21.2935 125.042 20.3372 126.121 19.0667 126.572L16.9629 127.323L28.0011 133.088L33.329 125.916L30.8017 125.506Z" fill="white"/>
<path d="M28.0185 133.388C27.9775 133.388 27.9229 133.375 27.8819 133.347L16.8436 127.582C16.7343 127.528 16.6797 127.418 16.6797 127.295C16.6933 127.172 16.7617 127.077 16.8846 127.036L18.9884 126.285C20.177 125.861 21.0376 124.877 21.2972 123.662L22.7999 116.804L22.1715 115.574C21.8163 115.383 20.5595 114.645 20.1633 113.484C19.9174 112.746 19.9447 112.227 20.2589 111.954C20.4229 111.817 20.7781 111.64 21.4475 111.968C21.5841 112.036 21.7343 112.118 21.8709 112.2C21.9802 112.254 22.1168 112.336 22.2261 112.391C22.2125 112.309 22.1852 112.2 22.1442 112.022C21.9393 111.298 21.9666 110.711 22.2398 110.26C22.4994 109.85 22.9502 109.577 23.5923 109.468C24.0294 109.386 24.4119 108.935 24.7808 108.511C25.2453 107.965 25.7234 107.405 26.4065 107.405C26.8983 107.405 27.4037 107.705 27.9502 108.334C27.9638 108.347 27.9775 108.361 27.9912 108.388C28.6059 109.495 29.7535 111.366 30.2316 111.667C30.6551 111.94 30.7507 112.282 30.7781 112.514C30.8054 112.883 30.6278 113.238 30.4092 113.484C30.8054 114.645 31.3928 117.036 31.3928 117.35C31.3928 118.115 29.9174 118.935 28.2097 119.14L28.0731 121.749C27.9912 123.443 29.1797 124.932 30.86 125.205L33.4147 125.615C33.524 125.629 33.6059 125.697 33.6469 125.793C33.6879 125.888 33.6742 125.998 33.6059 126.08L28.2781 133.252C28.2097 133.347 28.1141 133.388 28.0185 133.388ZM17.7453 127.377L27.9365 132.705L32.8136 126.134L30.7507 125.793C28.7699 125.465 27.3491 123.716 27.4584 121.708L27.6087 118.839C27.6223 118.689 27.7316 118.566 27.8819 118.552C29.6442 118.416 30.7781 117.596 30.7781 117.35C30.7644 117.091 30.1496 114.577 29.7671 113.498C29.7261 113.375 29.7535 113.238 29.8628 113.156C29.9994 113.047 30.1906 112.774 30.177 112.541C30.1633 112.391 30.0813 112.268 29.9174 112.159C29.166 111.681 27.7179 109.099 27.4857 108.689C27.0759 108.224 26.7207 107.992 26.4201 107.992C26.0103 107.992 25.6414 108.429 25.2453 108.88C24.8081 109.386 24.3436 109.918 23.7016 110.041C23.2371 110.123 22.9229 110.301 22.7589 110.56C22.5813 110.847 22.5677 111.285 22.7316 111.831C22.8819 112.336 22.9229 112.719 22.6633 112.924C22.3764 113.142 22.0076 112.938 21.5704 112.692C21.4475 112.623 21.3108 112.541 21.1742 112.473C20.8873 112.323 20.7097 112.336 20.6551 112.377C20.6005 112.432 20.5321 112.678 20.7234 113.252C21.0923 114.345 22.4994 115.041 22.513 115.041C22.5677 115.069 22.6223 115.123 22.6496 115.178L23.3737 116.599C23.401 116.667 23.4147 116.735 23.401 116.804L21.8709 123.771C21.5567 125.205 20.5458 126.339 19.166 126.831L17.7453 127.377Z" fill="#582583"/>
<path d="M27.2903 119.249C25.9788 119.249 25.1728 118.306 24.8996 117.719C24.8313 117.569 24.8996 117.391 25.0499 117.323C25.2001 117.254 25.3777 117.323 25.446 117.473C25.4734 117.541 26.1837 118.976 27.8504 118.593C28.0143 118.552 28.1783 118.648 28.2193 118.812C28.2602 118.976 28.151 119.14 28.0007 119.181C27.7411 119.222 27.5089 119.249 27.2903 119.249Z" fill="#582583"/>
<path d="M66.1824 100.492L57.4939 102.445C56.4283 102.691 55.595 103.524 55.3628 104.604L54.2016 110.055L50.2261 105.574C49.5431 104.809 48.5048 104.467 47.5076 104.699L39.5158 106.503C37.9994 106.844 36.4966 105.888 36.1551 104.385L32.33 87.4179C31.9884 85.9015 32.9447 84.3988 34.4475 84.0573L61.1141 78.0463C62.6305 77.7048 64.1333 78.6611 64.4748 80.1638L68.2999 97.131C68.6414 98.6474 67.6852 100.15 66.1824 100.492Z" fill="white"/>
<path d="M54.2002 110.369C54.1182 110.369 54.0363 110.328 53.9816 110.273L50.0062 105.792C49.4051 105.109 48.4625 104.809 47.5745 105.014L39.5827 106.817C37.9024 107.2 36.2357 106.134 35.8669 104.467L32.0417 87.5001C31.6592 85.8334 32.7248 84.1531 34.3915 83.7842L61.0581 77.7733C62.7248 77.3908 64.4051 78.4564 64.774 80.123L68.5991 97.0902C68.9816 98.7569 67.916 100.437 66.2494 100.806L57.5608 102.76C56.6046 102.978 55.8669 103.73 55.6619 104.686L54.5007 110.137C54.4734 110.246 54.3914 110.342 54.2822 110.369C54.2548 110.355 54.2275 110.369 54.2002 110.369ZM48.121 104.331C48.9953 104.331 49.8559 104.7 50.4434 105.383L54.0226 109.426L55.0608 104.549C55.3067 103.361 56.2357 102.432 57.4242 102.159L66.1128 100.205C67.4652 99.9044 68.3122 98.552 68.0117 97.1995L64.1865 80.2323C63.886 78.8798 62.5335 78.0329 61.1811 78.3334L34.5144 84.3443C33.1619 84.6449 32.3149 85.9973 32.6155 87.3498L36.4406 104.317C36.5909 104.973 36.9871 105.533 37.5472 105.888C38.1073 106.243 38.7904 106.366 39.4461 106.216L47.4379 104.413C47.6565 104.358 47.8887 104.331 48.121 104.331Z" fill="#582583"/>
<path d="M40.2819 90.1502C40.1452 90.1502 40.0223 90.0546 39.995 89.918C39.954 89.754 40.0633 89.5901 40.2272 89.5628L59.3939 85.1912C59.5578 85.1502 59.7217 85.2595 59.7491 85.4234C59.7901 85.5874 59.6808 85.7513 59.5168 85.7786L40.3502 90.1502C40.3228 90.1366 40.3092 90.1502 40.2819 90.1502Z" fill="#582583"/>
<path d="M40.8434 94.7406C40.7068 94.7406 40.5838 94.645 40.5565 94.5083C40.5155 94.3444 40.6248 94.1805 40.7887 94.1531L54.9964 90.9154C55.1603 90.8745 55.3243 90.9837 55.3516 91.1477C55.3926 91.3116 55.2833 91.4755 55.1193 91.5029L40.9117 94.7406C40.8844 94.7406 40.8707 94.7406 40.8434 94.7406Z" fill="#582583"/>
<path d="M42.4059 99.2211C42.2693 99.2211 42.1463 99.1254 42.119 98.9888C42.078 98.8249 42.1873 98.661 42.3512 98.6336L61.5179 94.2621C61.6818 94.2211 61.8458 94.3304 61.8731 94.4943C61.9141 94.6582 61.8048 94.8222 61.6409 94.8495L42.4742 99.2211C42.4469 99.2211 42.4195 99.2211 42.4059 99.2211Z" fill="#582583"/>
<path d="M248.793 84.9318C249.572 84.9318 250.201 85.5602 250.201 86.3389V96.0383C250.201 96.817 249.572 97.4454 248.793 97.4454H222.072C221.293 97.4454 220.665 96.817 220.665 96.0383V86.3389C220.665 85.5602 221.293 84.9318 222.072 84.9318H248.793Z" fill="white"/>
<path d="M248.788 97.7462H222.067C221.124 97.7462 220.359 96.9811 220.359 96.0385V86.3391C220.359 85.3964 221.124 84.6314 222.067 84.6314H227.34C227.504 84.6314 227.641 84.768 227.641 84.932C227.641 85.0959 227.504 85.2325 227.34 85.2325H222.067C221.452 85.2325 220.96 85.7243 220.96 86.3391V96.0385C220.96 96.6533 221.452 97.1451 222.067 97.1451H248.788C249.403 97.1451 249.895 96.6533 249.895 96.0385V86.3391C249.895 85.7243 249.403 85.2325 248.788 85.2325H230.892C230.728 85.2325 230.592 85.0959 230.592 84.932C230.592 84.768 230.728 84.6314 230.892 84.6314H248.788C249.731 84.6314 250.496 85.3964 250.496 86.3391V96.0385C250.496 96.9811 249.731 97.7462 248.788 97.7462Z" fill="#582583"/>
<path d="M246.314 89.85H225.085C224.921 89.85 224.784 89.7134 224.784 89.5494C224.784 89.3855 224.921 89.2489 225.085 89.2489H246.314C246.478 89.2489 246.615 89.3855 246.615 89.5494C246.615 89.7134 246.478 89.85 246.314 89.85Z" fill="#582583"/>
<path d="M246.311 92.6916H241.871C241.707 92.6916 241.57 92.5549 241.57 92.391C241.57 92.2271 241.707 92.0905 241.871 92.0905H246.311C246.475 92.0905 246.611 92.2271 246.611 92.391C246.611 92.5549 246.475 92.6916 246.311 92.6916Z" fill="#582583"/>
<path d="M239.019 92.6916H225.057C224.893 92.6916 224.757 92.5549 224.757 92.391C224.757 92.2271 224.893 92.0905 225.057 92.0905H239.019C239.183 92.0905 239.32 92.2271 239.32 92.391C239.32 92.5549 239.183 92.6916 239.019 92.6916Z" fill="#582583"/>
</svg>
