<svg width="301" height="206" viewBox="0 0 301 206" fill="none" xmlns="http://www.w3.org/2000/svg">
<path d="M300.219 204.839H286.398C288.033 203.702 287.962 202.189 287.77 200.718C287.073 195.41 286.846 194.166 286.15 193.697V190.3H287.265L288.793 149.093H288.8C289.177 148.453 294.122 126.652 290.392 109.733C292.083 106.024 298.457 91.5203 298.997 87.3278C300.319 77.1236 296.233 67.7792 296.119 67.296C295.899 66.3723 292.374 58.6339 291.138 56.9853C288.224 53.1267 279.356 51.2294 274.737 51.0234L274.226 46.2197C274.297 46.1202 274.354 46.0208 274.418 45.9213C277.814 42.9439 279.875 37.5504 277.452 33.0168C274.553 27.5879 262.593 29.8191 261.044 31.7093C259.879 33.1305 261.357 35.5963 262.153 36.7261C262.124 39.7533 262.281 47.7333 264.775 49.4672C265.144 49.7301 265.62 49.8793 266.21 49.9504L266.48 51.3929C262.174 52.1603 256.83 54.5337 255.594 55.2585C255.565 55.2656 255.537 55.2798 255.516 55.294C249.397 58.8826 247.251 65.953 246.548 69.4278L242.171 54.484C242.107 54.2566 241.872 54.1145 241.638 54.1713L241.304 54.2495C240.856 51.2365 239.527 45.3883 237.516 42.7023L241.112 36.8683H249.454C249.696 36.8683 249.902 36.6693 249.902 36.4206V9.16917C249.902 8.92757 249.696 8.7215 249.454 8.7215C246.036 8.70729 261.833 8.77124 216.028 8.58649C215.701 8.58649 215.438 8.8423 215.438 9.17628V36.4419C215.438 36.7688 215.694 37.0317 216.028 37.0317C217.364 37.0175 221.883 36.9464 224.207 36.8896L228.428 43.7042C227.888 44.3793 227.369 45.1467 226.879 46.0136C224.619 50.0143 228.747 54.0576 229.565 54.7895L229.863 56.9142L229.501 56.9995C229.295 57.0563 229.138 57.2411 229.152 57.4543C229.209 58.7404 230.495 88.9195 241.375 93.9719C244.381 95.3717 249.476 93.7089 253.277 88.6424C253.334 93.6166 252.51 103.522 252.069 108.468C252.083 108.56 251.863 109.257 252.481 109.257H253.441L252.503 109.271L252.069 149.1C252.069 149.1 255.132 182.733 256.276 190.308H257.448V192.226C256.411 191.892 255.942 192.994 255.999 194.244C256.084 196.76 254.229 197.08 251.622 197.769C247.124 198.963 246.505 199.481 246.05 201.89C246.015 203.063 246.562 204.164 247.55 204.846H228.2C229.43 204.051 230.481 203.013 231.298 201.72C237.587 191.821 243.727 192.638 243.784 192.638C244.146 192.709 244.43 192.304 244.253 191.985C244.21 191.906 241.226 186.648 235.64 183.941C238.262 175.946 242.291 175.79 242.334 174.966C242.355 174.795 242.277 174.625 242.128 174.532C241.986 174.44 227.376 165.522 216.006 176.728C215.942 176.792 215.879 176.856 215.822 176.913V45.0259C215.822 44.962 215.807 44.9051 215.786 44.8483C215.722 44.6848 215.559 44.5711 215.374 44.5711C208.986 44.5711 128.312 44.5782 101.174 44.5782C100.932 44.5782 100.733 44.7772 100.733 45.0188V176.458C89.4206 165.671 75.0523 174.44 74.896 174.525C74.7539 174.618 74.6686 174.788 74.6899 174.959C74.7112 175.129 74.8249 175.271 74.9884 175.335C75.0452 175.357 79.0956 176.913 81.4051 183.934C75.8127 186.634 72.8282 191.892 72.7784 191.977C72.7003 192.12 72.7074 192.311 72.8068 192.446C73.2829 193.136 78.9748 191.103 85.7326 201.72C86.5498 203.013 87.6015 204.051 88.8308 204.846H78.3992C78.7261 204.491 78.9322 204.022 78.9322 203.51C78.9322 201.073 77.106 199.048 74.6828 198.792L71.2222 198.43L63.8817 194.045L63.8462 193.242H66.8662L64.6421 145.249L60.9328 148.979C60.7622 149.15 60.478 149.157 60.3003 148.979C60.1227 148.802 60.1227 148.517 60.3003 148.347L64.5923 144.033L63.5051 120.584L62.759 120.69C59.405 121.181 56.392 118.516 56.5057 115.098L56.7616 107.189C56.7687 107.018 56.9108 106.869 57.0884 106.883C57.259 106.891 57.4011 107.033 57.394 107.21L57.1382 115.119C57.0387 118.125 59.6892 120.506 62.6737 120.065L63.4483 119.951C63.4625 119.951 63.4696 119.951 63.4767 119.951L62.7661 104.652H63.6544C63.896 104.652 64.102 104.453 64.102 104.204V77.8697C65.914 79.6178 70.5116 83.7677 73.9296 84.4285C74.4767 84.6488 79.5717 85.4376 82.0091 79.8239C85.6118 73.3361 87.4451 54.2921 87.7649 46.9161C87.7933 46.2481 86.834 46.4613 85.7184 46.1842C86.7274 42.8586 88.9658 41.949 92.0214 41.4587C98.8573 40.3644 101.309 34.6512 99.7385 33.365C99.909 32.3986 99.5608 31.9154 99.2482 31.688C99.3263 30.7642 98.8929 30.2242 98.2818 30.0536C98.431 29.0943 98.0757 28.6182 97.7204 28.3837C97.0951 27.9716 96.2068 28.1777 95.8373 28.4761C93.6273 30.2597 89.5983 32.6118 87.1396 32.6615C88.1131 31.0058 87.1325 29.542 87.1041 29.4354C86.898 29.0801 86.4716 28.9451 86.1945 29.0872C77.0775 31.4038 77.2339 34.8999 74.5478 44.429L72.9419 44.1732C72.7145 44.1377 72.4871 44.2798 72.4302 44.5143C72.4089 44.5925 70.6964 52.1532 69.4315 57.2482C66.4612 54.0505 63.7325 51.6203 61.5012 50.1849C57.2661 47.4491 51.6026 46.8379 46.5503 46.5963C46.5432 45.6086 46.5787 45.3102 46.6569 44.3651C47.8507 44.2158 48.81 43.6545 49.5277 42.7165C50.7712 41.0892 51.0412 38.6021 50.9844 36.4632C52.9599 33.2584 51.5387 29.5846 51.5387 29.5846C51.7305 28.3979 51.5884 27.0549 50.5225 25.9535C48.2202 23.5801 41.5477 27.2183 39.8422 28.2061C39.5722 27.7939 39.025 27.1331 38.1155 26.8062C37.1277 26.458 35.9837 26.6072 34.733 27.2539C32.7931 28.2487 32.3454 32.1002 33.1484 35.0847C33.9301 37.9839 35.6852 39.6467 37.9876 39.6964C38.8048 42.148 38.6626 43.5905 38.0515 46.4542C37.5754 46.5111 27.7834 45.8573 20.4429 51.5847C19.2846 46.305 19.8034 47.4633 18.4959 47.3496C19.8887 44.4717 19.2136 42.084 18.169 39.3056C16.357 34.4664 16.897 33.7843 16.5915 30.7145H29.0909C29.3396 30.7145 29.5386 30.5155 29.5386 30.2668V23.5659C29.5386 23.3243 29.3396 23.1182 29.0909 23.1182H2.9409C2.69219 23.1182 2.49323 23.3243 2.49323 23.5659V30.2668C2.49323 30.5155 2.69219 30.7145 2.9409 30.7145H11.5107C11.4539 31.4322 11.4396 32.157 11.4396 32.8392C11.4396 33.5142 11.4752 34.1964 11.5462 34.8644C10.9138 34.6796 10.125 34.9639 9.67026 35.98C9.44287 35.8095 9.17995 35.7171 8.89571 35.7171C8.31302 35.7171 7.82981 36.0653 7.51715 36.6977C7.28976 36.5272 7.03395 36.4348 6.7426 36.4348C6.032 36.4348 5.47774 37.0033 5.25035 37.9484C5.25035 38.0407 3.69414 43.825 5.34272 48.3089C5.09401 48.3728 4.26972 48.2023 4.29104 48.8205C4.49711 56.7437 5.9041 75.6313 9.4784 82.8297C12.3563 88.5003 19.3912 87.3278 24.0528 83.1068L25.7298 81.6146V104.19C25.7298 104.396 25.8648 104.553 26.0424 104.61L23.264 150.848L27.286 154.891C27.4636 155.069 27.4636 155.353 27.286 155.524C27.1083 155.701 26.8241 155.694 26.6535 155.524L23.1929 152.049L20.7129 193.228H22.9798L23.1716 194.727L23.0153 203.461C23.0082 203.972 23.1929 204.463 23.5411 204.832H1.11467C0.865959 204.832 0.666992 205.031 0.666992 205.28C0.666992 205.529 0.865959 205.728 1.11467 205.728H300.219C300.468 205.728 300.667 205.529 300.667 205.28C300.667 205.038 300.468 204.839 300.219 204.839ZM249.014 35.9871H240.863C240.714 35.9871 240.565 36.0653 240.487 36.2003L236.912 41.9917C235.05 40.0091 233.473 40.5847 232.435 40.4639L229.749 36.1292C229.643 35.9587 229.451 35.8521 229.245 35.8521C227.781 35.8663 223.425 35.9303 221.251 35.9871V9.62396H249.007V35.9871H249.014ZM227.667 46.4613C228.072 45.7436 228.499 45.1041 228.946 44.5214L229.948 46.1416C230.176 46.5395 230.694 46.3832 230.986 46.4187C231.789 47.4277 232.684 47.5628 233.913 47.7191C233.118 49.0763 233.203 51.1726 234.226 52.2314C234.39 52.3948 234.66 52.4232 234.866 52.2385C235.434 51.67 234.176 51.5563 234.283 49.6306C234.319 48.8205 234.617 48.1028 235.079 47.7191C235.214 47.6054 235.271 47.4135 235.214 47.243C234.93 46.3476 231.839 47.6338 231.163 44.7204C230.957 43.754 231.192 42.7023 231.767 41.9348C233.985 40.7268 236.401 42.4038 237.417 44.2443C239.328 47.7901 240.209 52.9917 240.43 54.4627L230.737 56.7081L230.424 54.4982C230.403 54.3916 230.353 54.2921 230.275 54.2211C230.233 54.1855 225.585 50.1351 227.667 46.4613ZM10.3453 29.8049V23.9993H28.6432V29.8049C28.2311 29.8049 9.15153 29.8049 10.3453 29.8049ZM15.6251 30.7003C15.888 32.7539 15.5611 34.2462 16.4991 37.3444C15.2129 37.1454 13.7207 37.0956 12.5269 37.6002C12.3634 36.5982 12.605 35.9303 12.5766 35.7597C12.4274 34.8289 12.3421 33.8127 12.3421 32.825C12.3421 32.0362 12.3705 31.3256 12.4345 30.7003H15.6251ZM6.11017 38.2468C6.11017 38.2468 6.11017 38.2468 6.11017 38.2397C6.1528 38.1473 6.28782 37.323 6.74971 37.323C6.96289 37.323 7.11922 37.522 7.21159 37.6926C6.53653 40.7481 8.19933 40.4355 8.07142 39.6751C7.88666 38.5595 8.11405 37.792 8.11405 37.7778C8.11405 37.7707 8.11405 37.7565 8.11405 37.7423C8.11405 37.7352 8.12116 37.7281 8.12826 37.721C8.25617 37.0317 8.54752 36.5982 8.90282 36.5982C9.07336 36.5982 9.25101 36.7332 9.37892 36.9535C9.31496 37.3799 9.22969 38.261 9.4784 39.1635C9.53525 39.3625 9.7129 39.4904 9.91187 39.4904C10.7859 39.4904 9.98292 38.6945 10.3027 36.982C10.5017 35.8663 11.1341 35.3902 11.6457 35.9516C11.5818 36.3353 11.4965 37.1738 11.7097 38.055C9.93318 39.4051 11.1199 41.3024 13.3369 41.3806C11.7168 42.9012 11.7878 44.8625 12.9888 46.7669C13.2943 47.2572 14.0689 46.7953 13.7491 46.2908C12.335 44.0524 13.0527 42.2333 15.0211 41.3095C15.4687 41.1176 15.3408 40.4355 14.8079 40.4497C11.1554 40.7126 11.0133 39.064 13.0953 38.3321C14.3531 37.8915 16.222 38.19 16.8118 38.3037C17.8563 41.2953 19.3415 44.4006 17.4016 47.3638L6.20255 48.0389C5.25035 45.5091 5.36404 40.94 6.11017 38.2468ZM286.988 201.599C287.052 202.025 286.995 202.445 286.853 202.835C278.809 202.835 273.202 202.835 265.251 202.835C264.562 200.824 265.926 199.915 267.724 199.304C268.235 200.178 268.839 199.851 271.504 199.517C275.398 199.027 274.354 198.394 277.502 195.85C277.594 195.9 278.731 198.16 281.701 196.987C282.824 196.547 282.795 195.779 284.757 194.87C285.013 194.749 285.524 194.543 285.801 194.543C286.235 195.523 286.903 201.13 286.988 201.599ZM271.54 174.049C271.568 174.276 271.426 174.468 271.206 174.525C271.184 174.532 271.17 174.547 271.142 174.547H271.135C271.113 174.554 271.106 174.554 271.092 174.554C270.865 174.554 270.673 174.383 270.644 174.149C269.351 162.537 267.958 149.271 267.951 149.136L268.52 122.737C268.527 122.488 268.733 122.325 268.974 122.296C269.223 122.296 269.422 122.502 269.415 122.751L269.358 125.359C269.095 125.913 268.534 127.391 268.861 127.718C268.918 127.882 269.074 128.088 269.301 128.208L268.846 149.1C268.868 149.171 270.083 160.903 271.312 171.953C271.383 172.656 271.454 173.353 271.54 174.049ZM277.502 130.433C277.153 130.262 277.224 128.72 277.85 126.645C277.949 126.396 278.184 125.807 278.404 125.061C278.475 124.826 278.34 124.57 278.098 124.506C277.544 124.343 277.523 124.989 277.16 125.935C277.061 126.07 275.583 130.312 274.723 129.743C272.478 128.258 277.708 124.542 276.095 124.002C275.427 123.789 275.64 124.52 274.496 126.61C274.474 126.631 274.446 126.652 274.432 126.681C272.229 130.241 270.509 130.276 272.698 126.134C272.698 126.041 273.444 125.309 274.268 123.654C274.375 123.44 274.29 123.17 274.069 123.05C273.842 122.943 273.579 123.028 273.465 123.256C272.691 124.79 271.966 125.508 271.966 125.601C271.575 126.112 269.991 127.725 269.678 127.413C269.472 126.311 271.533 123.32 272.762 121.529C274.204 119.44 274.503 118.942 274.311 118.523C274.219 118.317 273.927 118.118 273.636 118.246C271.76 119.134 268.115 120.214 267.766 118.011C267.738 117.812 267.802 117.606 267.958 117.4C268.996 115.986 273.671 115.048 275.398 114.778L283.506 118.111C282.959 120.051 279.335 131.243 277.502 130.433ZM267.994 190.3H270.623L271.191 175.016C271.93 181.61 272.634 187.607 273.039 190.3H275.604V192.219C275.057 192.041 274.489 192.276 274.219 193.171C273.906 194.258 274.716 195.445 273.16 196.561C272.378 197.115 270.431 197.605 269.223 197.904C268.647 194.081 268.392 193.804 268.015 193.697C268.008 193.697 268.001 193.697 268.001 193.697V190.3H267.994ZM285.254 193.726C284.231 193.988 282.838 194.855 282.128 195.609C281.076 196.717 278.901 196.582 278.305 195.445C278.241 195.317 278.091 195.061 278.042 194.969C277.644 194.273 277.047 193.356 276.5 192.809V190.293H285.254V193.726ZM267.233 50.5899C268.441 50.398 269.415 49.5453 269.763 48.6784C269.834 48.5078 269.777 48.316 269.635 48.2094C269.493 48.0957 269.294 48.0886 269.145 48.1952C268.051 48.9911 266.395 49.5169 265.279 48.7352C263.432 47.442 263.041 40.8902 263.041 37.1525C267.432 35.3476 269.415 38.0763 269.415 38.0763C269.401 39.5117 269.87 41.2384 270.68 41.0537C271.163 40.94 270.431 38.3747 271.71 37.4794C272.989 36.584 274.318 39.8741 273.998 41.4445C273.799 42.4322 273.003 45.1965 273.309 46.0918C273.309 46.1131 273.302 46.1345 273.302 46.1487C273.309 46.241 273.885 51.6061 273.849 51.265C273.792 51.3573 270.758 56.3031 270.95 55.9904L267.816 52.0893H267.809L267.404 51.5776C267.404 51.4853 267.212 50.5046 267.233 50.5899ZM253.363 103.814H271.127C271.376 103.814 271.575 103.615 271.575 103.366C271.575 103.117 271.376 102.918 271.127 102.918H253.434C253.938 96.4447 254.279 91.5203 254.144 87.2638C254.144 87.2567 254.144 87.2567 254.144 87.2496V83.4408C254.144 83.1921 253.945 82.9931 253.697 82.9931C253.448 82.9931 253.249 83.1921 253.249 83.4408V87.1075C249.675 92.5862 244.601 94.4906 241.751 93.1618C238.838 91.8046 236.642 88.4861 234.994 84.4001C235.015 84.3077 235.015 84.2011 234.972 84.1088C232.968 79.8736 234.972 73.3859 234.994 73.3219C235.065 73.0874 234.937 72.8316 234.702 72.7605C234.468 72.6895 234.212 72.8174 234.141 73.0519C234.084 73.2224 233.274 75.8587 233.189 78.9143C230.773 69.9679 230.176 59.92 230.076 57.7883C242.746 54.8606 240.906 55.2941 241.432 55.159L246.193 71.3891L244.16 73.9757C244.011 74.1746 244.039 74.4518 244.238 74.6081C244.437 74.7644 244.715 74.7289 244.871 74.5299L247.038 71.7586C247.045 71.7515 247.045 71.7444 247.045 71.7373C247.074 71.7017 247.088 71.6662 247.102 71.6165C247.109 71.6023 247.109 71.5881 247.116 71.5738C247.123 71.5596 247.131 71.5383 247.131 71.5241C247.138 71.4459 247.72 65.6617 251.053 60.7799C253.718 57.234 260.596 56.3031 260.667 56.296C260.916 56.2676 261.087 56.0402 261.058 55.7915C261.03 55.5428 260.795 55.3651 260.554 55.4006C260.355 55.4291 257.221 55.8483 254.279 57.2411C254.791 56.8289 255.338 56.4452 255.928 56.097C255.963 56.0757 255.992 56.0686 256.02 56.0544C257.093 55.422 262.622 52.9491 266.807 52.2314L270.666 57.0421C271.397 57.9162 271.902 55.7773 274.524 51.8974C279.2 52.2314 287.599 53.7805 290.427 57.5182C290.868 58.0938 291.244 58.7689 291.586 59.5079L291.593 59.515C291.593 59.6216 292.09 60.4032 293.497 63.4233C292.062 62.329 290.598 61.9026 290.484 61.8742C290.243 61.8102 290.001 61.9452 289.93 62.1868C289.866 62.4284 290.001 62.6701 290.243 62.7411C290.278 62.7482 293.277 63.6294 294.684 66.0951C297.533 72.9098 299.061 79.8452 298.109 87.1999C297.839 89.2677 295.785 94.8388 293.334 100.737C293.263 98.2355 292.211 96.6153 292.147 96.5158C292.012 96.3097 291.735 96.2529 291.529 96.395C291.323 96.53 291.266 96.8072 291.401 97.0132C293.966 100.879 291.323 105.37 289.582 109.363C287.841 113.158 286.242 116.356 285.275 117.841L284.252 117.422C275.242 113.698 276.066 113.748 275.526 113.84L274.432 113.393C274.396 113.108 274.354 112.817 274.304 112.54L275.405 109.321L275.718 108.425L284.096 84.0448H287.677C287.926 84.0448 288.125 83.8459 288.125 83.5971C288.125 83.3484 287.926 83.1495 287.677 83.1495H284.096C283.613 81.7567 281.495 75.4821 280.06 69.0157C280.003 68.7741 279.775 68.6178 279.52 68.6746C279.278 68.7172 279.122 68.9588 279.179 69.2076C280.678 75.9724 282.93 82.5455 283.3 83.6043L274.766 108.425L252.972 108.354C253.064 107.352 253.206 105.761 253.363 103.814ZM258.344 192.816V190.3H267.098V193.733C266.018 194.01 264.455 195.012 263.815 195.779C263.119 196.596 260.76 196.646 260.149 195.452C259.68 194.557 259.047 193.527 258.344 192.816ZM249.568 199.304C249.888 199.851 250.264 199.908 250.847 199.83C258.131 198.97 255.374 199.012 259.346 195.857C260.653 197.79 263.545 197.513 264.512 196.355C265.052 195.687 266.871 194.55 267.653 194.55C267.823 194.948 268.058 196.156 268.356 198.16C265.89 198.899 263.602 199.965 264.327 202.843H247.102C246.996 202.537 246.946 202.203 246.96 201.848C247.06 200.334 248.047 199.822 249.568 199.304ZM214.905 204.399C208.765 204.399 113.268 204.399 107.328 204.399V66.4362H214.905C214.905 70.1171 214.905 208.065 214.905 204.399ZM209.881 55.7275C209.881 57.0919 208.773 58.2004 207.408 58.2004H153.815C152.451 58.2004 151.342 57.0919 151.342 55.7275C151.342 54.3632 152.451 53.2546 153.815 53.2546H207.408C208.773 53.2546 209.881 54.3632 209.881 55.7275ZM139.468 55.7275C139.468 57.3335 138.168 58.6339 136.562 58.6339C134.956 58.6339 133.655 57.3335 133.655 55.7275C133.655 54.1216 134.956 52.8212 136.562 52.8212C138.168 52.8212 139.468 54.1216 139.468 55.7275ZM129.754 55.7275C129.754 57.3335 128.454 58.6339 126.848 58.6339C125.242 58.6339 123.941 57.3335 123.941 55.7275C123.941 54.1216 125.242 52.8212 126.848 52.8212C128.454 52.8212 129.754 54.1216 129.754 55.7275ZM120.04 55.7275C120.04 57.3335 118.74 58.6339 117.134 58.6339C115.528 58.6339 114.228 57.3335 114.228 55.7275C114.228 54.1216 115.528 52.8212 117.134 52.8212C118.74 52.8212 120.04 54.1216 120.04 55.7275ZM243.016 191.715C240.977 191.807 235.811 192.923 230.531 201.237C229.671 202.58 228.556 203.653 227.22 204.392H215.8V198.87C224.512 186.954 235.2 190.308 235.704 190.478C235.939 190.556 236.187 190.421 236.273 190.194C236.351 189.959 236.23 189.711 235.988 189.625C235.861 189.59 224.853 186.094 215.807 197.406V189.05C221.236 182.768 234.61 179.144 243.016 191.715ZM240.92 174.888C239.513 175.712 236.621 178.014 234.78 183.55C230.609 181.823 226.53 182.093 222.317 183.656C224.939 180.857 228.321 178.853 232.322 177.78C232.556 177.716 232.698 177.474 232.634 177.233C232.57 176.991 232.322 176.856 232.087 176.92C227.284 178.206 223.34 180.778 220.469 184.452C218.543 185.397 217.008 186.527 215.8 187.771V178.22C222.587 170.731 232.386 170.418 240.92 174.888ZM76.0827 174.888C91.5666 166.709 100.57 177.673 100.719 177.709V187.309C99.6035 186.257 98.2391 185.291 96.5621 184.474C93.6913 180.793 89.7333 178.213 84.9154 176.92C84.6809 176.856 84.4322 176.991 84.3683 177.233C84.3043 177.474 84.4464 177.716 84.6809 177.78C88.6816 178.86 92.064 180.857 94.679 183.656C90.5007 182.107 86.4219 181.802 82.2223 183.557C80.3889 178.007 77.4826 175.719 76.0827 174.888ZM86.4645 201.237C81.1848 192.93 76.0187 191.807 73.9793 191.715C81.2914 180.778 93.8334 181.311 100.712 188.51V196.845C91.7585 186.229 81.135 189.59 81.0071 189.632C80.7726 189.711 80.6447 189.966 80.7229 190.201C80.8011 190.435 81.064 190.563 81.2914 190.485C81.4122 190.443 92.0001 187.089 100.712 198.259V204.392H93.336H89.7759C88.4329 203.653 87.3243 202.587 86.4645 201.237ZM29.3609 197.051C29.8228 197.136 29.7517 196.881 32.9707 194.82C40.8371 199.503 40.3539 199.275 40.5457 199.297C42.7273 199.787 45.7402 198.991 47.133 201.784H23.9391L24.0528 195.438C24.1451 195.467 29.702 197.158 29.3609 197.051ZM48.4476 203.503C48.4476 201.066 46.6213 199.041 44.1982 198.785L40.7376 198.423L33.3971 194.038L33.3616 193.235H36.609L44.6317 146.108C44.6317 146.108 44.6317 146.108 44.6245 146.108C44.454 146.08 44.3403 145.909 44.3758 145.739L47.6872 127.924C47.7156 127.754 47.872 127.647 48.0567 127.676C48.2273 127.704 48.341 127.874 48.3054 128.045L44.9941 145.86C44.9656 145.995 44.8519 146.087 44.724 146.101L50.4514 193.235H53.436L53.6278 194.735L53.4715 203.468C53.4644 203.979 53.6491 204.47 53.9973 204.839H47.9146C48.2415 204.484 48.4476 204.022 48.4476 203.503ZM43.8216 118.203C43.8216 118.033 43.9637 117.891 44.1342 117.891C45.4488 117.891 46.5218 116.818 46.5218 115.503V108.809C46.5218 108.639 46.664 108.496 46.8345 108.496C47.0051 108.496 47.1472 108.639 47.1472 108.809V115.503C47.1472 117.166 45.797 118.516 44.1342 118.516C43.9637 118.516 43.8216 118.381 43.8216 118.203ZM71.0019 199.304L74.562 199.68C75.9122 199.822 77.0207 200.654 77.5892 201.791H54.3953L54.509 195.445C54.6013 195.474 60.1511 197.165 59.8171 197.058C59.8242 197.058 59.8313 197.058 59.8384 197.058C59.9663 197.087 60.1156 197.058 60.1937 197.001C60.2861 196.937 63.633 194.685 63.4198 194.827L70.8101 199.24C70.874 199.275 70.938 199.297 71.0019 199.304ZM62.9509 194.06C62.8585 194.123 59.675 196.269 59.874 196.134C59.7816 196.106 54.1394 194.393 54.5019 194.5L54.3384 193.235H62.9153L62.9509 194.06ZM60.5348 153.108L62.7093 150.926C62.8869 150.749 63.1711 150.749 63.3417 150.926C63.5193 151.104 63.5193 151.388 63.3417 151.559L61.1673 153.74C60.9967 153.911 60.7125 153.918 60.5348 153.74C60.3572 153.57 60.3572 153.285 60.5348 153.108ZM75.4005 44.5356C78.179 34.6725 77.8166 32.3062 86.3224 29.947C86.3366 30.0394 87.1893 31.4535 85.9387 32.6686L82.542 35.5323C82.336 35.71 82.3288 36.0227 82.5207 36.2003C82.542 36.2216 84.7307 38.3108 83.615 40.1868C83.4871 40.3999 83.5582 40.6771 83.7714 40.805C83.9845 40.9329 84.2617 40.8618 84.3896 40.6486C85.555 38.6803 84.1693 36.7119 83.48 35.9161L86.365 33.4858C89.1719 33.9406 93.9329 31.1195 96.3489 29.1583C96.4626 29.0659 96.9103 28.9451 97.1661 29.1156C97.3793 29.2578 97.4077 29.6557 97.2656 30.2029C96.7966 30.6861 93.9684 33.4645 90.7139 34.2177C90.4723 34.2746 90.3231 34.5162 90.3799 34.7578C90.4368 34.9994 90.6784 35.1486 90.92 35.0918C94.3379 34.2959 97.2016 31.553 97.8554 30.885C98.2889 30.9206 98.3386 31.2474 98.2818 31.7164C97.7417 32.3062 95.0059 35.1273 91.8224 35.8734C91.5808 35.9303 91.4316 36.1719 91.4884 36.4135C91.5453 36.6551 91.7869 36.8043 92.0285 36.7475C95.2262 36.0013 97.898 33.4361 98.765 32.5194C98.8716 32.7326 98.8289 33.0666 98.7721 33.3295C98.4026 33.7558 95.6454 36.854 92.3341 37.6215C92.0925 37.6783 91.9432 37.9199 92.0001 38.1615C92.0569 38.4032 92.2985 38.5524 92.5401 38.4955C95.7307 37.7565 98.3386 35.1415 99.1984 34.1964C99.7598 35.4684 97.1377 39.7178 91.8224 40.5634C89.6693 40.9116 86.9975 41.3379 85.2139 44.7985C85.0362 45.1325 84.8728 45.6655 84.7662 46.035C71.9257 43.9813 76.3598 44.6919 75.4005 44.5356ZM38.8048 46.9587C39.4159 43.8819 39.7925 42.3114 38.7053 39.1706C38.6911 39.128 38.6626 39.0995 38.6342 39.064C38.5347 37.4225 38.7266 36.0653 38.9753 35.9658C38.9895 35.9658 39.0321 35.9729 39.1103 36.0227C40.3468 36.8327 41.3132 36.2358 40.6523 34.637C40.496 34.2817 40.2757 33.7914 40.4462 33.5782C40.567 33.429 41.0929 33.1092 43.3597 33.4929C45.1291 33.7914 46.5218 33.7558 47.5806 33.5924C47.9288 34.0685 48.2983 34.5375 48.6465 34.9639C48.0354 34.971 47.4954 35.5039 47.8791 35.909C48.0496 36.0866 48.3339 36.1008 48.5115 35.9303C48.5968 35.8521 48.6821 35.8379 48.7815 35.8947C48.9663 36.0084 49.2079 35.9658 49.35 35.8024C49.6129 36.115 49.8545 36.378 50.0393 36.584C50.153 43.7113 45.9178 45.033 42.841 42.1551C43.1252 42.5602 44.1769 43.8676 45.7118 44.2301C45.6549 45.3741 45.6265 44.3153 45.5981 47.044C45.6052 47.2217 45.7047 47.3638 45.8468 47.4491C45.8468 47.4491 45.8468 47.4491 45.8539 47.4491C45.9036 47.4775 47.0264 47.6125 47.7867 47.7262C46.8985 49.8296 44.8448 51.201 42.5283 51.201C40.0909 51.201 37.9449 49.6661 37.142 47.4064C38.2931 47.3069 38.6982 47.4064 38.8048 46.9587ZM23.463 82.446C19.2278 86.2264 12.8751 87.5552 10.2885 82.4247C9.43576 80.705 8.71806 78.3174 8.11405 75.6029C8.15669 75.3684 8.09984 75.6669 7.71612 73.663C7.31818 69.9039 9.40023 65.6475 9.42866 65.5977C9.54235 65.3774 9.44998 65.1074 9.22969 64.9937C9.00941 64.88 8.73938 64.9724 8.62568 65.1927C8.55462 65.3348 7.574 67.3316 7.06948 69.84C6.17412 63.9065 5.6767 57.568 5.42089 53.411L16.0017 52.6364C16.2504 52.6151 16.4351 52.4019 16.4138 52.1532C16.3925 51.9045 16.1509 51.7268 15.9306 51.7411L5.36404 52.5156C5.27166 50.9594 5.22192 49.794 5.2006 49.2042L18.7446 48.2023C20.3221 55.6209 21.3312 59.8348 21.3525 59.9414C21.4093 60.183 21.6509 60.3393 21.8925 60.2753C22.1341 60.2114 22.2763 59.9698 22.2265 59.7353C22.1341 59.3302 21.7291 57.7314 20.5992 52.5369C25.95 48.1454 32.9281 47.4135 36.1898 47.3212C37.0069 50.1422 39.5722 52.0893 42.5354 52.0893C45.3778 52.0893 47.872 50.2914 48.7815 47.6196C53.0096 47.9465 57.4153 48.6286 60.9683 50.9239C65.5943 53.9013 69.0691 58.3283 72.5155 62.5421C72.6789 62.7553 72.9916 62.734 73.1408 62.6061C73.3327 62.4427 73.354 62.1655 73.2048 61.9808L70.071 58.1933C70.1563 57.7669 69.4741 60.858 73.1693 45.1112C73.759 45.2036 87.3243 47.3496 86.7985 47.2643C86.7701 47.7475 86.7132 48.6429 86.628 49.8296L75.4218 48.0175C75.1731 47.9749 74.9457 48.1454 74.9102 48.387C74.8676 48.6358 75.0381 48.8631 75.2797 48.8987L86.564 50.7178C86.294 54.1784 85.8037 59.5079 84.9865 64.8161C84.5317 63.3878 83.8069 62.6061 83.75 62.5564C83.5795 62.3787 83.2953 62.3716 83.1176 62.5421C82.94 62.7127 82.9329 62.9969 83.0963 63.1746C83.1745 63.2527 84.8515 65.1003 84.3683 68.4401C83.7856 71.5667 82.6628 76.7044 81.1208 79.4757C79.124 83.2134 76.5304 83.5616 74.1143 83.5616C74.1072 83.5545 74.093 83.5545 74.0859 83.5545C70.4761 82.9363 64.8979 77.4505 64.0452 76.5907V69.8258C64.0452 69.5771 63.8462 69.3781 63.5975 69.3781C63.3488 69.3781 63.1498 69.5771 63.1498 69.8258C63.1498 72.7605 63.1498 59.2094 63.1569 98.4984H31.9475C31.6988 98.4984 31.4998 98.6973 31.4998 98.9461C31.4998 99.1948 31.6988 99.3937 31.9475 99.3937H63.1711V103.75H26.6322C26.6251 100.595 26.5043 74.7005 26.5043 73.3077C26.5043 73.059 26.3053 72.86 26.0566 72.86C25.8079 72.86 25.609 73.059 25.609 73.3077C25.6303 80.6482 25.5592 80.2644 25.6658 80.4705L23.463 82.446ZM26.014 120.037C25.8435 120.008 25.7227 119.852 25.7511 119.681C25.7795 119.511 25.9287 119.397 26.1064 119.418L30.4552 120.051C33.4611 120.484 36.0903 118.097 35.9908 115.105L35.7279 107.196C35.7208 107.026 35.8558 106.876 36.0334 106.869C36.204 106.848 36.3532 106.997 36.3603 107.175L36.6232 115.084C36.7369 118.48 33.7453 121.166 30.37 120.676L26.014 120.037ZM24.2091 157.485C24.3867 157.315 24.671 157.307 24.8415 157.485L27.0159 159.667C27.1936 159.844 27.1936 160.128 27.0159 160.299C26.8383 160.477 26.5541 160.47 26.3835 160.299L24.2091 158.117C24.0314 157.947 24.0314 157.663 24.2091 157.485ZM32.4662 193.228L32.5018 194.06C32.4094 194.123 29.2259 196.269 29.4249 196.134C29.3325 196.106 23.6903 194.393 24.0528 194.5L23.8893 193.235H32.4662V193.228Z" fill="#582583"/>
<path d="M227.241 177.24C227.354 176.728 227.632 176.273 228.051 175.89C228.236 175.719 228.243 175.435 228.079 175.257C227.909 175.079 227.632 175.065 227.447 175.229C226.893 175.74 226.53 176.351 226.367 177.041C226.232 177.616 227.106 177.815 227.241 177.24Z" fill="#582583"/>
<path d="M222.863 180.331C222.806 179.741 222.998 179.322 223.489 178.966C223.688 178.824 223.737 178.54 223.588 178.341C223.446 178.142 223.162 178.092 222.963 178.242C222.217 178.782 221.883 179.514 221.975 180.423C222.025 181.013 222.92 180.921 222.863 180.331Z" fill="#582583"/>
<path d="M232.372 180.132C231.832 180.246 231.292 180.302 230.503 179.762C230.297 179.62 230.02 179.67 229.878 179.876C229.736 180.082 229.785 180.359 229.991 180.501C231.064 181.24 233.083 181.361 232.898 180.487C232.848 180.238 232.606 180.082 232.372 180.132Z" fill="#582583"/>
<path d="M219.773 183.216C219.559 182.569 219.595 181.844 219.872 181.219C219.971 180.992 219.872 180.729 219.645 180.629C219.417 180.53 219.154 180.629 219.055 180.857C218.685 181.681 218.643 182.64 218.92 183.5C219.105 184.054 219.964 183.777 219.773 183.216Z" fill="#582583"/>
<path d="M232.343 188.034C232.62 187.721 232.99 187.508 233.437 187.401C233.679 187.344 233.828 187.103 233.764 186.861C233.707 186.62 233.466 186.477 233.224 186.534C232.599 186.684 232.08 186.989 231.675 187.437C231.277 187.877 231.952 188.467 232.343 188.034Z" fill="#582583"/>
<path d="M228.775 186.911C227.987 187.003 227.432 187.415 227.12 188.14C226.885 188.687 227.709 189.043 227.944 188.496C228.129 188.069 228.413 187.863 228.882 187.806C229.131 187.778 229.301 187.55 229.273 187.309C229.244 187.053 229.01 186.875 228.775 186.911Z" fill="#582583"/>
<path d="M225.905 193.683C224.725 193.384 224.675 192.347 224.086 192.78C223.887 192.93 223.844 193.207 223.986 193.406C224.505 194.124 226.011 195.076 226.232 194.223C226.288 193.981 226.139 193.74 225.905 193.683Z" fill="#582583"/>
<path d="M230.765 192.461C230.254 192.368 229.813 192.141 229.458 191.771C229.287 191.594 229.003 191.587 228.825 191.757C228.648 191.928 228.641 192.212 228.811 192.39C229.415 193.015 230.978 193.825 231.128 192.979C231.17 192.738 231.007 192.503 230.765 192.461Z" fill="#582583"/>
<path d="M234.866 192.077C234.447 191.949 234.042 191.771 233.708 191.096C233.594 190.876 233.324 190.784 233.104 190.89C232.884 190.997 232.791 191.267 232.898 191.494C233.388 192.482 234.895 193.484 235.158 192.638C235.236 192.404 235.108 192.148 234.866 192.077Z" fill="#582583"/>
<path d="M224.853 187.245C224.242 187.707 223.809 188.403 223.66 189.156C223.546 189.739 224.427 189.91 224.541 189.327C224.64 188.794 224.953 188.297 225.393 187.97C225.592 187.821 225.628 187.543 225.479 187.344C225.337 187.138 225.052 187.096 224.853 187.245Z" fill="#582583"/>
<path d="M89.7549 177.24C89.8899 177.822 90.7639 177.616 90.6289 177.041C90.4726 176.351 90.1102 175.74 89.5488 175.229C89.3641 175.065 89.0798 175.072 88.9164 175.257C88.7458 175.442 88.76 175.726 88.9448 175.89C89.3641 176.273 89.6412 176.728 89.7549 177.24Z" fill="#582583"/>
<path d="M94.1315 180.331C94.0746 180.921 94.9629 181.02 95.0268 180.423C95.1192 179.514 94.7852 178.782 94.0391 178.242C93.8401 178.092 93.5559 178.142 93.4138 178.341C93.2716 178.54 93.3143 178.824 93.5132 178.966C94.0036 179.322 94.1954 179.741 94.1315 180.331Z" fill="#582583"/>
<path d="M86.4928 179.762C85.7112 180.302 85.164 180.246 84.631 180.132C84.3894 180.075 84.1549 180.238 84.0981 180.48C84.0484 180.722 84.2047 180.963 84.4463 181.013C85.3701 181.205 86.1304 181.105 87.0044 180.501C87.2105 180.359 87.2603 180.082 87.1181 179.876C86.976 179.67 86.6918 179.62 86.4928 179.762Z" fill="#582583"/>
<path d="M97.2229 183.216C97.0382 183.784 97.8909 184.061 98.0757 183.493C98.3599 182.64 98.3102 181.674 97.9406 180.85C97.8412 180.622 97.5711 180.523 97.3508 180.622C97.1235 180.722 97.024 180.992 97.1235 181.212C97.4006 181.837 97.4361 182.569 97.2229 183.216Z" fill="#582583"/>
<path d="M83.5585 187.401C84.0062 187.508 84.3757 187.721 84.6528 188.034C84.8163 188.218 85.1005 188.233 85.2853 188.069C85.47 187.906 85.4842 187.622 85.3208 187.437C84.9157 186.989 84.397 186.684 83.7717 186.534C83.5301 186.485 83.2885 186.627 83.2316 186.861C83.1677 187.103 83.3169 187.344 83.5585 187.401Z" fill="#582583"/>
<path d="M88.1135 187.799C88.5896 187.856 88.8668 188.062 89.0515 188.488C89.286 189.036 90.1103 188.68 89.8758 188.133C89.5632 187.415 89.0089 186.996 88.2201 186.904C87.9785 186.868 87.7511 187.053 87.7227 187.295C87.6943 187.543 87.8719 187.771 88.1135 187.799Z" fill="#582583"/>
<path d="M91.2039 194.564C91.2394 194.564 91.275 194.557 91.3105 194.55C91.9927 194.379 92.5967 193.974 93.0088 193.406C93.151 193.207 93.1083 192.923 92.9093 192.78C92.7104 192.638 92.4261 192.681 92.284 192.88C91.9998 193.271 91.5663 193.569 91.0902 193.683C90.5857 193.811 90.6781 194.564 91.2039 194.564Z" fill="#582583"/>
<path d="M86.2295 192.461C85.9879 192.503 85.8245 192.738 85.8671 192.979C86.0163 193.832 87.5797 193.022 88.1837 192.39C88.3542 192.212 88.3471 191.928 88.1695 191.757C87.6436 191.253 87.5157 192.24 86.2295 192.461Z" fill="#582583"/>
<path d="M83.8854 190.89C83.6651 190.784 83.395 190.869 83.2814 191.096C82.9474 191.771 82.5423 191.949 82.1231 192.077C81.8886 192.148 81.7536 192.404 81.8246 192.638C81.9028 192.88 82.1586 193.008 82.386 192.937C82.99 192.752 83.6153 192.446 84.0843 191.494C84.198 191.267 84.1056 190.997 83.8854 190.89Z" fill="#582583"/>
<path d="M92.4545 189.327C92.5682 189.91 93.4493 189.739 93.3356 189.156C93.158 188.247 92.0708 186.605 91.5165 187.337C91.3673 187.536 91.4099 187.82 91.6018 187.963C92.0423 188.289 92.3479 188.787 92.4545 189.327Z" fill="#582583"/>
<path d="M234.489 30.1461C234.937 30.5937 235.668 30.5937 236.116 30.1461L242.135 24.1273C243.904 22.3579 243.904 19.4942 242.135 17.7319C240.202 15.792 236.976 15.9909 235.299 18.2364C233.693 16.0336 230.439 15.7636 228.47 17.7319C226.708 19.4942 226.708 22.3579 228.47 24.1273L234.489 30.1461Z" fill="#582583"/>
<path d="M265.677 43.9174C265.535 44.1022 265.357 44.2301 265.158 44.2869C265.151 44.1732 265.208 44.0596 265.272 43.9103C265.691 42.9297 265.869 41.7004 265.755 40.4426C265.734 40.1939 265.499 40.0234 265.272 40.0376C265.023 40.0589 264.846 40.2792 264.867 40.5208C264.966 41.6293 264.817 42.7023 264.434 43.5977C264.377 43.7256 264.306 43.8819 264.277 44.0667C264.078 45.2818 265.457 45.6655 266.388 44.4646C266.537 44.2656 266.501 43.9885 266.309 43.8322C266.111 43.6829 265.826 43.7185 265.677 43.9174Z" fill="#582583"/>
<path d="M246.619 73.6275L245.283 74.8995C245.106 75.07 245.099 75.3542 245.269 75.5319C245.44 75.7095 245.724 75.7166 245.902 75.5461L247.237 74.2741C247.415 74.1036 247.422 73.8194 247.252 73.6417C247.081 73.4641 246.797 73.4569 246.619 73.6275Z" fill="#582583"/>
<path d="M287.677 85.4731H285.723C285.474 85.4731 285.275 85.6721 285.275 85.9208C285.275 86.1695 285.474 86.3685 285.723 86.3685H287.677C287.926 86.3685 288.125 86.1695 288.125 85.9208C288.125 85.6721 287.926 85.4731 287.677 85.4731Z" fill="#582583"/>
<path d="M48.8101 37.0104C49.0019 37.0104 49.1512 36.854 49.1441 36.6693C49.1441 36.4845 48.9877 36.3282 48.803 36.3353C48.6111 36.3353 48.4619 36.4916 48.469 36.6764C48.469 36.8683 48.6253 37.0175 48.8101 37.0104Z" fill="#582583"/>
<path d="M47.3962 38.8366C47.4175 38.8437 47.4318 38.8579 47.446 38.865C47.3323 38.8793 47.1262 38.865 46.8277 38.7727C46.5932 38.6945 46.3374 38.8295 46.2664 39.064C46.1882 39.2985 46.3232 39.5543 46.5577 39.6254C48.4905 40.2507 48.9382 38.6519 47.8297 38.0479C47.1759 37.6854 47.112 36.2429 47.1404 35.7668C47.1546 35.5181 46.9699 35.3049 46.7212 35.2907C46.4867 35.2836 46.2593 35.4613 46.2451 35.71C46.2237 35.9516 46.1243 38.1331 47.3962 38.8366Z" fill="#582583"/>
<path d="M44.3192 36.449C44.6532 36.449 44.6887 36.1151 44.9729 36.2785C45.179 36.4064 45.4562 36.3496 45.5841 36.1435C45.7191 35.9374 45.6622 35.6603 45.4562 35.5253C45.1932 35.3547 44.5537 35.1629 44.0136 35.6745C43.836 35.845 43.8218 36.1293 43.9923 36.3069C44.0776 36.4064 44.1984 36.449 44.3192 36.449Z" fill="#582583"/>
<path d="M44.973 36.8043C44.767 36.8043 44.6035 36.9749 44.6035 37.1809C44.6035 37.387 44.7741 37.5504 44.9801 37.5504C45.1862 37.5504 45.3496 37.3799 45.3496 37.1738C45.3425 36.9678 45.1791 36.8043 44.973 36.8043Z" fill="#582583"/>
<path d="M47.9358 41.9419C48.1347 41.7927 48.1703 41.5227 48.0281 41.3237C47.886 41.1247 47.6018 41.0821 47.4028 41.2242C47.3104 41.2882 46.9907 41.4729 46.6354 41.1603C46.4506 40.9968 46.1664 41.0182 46.0029 41.2029C45.8395 41.3877 45.8608 41.6719 46.0456 41.8353C46.6567 42.3683 47.4383 42.3186 47.9358 41.9419Z" fill="#582583"/>
<path d="M140.185 122.488C140.207 122.509 140.228 122.531 140.257 122.552C151.605 133.794 169.945 132.906 180.206 120.996C180.221 120.982 180.228 120.967 180.242 120.953C180.249 120.946 180.256 120.932 180.263 120.925C181.286 119.731 182.217 118.438 183.02 117.073C185.507 112.881 186.822 108.07 186.822 103.16C186.822 93.1263 181.379 84.3504 173.299 79.6036C170.443 76.0151 164.587 73.7625 158.291 75.8801C157.794 75.9014 157.297 75.9369 156.799 75.9867C151.392 74.2884 146.943 76.7897 144.904 80.0868C137.258 84.9331 132.17 93.4603 132.17 103.167C132.17 108.866 133.897 114.309 137.165 118.914C138.047 120.15 139.063 121.358 140.185 122.488ZM165.042 111.858C165.085 112.057 165.255 112.199 165.454 112.206C166.179 112.248 166.911 112.305 167.615 112.369C165.106 120.285 153.957 120.655 150.958 112.874C152.038 112.71 153.033 112.575 153.936 112.476C154.142 112.455 154.255 112.142 154.319 111.701C154.468 110.671 154.348 108.994 154.241 106.77C157.126 106.514 159.059 104.112 159.599 103.352C159.905 102.918 159.315 102.421 158.938 102.783C154.483 106.955 144.477 105.754 148.585 88.9906H148.592C151.619 89.4241 155.954 88.145 158.554 85.3239C158.576 85.3168 158.59 85.2955 158.611 85.2813C159.265 89.8717 162.889 93.6806 168.673 93.3395L168.709 93.3324C168.517 95.4215 167.65 97.7949 165.639 97.7949C165.433 97.7807 165.241 97.9015 165.184 98.0934C164.253 100.794 163.955 103.799 164.317 107.345C164.481 109.129 164.801 110.628 165.042 111.858ZM185.934 103.153C185.934 107.75 184.733 112.248 182.48 116.199C177.797 112.966 171.53 111.652 165.852 111.339C165.589 110.088 165.397 108.909 165.262 107.786C169.746 109.491 176.973 106.329 174.18 102.357C171.217 98.1147 177.669 88.3084 174.387 81.3304C181.35 86.0914 185.934 94.0998 185.934 103.153ZM144.108 81.6999C141.45 88.5429 145.664 98.3634 143.227 102.35C141.038 105.924 148.244 108.838 153.403 108.155C153.445 109.278 153.459 110.436 153.445 111.63C148.045 112.277 143.028 113.307 137.649 117.976C134.664 113.606 133.079 108.497 133.079 103.146C133.079 94.3272 137.435 86.5035 144.108 81.6999Z" fill="#582583"/>
<path d="M153.218 98.4771C153.452 98.3989 153.58 98.1502 153.509 97.9157C153.431 97.6812 153.182 97.5533 152.948 97.6244C151.974 97.937 151.157 97.802 151.946 97.2833C153.04 96.5585 153.104 92.6431 153.097 91.4635C153.097 91.2148 152.898 91.0158 152.649 91.0158C152.401 91.0158 152.202 91.2219 152.202 91.4706C152.216 93.6663 151.918 96.2245 151.449 96.5372C150.084 97.4325 150.638 99.3085 153.218 98.4771Z" fill="#582583"/>
<path d="M154.725 90.9376C154.505 91.0442 154.405 91.3071 154.512 91.5274C154.611 91.7548 154.881 91.8543 155.109 91.7477C155.137 91.7335 155.862 91.4208 156.523 91.8685C157.013 92.2025 157.525 91.4635 157.027 91.1295C155.933 90.3834 154.775 90.9092 154.725 90.9376Z" fill="#582583"/>
<path d="M155.577 92.6005C155.265 92.6005 155.016 92.8492 155.009 93.1547C155.009 93.4674 155.25 93.7161 155.563 93.7232C155.876 93.7232 156.124 93.4816 156.132 93.1689C156.139 92.8634 155.89 92.6005 155.577 92.6005Z" fill="#582583"/>
<path d="M153.09 100.19C152.081 100.993 151.192 100.318 151.086 100.239C150.894 100.083 150.617 100.111 150.453 100.303C150.297 100.495 150.318 100.779 150.51 100.936C151.32 101.611 152.607 101.717 153.644 100.9C153.836 100.744 153.871 100.467 153.715 100.268C153.566 100.069 153.289 100.033 153.09 100.19Z" fill="#582583"/>
<path d="M150.788 91.4564C151.278 91.7904 151.79 91.0513 151.293 90.7173C150.198 89.9712 149.047 90.5042 148.997 90.5255C148.777 90.6321 148.678 90.895 148.784 91.1153C148.891 91.3427 149.154 91.435 149.381 91.3356C149.402 91.3214 150.127 91.0087 150.788 91.4564Z" fill="#582583"/>
<path d="M149.85 92.1883C149.537 92.1883 149.288 92.437 149.281 92.7426C149.281 93.0552 149.523 93.3039 149.836 93.311C150.148 93.311 150.397 93.0694 150.404 92.7568C150.404 92.4512 150.155 92.1883 149.85 92.1883Z" fill="#582583"/>
<path d="M197.14 136.366H125.092C124.844 136.366 124.645 136.565 124.645 136.814V147.878C124.645 148.127 124.844 148.325 125.092 148.325H197.14C197.388 148.325 197.587 148.127 197.587 147.878V136.814C197.587 136.565 197.388 136.366 197.14 136.366ZM196.692 147.43H139.247V137.269H196.692V147.43Z" fill="#582583"/>
<path d="M197.14 153.833H125.092C124.844 153.833 124.645 154.032 124.645 154.28V165.344C124.645 165.593 124.844 165.792 125.092 165.792H197.14C197.388 165.792 197.587 165.593 197.587 165.344V154.28C197.587 154.032 197.388 153.833 197.14 153.833ZM196.692 164.89H139.247V154.728H196.692V164.89Z" fill="#582583"/>
<path d="M180.313 173.246H144.442C143.909 173.246 143.49 173.665 143.49 174.198V186.826C143.49 187.352 143.909 187.785 144.442 187.785H180.313C180.846 187.785 181.266 187.352 181.266 186.826V174.198C181.258 173.673 180.839 173.246 180.313 173.246ZM171.651 180.963H153.105C152.856 180.963 152.657 180.757 152.657 180.516C152.657 180.267 152.856 180.068 153.105 180.068H171.651C171.9 180.068 172.099 180.267 172.099 180.516C172.099 180.757 171.9 180.963 171.651 180.963Z" fill="#582583"/>
<path d="M146.311 144.503C147.498 144.503 148.464 143.536 148.464 142.349C148.464 141.163 147.498 140.196 146.311 140.196C145.117 140.196 144.144 141.163 144.144 142.349C144.151 143.536 145.117 144.503 146.311 144.503Z" fill="#582583"/>
<path d="M154.135 144.503C155.322 144.503 156.288 143.536 156.288 142.349C156.288 141.163 155.322 140.196 154.135 140.196C152.941 140.196 151.968 141.163 151.968 142.349C151.975 143.536 152.941 144.503 154.135 144.503Z" fill="#582583"/>
<path d="M161.958 144.503C163.145 144.503 164.111 143.536 164.111 142.349C164.111 141.163 163.145 140.196 161.958 140.196C160.765 140.196 159.791 141.163 159.791 142.349C159.798 143.536 160.765 144.503 161.958 144.503Z" fill="#582583"/>
<path d="M169.789 144.503C170.976 144.503 171.943 143.536 171.943 142.349C171.943 141.163 170.976 140.196 169.789 140.196C168.596 140.196 167.622 141.163 167.622 142.349C167.622 143.536 168.588 144.503 169.789 144.503Z" fill="#582583"/>
<path d="M177.613 144.503C178.799 144.503 179.766 143.536 179.766 142.349C179.766 141.163 178.799 140.196 177.613 140.196C176.419 140.196 175.445 141.163 175.445 142.349C175.445 143.536 176.412 144.503 177.613 144.503Z" fill="#582583"/>
<path d="M185.437 144.503C186.624 144.503 187.59 143.536 187.59 142.349C187.59 141.163 186.624 140.196 185.437 140.196C184.243 140.196 183.27 141.163 183.27 142.349C183.277 143.536 184.243 144.503 185.437 144.503Z" fill="#582583"/>
<path d="M146.311 161.969C147.498 161.969 148.464 161.003 148.464 159.816C148.464 158.629 147.498 157.663 146.311 157.663C145.117 157.663 144.144 158.629 144.144 159.816C144.151 160.995 145.117 161.969 146.311 161.969Z" fill="#582583"/>
<path d="M154.135 161.969C155.322 161.969 156.288 161.003 156.288 159.816C156.288 158.629 155.322 157.663 154.135 157.663C152.941 157.663 151.968 158.629 151.968 159.816C151.975 160.995 152.941 161.969 154.135 161.969Z" fill="#582583"/>
<path d="M161.958 161.969C163.145 161.969 164.111 161.003 164.111 159.816C164.111 158.629 163.145 157.663 161.958 157.663C160.765 157.663 159.791 158.629 159.791 159.816C159.798 160.995 160.765 161.969 161.958 161.969Z" fill="#582583"/>
<path d="M169.789 161.969C170.976 161.969 171.943 161.003 171.943 159.816C171.943 158.629 170.976 157.663 169.789 157.663C168.596 157.663 167.622 158.629 167.622 159.816C167.622 160.995 168.588 161.969 169.789 161.969Z" fill="#582583"/>
<path d="M177.613 161.969C178.799 161.969 179.766 161.003 179.766 159.816C179.766 158.629 178.799 157.663 177.613 157.663C176.419 157.663 175.445 158.629 175.445 159.816C175.445 160.995 176.412 161.969 177.613 161.969Z" fill="#582583"/>
<path d="M185.437 161.969C186.624 161.969 187.59 161.003 187.59 159.816C187.59 158.629 186.624 157.663 185.437 157.663C184.243 157.663 183.27 158.629 183.27 159.816C183.277 160.995 184.243 161.969 185.437 161.969Z" fill="#582583"/>
<path d="M80.1615 16.7086L84.2475 20.6951L83.2811 26.323C83.2242 26.6712 83.5866 26.9342 83.8993 26.7707L88.9516 24.1131L94.004 26.7707C94.3166 26.9342 94.679 26.6712 94.6222 26.323L93.6558 20.6951L97.7417 16.7086C97.9904 16.4599 97.8554 16.0336 97.5072 15.9838L91.858 15.1667L89.3354 10.0504C89.179 9.73769 88.7313 9.73769 88.575 10.0504L86.0524 15.1667L80.4031 15.9838C80.0478 16.0336 79.9057 16.4599 80.1615 16.7086Z" fill="#582583"/>
<path d="M64.6849 13.0704L63.548 19.6789C63.4769 20.084 63.9033 20.3966 64.2728 20.2048L70.2134 17.0853L76.154 20.2048C76.5235 20.3966 76.9498 20.084 76.8788 19.6789L75.7418 13.0704L80.5455 8.38754C80.8439 8.0962 80.6805 7.59878 80.2683 7.53483L73.6314 6.56842L70.661 0.549655C70.4763 0.180144 69.9505 0.180144 69.7657 0.549655L66.7954 6.56842L60.1584 7.53483C59.7463 7.59167 59.5828 8.0962 59.8813 8.38754L64.6849 13.0704Z" fill="#582583"/>
<path d="M102.155 13.0704L101.018 19.6789C100.947 20.084 101.373 20.3966 101.743 20.2048L107.683 17.0853L113.624 20.2048C113.993 20.3966 114.42 20.084 114.349 19.6789L113.212 13.0704L118.015 8.38754C118.314 8.0962 118.15 7.59878 117.738 7.53483L111.101 6.56842L108.131 0.549655C107.946 0.180144 107.42 0.180144 107.235 0.549655L104.265 6.56842L97.6281 7.53483C97.216 7.59167 97.0526 8.0962 97.351 8.38754L102.155 13.0704Z" fill="#582583"/>
</svg>
