<svg width="300" height="170" viewBox="0 0 300 170" fill="none" xmlns="http://www.w3.org/2000/svg">
<path d="M299.56 168.523H292.535C293.358 164.951 298.988 140.155 298.158 131.86C297.265 123.174 285.691 99.5019 285.691 99.5019C282.935 94.8484 280.974 93.16 276.084 90.8088C272.7 89.0995 268.786 88.3321 264.46 88.5274C264.516 88.4367 264.621 88.2274 264.621 88.0809C264.621 87.8646 264.439 87.6553 264.181 87.6553C268.849 87.4251 273.056 88.2483 276.684 90.1251C278.149 88.3041 278.986 86.1972 278.986 83.7971C278.051 81.8995 276.07 80.4902 274.116 79.5064C268.277 76.5343 265.221 75.432 265.36 67.4994C265.402 64.9111 265.702 62.2808 265.102 59.7622C261.712 45.5575 237.104 47.6575 235.13 58.3599C234.523 61.6808 236.302 65.0645 235.87 68.4204C234.893 75.9134 223.158 79.953 222.195 83.7971C220.521 89.7693 224.951 94.0251 231.977 96.4949C224.142 105.523 225.195 119.602 225.077 122.1C225.077 122.358 224.867 122.539 224.637 122.539C224.393 122.532 224.197 122.337 224.197 122.093C224.197 122.002 224.316 114.6 224.309 114.976L214.409 96.2507L213.279 96.6763V30.9621C213.279 30.7179 213.083 30.5226 212.839 30.5226H55.1016C54.8644 30.5226 54.6621 30.7179 54.6621 30.9621V63.8576C54.7249 63.8855 54.7807 63.9203 54.8435 63.9483C53.0644 63.0762 51.0691 62.5808 48.9551 62.5808C41.5248 62.5808 35.5039 68.6018 35.5039 76.032C35.5039 83.4623 41.5318 89.4832 48.9551 89.4832C51.09 89.4832 53.1063 88.9739 54.8993 88.0879C54.8226 88.1227 54.7458 88.1716 54.6621 88.2065V118.374C50.7132 111.544 45.2504 106.2 38.2667 103.604C33.683 101.895 28.583 104.386 27.1736 109.06C25.3039 115.234 24.955 125.497 33.1946 140.009C20.9922 130.528 7.6387 125.7 1.74334 134.686C-6.61482 147.439 16.6806 162.662 37.59 168.523H5.17591C4.93172 168.523 4.73637 168.718 4.73637 168.963C4.73637 169.207 4.93172 169.402 5.17591 169.402H299.56C299.805 169.402 300 169.207 300 168.963C300 168.718 299.805 168.523 299.56 168.523ZM277.081 133.541C277.123 133.618 277.144 133.709 277.137 133.8L273.237 168.523H272.344L276.244 133.821L271.102 123.739C270.991 123.516 271.074 123.258 271.298 123.139C271.507 123.034 271.772 123.118 271.891 123.334L277.081 133.541ZM259.479 88.9809C261.084 88.7786 261.279 88.7507 263.491 88.5762C260.232 95.4204 250.856 98.9158 242.832 90.8855C243.942 90.6204 245.114 90.4111 246.321 90.2437C246.53 90.2158 246.684 90.0483 246.691 89.853C246.698 89.8251 246.698 89.8111 246.698 89.7832C246.558 87.8786 246.474 85.7367 245.951 82.0669C248.428 81.3902 250.102 79.2832 250.577 78.6204C249.411 79.7018 247.695 80.8669 245.581 80.9995C245.525 80.9716 245.47 80.9646 245.407 80.9646C237.488 81.0902 236.958 71.3227 238.27 63.5645H238.346C238.353 63.5645 238.353 63.5645 238.353 63.5645C242.149 63.711 247.102 61.5413 249.293 58.4715C251.539 68.6018 261.049 66.7529 261.132 66.7738C261.209 66.7599 261.293 66.7529 261.356 66.739C261.328 68.839 260.77 71.3994 258.781 72.0274C258.23 72.2157 257.867 72.0692 257.777 72.4739C256.605 76.8622 256.946 81.8716 258.844 88.1925C258.886 88.332 258.935 88.4716 258.977 88.6181C258.977 88.7786 259.193 89.0158 259.479 88.9809ZM263.03 71.518C263.26 71.5878 263.393 71.832 263.323 72.0622C261.07 79.7157 274.172 80.5041 274.619 85.2483C274.639 85.4925 274.458 85.7088 274.214 85.7297H274.179C273.949 85.7297 273.753 85.5623 273.739 85.332C273.384 81.6134 260.079 80.0436 262.479 71.8111C262.549 71.5878 262.793 71.4483 263.03 71.518ZM251.602 57.6064C251.867 57.5994 252.049 57.7738 252.07 58.018C252.3 61.6041 255.607 64.1366 259.046 63.5506C259.284 63.5157 259.514 63.6762 259.556 63.9134C259.598 64.1506 259.43 64.3808 259.193 64.4227C255.16 65.0924 251.449 62.1273 251.184 58.0668C251.17 57.8296 251.358 57.6203 251.602 57.6064ZM237.795 60.725C241.458 59.9994 243.732 59.0366 245.302 55.9947C245.414 55.7854 245.679 55.6947 245.902 55.8064C246.111 55.918 246.202 56.1831 246.091 56.3994C244.374 59.7413 241.807 60.8296 237.97 61.5901C237.809 61.6459 237.502 61.5273 237.46 61.2483C237.398 61.0041 237.558 60.7738 237.795 60.725ZM228.767 89.6297C228.97 89.7693 229.011 90.0413 228.872 90.2437C228.753 90.4251 228.481 90.4948 228.265 90.3483C226.395 89.0367 224.497 86.3088 225.035 84.139C226.095 79.632 234.593 81.6413 235.849 73.5134C235.891 73.2762 236.121 73.1087 236.351 73.1506C236.595 73.1855 236.756 73.4087 236.721 73.6529C235.402 82.2064 226.786 80.5878 225.893 84.3413C225.46 86.1274 227.19 88.5135 228.767 89.6297ZM232.102 95.6855C234.76 92.8251 238.06 90.9832 241.918 90.2088C241.807 90.2646 241.716 90.3414 241.66 90.4739C241.632 90.5507 241.632 90.6344 241.639 90.7111C241.646 90.7739 241.674 90.8228 241.709 90.8786C241.772 90.9553 241.821 91.039 241.884 91.1158C238.304 91.8762 235.221 93.6065 232.737 96.2856C232.66 96.3832 232.535 96.4251 232.423 96.4251C232.318 96.4251 232.2 96.3902 232.123 96.3135C231.956 96.139 231.935 95.86 232.102 95.6855ZM234.467 137.818C234.391 137.672 234.404 137.483 234.509 137.337C236.784 134.309 236.784 127.772 236.777 127.018C232.423 123.39 231.851 116.637 233.19 111.579C233.253 111.341 233.491 111.202 233.728 111.272C233.965 111.334 234.104 111.572 234.035 111.809C232.046 119.755 234.572 127.046 242.658 128.811C242.895 128.867 243.049 129.104 242.993 129.341C242.944 129.565 242.784 129.676 242.47 129.676C240.621 129.272 239.016 128.609 237.67 127.702C237.67 128.372 237.628 129.411 237.502 130.597C237.614 130.234 237.732 129.893 237.83 129.558C237.739 129.9 237.628 130.29 237.495 130.695C237.237 133.067 236.63 136.018 235.242 137.874C235.039 138.153 234.579 138.035 234.579 137.944C230.009 148.276 222.893 163.004 225.3 168.523H213.279V141.411C219.614 149.4 227.072 151.744 234.467 137.818ZM39.0969 150.879C38.9225 150.711 38.9225 150.432 39.09 150.258C39.2574 150.083 39.5365 150.083 39.7109 150.251C40.3876 150.914 40.6248 152.135 40.3388 153.453C40.29 153.69 40.0527 153.844 39.8155 153.788C39.5783 153.739 39.4248 153.502 39.4807 153.265C39.7318 152.121 39.4667 151.242 39.0969 150.879ZM40.7644 129.293C41.7411 129.446 42.7039 129.725 43.6249 130.109C43.8481 130.2 43.9528 130.458 43.8621 130.688C43.7714 130.911 43.5132 131.016 43.283 130.925C42.4318 130.569 41.5388 130.311 40.6248 130.165C40.3876 130.123 40.2202 129.9 40.2621 129.662C40.2969 129.418 40.5202 129.258 40.7644 129.293ZM39.9481 123.865C39.9132 123.676 38.49 123.634 38.1132 123.579C37.869 123.558 37.6946 123.341 37.7155 123.097C37.7365 122.853 37.9458 122.686 38.1969 122.7C38.8248 122.86 40.59 122.581 40.8202 123.683C40.869 123.921 40.7155 124.158 40.4783 124.207C40.2411 124.262 39.9969 124.116 39.9481 123.865ZM50.3504 146.414C50.2109 146.609 49.9319 146.658 49.7365 146.511C48.6551 145.73 47.3923 145.2 46.0737 144.983C45.8365 144.942 45.669 144.718 45.7109 144.474C45.7528 144.237 45.976 144.069 46.2202 144.111C47.6714 144.348 49.0667 144.935 50.2528 145.793C50.4551 145.939 50.497 146.218 50.3504 146.414ZM47.3783 138.341C47.1621 138.46 46.897 138.376 46.7784 138.167C46.3179 137.33 45.4109 136.723 44.4621 136.632C44.2179 136.611 44.0435 136.395 44.0644 136.151C44.0853 135.907 44.3086 135.739 44.5458 135.753C45.8016 135.879 46.9528 136.639 47.5528 137.741C47.6714 137.958 47.5877 138.223 47.3783 138.341ZM45.076 151.137C44.8109 150.837 44.5458 150.544 44.2807 150.258C44.5388 150.537 44.8039 150.837 45.076 151.137ZM54.6621 164.567C53.9644 163.235 53.183 161.909 52.3458 160.597C53.204 161.923 53.9923 163.249 54.6621 164.539V164.56V164.567ZM205.311 44.1691C205.311 44.4133 205.116 44.6087 204.872 44.6087H127.967C127.723 44.6087 127.527 44.4133 127.527 44.1691C127.527 43.9319 127.723 43.7296 127.967 43.7296H204.872C205.116 43.7296 205.311 43.9319 205.311 44.1691ZM97.8901 44.1691C97.8901 46.5552 95.9576 48.4878 93.5715 48.4878C91.1924 48.4878 89.2529 46.5552 89.2529 44.1691C89.2529 41.7901 91.1924 39.8505 93.5715 39.8505C95.9645 39.8505 97.8901 41.7901 97.8901 44.1691ZM84.0901 44.1691C84.0901 46.5552 82.1505 48.4878 79.7715 48.4878C77.3924 48.4878 75.4529 46.5552 75.4529 44.1691C75.4529 41.7901 77.3924 39.8505 79.7715 39.8505C82.1505 39.8505 84.0901 41.7901 84.0901 44.1691ZM70.2691 44.1691C70.2691 46.5552 68.3296 48.4878 65.9505 48.4878C63.5714 48.4878 61.6319 46.5552 61.6319 44.1691C61.6319 41.7901 63.5714 39.8505 65.9505 39.8505C68.3366 39.8505 70.2691 41.7901 70.2691 44.1691ZM45.2086 76.7506L41.5248 73.946C41.3086 73.7855 41.2946 73.4227 41.5248 73.2483L45.2086 70.4436C45.683 70.1018 46.1993 70.7994 45.7458 71.1483L42.5225 73.5901L45.7458 76.039C46.1923 76.3878 45.7039 77.0855 45.2086 76.7506ZM51.7807 71.4134L46.9109 81.3344C46.8063 81.5716 46.4923 81.6344 46.3179 81.5367C46.1086 81.432 46.0109 81.1669 46.1156 80.9437L50.9853 71.0227C51.097 70.7994 51.3621 70.7157 51.5784 70.8204C51.7946 70.925 51.8853 71.1901 51.7807 71.4134ZM52.1574 80.9018L55.3737 78.4599L52.1574 76.0181C51.69 75.6553 52.2342 74.9646 52.6877 75.3134L56.3714 78.1041C56.6086 78.2855 56.6086 78.6274 56.3714 78.8088L52.6877 81.5995C52.2412 81.9483 51.69 81.2646 52.1574 80.9018ZM55.4993 87.7739C59.6156 85.4716 62.3993 81.0762 62.3993 76.025C62.3993 70.9808 59.6226 66.5925 55.5133 64.2901C55.5202 64.2971 55.5272 64.2971 55.5342 64.2971V57.3901H212.386V96.9972L211.416 97.367C211.416 86.553 210.258 87.8576 206.295 81.7599C205.556 80.5948 203.818 80.6576 203.183 81.8855C202.479 83.232 202.311 84.8297 202.318 86.0855C200.128 82.1088 195.132 73.639 192.251 73.1785C191.749 73.1018 191.302 73.2413 190.953 73.5762C189.383 75.1041 193.535 80.8669 193.869 82.5553C191.993 83.232 191.107 85.0111 192.572 87.5576C191.923 88.2344 191.253 89.5669 192 91.2762C187.06 96.0274 196.193 98.0577 198.223 102.369L196.283 103.102C196.332 103.158 203.03 127.5 212.379 140.246V168.516H56.4481C56.176 167.797 55.876 167.072 55.5412 166.346C55.5412 140.107 55.5412 116.679 55.5412 87.753C55.5272 87.7599 55.5133 87.7669 55.4993 87.7739ZM192.558 91.9879C193.004 92.3716 193.807 93.1251 194.386 94.039C194.721 94.5344 195.432 94.046 195.132 93.5646C194.386 92.3855 193.311 91.4716 192.928 91.1507C192.928 91.1507 192.928 91.1437 192.921 91.1437C192.153 89.6646 192.788 88.66 193.179 88.2344C193.625 88.6251 194.462 89.4134 195.014 90.2855C195.335 90.7948 196.067 90.2925 195.76 89.8181C194.979 88.5762 193.716 87.5297 193.458 87.3134C192.467 85.6878 192.321 84.1669 194.072 83.4204C195.418 84.6065 196.179 85.7855 196.549 86.8251C196.737 87.3623 197.574 87.0902 197.379 86.5251C196.709 84.6483 195.293 83.2948 194.762 82.8344C195.007 81.5995 190.625 75.125 191.574 74.2111C191.769 74.0297 191.923 74.0227 192.118 74.0506C194.476 74.4274 199.66 82.8274 202.569 88.3739L202.576 88.3809C202.576 88.3879 202.576 88.4018 202.583 88.4088C202.583 88.4995 202.772 88.5902 203.114 89.7762C200.246 90.9553 198.802 93.9902 200.609 98.0228C200.714 98.246 200.972 98.3507 201.188 98.246C201.418 98.1484 201.516 97.8832 201.418 97.667C199.73 94.1437 200.797 91.953 203.769 90.4669C203.979 90.4042 204.111 90.1739 204.063 89.9576C203.853 88.9948 203.497 88.2693 203.386 88.053C203.295 87.5716 202.814 84.5297 203.965 82.2902C204.272 81.6902 205.165 81.6134 205.563 82.2344C209.532 88.3739 210.614 86.839 210.53 97.7088L199.06 102.055C196.807 97.1716 188.56 95.9925 192.558 91.9879ZM47.0504 125.916C48.083 125.065 48.1388 123.53 48.1807 122.26C48.2016 121.681 49.0807 121.702 49.0597 122.288C49.0109 123.83 48.9063 125.532 47.6086 126.6C47.4202 126.753 47.1411 126.725 46.9877 126.537C46.8342 126.348 46.8621 126.069 47.0504 125.916ZM43.3597 118.618C43.9458 117.99 44.2109 117.076 44.0504 116.239C44.0086 116.002 44.1621 115.772 44.4062 115.723C44.6504 115.674 44.8737 115.834 44.9225 116.079C45.1249 117.188 44.776 118.395 44.0086 119.218C43.8411 119.4 43.5621 119.407 43.3876 119.239C43.1993 119.072 43.1923 118.793 43.3597 118.618ZM39.8853 113.344C40.2621 112.639 40.3876 111.795 40.2272 111.014C40.1783 110.776 40.3318 110.546 40.569 110.497C40.8062 110.441 41.0434 110.602 41.0923 110.839C41.2946 111.816 41.1411 112.883 40.6667 113.762C40.59 113.909 40.4365 113.993 40.276 113.993C39.9481 113.993 39.7318 113.637 39.8853 113.344ZM35.0713 112.165C35.2458 111.997 35.5248 112.011 35.6923 112.186C44.6086 121.772 50.7621 133.695 54.6621 149.023V152.832C50.8807 135.907 44.5458 122.993 35.0504 112.793C34.883 112.611 34.8899 112.332 35.0713 112.165ZM34.3248 117.069C35.1899 117.048 36.0202 117.369 36.6272 117.969C36.8016 118.144 36.8016 118.416 36.6341 118.59C36.4667 118.765 36.1876 118.765 36.0132 118.597C35.5806 118.172 34.9667 117.927 34.3597 117.948C34.1085 117.948 33.9132 117.767 33.9062 117.523C33.8853 117.279 34.0806 117.076 34.3248 117.069ZM32.6853 145.723C32.8178 145.521 33.0969 145.465 33.2992 145.604C34.3039 146.281 34.6179 147.851 34.4923 149.023C34.4644 149.26 34.2551 149.435 34.0039 149.414C33.7597 149.386 33.5853 149.169 33.6132 148.925C33.7388 147.823 33.3969 146.735 32.8039 146.33C32.6016 146.197 32.5458 145.925 32.6853 145.723ZM24.7806 140.902C24.9271 140.707 25.2062 140.672 25.3946 140.818C26.5667 141.711 27.1457 143.128 26.9504 144.621C26.9155 144.872 26.6713 145.039 26.455 144.997C26.2109 144.962 26.0434 144.746 26.0783 144.502C26.2388 143.33 25.7783 142.221 24.8643 141.523C24.676 141.376 24.6341 141.097 24.7806 140.902ZM19.2969 138.341C19.4434 138.146 19.7225 138.111 19.9108 138.258C21.0829 139.151 21.662 140.567 21.4667 142.06C21.4318 142.311 21.1876 142.479 20.9713 142.437C20.7271 142.402 20.5597 142.186 20.5946 141.941C20.755 140.769 20.2946 139.66 19.3806 138.962C19.1922 138.816 19.1504 138.537 19.2969 138.341ZM14.1131 137.26C14.2597 137.065 14.5387 137.03 14.7271 137.176C15.7666 137.965 16.2829 139.228 16.1015 140.539C16.0666 140.79 15.8224 140.958 15.6062 140.916C15.362 140.881 15.1945 140.665 15.2294 140.421C15.362 139.423 14.9783 138.467 14.1899 137.874C14.0085 137.728 13.9666 137.455 14.1131 137.26ZM10.248 140.979C25.1225 143.393 36.6969 154.911 48.8295 163.66C49.0249 163.8 49.0737 164.079 48.9272 164.274C48.7807 164.476 48.5086 164.518 48.3132 164.372C36.2295 155.658 24.7248 144.216 10.1085 141.844C9.52941 141.753 9.67592 140.874 10.248 140.979ZM15.8434 145.465C15.7876 145.702 15.5434 145.842 15.3062 145.786C14.4341 145.569 13.5829 145.974 12.6131 147.055C12.4527 147.237 12.1736 147.251 11.9922 147.09C11.8108 146.93 11.7969 146.651 11.9573 146.469C13.1573 145.137 14.3224 144.635 15.5224 144.928C15.7597 144.99 15.8992 145.235 15.8434 145.465ZM20.5876 148.36C20.5039 148.59 20.2457 148.702 20.0225 148.618C19.6039 148.458 18.8015 148.597 17.8876 149.511C17.7132 149.686 17.4341 149.686 17.2666 149.511C17.0922 149.337 17.0922 149.058 17.2666 148.89C18.4736 147.676 19.6457 147.53 20.3364 147.795C20.5597 147.879 20.6713 148.137 20.5876 148.36ZM27.2922 152.26C26.3364 152.19 25.3248 152.532 24.6062 153.174C24.4248 153.335 24.1457 153.321 23.9853 153.139C23.8248 152.958 23.8387 152.679 24.0201 152.518C24.9271 151.709 26.1411 151.304 27.355 151.381C27.5992 151.395 27.7806 151.611 27.7667 151.848C27.7457 152.1 27.5434 152.288 27.2922 152.26ZM32.6016 156.014C31.576 156.09 30.7876 156.237 29.8737 157.423C29.7271 157.611 29.4481 157.653 29.2527 157.5C29.0574 157.353 29.0225 157.074 29.176 156.879C30.3062 155.421 31.4085 155.218 32.5318 155.135C32.776 155.093 32.9853 155.295 33.0062 155.539C33.0271 155.783 32.8458 155.993 32.6016 156.014ZM36.8434 160.13C35.9225 160.046 35.1341 159.969 34.1644 160.967C33.9969 161.142 33.7178 161.149 33.5434 160.974C33.369 160.807 33.362 160.528 33.5365 160.353C34.7923 159.056 35.9295 159.153 36.9272 159.251C37.1713 159.272 37.3458 159.488 37.3248 159.732C37.3039 159.969 37.0946 160.144 36.8434 160.13Z" fill="#582583"/>
<path d="M62.5176 44.1692C62.5176 46.0668 64.0594 47.6087 65.9502 47.6087C67.8478 47.6087 69.3897 46.0668 69.3897 44.1692C69.3897 42.2715 67.8478 40.7296 65.9502 40.7296C64.0594 40.7296 62.5176 42.2715 62.5176 44.1692Z" fill="#582583"/>
<path d="M76.333 44.1692C76.333 46.0668 77.8749 47.6087 79.7726 47.6087C81.6702 47.6087 83.2121 46.0668 83.2121 44.1692C83.2121 42.2715 81.6702 40.7296 79.7726 40.7296C77.8749 40.7296 76.333 42.2715 76.333 44.1692Z" fill="#582583"/>
<path d="M90.1377 44.1692C90.1377 46.0668 91.6796 47.6087 93.5772 47.6087C95.4819 47.6087 97.0098 46.0668 97.0098 44.1692C97.0098 42.2715 95.4749 40.7296 93.5772 40.7296C91.6796 40.7296 90.1377 42.2715 90.1377 44.1692Z" fill="#582583"/>
<path d="M145.492 86.7761C145.053 86.825 145.178 87.0761 145.06 87.1459C144.976 87.1947 144.878 87.097 144.788 87.111C144.648 87.1319 144.522 87.4947 144.195 87.0064C144.195 86.9715 144.097 86.8389 144.069 86.818C143.999 86.7622 143.978 86.7901 143.902 86.8389C143.734 86.9366 143.567 87.0482 143.476 87.2226C143.385 87.404 143.371 87.7808 143.413 87.9552C143.532 88.4645 144.02 88.2971 144.299 88.318C144.843 88.3668 145.702 88.7645 146.392 88.025C147.083 87.2994 146.218 86.6924 145.492 86.7761Z" fill="#582583"/>
<path d="M154.067 138.397C153.865 138.321 153.648 138.307 153.432 138.307C150.334 138.342 149.469 140.804 147.495 140.386C146.204 140.114 145.737 138.656 145.339 138.432C145.074 138.279 143.344 138.118 142.576 138.774C141.753 139.479 141.962 140.637 141.802 140.895C141.586 141.244 141.055 141.035 140.699 140.832C139.541 140.183 138.111 140.051 136.855 140.483C135.327 141.014 135.739 142.876 136.576 143.602C137.476 144.376 138.313 144.795 139.52 144.788C140.741 144.781 141.962 144.704 143.169 144.558C144.669 144.376 144.802 144.132 145.758 143.365C148.758 140.965 151.932 142.381 154.569 140.958C155.03 140.714 155.072 140.504 154.988 140.03C154.869 139.388 154.674 138.635 154.067 138.397Z" fill="#582583"/>
<path d="M96.4738 130.151H100.59C113.637 158.7 154.339 158.644 167.351 130.151H171.474C172.36 130.151 173.079 129.432 173.079 128.546V105.348C173.079 104.462 172.36 103.744 171.474 103.744H168.941C166.744 96.8298 162.579 90.76 156.851 86.1832C136.848 70.2413 106.827 79.1785 98.9994 103.744H96.4738C95.5877 103.744 94.8691 104.462 94.8691 105.348V128.546C94.8691 129.432 95.5877 130.151 96.4738 130.151ZM101.546 130.151H120.641C120.753 132.188 120.997 134.225 121.227 136.241C121.723 140.33 123.048 142.304 125.455 144.014C126.286 144.621 126.823 144.279 126.823 143.867C126.795 143.274 123.725 140.595 125.504 137.225C125.658 136.946 125.685 136.897 126.062 136.723C128.658 135.404 128.651 132.9 130.046 130.158H155.72C156.997 135.781 161.148 137.1 162.655 135.921C163.89 134.951 163.186 131.895 164.246 130.158H166.381C153.495 157.535 114.432 157.493 101.546 130.151ZM156.397 99.6065C156.055 99.7321 155.693 99.8298 155.323 99.8995C155.281 100.207 155.658 100.409 155.972 100.423C156.718 100.423 157.381 99.8228 157.625 99.1181C157.709 98.867 157.89 98.9367 157.967 99.0414C158.058 99.16 158.127 100.444 161.086 100.353C161.574 100.353 161.553 100.52 161.79 100.911C162.23 101.616 163.165 101.476 163.8 101.169C164.03 101.065 164.365 100.834 164.63 100.995C164.937 101.169 164.937 101.727 164.832 102.014C163.953 104.295 160.214 102.32 160.13 102.293C159.53 102.146 158.776 102.286 158.525 102.851C158.42 103.123 158.372 103.283 158.051 103.255C156.62 103.227 155.302 102.104 155.037 100.702C155.037 100.597 154.981 100.548 154.876 100.527C151.723 99.8019 149.288 101.818 148.095 100.89C148.555 100.423 149.309 100.458 149.895 100.151C150.32 99.9274 150.641 99.5158 150.76 99.0484C150.788 98.9158 150.802 98.7763 150.9 98.6786C151.088 98.4902 151.444 98.5879 151.597 98.3786C151.723 98.2112 151.625 97.9391 151.765 97.7856C151.897 97.646 152.134 97.7088 152.33 97.7088C152.874 97.7018 153.307 97.1019 153.851 97.1716C154.081 97.1925 154.102 97.2344 156.195 98.4902C156.788 98.8042 156.293 99.1949 156.397 99.6065ZM155.379 86.839C154.939 87.0135 154.674 87.3344 153.341 88.5483C152.951 88.9111 153.041 88.8135 152.504 90.1181C153.069 90.5925 154.102 90.0762 154.59 90.6274C154.165 90.739 153.823 91.1088 153.718 91.5414C153.613 91.9739 153.711 92.0298 153.223 92.4902C152.818 92.867 152.386 93.2646 151.841 93.3693C151.297 93.467 150.634 93.1251 150.607 92.567C150.607 92.3716 150.669 92.1553 150.544 91.9949C150.446 91.8902 150.286 91.8623 150.202 91.7367C150.09 91.5693 150.202 91.339 150.202 91.1367C150.174 90.3972 148.723 90.3135 148.367 90.5576C147.962 90.8297 148.025 91.4995 147.655 91.8065C147.313 92.0856 146.881 91.953 146.825 93.1111C146.818 93.3553 146.825 93.6344 147 93.8088C147.418 94.2065 148.011 93.6763 148.479 93.6414C148.744 93.6205 149.044 93.7809 149.058 94.0391C149.065 94.3042 148.793 94.5205 148.827 94.7856C148.855 94.96 149.023 95.0786 149.155 95.1902C149.665 95.6019 149.986 96.2298 150.027 96.8786C148.897 97.2693 147.195 96.76 146.434 97.8763C146.197 98.2112 145.848 99.3623 146.12 99.8507C146.427 100.395 147.265 100.29 147.774 100.646C147.851 100.702 147.92 100.772 147.934 100.855C147.99 101.169 147.334 101.218 147.341 101.532C145.458 102.634 146.058 102.9 145.513 103.723H117.153C117.16 103.214 117.306 102.753 117.725 102.474C118.304 102.083 119.239 102.244 119.63 101.658C119.825 101.358 119.797 100.981 119.909 100.646C120.306 99.446 122.141 99.3693 122.769 98.267C122.93 97.9949 122.999 97.667 123.181 97.4019C123.355 97.1367 123.718 96.9414 123.99 97.0949C124.158 97.1926 124.248 97.3739 124.388 97.5065C124.779 97.8763 125.427 97.6809 125.867 97.3809C126.306 97.0809 126.718 96.6693 127.262 96.6344C127.911 96.5786 128.525 97.1088 129.167 97.0112C130.179 96.8507 130.409 95.3995 131.309 94.9112C130.36 92.9437 129.404 90.9832 128.455 89.0088C128.992 88.2623 129.662 87.5995 130.437 87.0762C130.548 86.2948 129.872 85.66 129.32 85.0949C128.267 84.0623 128.113 82.7925 129.725 82.4576C130.939 82.2134 132.244 82.4367 133.304 83.0855C134.441 83.7693 134.316 84.46 134.016 85.7367C133.82 86.6228 133.569 88.7786 134.016 89.4902C134.358 90.0274 135.146 90.1251 135.746 89.9018C136.339 89.6716 136.813 89.2042 137.288 88.7925C138.899 87.4181 140.874 86.4832 142.953 86.1344C144.572 85.8553 144.181 85.3181 144.495 84.6693C144.69 84.2925 145.102 84.0902 145.444 83.832C146.218 83.2669 146.686 82.36 146.797 81.4111C150.02 82.653 153.132 84.3902 156.027 86.6576C155.818 86.7204 155.588 86.7553 155.379 86.839ZM100.974 100.925C101.274 101.853 101.56 102.788 101.797 103.737H99.9133C100.227 102.774 100.59 101.839 100.974 100.925ZM95.7482 105.341C95.7482 104.944 96.0761 104.616 96.4738 104.616H153.879C161.874 104.623 165.641 104.637 167.414 104.616H171.474C171.872 104.616 172.2 104.944 172.2 105.341V128.539C172.2 128.937 171.872 129.265 171.474 129.265H167.079H100.869H96.4808C96.0831 129.265 95.7552 128.937 95.7552 128.539V105.341H95.7482Z" fill="#582583"/>
<path d="M108.579 122.797C108.76 123.306 109.144 123.634 109.674 123.634C110.163 123.634 110.623 123.299 110.77 122.797L113.763 113.309L116.756 122.797C116.909 123.299 117.363 123.634 117.851 123.634C118.381 123.634 118.765 123.306 118.946 122.797L122.595 111.599C122.798 110.839 122.351 110.462 121.835 110.462C121.423 110.462 121.116 110.755 120.998 111.132L117.872 121.402L114.725 111.167C114.6 110.734 114.195 110.462 113.756 110.462C113.316 110.462 112.911 110.741 112.786 111.167L109.639 121.402L106.514 111.132C106.395 110.755 106.088 110.462 105.677 110.462C105.132 110.462 104.714 110.86 104.916 111.599L108.579 122.797Z" fill="#582583"/>
<path d="M127.389 122.797C127.571 123.306 127.955 123.634 128.485 123.634C128.973 123.634 129.434 123.299 129.58 122.797L132.573 113.309L135.566 122.797C135.72 123.299 136.173 123.634 136.662 123.634C137.129 123.634 137.548 123.369 137.757 122.797L141.406 111.599C141.608 110.839 141.162 110.462 140.645 110.462C140.234 110.462 139.927 110.755 139.808 111.132L136.682 121.402L133.536 111.167C133.41 110.734 133.006 110.462 132.566 110.462C132.127 110.462 131.722 110.741 131.596 111.167L128.45 121.402L125.324 111.132C125.206 110.755 124.899 110.462 124.487 110.462C123.943 110.462 123.524 110.86 123.727 111.599L127.389 122.797Z" fill="#582583"/>
<path d="M146.199 122.797C146.38 123.307 146.764 123.635 147.294 123.635C147.782 123.635 148.243 123.3 148.389 122.797L151.382 113.309L154.375 122.797C154.529 123.3 154.982 123.635 155.471 123.635C156.001 123.635 156.385 123.307 156.566 122.797L160.215 111.6C160.417 110.839 159.971 110.462 159.455 110.462C159.043 110.462 158.736 110.755 158.617 111.132L155.492 121.402L152.345 111.167C152.22 110.734 151.815 110.462 151.375 110.462C150.936 110.462 150.531 110.741 150.406 111.167L147.259 121.402L144.134 111.132C143.903 110.4 143.108 110.281 142.689 110.693C142.438 110.944 142.438 111.258 142.529 111.593L146.199 122.797Z" fill="#582583"/>
<path d="M163.408 122.442C163.408 122.155 163.303 121.911 163.101 121.709C162.48 121.088 161.141 121.395 161.141 122.442C161.155 122.532 161.078 122.916 161.448 123.286C161.873 123.725 163.164 123.976 163.408 122.442Z" fill="#582583"/>
<path d="M240.265 65.9501C240.948 65.6082 241.025 66.0896 241.381 66.0896C241.513 66.0896 241.639 66.0338 241.723 65.9292C241.869 65.7338 241.848 65.4617 241.66 65.3013C240.885 64.6873 240.048 64.9943 239.72 65.2455C239.525 65.392 239.49 65.671 239.644 65.8594C239.797 66.0617 240.069 66.0966 240.265 65.9501Z" fill="#582583"/>
<path d="M240.468 66.9628C240.154 66.9907 239.91 67.2698 239.931 67.5768C239.959 67.8907 240.231 68.1419 240.545 68.114C240.859 68.0931 241.103 67.821 241.082 67.507C241.068 67.1931 240.796 66.9419 240.468 66.9628Z" fill="#582583"/>
<path d="M244.13 73.8414C244.361 73.7507 244.465 73.4995 244.375 73.2693C244.27 73.0181 243.977 72.9413 243.796 73.032C242.798 73.4367 242.316 73.3041 242.247 73.1786C242.205 73.1088 242.254 72.8716 242.582 72.6134C243.712 71.7344 243.482 67.4646 243.356 66.0413C243.335 65.8041 243.126 65.6297 242.889 65.6367C242.644 65.6576 242.463 65.8739 242.484 66.1111C242.679 68.5879 242.575 71.5111 242.044 71.9158C241.402 72.4111 241.179 73.0948 241.479 73.6181C241.961 74.4553 243.244 74.2181 244.13 73.8414Z" fill="#582583"/>
<path d="M245.636 65.3651C245.441 65.5116 245.406 65.7976 245.546 65.993C245.692 66.1883 245.978 66.2232 246.173 66.0697C246.62 65.6232 247.115 66.2162 247.422 66.2162C247.548 66.2162 247.68 66.1534 247.764 66.0488C247.911 65.8604 247.89 65.5813 247.694 65.4348C246.871 64.7651 245.992 65.1 245.636 65.3651Z" fill="#582583"/>
<path d="M246.417 67.2134C246.061 67.2343 245.81 67.5413 245.824 67.8832C245.852 68.239 246.152 68.4971 246.494 68.4762C246.849 68.4483 247.108 68.1483 247.087 67.8064C247.073 67.4646 246.773 67.1925 246.417 67.2134Z" fill="#582583"/>
<path d="M244.227 76.4991C243.397 77.2247 242.622 76.6945 242.525 76.6317C242.329 76.4852 242.057 76.5271 241.911 76.7224C241.771 76.9178 241.806 77.1898 242.002 77.3363C242.755 77.8875 243.885 77.9643 244.813 77.1689C245.002 77.0084 245.015 76.7294 244.855 76.541C244.688 76.3596 244.415 76.3456 244.227 76.4991Z" fill="#582583"/>
<path d="M175.619 83.0581C180.844 83.0581 185.093 78.8092 185.093 73.5766C185.093 68.358 180.844 64.1161 175.619 64.1161C170.4 64.1161 166.158 68.365 166.158 73.5766C166.158 78.8092 170.407 83.0581 175.619 83.0581ZM175.619 64.9952C180.349 64.9952 184.207 68.8464 184.207 73.5766C184.207 78.3139 180.349 82.179 175.619 82.179C170.888 82.179 167.037 78.3208 167.037 73.5766C167.037 68.8464 170.888 64.9952 175.619 64.9952Z" fill="#582583"/>
<path d="M174.069 74.8807C174.202 75.1039 174.481 75.1458 174.669 75.0272L178.235 72.8923C178.437 72.7667 178.507 72.4946 178.381 72.2853C178.256 72.083 177.983 72.0132 177.774 72.1388C177.983 72.0132 174.669 73.9946 174.586 74.0504L173.742 72.683C173.651 72.6062 173.483 72.0272 173.002 72.3202C172.793 72.4528 172.73 72.7179 172.862 72.9272L174.069 74.8807Z" fill="#582583"/>
<path d="M218.573 1.63183C231.411 0.180668 242.964 9.41092 244.408 22.2342C244.436 22.4714 244.646 22.6458 244.897 22.6249C245.141 22.597 245.315 22.3807 245.287 22.1365C243.787 8.8179 231.794 -0.74724 218.476 0.752764C218.231 0.780671 218.057 0.996951 218.085 1.24114C218.12 1.48532 218.35 1.65277 218.573 1.63183Z" fill="#582583"/>
<path d="M238.973 23.2877C239.217 23.2598 239.391 23.0435 239.363 22.7993C238.24 12.7737 229.212 5.5458 219.145 6.67604C218.9 6.70395 218.726 6.92022 218.754 7.16441C218.782 7.4086 219.019 7.57604 219.242 7.55511C228.793 6.47371 237.41 13.3388 238.484 22.904C238.512 23.1412 238.721 23.3156 238.973 23.2877Z" fill="#582583"/>
<path d="M233.046 23.9575C233.29 23.9296 233.464 23.7133 233.436 23.4691C232.676 16.7156 226.599 11.8458 219.811 12.6063C219.566 12.6342 219.392 12.8505 219.42 13.0947C219.448 13.3389 219.671 13.5063 219.908 13.4854C226.173 12.7668 231.853 17.2807 232.557 23.5738C232.592 23.804 232.801 23.9854 233.046 23.9575Z" fill="#582583"/>
<path d="M227.205 22.2691C226.933 19.883 224.763 18.1458 222.377 18.4179C219.984 18.697 218.254 20.8598 218.526 23.2458C218.784 25.6528 220.982 27.383 223.354 27.097C225.74 26.8319 227.463 24.6691 227.205 22.2691Z" fill="#582583"/>
<path d="M14.797 20.1342H19.1993C19.2063 20.1342 19.2133 20.1342 19.2133 20.1342H98.4693C98.7135 20.1342 98.9088 19.9388 98.9088 19.6946V1.22018C98.9088 0.975992 98.7135 0.78064 98.4693 0.78064H19.2063C19.1993 0.78064 19.1993 0.78064 19.1923 0.78064H14.797C14.5528 0.78064 14.3574 0.975992 14.3574 1.22018V19.6877C14.3574 19.9319 14.5528 20.1342 14.797 20.1342ZM32.7272 14.1481C32.5668 14.3086 32.2877 14.3365 32.0993 14.1481L30.2505 12.2993C28.8761 13.3597 26.9226 13.2411 25.7016 12.0063C24.3551 10.6667 24.3551 8.47601 25.7016 7.13647C27.0482 5.78995 29.2319 5.78995 30.5854 7.13647C31.2551 7.80624 31.59 8.68531 31.59 9.57136C31.59 10.3109 31.3528 11.0574 30.8644 11.6784L32.7203 13.5342C32.8947 13.7016 32.8947 13.9807 32.7272 14.1481ZM98.0367 19.2481H39.2575V1.65971H98.0367V19.2481ZM15.2365 1.66669H18.7598V19.2551H15.2365V1.66669Z" fill="#582583"/>
<path d="M26.3365 7.75048C25.3318 8.75514 25.3318 10.3877 26.3365 11.3924C27.3342 12.39 28.9598 12.39 29.9644 11.3854C30.9621 10.3877 30.9621 8.76211 29.9644 7.75746C28.9458 6.73885 27.2993 6.77374 26.3365 7.75048Z" fill="#582583"/>
<path d="M48.8175 10.897H92.0664C92.3106 10.897 92.506 10.7016 92.506 10.4574C92.506 10.2132 92.3106 10.0179 92.0664 10.0179H48.8175C48.5733 10.0179 48.3779 10.2132 48.3779 10.4574C48.3779 10.7016 48.5733 10.897 48.8175 10.897Z" fill="#582583"/>
</svg>
