<svg width="350" height="102" viewBox="0 0 350 102" fill="none" xmlns="http://www.w3.org/2000/svg">
<path d="M62.2328 35.8158C62.2328 41.6923 61.3568 46.8023 59.6047 51.2188C57.8527 55.6354 55.3342 59.2854 52.0857 62.2054C48.8372 65.1254 44.9317 67.3519 40.3692 68.8119C35.8432 70.2719 30.8061 71.0019 25.2946 71.0019C24.0536 71.0019 22.6301 70.9654 21.0241 70.8924C19.4181 70.8194 17.7391 70.6734 16.0236 70.4544C14.3081 70.2354 12.5926 69.9434 10.8405 69.6149C9.12504 69.2864 7.51903 68.8119 6.05903 68.2279C2.04401 66.6949 0 64.0304 0 60.1979V8.87867C0 7.34566 0.438002 6.14116 1.27751 5.30166C2.11701 4.46216 3.28501 3.76865 4.74502 3.25765C7.88403 2.23564 11.242 1.54214 14.7461 1.21364C18.2501 0.885135 21.4256 0.702637 24.1996 0.702637C29.9301 0.702637 35.1131 1.39614 39.7487 2.78314C44.3842 4.17015 48.3992 6.32366 51.7207 9.20717C55.0422 12.0907 57.6337 15.7407 59.4587 20.1572C61.3203 24.6102 62.2328 29.7933 62.2328 35.8158ZM42.4497 36.1443C42.4497 29.5378 40.9167 24.5737 37.8507 21.2522C34.7846 17.9307 30.6601 16.2517 25.5501 16.2517C24.5281 16.2517 23.4696 16.2882 22.4111 16.3612C21.3526 16.4342 20.2576 16.5437 19.1626 16.6897V54.9419C19.9656 55.0879 20.9511 55.2339 22.1191 55.3434C23.2871 55.4529 24.3821 55.5259 25.4041 55.5259C30.4776 55.5259 34.5656 53.9199 37.7047 50.7079C40.8802 47.4228 42.4497 42.6048 42.4497 36.1443Z" fill="#572680"/>
<path d="M122.75 35.8158C122.75 41.6923 121.874 46.8023 120.122 51.2188C118.37 55.5989 115.852 59.2854 112.603 62.2054C109.355 65.1254 105.449 67.3519 100.887 68.8119C96.3607 70.2719 91.3237 71.0019 85.8122 71.0019C84.5712 71.0019 83.1477 70.9654 81.5417 70.8924C79.9357 70.8194 78.2567 70.6734 76.5412 70.4544C74.8256 70.2354 73.1101 69.9434 71.3581 69.6149C69.6426 69.2864 68.0366 68.8119 66.5766 68.2279C62.5616 66.6949 60.5176 64.0304 60.5176 60.1979V8.87867C60.5176 7.34566 60.9556 6.14116 61.7951 5.30166C62.6346 4.46216 63.8026 3.76865 65.2626 3.25765C68.4016 2.23564 71.7596 1.54214 75.2636 1.21364C78.7677 0.885135 81.9432 0.702637 84.7172 0.702637C90.4477 0.702637 95.6307 1.39614 100.266 2.78314C104.902 4.17015 108.917 6.32366 112.238 9.20717C115.56 12.0907 118.151 15.7407 119.976 20.1572C121.838 24.6102 122.75 29.7933 122.75 35.8158ZM102.967 36.1443C102.967 29.5378 101.434 24.5737 98.3682 21.2522C95.3022 17.9307 91.1777 16.2517 86.0677 16.2517C85.0457 16.2517 83.9872 16.2882 82.9287 16.3612C81.8702 16.4342 80.7752 16.5437 79.6802 16.6897V54.9419C80.4832 55.0879 81.4687 55.2339 82.6367 55.3434C83.8047 55.4529 84.8997 55.5259 85.9217 55.5259C90.9952 55.5259 95.0832 53.9199 98.2222 50.7079C101.398 47.4228 102.967 42.6048 102.967 36.1443Z" fill="#572680"/>
<path d="M174.982 5.81272C175.384 7.12673 175.603 8.55023 175.603 10.0832C175.603 12.8572 174.982 14.8648 173.778 16.1423C172.573 17.3833 170.931 18.0038 168.887 18.0038H156.477V69.104C155.674 69.323 154.433 69.542 152.754 69.761C151.075 69.98 149.359 70.0895 147.571 70.0895C143.702 70.0895 141.001 69.4325 139.504 68.1185C138.008 66.8045 137.241 64.432 137.241 60.9645V18.0038H120.633C120.122 17.2008 119.648 16.1423 119.246 14.8283C118.845 13.5142 118.626 12.0908 118.626 10.5577C118.626 7.78373 119.246 5.77622 120.451 4.49872C121.655 3.25771 123.298 2.63721 125.342 2.63721H173.595C174.143 3.44021 174.581 4.49872 174.982 5.81272Z" fill="#572680"/>
<path d="M207.686 31.4358C206.481 28.7348 204.766 26.3988 202.576 24.4643C200.386 22.5298 197.794 20.9968 194.765 19.8653C191.735 18.7703 188.414 18.1863 184.727 18.1863C181.479 18.1863 178.267 18.6973 175.164 19.6828C172.062 20.7048 169.251 22.2378 166.842 24.3548C166.696 24.4643 166.55 24.6103 166.441 24.7563C164.214 26.8003 162.389 29.3918 160.966 32.4943C160.528 33.4433 160.163 34.4653 159.871 35.4874C159.469 36.8379 159.177 38.2979 158.995 39.8674C158.812 41.2544 158.739 42.7509 158.739 44.2839C158.739 48.5179 159.36 52.2774 160.601 55.5259C160.893 56.5479 163.046 61.585 165.966 63.994C166.331 64.359 166.696 64.724 167.098 65.0525C169.689 67.352 172.755 69.0675 176.259 70.199C179.362 71.221 182.72 71.7685 186.297 71.878C186.735 71.878 187.209 71.9145 187.647 71.9145C190.056 71.9145 192.684 71.6955 195.458 71.294C198.232 70.8925 200.751 70.0895 202.941 68.885C205.861 67.352 207.321 65.0525 207.321 61.9135C207.321 60.8915 207.102 59.906 206.7 58.9205C206.554 58.592 206.372 58.2635 206.189 57.935C205.423 56.6939 204.474 55.7084 203.379 55.0149C201.773 56.0004 199.729 56.8399 197.174 57.57C194.655 58.3 191.954 58.665 189.107 58.665C186.041 58.665 183.34 58.081 181.004 56.9495C178.632 55.8179 177.062 54.1024 176.332 51.8029L202.028 47.9704C204.364 47.6419 206.226 46.8389 207.54 45.5614C208.708 44.4664 209.365 42.8969 209.511 40.8894C209.511 40.6339 209.547 40.4149 209.547 40.1594C209.511 37.0934 208.927 34.1368 207.686 31.4358ZM175.055 40.2689C175.128 39.1739 175.347 38.0789 175.748 36.9839C176.15 35.9254 176.697 34.9399 177.464 34.0638C178.23 33.1878 179.216 32.4943 180.42 31.9103C181.625 31.3628 183.085 31.0708 184.727 31.0708C187.282 31.0708 189.253 31.7643 190.567 33.1513C191.881 34.5384 192.648 35.9254 192.867 37.3124L175.055 40.2689Z" fill="white"/>
<path d="M230.17 18.2231C233.929 18.2231 237.324 18.5881 240.426 19.3547C243.529 20.1212 246.157 21.2892 248.347 22.8587C250.537 24.4282 252.216 26.3992 253.384 28.7717C254.552 31.1807 255.136 33.9912 255.136 37.2397V60.5633C255.136 62.3518 254.625 63.8483 253.64 64.9798C252.618 66.1114 251.449 67.0968 250.062 67.9364C245.536 70.6374 239.222 71.9879 231.009 71.9879C227.323 71.9879 224.038 71.6229 221.081 70.9294C218.125 70.2359 215.606 69.2139 213.489 67.7904C211.372 66.4033 209.73 64.6513 208.598 62.4978C207.467 60.3443 206.883 57.8623 206.883 55.0153C206.883 50.2338 208.306 46.5473 211.153 43.9923C214 41.4372 218.417 39.8312 224.366 39.2107L237.981 37.7507V37.0207C237.981 35.0132 237.105 33.5897 235.316 32.7137C233.564 31.8377 231.009 31.3997 227.651 31.3997C225.023 31.3997 222.432 31.6917 219.95 32.2392C217.468 32.7867 215.205 33.4802 213.197 34.3197C212.285 33.6992 211.518 32.7502 210.898 31.4727C210.277 30.1952 209.949 28.8447 209.949 27.4577C209.949 25.6692 210.387 24.2092 211.263 23.1507C212.139 22.0922 213.453 21.1432 215.278 20.3767C217.285 19.6101 219.658 19.0626 222.395 18.6976C225.133 18.3691 227.724 18.2231 230.17 18.2231ZM230.973 59.1033C232.141 59.1033 233.455 58.9938 234.878 58.7383C236.302 58.4828 237.36 58.1543 238.054 57.7528V49.4308L230.571 50.0513C228.637 50.1973 227.031 50.5988 225.79 51.2923C224.549 51.9858 223.928 53.0443 223.928 54.4313C223.928 55.8183 224.476 56.9498 225.534 57.8258C226.593 58.6653 228.418 59.1033 230.973 59.1033Z" fill="white"/>
<path d="M300.433 55.7448C300.433 61.0374 298.462 65.1619 294.556 68.1184C290.614 71.0749 284.847 72.5714 277.182 72.5714C274.189 72.5714 271.452 72.3524 268.97 71.9144C266.487 71.4764 264.37 70.8559 262.582 69.9799C260.793 69.1404 259.406 68.0454 258.384 66.7679C257.399 65.4904 256.888 63.9939 256.888 62.2784C256.888 60.7089 257.216 59.3583 257.837 58.2633C258.494 57.1683 259.297 56.2558 260.319 55.5258C262.399 56.7303 264.735 57.8253 267.4 58.7379C270.028 59.6504 273.131 60.1249 276.598 60.1249C281.672 60.1249 284.19 58.7014 284.19 55.8543C284.19 54.6498 283.752 53.7008 282.84 53.0803C281.964 52.4233 280.431 51.8758 278.277 51.3648L274.007 50.4158C268.13 49.2113 263.786 47.3133 260.939 44.7948C258.092 42.2763 256.669 38.6993 256.669 34.1367C256.669 29.0632 258.713 25.0482 262.837 22.0917C266.962 19.1352 272.474 17.6387 279.409 17.6387C281.964 17.6387 284.409 17.8212 286.709 18.2227C289.008 18.6242 290.943 19.2082 292.585 19.9747C294.228 20.7777 295.542 21.7267 296.491 22.9312C297.44 24.0992 297.951 25.4862 297.951 27.0557C297.951 28.4792 297.659 29.7567 297.111 30.8517C296.527 31.9467 295.797 32.8592 294.848 33.5892C294.264 33.2242 293.425 32.8227 292.33 32.4212C291.235 31.9832 290.03 31.6182 288.753 31.2532C287.475 30.8882 286.125 30.5962 284.665 30.4137C283.241 30.1947 281.927 30.0852 280.686 30.0852C278.168 30.0852 276.233 30.4137 274.846 31.1072C273.459 31.8007 272.766 32.8227 272.766 34.1732C272.766 35.1587 273.167 35.9617 273.934 36.5457C274.737 37.1298 276.16 37.6408 278.204 38.1518L282.292 39.1008C288.789 40.5243 293.425 42.6048 296.235 45.3058C299.046 47.9703 300.433 51.4743 300.433 55.7448Z" fill="white"/>
<path d="M309.229 56.0007C308.463 54.2852 307.66 52.3872 306.82 50.2702C305.981 48.1532 305.068 45.7441 304.156 43.0066C303.243 40.2691 302.294 37.1666 301.309 33.6626C300.323 30.1586 299.265 26.1071 298.206 21.5446C299.155 20.5955 300.433 19.756 302.039 19.026C303.645 18.296 305.397 17.9675 307.295 17.9675C309.667 17.9675 311.638 18.4785 313.208 19.464C314.777 20.4495 315.945 22.311 316.675 25.0486C318.026 29.8301 319.376 34.5386 320.727 39.2106C322.041 43.8826 323.391 48.5182 324.778 53.1537H325.18C325.983 50.8542 326.786 48.2992 327.589 45.5982C328.355 42.8606 329.122 40.0501 329.888 37.1666C330.655 34.2831 331.348 31.3631 331.969 28.4796C332.626 25.5961 333.173 22.749 333.648 19.9385C334.816 19.318 335.984 18.8435 337.225 18.515C338.466 18.1865 339.743 18.004 341.094 18.004C343.466 18.004 345.547 18.515 347.335 19.537C349.124 20.559 350 22.3475 350 24.8661C350 27.6036 349.562 30.8521 348.722 34.6116C347.883 38.4076 346.751 42.3131 345.401 46.3647C344.05 50.4162 342.517 54.3947 340.802 58.2637C339.086 62.1327 337.407 65.5637 335.692 68.4837C331.823 75.1633 328.246 80.0908 324.997 83.2663C321.749 86.4418 318.464 88.0113 315.142 88.0113C312.405 88.0113 310.142 87.1718 308.28 85.4563C306.455 83.7408 305.36 81.5508 304.995 78.8133C307.185 76.9883 309.339 74.9078 311.529 72.5718C313.719 70.2723 315.617 67.8997 317.259 65.5272C316.091 65.1987 314.85 64.3957 313.536 63.1182C312.222 61.8772 310.762 59.5047 309.229 56.0007Z" fill="white"/>
<path d="M286.308 101.297H207.65C204.949 101.297 202.759 99.1073 202.759 96.4063V85.3102C202.759 82.6092 204.949 80.4192 207.65 80.4192H286.308C289.009 80.4192 291.199 82.6092 291.199 85.3102V96.4063C291.199 99.1073 289.009 101.297 286.308 101.297Z" fill="#572680"/>
<path d="M21.7902 84.0326C21.8267 83.9231 21.8632 83.8136 21.9362 83.7406C22.0092 83.6676 22.1187 83.6311 22.2282 83.6311H25.7687C26.2797 83.6311 26.7542 83.7041 27.1922 83.8866C27.6302 84.0326 27.9587 84.2881 28.2507 84.5801C28.5427 84.8721 28.7252 85.2736 28.8347 85.7116C28.9442 86.1496 28.9442 86.6971 28.8347 87.2811L27.6302 94.1797C27.5207 94.7637 27.3382 95.3112 27.0827 95.7492C26.8272 96.1872 26.4622 96.5887 26.0972 96.8807C25.6957 97.1727 25.2577 97.4282 24.7832 97.5742C24.3087 97.7202 23.7977 97.7932 23.2867 97.7932H19.7462C19.5272 97.7932 19.4177 97.6472 19.4542 97.3917L21.7902 84.0326ZM24.1627 86.1131L22.5202 95.3112H23.5422C23.9072 95.3112 24.1992 95.2017 24.4547 94.9462C24.7102 94.6907 24.8562 94.3987 24.9292 94.0702L26.1337 87.3541C26.2067 86.9161 26.1702 86.6241 25.9877 86.4051C25.8052 86.1861 25.5497 86.1131 25.1847 86.1131H24.1627Z" fill="white"/>
<path d="M34.8935 84.0326C34.93 83.9231 34.9665 83.8136 35.0395 83.7406C35.1125 83.6676 35.222 83.6311 35.3315 83.6311H41.427C41.6095 83.6311 41.6825 83.7406 41.646 83.9961L41.354 85.7481C41.3175 86.0036 41.208 86.1131 40.989 86.1131H37.2295L36.6455 89.3981H39.6385C39.7115 89.3981 39.7845 89.4346 39.8575 89.4711C39.894 89.5076 39.9305 89.6171 39.894 89.7631L39.602 91.5151C39.5655 91.6246 39.529 91.7341 39.456 91.7706C39.383 91.8436 39.31 91.8436 39.2005 91.8436H36.2075L35.587 95.3112H39.383C39.456 95.3112 39.529 95.3477 39.5655 95.3842C39.602 95.4572 39.6385 95.5302 39.602 95.6397L39.31 97.3917C39.2735 97.5012 39.237 97.6107 39.164 97.6472C39.091 97.7202 39.018 97.7202 38.945 97.7202H32.7765C32.5575 97.7202 32.448 97.5742 32.4845 97.3187L34.8935 84.0326Z" fill="white"/>
<path d="M45.7345 84.0326C45.771 83.9231 45.8075 83.8136 45.8805 83.7406C45.9535 83.6676 46.063 83.6311 46.1725 83.6311H49.7131C50.2241 83.6311 50.6986 83.7041 51.1366 83.8866C51.5746 84.0326 51.9031 84.2881 52.1951 84.5801C52.4871 84.8721 52.6696 85.2736 52.7791 85.7116C52.8886 86.1496 52.8886 86.6971 52.7791 87.2811L51.5746 94.1797C51.4651 94.7637 51.2826 95.3112 51.027 95.7492C50.7715 96.1872 50.4066 96.5887 50.0416 96.8807C49.64 97.1727 49.202 97.4282 48.7275 97.5742C48.253 97.7202 47.742 97.7932 47.231 97.7932H43.6905C43.4715 97.7932 43.362 97.6472 43.3985 97.3917L45.7345 84.0326ZM48.107 86.1131L46.4645 95.3112H47.4865C47.8515 95.3112 48.1435 95.2017 48.399 94.9462C48.6545 94.6907 48.8005 94.3987 48.8735 94.0702L50.0781 87.3541C50.1511 86.9161 50.1145 86.6241 49.932 86.4051C49.7495 86.1861 49.494 86.1131 49.129 86.1131H48.107Z" fill="white"/>
<path d="M58.1441 84.0326C58.1806 83.9231 58.2171 83.8136 58.2901 83.7406C58.3631 83.6676 58.4726 83.6311 58.5821 83.6311H64.7141C64.8966 83.6311 64.9696 83.7406 64.9331 83.9961L64.6411 85.7481C64.6046 86.0036 64.4951 86.1131 64.2761 86.1131H60.5166L59.9326 89.3981H62.9256C62.9986 89.3981 63.0716 89.4346 63.1446 89.4711C63.1811 89.5076 63.2176 89.6171 63.1811 89.7631L62.8891 91.5151C62.8526 91.6246 62.8161 91.7341 62.7431 91.7706C62.6701 91.8436 62.5971 91.8436 62.4876 91.8436H59.4946L58.8741 95.3112H62.6701C62.7431 95.3112 62.8161 95.3477 62.8526 95.3842C62.8891 95.4572 62.9256 95.5302 62.8891 95.6397L62.5971 97.3917C62.5606 97.5012 62.5241 97.6107 62.4511 97.6472C62.3781 97.7202 62.3051 97.7202 62.2321 97.7202H56.0636C55.8446 97.7202 55.7351 97.5742 55.7716 97.3187L58.1441 84.0326Z" fill="white"/>
<path d="M58.1441 84.0326C58.1806 83.9231 58.2171 83.8136 58.2901 83.7406C58.3631 83.6676 58.4726 83.6311 58.5821 83.6311H64.7141C64.8966 83.6311 64.9696 83.7406 64.9331 83.9961L64.6411 85.7481C64.6046 86.0036 64.4951 86.1131 64.2761 86.1131H60.5166L59.9326 89.3981H62.9256C62.9986 89.3981 63.0716 89.4346 63.1446 89.4711C63.1811 89.5076 63.2176 89.6171 63.1811 89.7631L62.8891 91.5151C62.8526 91.6246 62.8161 91.7341 62.7431 91.7706C62.6701 91.8436 62.5971 91.8436 62.4876 91.8436H59.4946L58.8741 95.3112H62.6701C62.7431 95.3112 62.8161 95.3477 62.8526 95.3842C62.8891 95.4572 62.9256 95.5302 62.8891 95.6397L62.5971 97.3917C62.5606 97.5012 62.5241 97.6107 62.4511 97.6472C62.3781 97.7202 62.3051 97.7202 62.2321 97.7202H56.0636C55.8446 97.7202 55.7351 97.5742 55.7716 97.3187L58.1441 84.0326Z" fill="white"/>
<path d="M69.3862 83.9957C69.4227 83.8862 69.4592 83.7767 69.5322 83.7037C69.6052 83.6307 69.6782 83.5942 69.7512 83.5942H76.2848C76.3578 83.5942 76.4308 83.6307 76.4673 83.7037C76.5038 83.7767 76.5403 83.8497 76.5038 83.9957L76.2118 85.7477C76.1753 85.8572 76.1388 85.9667 76.0658 86.0397C75.9928 86.1127 75.9197 86.1492 75.8467 86.1492H73.9487L71.9412 97.4643C71.9047 97.5738 71.8682 97.6833 71.7952 97.7198C71.7222 97.7928 71.6492 97.8293 71.5762 97.8293H69.4227C69.3497 97.8293 69.2767 97.7928 69.2402 97.7198C69.2037 97.6468 69.1672 97.5738 69.2037 97.4643L71.2112 86.1492H69.3132C69.2402 86.1492 69.1672 86.1127 69.1307 86.0397C69.0942 85.9667 69.0577 85.8937 69.0942 85.7477L69.3862 83.9957Z" fill="white"/>
<path d="M81.4318 84.0326C81.4683 83.9231 81.5048 83.8136 81.5778 83.7406C81.6508 83.6676 81.7238 83.6311 81.8698 83.6311H83.9138C84.0233 83.6311 84.0963 83.6676 84.1328 83.7406C84.1693 83.8136 84.1693 83.9231 84.1693 84.0326L81.8333 97.4282C81.7968 97.6837 81.6508 97.8297 81.4318 97.8297H79.3878C79.1688 97.8297 79.0593 97.6837 79.0958 97.4282L81.4318 84.0326Z" fill="white"/>
<path d="M95.8494 83.6311C96.0319 83.6311 96.1414 83.7406 96.0684 83.9961L95.8494 85.3466L95.8129 85.4196C95.7764 85.4926 95.7764 85.5656 95.7399 85.6021L90.4473 94.9097L90.1918 95.2747H93.9879C94.0609 95.2747 94.1339 95.3112 94.1339 95.3477C94.1339 95.3842 94.1704 95.4937 94.1704 95.6032L93.8419 97.5012C93.8054 97.7202 93.6959 97.8297 93.5499 97.8297H87.1988C87.0163 97.8297 86.9433 97.7202 86.9798 97.5012L87.1988 96.1142C87.2353 95.8952 87.3448 95.7857 87.4908 95.7492L89.7903 95.2747H90.1918L89.8268 95.7857L87.1988 96.1507C87.1988 96.0777 87.2353 96.0047 87.2718 95.9682C87.3083 95.9317 87.3083 95.8587 87.3448 95.8222L92.5279 86.4051L92.7469 86.0766H89.3523C89.2063 86.0766 89.1333 85.9671 89.1698 85.7481L89.4618 84.0326C89.4618 83.9231 89.4983 83.8136 89.5713 83.7771C89.6443 83.7406 89.6808 83.7041 89.7538 83.7041H95.8494V83.6311Z" fill="white"/>
<path d="M101.433 84.0326C101.47 83.9231 101.506 83.8136 101.579 83.7406C101.652 83.6676 101.762 83.6311 101.871 83.6311H108.003C108.186 83.6311 108.259 83.7406 108.222 83.9961L107.93 85.7481C107.894 86.0036 107.784 86.1131 107.565 86.1131H103.806L103.222 89.3981H106.215C106.288 89.3981 106.361 89.4346 106.434 89.4711C106.507 89.5076 106.507 89.6171 106.47 89.7631L106.178 91.5151C106.142 91.6246 106.105 91.7341 106.032 91.7706C105.959 91.8436 105.886 91.8436 105.777 91.8436H102.784L102.163 95.3112H105.959C106.032 95.3112 106.105 95.3477 106.142 95.3842C106.178 95.4572 106.215 95.5302 106.178 95.6397L105.886 97.3917C105.85 97.5012 105.813 97.6107 105.74 97.6472C105.667 97.7202 105.594 97.7202 105.521 97.7202H99.3526C99.1336 97.7202 99.0241 97.5742 99.0606 97.3187L101.433 84.0326Z" fill="white"/>
<path d="M122.019 94.326C121.983 94.472 121.983 94.6545 122.019 94.8005C122.056 94.9465 122.092 95.0925 122.165 95.202C122.238 95.3115 122.348 95.421 122.457 95.494C122.567 95.567 122.749 95.6035 122.895 95.6035C123.078 95.6035 123.26 95.567 123.406 95.494C123.552 95.421 123.698 95.348 123.808 95.202C123.917 95.0925 124.027 94.9465 124.1 94.8005C124.173 94.6545 124.209 94.5085 124.246 94.326L124.465 93.1215C124.501 92.9755 124.538 92.866 124.574 92.793C124.611 92.72 124.72 92.72 124.83 92.72H126.728C126.837 92.72 126.947 92.7565 126.983 92.793C127.02 92.8295 127.02 92.939 127.02 93.085L126.764 94.472C126.655 95.0195 126.472 95.5305 126.217 95.9685C125.961 96.4065 125.633 96.7715 125.231 97.1C124.83 97.392 124.428 97.6475 123.954 97.7935C123.479 97.9395 122.968 98.049 122.457 98.049C121.946 98.049 121.472 97.976 121.034 97.7935C120.596 97.6475 120.231 97.392 119.939 97.1C119.647 96.808 119.428 96.4065 119.318 95.9685C119.209 95.5305 119.172 95.0195 119.282 94.472L120.085 89.873L120.596 86.9895C120.669 86.4785 120.851 86.004 121.143 85.566C121.399 85.128 121.727 84.763 122.129 84.4345C122.53 84.106 122.968 83.8505 123.479 83.7045C123.99 83.522 124.501 83.449 125.049 83.449C125.669 83.449 126.18 83.5585 126.618 83.7775C127.02 83.9965 127.348 84.252 127.604 84.5805C127.823 84.909 128.005 85.3105 128.042 85.7485C128.115 86.1865 128.115 86.6245 128.005 87.0625L127.823 88.048C127.786 88.194 127.75 88.3035 127.713 88.3765C127.64 88.4495 127.567 88.486 127.421 88.486H125.523C125.414 88.486 125.341 88.4495 125.304 88.3765C125.268 88.3035 125.268 88.194 125.268 88.048L125.45 87.099C125.487 86.953 125.487 86.807 125.45 86.661C125.414 86.515 125.377 86.369 125.304 86.2595C125.231 86.15 125.122 86.0405 125.012 85.9675C124.903 85.8945 124.757 85.858 124.574 85.858C124.428 85.858 124.246 85.8945 124.1 85.9675C123.954 86.0405 123.808 86.1135 123.698 86.223C123.589 86.3325 123.479 86.4785 123.406 86.6245C123.333 86.7705 123.297 86.9165 123.26 87.099L122.822 89.654L122.019 94.326Z" fill="white"/>
<path d="M133.189 86.9525C133.298 86.405 133.481 85.894 133.736 85.456C134.028 85.018 134.357 84.653 134.758 84.3245C135.16 84.0325 135.598 83.777 136.072 83.631C136.547 83.485 137.058 83.3755 137.569 83.3755C138.08 83.3755 138.554 83.4485 138.992 83.631C139.43 83.777 139.795 84.0325 140.087 84.3245C140.379 84.6165 140.598 85.018 140.744 85.456C140.89 85.894 140.89 86.405 140.781 86.9525L139.467 94.4715C139.357 95.019 139.175 95.53 138.883 95.968C138.591 96.406 138.262 96.771 137.861 97.0996C137.459 97.3916 137.021 97.647 136.51 97.793C136.036 97.939 135.525 98.0485 135.014 98.0485C134.503 98.0485 134.028 97.9755 133.59 97.793C133.152 97.6105 132.787 97.3916 132.495 97.0996C132.203 96.8075 131.984 96.406 131.838 95.968C131.692 95.53 131.692 95.0555 131.802 94.508L133.189 86.9525ZM134.612 94.3255C134.576 94.4715 134.576 94.654 134.612 94.8C134.649 94.946 134.685 95.092 134.758 95.2015C134.831 95.311 134.941 95.4205 135.05 95.457C135.16 95.53 135.306 95.5665 135.488 95.5665C135.671 95.5665 135.817 95.53 135.963 95.457C136.109 95.384 136.255 95.311 136.364 95.2015C136.474 95.092 136.583 94.9825 136.656 94.8365C136.729 94.6905 136.766 94.5445 136.802 94.3985L138.08 87.135C138.116 86.989 138.116 86.8065 138.08 86.6605C138.043 86.5145 138.007 86.3685 137.934 86.259C137.861 86.1495 137.751 86.04 137.642 85.967C137.532 85.894 137.386 85.8575 137.204 85.8575C137.021 85.8575 136.875 85.894 136.729 85.967C136.583 86.04 136.437 86.113 136.328 86.259C136.218 86.3685 136.109 86.5145 136.036 86.6605C135.963 86.8065 135.89 86.9525 135.89 87.135L134.612 94.3255Z" fill="white"/>
<path d="M151.986 97.3915C151.986 97.501 151.95 97.6105 151.877 97.6835C151.84 97.7565 151.731 97.793 151.621 97.793H149.468C149.395 97.793 149.322 97.7565 149.285 97.6835C149.249 97.6105 149.249 97.501 149.249 97.3915L151.074 86.9525C151.11 86.6605 151.037 86.405 150.891 86.186C150.745 85.967 150.49 85.8575 150.198 85.8575C150.015 85.8575 149.869 85.894 149.723 85.967C149.577 86.04 149.431 86.113 149.322 86.2225C149.212 86.332 149.103 86.478 149.03 86.624C148.957 86.77 148.92 86.916 148.884 87.0985L147.059 97.3915C147.022 97.501 146.986 97.6105 146.949 97.6835C146.913 97.7565 146.803 97.793 146.694 97.793H144.54C144.467 97.793 144.394 97.7565 144.358 97.6835C144.321 97.6105 144.321 97.501 144.321 97.3915L146.146 86.9525C146.219 86.478 146.438 86.0035 146.694 85.5655C146.986 85.1275 147.314 84.7625 147.716 84.434C148.117 84.1055 148.555 83.85 149.066 83.6675C149.577 83.485 150.052 83.3755 150.563 83.3755C151.037 83.3755 151.439 83.4485 151.84 83.5945C152.242 83.7405 152.57 83.9595 152.862 84.215C153.264 83.9595 153.665 83.7405 154.103 83.5945C154.541 83.4485 155.016 83.3755 155.454 83.3755C155.965 83.3755 156.439 83.485 156.877 83.6675C157.315 83.85 157.68 84.1055 157.972 84.434C158.264 84.7625 158.483 85.1275 158.593 85.5655C158.739 86.0035 158.739 86.4415 158.666 86.9525L156.841 97.3915C156.841 97.501 156.804 97.574 156.731 97.6835C156.658 97.7565 156.585 97.8296 156.476 97.8296H154.395C154.286 97.8296 154.213 97.793 154.176 97.72C154.14 97.647 154.103 97.5375 154.14 97.428L155.965 87.135C156.001 86.989 156.001 86.8065 155.965 86.6605C155.928 86.5145 155.892 86.3685 155.819 86.259C155.746 86.1495 155.636 86.04 155.527 86.0035C155.417 85.9305 155.271 85.894 155.089 85.894C154.906 85.894 154.76 85.9305 154.614 86.0035C154.468 86.0765 154.322 86.1495 154.213 86.259C154.103 86.3685 153.994 86.5145 153.921 86.6605C153.848 86.8065 153.811 86.9525 153.775 87.135L151.986 97.3915Z" fill="white"/>
<path d="M172.062 94.3257C172.025 94.4717 172.025 94.6542 172.062 94.8002C172.098 94.9462 172.135 95.0922 172.208 95.2017C172.281 95.3112 172.39 95.4207 172.5 95.4937C172.609 95.5667 172.755 95.6032 172.938 95.6032C173.12 95.6032 173.266 95.5667 173.412 95.4937C173.558 95.4207 173.704 95.3477 173.814 95.2017C173.923 95.0557 174.033 94.9462 174.106 94.8002C174.179 94.6542 174.215 94.5082 174.252 94.3257L176.04 84.0326C176.077 83.9231 176.113 83.8136 176.186 83.7406C176.259 83.6676 176.332 83.6311 176.442 83.6311H178.522C178.632 83.6311 178.705 83.6676 178.741 83.7406C178.778 83.8136 178.778 83.9231 178.778 84.0326L176.953 94.4717C176.88 94.9462 176.697 95.4207 176.405 95.8587C176.113 96.2967 175.785 96.6617 175.383 96.9902C174.982 97.3187 174.507 97.5742 174.033 97.7567C173.522 97.9392 173.047 98.0487 172.536 98.0487C172.025 98.0487 171.551 97.9392 171.113 97.7567C170.675 97.5742 170.31 97.3187 170.018 96.9902C169.726 96.6617 169.507 96.2967 169.397 95.8587C169.288 95.4207 169.251 94.9827 169.324 94.4717L171.149 84.0326C171.186 83.9231 171.222 83.8136 171.295 83.7406C171.368 83.6676 171.441 83.6311 171.514 83.6311H173.668C173.777 83.6311 173.85 83.6676 173.887 83.7406C173.923 83.8136 173.923 83.9231 173.887 84.0326L172.062 94.3257Z" fill="white"/>
<path d="M189.545 97.3915C189.545 97.501 189.508 97.6105 189.435 97.6835C189.399 97.7565 189.289 97.793 189.18 97.793H187.026C186.953 97.793 186.88 97.7565 186.844 97.6835C186.807 97.6105 186.807 97.501 186.807 97.3915L188.632 86.9525C188.669 86.6605 188.596 86.405 188.45 86.186C188.304 85.967 188.048 85.8575 187.756 85.8575C187.574 85.8575 187.428 85.894 187.282 85.967C187.136 86.04 186.99 86.113 186.88 86.2225C186.771 86.332 186.661 86.478 186.588 86.624C186.515 86.77 186.479 86.916 186.442 87.0985L184.617 97.3915C184.581 97.501 184.544 97.6105 184.508 97.6835C184.471 97.7565 184.362 97.793 184.252 97.793H182.099C182.026 97.793 181.953 97.7565 181.916 97.6835C181.88 97.6105 181.88 97.501 181.88 97.3915L183.705 86.9525C183.778 86.478 183.997 86.0035 184.252 85.5655C184.544 85.1275 184.873 84.7625 185.274 84.434C185.676 84.1055 186.114 83.85 186.625 83.6675C187.136 83.485 187.61 83.3755 188.121 83.3755C188.596 83.3755 188.997 83.4485 189.399 83.5945C189.8 83.7405 190.129 83.9595 190.421 84.215C190.822 83.9595 191.224 83.7405 191.662 83.5945C192.1 83.4485 192.574 83.3755 193.012 83.3755C193.523 83.3755 193.998 83.485 194.436 83.6675C194.874 83.85 195.239 84.1055 195.531 84.434C195.823 84.7625 196.042 85.1275 196.151 85.5655C196.297 86.0035 196.297 86.4415 196.224 86.9525L194.399 97.3915C194.399 97.501 194.363 97.574 194.29 97.6835C194.217 97.7565 194.144 97.8296 194.034 97.8296H191.954C191.844 97.8296 191.771 97.793 191.735 97.72C191.698 97.647 191.662 97.5375 191.698 97.428L193.523 87.135C193.56 86.989 193.56 86.8065 193.523 86.6605C193.487 86.5145 193.45 86.3685 193.377 86.259C193.304 86.1495 193.195 86.04 193.085 86.0035C192.976 85.9305 192.83 85.894 192.647 85.894C192.465 85.894 192.319 85.9305 192.173 86.0035C192.027 86.0765 191.881 86.1495 191.771 86.259C191.662 86.3685 191.552 86.5145 191.479 86.6605C191.406 86.8065 191.37 86.9525 191.333 87.135L189.545 97.3915Z" fill="white"/>
<path d="M215.606 94.326C215.57 94.472 215.57 94.6545 215.606 94.8005C215.643 94.9465 215.679 95.0925 215.752 95.202C215.825 95.3115 215.935 95.421 216.044 95.494C216.154 95.567 216.336 95.6035 216.482 95.6035C216.665 95.6035 216.847 95.567 216.993 95.494C217.139 95.421 217.285 95.348 217.395 95.202C217.504 95.0925 217.614 94.9465 217.687 94.8005C217.76 94.6545 217.796 94.5085 217.833 94.326L218.052 93.1215C218.088 92.9755 218.125 92.866 218.161 92.793C218.198 92.72 218.307 92.72 218.417 92.72H220.315C220.424 92.72 220.534 92.7565 220.57 92.793C220.607 92.8295 220.607 92.939 220.607 93.085L220.351 94.472C220.242 95.0195 220.059 95.5305 219.804 95.9685C219.548 96.4065 219.22 96.7715 218.818 97.1C218.417 97.392 218.015 97.6475 217.541 97.7935C217.066 97.9395 216.555 98.049 216.044 98.049C215.533 98.049 215.059 97.976 214.621 97.7935C214.183 97.6475 213.818 97.392 213.526 97.1C213.234 96.808 213.015 96.4065 212.905 95.9685C212.796 95.5305 212.759 95.0195 212.869 94.472L213.672 89.873L214.183 86.9895C214.256 86.4785 214.438 86.004 214.73 85.566C215.022 85.128 215.314 84.763 215.716 84.4345C216.117 84.106 216.555 83.8505 217.066 83.7045C217.577 83.522 218.088 83.449 218.636 83.449C219.256 83.449 219.767 83.5585 220.205 83.7775C220.607 83.9965 220.935 84.252 221.191 84.5805C221.41 84.909 221.592 85.3105 221.629 85.7485C221.702 86.1865 221.702 86.6245 221.592 87.0625L221.41 88.048C221.373 88.194 221.337 88.3035 221.3 88.3765C221.227 88.4495 221.154 88.486 221.008 88.486H219.11C219.001 88.486 218.928 88.4495 218.891 88.3765C218.855 88.3035 218.855 88.194 218.855 88.048L219.037 87.099C219.074 86.953 219.074 86.807 219.037 86.661C219.001 86.515 218.964 86.369 218.891 86.2595C218.818 86.15 218.709 86.0405 218.599 85.9675C218.49 85.8945 218.344 85.858 218.161 85.858C218.015 85.858 217.833 85.8945 217.687 85.9675C217.541 86.0405 217.395 86.1135 217.285 86.223C217.176 86.3325 217.066 86.4785 216.993 86.6245C216.92 86.7705 216.884 86.9165 216.847 87.099L216.409 89.654L215.606 94.326Z" fill="white"/>
<path d="M227.505 84.0326C227.542 83.9231 227.578 83.8136 227.651 83.7406C227.724 83.6676 227.797 83.6311 227.943 83.6311H229.987C230.097 83.6311 230.17 83.6676 230.206 83.7406C230.243 83.8136 230.243 83.9231 230.243 84.0326L228.235 95.3477H231.703C231.885 95.3477 231.958 95.4572 231.922 95.7127L231.63 97.4647C231.593 97.7202 231.447 97.8297 231.265 97.8297H225.425C225.206 97.8297 225.096 97.6837 225.133 97.4282L227.505 84.0326Z" fill="white"/>
<path d="M239.112 84.0326C239.149 83.9231 239.185 83.8136 239.258 83.7406C239.331 83.6676 239.404 83.6311 239.55 83.6311H241.594C241.704 83.6311 241.777 83.6676 241.813 83.7406C241.85 83.8136 241.85 83.9231 241.85 84.0326L239.514 97.4282C239.441 97.6837 239.331 97.8297 239.112 97.8297H237.068C236.849 97.8297 236.74 97.6837 236.776 97.4282L239.112 84.0326Z" fill="white"/>
<path d="M251.632 99.3988C251.669 99.3988 251.742 99.3988 251.778 99.4353C251.815 99.4718 251.815 99.5083 251.815 99.5813L251.559 101.078C251.559 101.187 251.523 101.224 251.45 101.26C251.377 101.297 251.34 101.297 251.304 101.297H250.537C249.99 101.297 249.515 101.224 249.114 101.041C248.676 100.859 248.347 100.64 248.092 100.311C247.836 100.019 247.654 99.6543 247.544 99.2163C247.435 98.7783 247.435 98.3038 247.508 97.7928C247.143 97.6833 246.851 97.5373 246.559 97.3183C246.267 97.0993 246.048 96.8803 245.865 96.5883C245.683 96.2963 245.573 95.9678 245.5 95.6028C245.427 95.2378 245.427 94.8363 245.5 94.3983L246.814 86.8793C246.924 86.3318 247.106 85.8208 247.398 85.3828C247.69 84.9448 248.019 84.5798 248.42 84.2513C248.822 83.9593 249.26 83.7038 249.771 83.5578C250.245 83.4118 250.756 83.3022 251.267 83.3022C251.778 83.3022 252.253 83.3753 252.691 83.5578C253.129 83.7038 253.494 83.9593 253.786 84.2513C254.078 84.5433 254.297 84.9448 254.406 85.3828C254.516 85.8208 254.552 86.3318 254.443 86.8793L253.129 94.4713C253.056 94.9458 252.91 95.3473 252.691 95.7488C252.472 96.1138 252.216 96.4788 251.924 96.7708C251.632 97.0628 251.267 97.3183 250.902 97.5008C250.537 97.6833 250.136 97.8293 249.698 97.9388L249.661 98.0848C249.625 98.2673 249.625 98.4498 249.661 98.5958C249.698 98.7418 249.771 98.8878 249.844 99.0338C249.953 99.1433 250.063 99.2528 250.209 99.3258C250.355 99.3988 250.537 99.4353 250.756 99.4353H251.632V99.3988ZM248.238 94.3253C248.201 94.4713 248.201 94.6538 248.238 94.7998C248.274 94.9458 248.311 95.0918 248.384 95.2013C248.457 95.3108 248.566 95.4203 248.676 95.4568C248.785 95.5298 248.931 95.5663 249.114 95.5663C249.296 95.5663 249.442 95.5298 249.588 95.4568C249.734 95.3838 249.88 95.3108 249.99 95.2013C250.099 95.0918 250.209 94.9823 250.282 94.8363C250.355 94.6903 250.391 94.5443 250.428 94.3983L251.705 87.1348C251.742 86.9888 251.742 86.8063 251.705 86.6603C251.669 86.5143 251.632 86.3683 251.559 86.2588C251.486 86.1493 251.377 86.0398 251.267 85.9668C251.158 85.8938 251.012 85.8573 250.829 85.8573C250.647 85.8573 250.501 85.8938 250.355 85.9668C250.209 86.0398 250.063 86.1128 249.953 86.2588C249.844 86.3683 249.734 86.5143 249.661 86.6603C249.588 86.8063 249.515 86.9523 249.515 87.1348L248.238 94.3253Z" fill="white"/>
<path d="M261.232 94.3257C261.195 94.4717 261.195 94.6542 261.232 94.8002C261.268 94.9462 261.305 95.0922 261.378 95.2017C261.451 95.3112 261.56 95.4207 261.67 95.4937C261.779 95.5667 261.925 95.6032 262.108 95.6032C262.29 95.6032 262.436 95.5667 262.582 95.4937C262.728 95.4207 262.874 95.3477 262.984 95.2017C263.093 95.0557 263.203 94.9462 263.276 94.8002C263.349 94.6542 263.385 94.5082 263.422 94.3257L265.21 84.0326C265.247 83.9231 265.283 83.8136 265.356 83.7406C265.429 83.6676 265.502 83.6311 265.612 83.6311H267.692C267.802 83.6311 267.875 83.6676 267.911 83.7406C267.948 83.8136 267.948 83.9231 267.948 84.0326L266.123 94.4717C266.05 94.9462 265.867 95.4207 265.575 95.8587C265.283 96.2967 264.955 96.6617 264.553 96.9902C264.152 97.3187 263.677 97.5742 263.203 97.7567C262.692 97.9392 262.217 98.0487 261.706 98.0487C261.195 98.0487 260.721 97.9392 260.283 97.7567C259.845 97.5742 259.48 97.3187 259.188 96.9902C258.896 96.6617 258.677 96.2967 258.567 95.8587C258.458 95.4207 258.421 94.9827 258.494 94.4717L260.319 84.0326C260.356 83.9231 260.392 83.8136 260.465 83.7406C260.538 83.6676 260.611 83.6311 260.684 83.6311H262.838C262.947 83.6311 263.02 83.6676 263.057 83.7406C263.093 83.8136 263.093 83.9231 263.057 84.0326L261.232 94.3257Z" fill="white"/>
<path d="M273.532 84.0326C273.568 83.9231 273.605 83.8136 273.678 83.7406C273.751 83.6676 273.86 83.6311 273.97 83.6311H280.102C280.284 83.6311 280.357 83.7406 280.321 83.9961L280.029 85.7481C279.992 86.0036 279.883 86.1131 279.664 86.1131H275.904L275.32 89.3981H278.313C278.386 89.3981 278.459 89.4346 278.532 89.4711C278.569 89.5076 278.605 89.6171 278.569 89.7631L278.277 91.5151C278.24 91.6246 278.204 91.7341 278.131 91.7706C278.058 91.8436 277.985 91.8436 277.875 91.8436H274.882L274.262 95.3112H278.058C278.131 95.3112 278.204 95.3477 278.24 95.3842C278.277 95.4572 278.313 95.5302 278.277 95.6397L277.985 97.3917C277.948 97.5012 277.912 97.6107 277.839 97.6472C277.766 97.7202 277.693 97.7202 277.62 97.7202H271.451C271.232 97.7202 271.123 97.5742 271.159 97.3187L273.532 84.0326Z" fill="white"/>
</svg>
