<svg width="300" height="87" viewBox="0 0 300 87" fill="none" xmlns="http://www.w3.org/2000/svg">
<path d="M53.3424 30.097C53.3424 35.134 52.5915 39.514 51.0898 43.2996C49.5881 47.0852 47.4294 50.2138 44.6449 52.7167C41.8605 55.2195 38.5129 57.128 34.6021 58.3794C30.7227 59.6308 26.4053 60.2565 21.6811 60.2565C20.6174 60.2565 19.3972 60.2253 18.0207 60.1627C16.6441 60.1001 15.2049 59.975 13.7345 59.7873C12.2641 59.5995 10.7936 59.3493 9.2919 59.0677C7.82146 58.7861 6.44489 58.3794 5.19345 57.8788C1.75201 56.5648 0 54.2809 0 50.9959V7.00803C0 5.69402 0.37543 4.66159 1.095 3.94202C1.81458 3.22244 2.81573 2.62801 4.06716 2.19001C6.75774 1.31401 9.63604 0.719573 12.6395 0.438C15.6429 0.156427 18.3648 0 20.7425 0C25.6544 0 30.097 0.59443 34.0703 1.78329C38.0436 2.97215 41.485 4.81802 44.3321 7.2896C47.1791 9.76118 49.4004 12.8898 50.9646 16.6754C52.5602 20.4922 53.3424 24.9348 53.3424 30.097ZM36.3854 30.3786C36.3854 24.7158 35.0714 20.4609 32.4434 17.6139C29.8154 14.7669 26.2801 13.3278 21.9001 13.3278C21.0241 13.3278 20.1168 13.3591 19.2095 13.4216C18.3022 13.4842 17.3636 13.5781 16.4251 13.7032V46.4908C17.1134 46.6159 17.9581 46.7411 18.9592 46.8349C19.9604 46.9288 20.8989 46.9913 21.775 46.9913C26.1237 46.9913 29.6277 45.6148 32.3183 42.8616C35.0401 40.0459 36.3854 35.9162 36.3854 30.3786Z" fill="#572680"/>
<path d="M105.214 30.097C105.214 35.134 104.464 39.514 102.962 43.2996C101.46 47.0539 99.3014 50.2138 96.517 52.7167C93.7325 55.2195 90.385 57.128 86.4742 58.3794C82.5948 59.6308 78.2773 60.2565 73.5532 60.2565C72.4895 60.2565 71.2693 60.2253 69.8927 60.1627C68.5161 60.1001 67.077 59.975 65.6066 59.7873C64.1361 59.5995 62.6657 59.3493 61.164 59.0677C59.6935 58.7861 58.317 58.3794 57.0655 57.8788C53.6241 56.5648 51.8721 54.2809 51.8721 50.9959V7.00803C51.8721 5.69402 52.2475 4.66159 52.9671 3.94202C53.6866 3.22244 54.6878 2.62801 55.9392 2.19001C58.6298 1.31401 61.5081 0.719573 64.5116 0.438C67.515 0.156427 70.2369 0 72.6146 0C77.5265 0 81.9691 0.59443 85.9424 1.78329C89.9157 2.97215 93.3571 4.81802 96.2041 7.2896C99.0511 9.76118 101.272 12.8898 102.837 16.6754C104.432 20.4922 105.214 24.9348 105.214 30.097ZM88.2575 30.3786C88.2575 24.7158 86.9435 20.4609 84.3155 17.6139C81.6875 14.7669 78.1522 13.3278 73.7722 13.3278C72.8962 13.3278 71.9889 13.3591 71.0816 13.4216C70.1743 13.4842 69.2357 13.5781 68.2971 13.7032V46.4908C68.9854 46.6159 69.8302 46.7411 70.8313 46.8349C71.8324 46.9288 72.771 46.9913 73.647 46.9913C77.9958 46.9913 81.4998 45.6148 84.1904 42.8616C86.9122 40.0459 88.2575 35.9162 88.2575 30.3786Z" fill="#572680"/>
<path d="M149.984 4.38002C150.328 5.50631 150.516 6.72645 150.516 8.04045C150.516 10.4182 149.984 12.1389 148.952 13.2339C147.919 14.2976 146.511 14.8295 144.759 14.8295H134.122V58.6297C133.434 58.8174 132.37 59.0051 130.931 59.1928C129.492 59.3805 128.021 59.4744 126.488 59.4744C123.172 59.4744 120.857 58.9112 119.574 57.7849C118.291 56.6587 117.634 54.6251 117.634 51.6529V14.8295H103.399C102.961 14.1412 102.555 13.2339 102.211 12.1076C101.866 10.9813 101.679 9.76118 101.679 8.44718C101.679 6.06945 102.211 4.34873 103.243 3.25372C104.275 2.19001 105.683 1.65814 107.435 1.65814H148.795C149.264 2.34643 149.64 3.25373 149.984 4.38002Z" fill="#572680"/>
<path d="M178.017 26.3427C176.984 24.0275 175.514 22.0252 173.637 20.3671C171.76 18.7089 169.538 17.3949 166.942 16.4251C164.345 15.4865 161.498 14.9859 158.338 14.9859C155.554 14.9859 152.8 15.4239 150.141 16.2686C147.482 17.1447 145.073 18.4587 143.008 20.2732C142.883 20.3671 142.758 20.4922 142.664 20.6174C140.755 22.3694 139.191 24.5907 137.971 27.25C137.595 28.0634 137.283 28.9394 137.032 29.8154C136.688 30.973 136.438 32.2244 136.281 33.5697C136.125 34.7586 136.062 36.0413 136.062 37.3553C136.062 40.9845 136.594 44.2069 137.658 46.9913C137.908 47.8673 139.754 52.1848 142.257 54.2497C142.57 54.5625 142.883 54.8754 143.227 55.157C145.448 57.128 148.076 58.5984 151.08 59.5683C153.739 60.4443 156.617 60.9136 159.683 61.0074C160.059 61.0074 160.465 61.0387 160.841 61.0387C162.906 61.0387 165.158 60.851 167.536 60.5068C169.914 60.1627 172.073 59.4744 173.95 58.442C176.453 57.128 177.704 55.157 177.704 52.4664C177.704 51.5904 177.516 50.7457 177.172 49.9009C177.047 49.6194 176.891 49.3378 176.734 49.0562C176.077 47.9925 175.264 47.1478 174.325 46.5533C172.949 47.3981 171.197 48.1176 169.006 48.7434C166.848 49.3691 164.533 49.6819 162.092 49.6819C159.464 49.6819 157.149 49.1814 155.147 48.2115C153.113 47.2416 151.768 45.7712 151.142 43.8002L173.168 40.5152C175.17 40.2336 176.765 39.5453 177.892 38.4503C178.893 37.5117 179.456 36.1664 179.581 34.4457C179.581 34.2267 179.612 34.039 179.612 33.82C179.581 31.192 179.081 28.6578 178.017 26.3427ZM150.047 33.9139C150.11 32.9753 150.298 32.0367 150.642 31.0981C150.986 30.1908 151.455 29.3461 152.112 28.5953C152.769 27.8444 153.614 27.25 154.646 26.7494C155.679 26.2801 156.93 26.0298 158.338 26.0298C160.528 26.0298 162.217 26.6243 163.344 27.8131C164.47 29.002 165.127 30.1908 165.315 31.3797L150.047 33.9139Z" fill="#F0881F"/>
<path d="M197.288 15.0172C200.511 15.0172 203.421 15.3301 206.08 15.9871C208.739 16.6441 210.992 17.6452 212.869 18.9905C214.746 20.3358 216.185 22.0252 217.186 24.0588C218.187 26.1237 218.688 28.5327 218.688 31.3171V51.3088C218.688 52.8418 218.25 54.1245 217.405 55.0944C216.529 56.0642 215.528 56.909 214.339 57.6285C210.46 59.9437 205.047 61.1013 198.008 61.1013C194.848 61.1013 192.032 60.7884 189.498 60.194C186.964 59.5995 184.805 58.7235 182.991 57.5034C181.176 56.3145 179.768 54.8128 178.799 52.9669C177.829 51.1211 177.328 48.9936 177.328 46.5533C177.328 42.4549 178.548 39.295 180.989 37.105C183.429 34.915 187.214 33.5384 192.314 33.0066L203.984 31.7551V31.1294C203.984 29.4087 203.233 28.1885 201.7 27.4377C200.198 26.6868 198.008 26.3114 195.13 26.3114C192.877 26.3114 190.656 26.5617 188.528 27.031C186.401 27.5003 184.461 28.0947 182.741 28.8143C181.958 28.2824 181.301 27.469 180.77 26.374C180.238 25.279 179.956 24.1214 179.956 22.9325C179.956 21.3995 180.332 20.1481 181.082 19.2408C181.833 18.3335 182.96 17.5201 184.524 16.8631C186.245 16.2061 188.278 15.7368 190.625 15.4239C192.971 15.1423 195.192 15.0172 197.288 15.0172ZM197.977 50.0574C198.978 50.0574 200.104 49.9635 201.324 49.7445C202.545 49.5255 203.452 49.2439 204.046 48.8998V41.7666L197.633 42.2985C195.974 42.4236 194.598 42.7678 193.534 43.3622C192.47 43.9566 191.939 44.8639 191.939 46.0528C191.939 47.2416 192.408 48.2115 193.315 48.9624C194.222 49.6819 195.787 50.0574 197.977 50.0574Z" fill="#F0881F"/>
<path d="M257.514 47.1791C257.514 51.7155 255.824 55.2508 252.477 57.785C249.098 60.3191 244.155 61.6018 237.585 61.6018C235.019 61.6018 232.673 61.4141 230.545 61.0387C228.418 60.6633 226.603 60.1314 225.07 59.3805C223.537 58.661 222.348 57.7224 221.472 56.6274C220.628 55.5324 220.19 54.2497 220.19 52.7792C220.19 51.4339 220.471 50.2764 221.003 49.3378C221.566 48.3992 222.255 47.6171 223.131 46.9913C224.914 48.0238 226.916 48.9624 229.2 49.7445C231.453 50.5266 234.112 50.9334 237.084 50.9334C241.433 50.9334 243.591 49.7132 243.591 47.2729C243.591 46.2405 243.216 45.4271 242.434 44.8952C241.683 44.332 240.369 43.8628 238.523 43.4248L234.863 42.6113C229.826 41.5789 226.103 39.952 223.662 37.7933C221.222 35.6346 220.002 32.5686 220.002 28.6578C220.002 24.3091 221.754 20.8677 225.289 18.3335C228.825 15.7994 233.549 14.5166 239.493 14.5166C241.683 14.5166 243.779 14.6731 245.75 15.0172C247.721 15.3614 249.379 15.8619 250.787 16.5189C252.195 17.2072 253.321 18.0206 254.135 19.0531C254.948 20.0542 255.386 21.2431 255.386 22.5884C255.386 23.8085 255.136 24.9035 254.667 25.8421C254.166 26.7807 253.54 27.5628 252.727 28.1886C252.226 27.8757 251.507 27.5315 250.568 27.1874C249.63 26.812 248.597 26.4991 247.502 26.1862C246.407 25.8734 245.25 25.6231 243.998 25.4667C242.778 25.279 241.652 25.1851 240.588 25.1851C238.429 25.1851 236.771 25.4667 235.582 26.0611C234.393 26.6555 233.799 27.5315 233.799 28.6891C233.799 29.5338 234.143 30.2221 234.8 30.7227C235.488 31.2233 236.709 31.6613 238.461 32.0993L241.965 32.9127C247.533 34.1329 251.507 35.9161 253.916 38.2313C256.325 40.5152 257.514 43.5186 257.514 47.1791Z" fill="#F0881F"/>
<path d="M265.054 47.3981C264.397 45.9276 263.708 44.3008 262.989 42.4862C262.269 40.6716 261.487 38.6067 260.705 36.2603C259.923 33.9139 259.109 31.2546 258.265 28.2511C257.42 25.2477 256.513 21.7749 255.605 17.8642C256.419 17.0508 257.514 16.3312 258.89 15.7055C260.267 15.0798 261.769 14.7982 263.396 14.7982C265.429 14.7982 267.119 15.2362 268.464 16.0809C269.809 16.9256 270.81 18.5212 271.436 20.8677C272.594 24.9661 273.751 29.002 274.909 33.0066C276.035 37.0112 277.193 40.9844 278.382 44.9578H278.726C279.414 42.9867 280.102 40.7967 280.791 38.4816C281.448 36.1351 282.105 33.7261 282.762 31.2546C283.419 28.783 284.013 26.2801 284.545 23.8085C285.108 21.3369 285.577 18.8966 285.984 16.4876C286.985 15.9558 287.986 15.5491 289.05 15.2675C290.114 14.9859 291.209 14.8295 292.366 14.8295C294.4 14.8295 296.183 15.2675 297.716 16.1435C299.249 17.0195 300 18.5525 300 20.7112C300 23.0577 299.625 25.8421 298.905 29.0645C298.186 32.3183 297.216 35.6659 296.058 39.1386C294.901 42.6113 293.586 46.0215 292.116 49.3378C290.646 52.6541 289.206 55.5949 287.736 58.0978C284.42 63.8231 281.354 68.0467 278.569 70.7686C275.785 73.4904 272.969 74.8357 270.122 74.8357C267.776 74.8357 265.836 74.1162 264.24 72.6457C262.676 71.1753 261.737 69.2981 261.425 66.9517C263.302 65.3874 265.148 63.6041 267.025 61.6018C268.902 59.6308 270.529 57.5972 271.937 55.5637C270.936 55.2821 269.872 54.5938 268.746 53.4988C267.619 52.4351 266.368 50.4015 265.054 47.3981Z" fill="#F0881F"/>
<path d="M245.406 86.2238H177.985C175.67 86.2238 173.793 84.3467 173.793 82.0315V72.5206C173.793 70.2054 175.67 68.3283 177.985 68.3283H245.406C247.721 68.3283 249.599 70.2054 249.599 72.5206V82.0315C249.599 84.3467 247.721 86.2238 245.406 86.2238Z" fill="#572680"/>
<path d="M18.6772 71.4256C18.7085 71.3317 18.7397 71.2379 18.8023 71.1753C18.8649 71.1128 18.9587 71.0815 19.0526 71.0815H22.0873C22.5253 71.0815 22.932 71.144 23.3075 71.3005C23.6829 71.4256 23.9645 71.6446 24.2148 71.8949C24.4651 72.1452 24.6215 72.4893 24.7153 72.8648C24.8092 73.2402 24.8092 73.7095 24.7153 74.21L23.6829 80.1231C23.5891 80.6236 23.4326 81.0929 23.2136 81.4684C22.9946 81.8438 22.6818 82.1879 22.3689 82.4382C22.0248 82.6885 21.6493 82.9075 21.2426 83.0327C20.8359 83.1578 20.3979 83.2204 19.9599 83.2204H16.9252C16.7375 83.2204 16.6436 83.0952 16.6749 82.8762L18.6772 71.4256ZM20.7108 73.2089L19.3029 81.0929H20.1789C20.4918 81.0929 20.742 80.9991 20.961 80.7801C21.18 80.5611 21.3052 80.3108 21.3678 80.0292L22.4002 74.2726C22.4628 73.8972 22.4315 73.6469 22.275 73.4592C22.1186 73.2715 21.8996 73.2089 21.5868 73.2089H20.7108Z" fill="#F0881F"/>
<path d="M29.9087 71.4256C29.94 71.3317 29.9713 71.2379 30.0338 71.1753C30.0964 71.1128 30.1903 71.0815 30.2841 71.0815H35.5089C35.6653 71.0815 35.7279 71.1753 35.6966 71.3943L35.4463 72.896C35.415 73.115 35.3211 73.2089 35.1334 73.2089H31.911L31.4104 76.0246H33.9758C34.0384 76.0246 34.101 76.0559 34.1636 76.0872C34.1949 76.1185 34.2261 76.2123 34.1948 76.3375L33.9446 77.8392C33.9133 77.9331 33.882 78.0269 33.8194 78.0582C33.7568 78.1208 33.6943 78.1208 33.6004 78.1208H31.035L30.5031 81.0929H33.7568C33.8194 81.0929 33.882 81.1242 33.9133 81.1555C33.9446 81.2181 33.9758 81.2807 33.9446 81.3745L33.6943 82.8762C33.663 82.9701 33.6317 83.0639 33.5691 83.0952C33.5066 83.1578 33.444 83.1578 33.3814 83.1578H28.0941C27.9064 83.1578 27.8125 83.0327 27.8438 82.8137L29.9087 71.4256Z" fill="#F0881F"/>
<path d="M39.2006 71.4256C39.2319 71.3317 39.2632 71.2379 39.3258 71.1753C39.3883 71.1128 39.4822 71.0815 39.576 71.0815H42.6108C43.0488 71.0815 43.4555 71.144 43.8309 71.3005C44.2063 71.4256 44.4879 71.6446 44.7382 71.8949C44.9885 72.1452 45.1449 72.4893 45.2388 72.8648C45.3326 73.2402 45.3326 73.7095 45.2388 74.21L44.2063 80.1231C44.1125 80.6236 43.9561 81.0929 43.7371 81.4684C43.5181 81.8438 43.2052 82.1879 42.8923 82.4382C42.5482 82.6885 42.1728 82.9075 41.766 83.0327C41.3593 83.1578 40.9213 83.2204 40.4833 83.2204H37.4486C37.2609 83.2204 37.167 83.0952 37.1983 82.8762L39.2006 71.4256ZM41.2342 73.2089L39.8263 81.0929H40.7023C41.0152 81.0929 41.2655 80.9991 41.4845 80.7801C41.7035 80.5611 41.8286 80.3108 41.8912 80.0292L42.9236 74.2726C42.9862 73.8972 42.9549 73.6469 42.7985 73.4592C42.642 73.2715 42.4231 73.2089 42.1102 73.2089H41.2342Z" fill="#F0881F"/>
<path d="M49.8383 71.4256C49.8696 71.3317 49.9009 71.2379 49.9635 71.1753C50.0261 71.1128 50.1199 71.0815 50.2138 71.0815H55.4698C55.6262 71.0815 55.6888 71.1753 55.6575 71.3943L55.4072 72.896C55.3759 73.115 55.2821 73.2089 55.0944 73.2089H51.8719L51.3714 76.0246H53.9368C53.9994 76.0246 54.0619 76.0559 54.1245 76.0872C54.1558 76.1185 54.1871 76.2123 54.1558 76.3375L53.9055 77.8392C53.8742 77.9331 53.8429 78.0269 53.7804 78.0582C53.7178 78.1208 53.6552 78.1208 53.5614 78.1208H50.9959L50.4641 81.0929H53.7178C53.7804 81.0929 53.8429 81.1242 53.8742 81.1555C53.9055 81.2181 53.9368 81.2807 53.9055 81.3745L53.6552 82.8762C53.6239 82.9701 53.5926 83.0639 53.5301 83.0952C53.4675 83.1578 53.4049 83.1578 53.3424 83.1578H48.055C47.8673 83.1578 47.7735 83.0327 47.8048 82.8137L49.8383 71.4256Z" fill="#F0881F"/>
<path d="M49.8383 71.4256C49.8696 71.3317 49.9009 71.2379 49.9635 71.1753C50.0261 71.1128 50.1199 71.0815 50.2138 71.0815H55.4698C55.6262 71.0815 55.6888 71.1753 55.6575 71.3943L55.4072 72.896C55.3759 73.115 55.2821 73.2089 55.0944 73.2089H51.8719L51.3714 76.0246H53.9368C53.9994 76.0246 54.0619 76.0559 54.1245 76.0872C54.1558 76.1185 54.1871 76.2123 54.1558 76.3375L53.9055 77.8392C53.8742 77.9331 53.8429 78.0269 53.7804 78.0582C53.7178 78.1208 53.6552 78.1208 53.5614 78.1208H50.9959L50.4641 81.0929H53.7178C53.7804 81.0929 53.8429 81.1242 53.8742 81.1555C53.9055 81.2181 53.9368 81.2807 53.9055 81.3745L53.6552 82.8762C53.6239 82.9701 53.5926 83.0639 53.5301 83.0952C53.4675 83.1578 53.4049 83.1578 53.3424 83.1578H48.055C47.8673 83.1578 47.7735 83.0327 47.8048 82.8137L49.8383 71.4256Z" fill="#F0881F"/>
<path d="M59.4742 71.3943C59.5055 71.3004 59.5368 71.2066 59.5993 71.144C59.6619 71.0814 59.7245 71.0502 59.787 71.0502H65.3872C65.4498 71.0502 65.5124 71.0814 65.5436 71.144C65.5749 71.2066 65.6062 71.2692 65.5749 71.3943L65.3246 72.896C65.2934 72.9899 65.2621 73.0837 65.1995 73.1463C65.1369 73.2089 65.0743 73.2402 65.0118 73.2402H63.3849L61.6642 82.9388C61.6329 83.0326 61.6016 83.1265 61.5391 83.1578C61.4765 83.2204 61.4139 83.2516 61.3513 83.2516H59.5055C59.4429 83.2516 59.3803 83.2204 59.349 83.1578C59.3178 83.0952 59.2865 83.0326 59.3178 82.9388L61.0385 73.2402H59.4116C59.349 73.2402 59.2865 73.2089 59.2552 73.1463C59.2239 73.0837 59.1926 73.0212 59.2239 72.896L59.4742 71.3943Z" fill="#F0881F"/>
<path d="M69.7983 71.4256C69.8295 71.3317 69.8608 71.2379 69.9234 71.1753C69.986 71.1128 70.0485 71.0815 70.1737 71.0815H71.9257C72.0196 71.0815 72.0821 71.1128 72.1134 71.1753C72.1447 71.2379 72.1447 71.3317 72.1447 71.4256L70.1424 82.9075C70.1111 83.1265 69.986 83.2517 69.7983 83.2517H68.0463C67.8585 83.2517 67.7647 83.1265 67.796 82.9075L69.7983 71.4256Z" fill="#F0881F"/>
<path d="M82.1562 71.0815C82.3126 71.0815 82.4065 71.1753 82.3439 71.3943L82.1562 72.5519L82.1249 72.6145C82.0936 72.677 82.0936 72.7396 82.0623 72.7709L77.5259 80.7488L77.3069 81.0617H80.5606C80.6232 81.0617 80.6857 81.0929 80.6857 81.1242C80.6857 81.1555 80.717 81.2494 80.717 81.3432L80.4355 82.9701C80.4042 83.1578 80.3103 83.2517 80.1852 83.2517H74.7414C74.585 83.2517 74.5224 83.1578 74.5537 82.9701L74.7414 81.7812C74.7727 81.5935 74.8666 81.4996 74.9917 81.4684L76.9627 81.0617H77.3069L76.994 81.4997L74.7414 81.8125C74.7414 81.7499 74.7727 81.6874 74.804 81.6561C74.8353 81.6248 74.8353 81.5622 74.8666 81.5309L79.3092 73.4592L79.4969 73.1776H76.5873C76.4622 73.1776 76.3996 73.0838 76.4309 72.896L76.6812 71.4256C76.6812 71.3317 76.7124 71.2379 76.775 71.2066C76.8376 71.1753 76.8689 71.144 76.9314 71.144H82.1562V71.0815Z" fill="#F0881F"/>
<path d="M86.9428 71.4256C86.9741 71.3317 87.0054 71.2379 87.068 71.1753C87.1305 71.1128 87.2244 71.0815 87.3183 71.0815H92.5743C92.7307 71.0815 92.7933 71.1753 92.762 71.3943L92.5117 72.896C92.4804 73.115 92.3866 73.2089 92.1989 73.2089H88.9764L88.4758 76.0246H91.0413C91.1038 76.0246 91.1664 76.0559 91.229 76.0872C91.2916 76.1185 91.2916 76.2123 91.2603 76.3375L91.01 77.8392C90.9787 77.9331 90.9474 78.0269 90.8848 78.0582C90.8223 78.1208 90.7597 78.1208 90.6658 78.1208H88.1004L87.5685 81.0929H90.8223C90.8848 81.0929 90.9474 81.1242 90.9787 81.1555C91.01 81.2181 91.0413 81.2807 91.01 81.3745L90.7597 82.8762C90.7284 82.9701 90.6971 83.0639 90.6346 83.0952C90.572 83.1578 90.5094 83.1578 90.4468 83.1578H85.1595C84.9718 83.1578 84.878 83.0327 84.9092 82.8137L86.9428 71.4256Z" fill="#F0881F"/>
<path d="M104.588 80.2482C104.556 80.3733 104.556 80.5298 104.588 80.6549C104.619 80.7801 104.65 80.9052 104.713 80.9991C104.775 81.0929 104.869 81.1868 104.963 81.2493C105.057 81.3119 105.213 81.3432 105.339 81.3432C105.495 81.3432 105.651 81.3119 105.777 81.2493C105.902 81.1868 106.027 81.1242 106.121 80.9991C106.215 80.9052 106.308 80.7801 106.371 80.6549C106.434 80.5298 106.465 80.4046 106.496 80.2482L106.684 79.2158C106.715 79.0906 106.746 78.9968 106.778 78.9342C106.809 78.8716 106.903 78.8716 106.997 78.8716H108.624C108.717 78.8716 108.811 78.9029 108.843 78.9342C108.874 78.9655 108.874 79.0593 108.874 79.1845L108.655 80.3733C108.561 80.8426 108.405 81.2806 108.186 81.6561C107.967 82.0315 107.685 82.3444 107.341 82.6259C106.997 82.8762 106.653 83.0952 106.246 83.2203C105.839 83.3455 105.401 83.4394 104.963 83.4394C104.525 83.4394 104.118 83.3768 103.743 83.2203C103.368 83.0952 103.055 82.8762 102.804 82.6259C102.554 82.3756 102.366 82.0315 102.273 81.6561C102.179 81.2806 102.147 80.8426 102.241 80.3733L102.93 76.4313L103.368 73.9597C103.43 73.5217 103.587 73.115 103.837 72.7396C104.056 72.3642 104.337 72.0513 104.682 71.7697C105.026 71.4882 105.401 71.2692 105.839 71.144C106.277 70.9876 106.715 70.925 107.184 70.925C107.716 70.925 108.154 71.0189 108.53 71.2066C108.874 71.3943 109.155 71.6133 109.374 71.8949C109.562 72.1764 109.719 72.5206 109.75 72.896C109.812 73.2715 109.812 73.6469 109.719 74.0223L109.562 74.867C109.531 74.9922 109.5 75.086 109.468 75.1486C109.406 75.2112 109.343 75.2425 109.218 75.2425H107.591C107.497 75.2425 107.435 75.2112 107.403 75.1486C107.372 75.086 107.372 74.9922 107.372 74.867L107.529 74.0536C107.56 73.9285 107.56 73.8033 107.529 73.6782C107.497 73.553 107.466 73.4279 107.403 73.334C107.341 73.2402 107.247 73.1463 107.153 73.0837C107.059 73.0212 106.934 72.9899 106.778 72.9899C106.653 72.9899 106.496 73.0212 106.371 73.0837C106.246 73.1463 106.121 73.2089 106.027 73.3027C105.933 73.3966 105.839 73.5217 105.777 73.6469C105.714 73.772 105.683 73.8972 105.651 74.0536L105.276 76.2436L104.588 80.2482Z" fill="#F0881F"/>
<path d="M114.162 73.9285C114.256 73.4592 114.412 73.0212 114.631 72.6457C114.882 72.2703 115.163 71.9575 115.507 71.6759C115.851 71.4256 116.227 71.2066 116.634 71.0814C117.04 70.9563 117.478 70.8624 117.916 70.8624C118.354 70.8624 118.761 70.925 119.136 71.0814C119.512 71.2066 119.825 71.4256 120.075 71.6759C120.325 71.9262 120.513 72.2703 120.638 72.6457C120.763 73.0212 120.763 73.4592 120.669 73.9285L119.543 80.3733C119.449 80.8426 119.293 81.2806 119.043 81.6561C118.792 82.0315 118.511 82.3444 118.167 82.6259C117.822 82.8762 117.447 83.0952 117.009 83.2204C116.602 83.3455 116.164 83.4394 115.726 83.4394C115.288 83.4394 114.882 83.3768 114.506 83.2204C114.131 83.0639 113.818 82.8762 113.568 82.6259C113.317 82.3756 113.13 82.0315 113.004 81.6561C112.879 81.2806 112.879 80.8739 112.973 80.4046L114.162 73.9285ZM115.382 80.2482C115.351 80.3733 115.351 80.5298 115.382 80.6549C115.413 80.7801 115.445 80.9052 115.507 80.9991C115.57 81.0929 115.664 81.1868 115.758 81.2181C115.851 81.2806 115.977 81.3119 116.133 81.3119C116.289 81.3119 116.415 81.2806 116.54 81.2181C116.665 81.1555 116.79 81.0929 116.884 80.9991C116.978 80.9052 117.072 80.8113 117.134 80.6862C117.197 80.5611 117.228 80.4359 117.259 80.3108L118.354 74.0849C118.386 73.9597 118.386 73.8033 118.354 73.6782C118.323 73.553 118.292 73.4279 118.229 73.334C118.167 73.2402 118.073 73.1463 117.979 73.0837C117.885 73.0212 117.76 72.9899 117.603 72.9899C117.447 72.9899 117.322 73.0212 117.197 73.0837C117.072 73.1463 116.946 73.2089 116.853 73.334C116.759 73.4279 116.665 73.553 116.602 73.6782C116.54 73.8033 116.477 73.9285 116.477 74.0849L115.382 80.2482Z" fill="#F0881F"/>
<path d="M130.274 82.8762C130.274 82.9701 130.243 83.0639 130.18 83.1265C130.149 83.1891 130.055 83.2204 129.961 83.2204H128.115C128.053 83.2204 127.99 83.1891 127.959 83.1265C127.928 83.0639 127.928 82.9701 127.928 82.8762L129.492 73.9285C129.523 73.6782 129.461 73.4592 129.336 73.2715C129.21 73.0837 128.991 72.9899 128.741 72.9899C128.585 72.9899 128.46 73.0212 128.334 73.0837C128.209 73.1463 128.084 73.2089 127.99 73.3027C127.896 73.3966 127.803 73.5217 127.74 73.6469C127.677 73.772 127.646 73.8972 127.615 74.0536L126.051 82.8762C126.019 82.9701 125.988 83.0639 125.957 83.1265C125.925 83.1891 125.832 83.2204 125.738 83.2204H123.892C123.829 83.2204 123.767 83.1891 123.735 83.1265C123.704 83.0639 123.704 82.9701 123.704 82.8762L125.268 73.9285C125.331 73.5217 125.519 73.115 125.738 72.7396C125.988 72.3642 126.27 72.0513 126.614 71.7697C126.958 71.4882 127.333 71.2692 127.771 71.1127C128.209 70.9563 128.616 70.8624 129.054 70.8624C129.461 70.8624 129.805 70.925 130.149 71.0502C130.493 71.1753 130.775 71.363 131.025 71.582C131.369 71.363 131.713 71.1753 132.089 71.0502C132.464 70.925 132.871 70.8624 133.246 70.8624C133.684 70.8624 134.091 70.9563 134.466 71.1127C134.842 71.2692 135.155 71.4882 135.405 71.7697C135.655 72.0513 135.843 72.3642 135.937 72.7396C136.062 73.115 136.062 73.4905 135.999 73.9285L134.435 82.8762C134.435 82.9701 134.404 83.0326 134.341 83.1265C134.279 83.1891 134.216 83.2516 134.122 83.2516H132.339C132.245 83.2516 132.183 83.2204 132.151 83.1578C132.12 83.0952 132.089 83.0014 132.12 82.9075L133.684 74.0849C133.716 73.9597 133.716 73.8033 133.684 73.6782C133.653 73.553 133.622 73.4279 133.559 73.334C133.497 73.2402 133.403 73.1463 133.309 73.115C133.215 73.0525 133.09 73.0212 132.933 73.0212C132.777 73.0212 132.652 73.0525 132.527 73.115C132.402 73.1776 132.276 73.2402 132.183 73.334C132.089 73.4279 131.995 73.553 131.932 73.6782C131.87 73.8033 131.838 73.9285 131.807 74.0849L130.274 82.8762Z" fill="#F0881F"/>
<path d="M147.481 80.2482C147.449 80.3734 147.449 80.5298 147.481 80.6549C147.512 80.7801 147.543 80.9052 147.606 80.9991C147.668 81.0929 147.762 81.1868 147.856 81.2494C147.95 81.3119 148.075 81.3432 148.231 81.3432C148.388 81.3432 148.513 81.3119 148.638 81.2494C148.763 81.1868 148.888 81.1242 148.982 80.9991C149.076 80.8739 149.17 80.7801 149.233 80.6549C149.295 80.5298 149.326 80.4046 149.358 80.2482L150.891 71.4256C150.922 71.3317 150.953 71.2379 151.016 71.1753C151.078 71.1128 151.141 71.0815 151.235 71.0815H153.018C153.112 71.0815 153.175 71.1128 153.206 71.1753C153.237 71.2379 153.237 71.3317 153.237 71.4256L151.673 80.3734C151.61 80.7801 151.454 81.1868 151.204 81.5622C150.953 81.9376 150.672 82.2505 150.328 82.5321C149.983 82.8137 149.577 83.0327 149.17 83.1891C148.732 83.3455 148.325 83.4394 147.887 83.4394C147.449 83.4394 147.043 83.3455 146.667 83.1891C146.292 83.0327 145.979 82.8137 145.729 82.5321C145.478 82.2505 145.291 81.9376 145.197 81.5622C145.103 81.1868 145.072 80.8114 145.134 80.3734L146.698 71.4256C146.73 71.3317 146.761 71.2379 146.824 71.1753C146.886 71.1128 146.949 71.0815 147.011 71.0815H148.857C148.951 71.0815 149.014 71.1128 149.045 71.1753C149.076 71.2379 149.076 71.3317 149.045 71.4256L147.481 80.2482Z" fill="#F0881F"/>
<path d="M162.467 82.8762C162.467 82.9701 162.435 83.0639 162.373 83.1265C162.341 83.1891 162.248 83.2204 162.154 83.2204H160.308C160.245 83.2204 160.183 83.1891 160.151 83.1265C160.12 83.0639 160.12 82.9701 160.12 82.8762L161.684 73.9285C161.716 73.6782 161.653 73.4592 161.528 73.2715C161.403 73.0837 161.184 72.9899 160.934 72.9899C160.777 72.9899 160.652 73.0212 160.527 73.0837C160.402 73.1463 160.277 73.2089 160.183 73.3027C160.089 73.3966 159.995 73.5217 159.932 73.6469C159.87 73.772 159.839 73.8972 159.807 74.0536L158.243 82.8762C158.212 82.9701 158.18 83.0639 158.149 83.1265C158.118 83.1891 158.024 83.2204 157.93 83.2204H156.084C156.022 83.2204 155.959 83.1891 155.928 83.1265C155.896 83.0639 155.896 82.9701 155.896 82.8762L157.461 73.9285C157.523 73.5217 157.711 73.115 157.93 72.7396C158.18 72.3642 158.462 72.0513 158.806 71.7697C159.15 71.4882 159.526 71.2692 159.964 71.1127C160.402 70.9563 160.808 70.8624 161.246 70.8624C161.653 70.8624 161.997 70.925 162.341 71.0502C162.686 71.1753 162.967 71.363 163.217 71.582C163.562 71.363 163.906 71.1753 164.281 71.0502C164.657 70.925 165.063 70.8624 165.439 70.8624C165.877 70.8624 166.283 70.9563 166.659 71.1127C167.034 71.2692 167.347 71.4882 167.597 71.7697C167.848 72.0513 168.035 72.3642 168.129 72.7396C168.254 73.115 168.254 73.4905 168.192 73.9285L166.628 82.8762C166.628 82.9701 166.596 83.0326 166.534 83.1265C166.471 83.1891 166.409 83.2516 166.315 83.2516H164.531C164.438 83.2516 164.375 83.2204 164.344 83.1578C164.312 83.0952 164.281 83.0014 164.312 82.9075L165.877 74.0849C165.908 73.9597 165.908 73.8033 165.877 73.6782C165.845 73.553 165.814 73.4279 165.752 73.334C165.689 73.2402 165.595 73.1463 165.501 73.115C165.407 73.0525 165.282 73.0212 165.126 73.0212C164.969 73.0212 164.844 73.0525 164.719 73.115C164.594 73.1776 164.469 73.2402 164.375 73.334C164.281 73.4279 164.187 73.553 164.125 73.6782C164.062 73.8033 164.031 73.9285 164 74.0849L162.467 82.8762Z" fill="#F0881F"/>
<path d="M184.805 80.2482C184.774 80.3733 184.774 80.5298 184.805 80.6549C184.837 80.7801 184.868 80.9052 184.931 80.9991C184.993 81.0929 185.087 81.1868 185.181 81.2493C185.275 81.3119 185.431 81.3432 185.556 81.3432C185.713 81.3432 185.869 81.3119 185.994 81.2493C186.119 81.1868 186.245 81.1242 186.338 80.9991C186.432 80.9052 186.526 80.7801 186.589 80.6549C186.651 80.5298 186.683 80.4046 186.714 80.2482L186.902 79.2158C186.933 79.0906 186.964 78.9968 186.995 78.9342C187.027 78.8716 187.121 78.8716 187.214 78.8716H188.841C188.935 78.8716 189.029 78.9029 189.06 78.9342C189.092 78.9655 189.092 79.0593 189.092 79.1845L188.873 80.3733C188.779 80.8426 188.622 81.2806 188.403 81.6561C188.184 82.0315 187.903 82.3444 187.559 82.6259C187.214 82.8762 186.87 83.0952 186.464 83.2203C186.057 83.3455 185.619 83.4394 185.181 83.4394C184.743 83.4394 184.336 83.3768 183.961 83.2203C183.585 83.0952 183.272 82.8762 183.022 82.6259C182.772 82.3756 182.584 82.0315 182.49 81.6561C182.396 81.2806 182.365 80.8426 182.459 80.3733L183.147 76.4313L183.585 73.9597C183.648 73.5217 183.804 73.115 184.055 72.7396C184.305 72.3642 184.555 72.0513 184.899 71.7697C185.243 71.4882 185.619 71.2692 186.057 71.144C186.495 70.9876 186.933 70.925 187.402 70.925C187.934 70.925 188.372 71.0189 188.747 71.2066C189.092 71.3943 189.373 71.6133 189.592 71.8949C189.78 72.1764 189.936 72.5206 189.968 72.896C190.03 73.2715 190.03 73.6469 189.936 74.0223L189.78 74.867C189.749 74.9922 189.717 75.086 189.686 75.1486C189.623 75.2112 189.561 75.2425 189.436 75.2425H187.809C187.715 75.2425 187.652 75.2112 187.621 75.1486C187.59 75.086 187.59 74.9922 187.59 74.867L187.746 74.0536C187.778 73.9285 187.778 73.8033 187.746 73.6782C187.715 73.553 187.684 73.4279 187.621 73.334C187.559 73.2402 187.465 73.1463 187.371 73.0837C187.277 73.0212 187.152 72.9899 186.995 72.9899C186.87 72.9899 186.714 73.0212 186.589 73.0837C186.464 73.1463 186.338 73.2089 186.245 73.3027C186.151 73.3966 186.057 73.5217 185.994 73.6469C185.932 73.772 185.9 73.8972 185.869 74.0536L185.494 76.2436L184.805 80.2482Z" fill="white"/>
<path d="M195.004 71.4256C195.036 71.3317 195.067 71.2379 195.13 71.1753C195.192 71.1128 195.255 71.0815 195.38 71.0815H197.132C197.226 71.0815 197.288 71.1128 197.32 71.1753C197.351 71.2379 197.351 71.3317 197.351 71.4256L195.63 81.1242H198.602C198.759 81.1242 198.821 81.2181 198.79 81.4371L198.54 82.9388C198.508 83.1578 198.383 83.2517 198.227 83.2517H193.221C193.033 83.2517 192.939 83.1265 192.971 82.9075L195.004 71.4256Z" fill="white"/>
<path d="M204.954 71.4256C204.985 71.3317 205.016 71.2379 205.079 71.1753C205.141 71.1128 205.204 71.0815 205.329 71.0815H207.081C207.175 71.0815 207.237 71.1128 207.269 71.1753C207.3 71.2379 207.3 71.3317 207.3 71.4256L205.298 82.9075C205.235 83.1265 205.141 83.2517 204.954 83.2517H203.202C203.014 83.2517 202.92 83.1265 202.951 82.9075L204.954 71.4256Z" fill="white"/>
<path d="M215.684 84.5969C215.715 84.5969 215.778 84.5969 215.809 84.6282C215.84 84.6595 215.84 84.6908 215.84 84.7534L215.621 86.0361C215.621 86.1299 215.59 86.1612 215.527 86.1925C215.465 86.2238 215.434 86.2238 215.402 86.2238H214.745C214.276 86.2238 213.869 86.1612 213.525 86.0048C213.15 85.8484 212.868 85.6606 212.649 85.3791C212.43 85.1288 212.274 84.8159 212.18 84.4405C212.086 84.0651 212.086 83.6583 212.149 83.2203C211.836 83.1265 211.585 83.0013 211.335 82.8136C211.085 82.6259 210.897 82.4382 210.741 82.1879C210.584 81.9376 210.49 81.6561 210.428 81.3432C210.365 81.0303 210.365 80.6862 210.428 80.3108L211.554 73.8659C211.648 73.3966 211.804 72.9586 212.055 72.5832C212.305 72.2077 212.587 71.8949 212.931 71.6133C213.275 71.363 213.65 71.144 214.088 71.0189C214.495 70.8937 214.933 70.7999 215.371 70.7999C215.809 70.7999 216.216 70.8624 216.591 71.0189C216.967 71.144 217.279 71.363 217.53 71.6133C217.78 71.8636 217.968 72.2077 218.062 72.5832C218.155 72.9586 218.187 73.3966 218.093 73.8659L216.967 80.3733C216.904 80.78 216.779 81.1242 216.591 81.4683C216.403 81.7812 216.184 82.094 215.934 82.3443C215.684 82.5946 215.371 82.8136 215.058 82.9701C214.745 83.1265 214.401 83.2516 214.026 83.3455L213.994 83.4706C213.963 83.6271 213.963 83.7835 213.994 83.9086C214.026 84.0338 214.088 84.1589 214.151 84.2841C214.245 84.3779 214.339 84.4718 214.464 84.5343C214.589 84.5969 214.745 84.6282 214.933 84.6282H215.684V84.5969ZM212.774 80.2482C212.743 80.3733 212.743 80.5298 212.774 80.6549C212.806 80.78 212.837 80.9052 212.899 80.999C212.962 81.0929 213.056 81.1868 213.15 81.2181C213.244 81.2806 213.369 81.3119 213.525 81.3119C213.682 81.3119 213.807 81.2806 213.932 81.2181C214.057 81.1555 214.182 81.0929 214.276 80.999C214.37 80.9052 214.464 80.8113 214.526 80.6862C214.589 80.561 214.62 80.4359 214.651 80.3108L215.746 74.0849C215.778 73.9597 215.778 73.8033 215.746 73.6782C215.715 73.553 215.684 73.4279 215.621 73.334C215.559 73.2402 215.465 73.1463 215.371 73.0837C215.277 73.0212 215.152 72.9899 214.996 72.9899C214.839 72.9899 214.714 73.0212 214.589 73.0837C214.464 73.1463 214.339 73.2089 214.245 73.334C214.151 73.4279 214.057 73.553 213.994 73.6782C213.932 73.8033 213.869 73.9284 213.869 74.0849L212.774 80.2482Z" fill="white"/>
<path d="M223.912 80.2482C223.881 80.3734 223.881 80.5298 223.912 80.6549C223.943 80.7801 223.975 80.9052 224.037 80.9991C224.1 81.0929 224.194 81.1868 224.288 81.2494C224.381 81.3119 224.507 81.3432 224.663 81.3432C224.819 81.3432 224.945 81.3119 225.07 81.2494C225.195 81.1868 225.32 81.1242 225.414 80.9991C225.508 80.8739 225.602 80.7801 225.664 80.6549C225.727 80.5298 225.758 80.4046 225.789 80.2482L227.322 71.4256C227.354 71.3317 227.385 71.2379 227.447 71.1753C227.51 71.1128 227.573 71.0815 227.666 71.0815H229.45C229.544 71.0815 229.606 71.1128 229.637 71.1753C229.669 71.2379 229.669 71.3317 229.669 71.4256L228.104 80.3734C228.042 80.7801 227.885 81.1868 227.635 81.5622C227.385 81.9376 227.103 82.2505 226.759 82.5321C226.415 82.8137 226.008 83.0327 225.602 83.1891C225.164 83.3455 224.757 83.4394 224.319 83.4394C223.881 83.4394 223.474 83.3455 223.099 83.1891C222.723 83.0327 222.41 82.8137 222.16 82.5321C221.91 82.2505 221.722 81.9376 221.628 81.5622C221.534 81.1868 221.503 80.8114 221.566 80.3734L223.13 71.4256C223.161 71.3317 223.193 71.2379 223.255 71.1753C223.318 71.1128 223.38 71.0815 223.443 71.0815H225.289C225.383 71.0815 225.445 71.1128 225.476 71.1753C225.508 71.2379 225.508 71.3317 225.476 71.4256L223.912 80.2482Z" fill="white"/>
<path d="M234.456 71.4256C234.487 71.3317 234.518 71.2379 234.581 71.1753C234.643 71.1128 234.737 71.0815 234.831 71.0815H240.087C240.243 71.0815 240.306 71.1753 240.275 71.3943L240.024 72.896C239.993 73.115 239.899 73.2089 239.712 73.2089H236.489L235.989 76.0246H238.554C238.617 76.0246 238.679 76.0559 238.742 76.0872C238.773 76.1185 238.804 76.2123 238.773 76.3375L238.523 77.8392C238.491 77.9331 238.46 78.0269 238.398 78.0582C238.335 78.1208 238.272 78.1208 238.179 78.1208H235.613L235.081 81.0929H238.335C238.398 81.0929 238.46 81.1242 238.491 81.1555C238.523 81.2181 238.554 81.2807 238.523 81.3745L238.272 82.8762C238.241 82.9701 238.21 83.0639 238.147 83.0952C238.085 83.1578 238.022 83.1578 237.96 83.1578H232.672C232.485 83.1578 232.391 83.0327 232.422 82.8137L234.456 71.4256Z" fill="white"/>
</svg>
