<svg width="350" height="101" viewBox="0 0 350 101" fill="none" xmlns="http://www.w3.org/2000/svg">
<path d="M62.2328 35.1131C62.2328 40.9897 61.3568 46.0997 59.6047 50.5162C57.8527 54.9327 55.3342 58.5828 52.0857 61.5028C48.8372 64.4228 44.9317 66.6493 40.3692 68.1093C35.8432 69.5693 30.8061 70.2993 25.2946 70.2993C24.0536 70.2993 22.6301 70.2628 21.0241 70.1898C19.4181 70.1168 17.7391 69.9708 16.0236 69.7518C14.3081 69.5328 12.5926 69.2408 10.8405 68.9123C9.12504 68.5838 7.51903 68.1093 6.05903 67.5253C2.04401 65.9923 0 63.3278 0 59.4953V8.17603C0 6.64303 0.438002 5.43853 1.27751 4.59902C2.11701 3.75952 3.28501 3.06601 4.74502 2.55501C7.88403 1.53301 11.242 0.839501 14.7461 0.511C18.2501 0.182499 21.4256 0 24.1996 0C29.9301 0 35.1131 0.693502 39.7487 2.08051C44.3842 3.46751 48.3992 5.62102 51.7207 8.50453C55.0422 11.388 57.6337 15.0381 59.4587 19.4546C61.3203 23.9076 62.2328 29.0906 62.2328 35.1131ZM42.4497 35.4417C42.4497 28.8351 40.9167 23.8711 37.8507 20.5496C34.7847 17.2281 30.6601 15.5491 25.5501 15.5491C24.5281 15.5491 23.4696 15.5856 22.4111 15.6586C21.3526 15.7316 20.2576 15.8411 19.1626 15.9871V54.2392C19.9656 54.3852 20.9511 54.5312 22.1191 54.6407C23.2871 54.7502 24.3821 54.8232 25.4041 54.8232C30.4776 54.8232 34.5656 53.2172 37.7047 50.0052C40.8802 46.7202 42.4497 41.9022 42.4497 35.4417Z" fill="#F28A20"/>
<path d="M122.75 35.1131C122.75 40.9897 121.874 46.0997 120.122 50.5162C118.37 54.8962 115.852 58.5828 112.603 61.5028C109.355 64.4228 105.449 66.6493 100.887 68.1093C96.3607 69.5693 91.3237 70.2993 85.8122 70.2993C84.5712 70.2993 83.1477 70.2628 81.5417 70.1898C79.9357 70.1168 78.2567 69.9708 76.5412 69.7518C74.8256 69.5328 73.1101 69.2408 71.3581 68.9123C69.6426 68.5838 68.0366 68.1093 66.5766 67.5253C62.5616 65.9923 60.5176 63.3278 60.5176 59.4953V8.17603C60.5176 6.64303 60.9556 5.43853 61.7951 4.59902C62.6346 3.75952 63.8026 3.06601 65.2626 2.55501C68.4016 1.53301 71.7596 0.839501 75.2636 0.511C78.7677 0.182499 81.9432 0 84.7172 0C90.4477 0 95.6307 0.693502 100.266 2.08051C104.902 3.46751 108.917 5.62102 112.238 8.50453C115.56 11.388 118.151 15.0381 119.976 19.4546C121.838 23.9076 122.75 29.0906 122.75 35.1131ZM102.967 35.4417C102.967 28.8351 101.434 23.8711 98.3682 20.5496C95.3022 17.2281 91.1777 15.5491 86.0677 15.5491C85.0457 15.5491 83.9872 15.5856 82.9287 15.6586C81.8702 15.7316 80.7752 15.8411 79.6802 15.9871V54.2392C80.4832 54.3852 81.4687 54.5312 82.6367 54.6407C83.8047 54.7502 84.8997 54.8232 85.9217 54.8232C90.9952 54.8232 95.0832 53.2172 98.2222 50.0052C101.398 46.7202 102.967 41.9022 102.967 35.4417Z" fill="#F28A20"/>
<path d="M174.981 5.11009C175.383 6.42409 175.602 7.84759 175.602 9.3806C175.602 12.1546 174.981 14.1621 173.777 15.4396C172.572 16.6806 170.93 17.3011 168.886 17.3011H156.476V68.4013C155.673 68.6203 154.432 68.8393 152.753 69.0583C151.074 69.2773 149.358 69.3869 147.57 69.3869C143.701 69.3869 141 68.7298 139.503 67.4158C138.007 66.1018 137.24 63.7293 137.24 60.2618V17.3011H120.633C120.122 16.4981 119.647 15.4396 119.246 14.1256C118.844 12.8116 118.625 11.3881 118.625 9.85511C118.625 7.0811 119.246 5.07359 120.45 3.79608C121.655 2.55508 123.297 1.93457 125.341 1.93457H173.594C174.142 2.73757 174.58 3.79608 174.981 5.11009Z" fill="#F28A20"/>
<path d="M207.685 30.7332C206.48 28.0322 204.765 25.6962 202.575 23.7617C200.385 21.8272 197.793 20.2942 194.764 19.1627C191.734 18.0676 188.413 17.4836 184.726 17.4836C181.478 17.4836 178.266 17.9946 175.163 18.9802C172.061 20.0022 169.25 21.5352 166.841 23.6522C166.695 23.7617 166.549 23.9077 166.44 24.0537C164.213 26.0977 162.388 28.6892 160.965 31.7917C160.527 32.7407 160.162 33.7627 159.87 34.7847C159.468 36.1352 159.176 37.5952 158.994 39.1647C158.811 40.5517 158.738 42.0482 158.738 43.5813C158.738 47.8153 159.359 51.5748 160.6 54.8233C160.892 55.8453 163.045 60.8823 165.965 63.2913C166.33 63.6563 166.695 64.0213 167.097 64.3498C169.688 66.6494 172.754 68.3649 176.258 69.4964C179.361 70.5184 182.719 71.0659 186.296 71.1754C186.734 71.1754 187.208 71.2119 187.646 71.2119C190.055 71.2119 192.683 70.9929 195.457 70.5914C198.231 70.1899 200.75 69.3869 202.94 68.1824C205.86 66.6494 207.32 64.3498 207.32 61.2108C207.32 60.1888 207.101 59.2033 206.699 58.2178C206.553 57.8893 206.371 57.5608 206.188 57.2323C205.422 55.9913 204.473 55.0058 203.378 54.3123C201.772 55.2978 199.728 56.1373 197.173 56.8673C194.654 57.5973 191.953 57.9623 189.106 57.9623C186.04 57.9623 183.339 57.3783 181.003 56.2468C178.631 55.1153 177.061 53.3998 176.331 51.1003L202.027 47.2678C204.363 46.9393 206.225 46.1363 207.539 44.8588C208.707 43.7638 209.364 42.1943 209.51 40.1867C209.51 39.9312 209.546 39.7122 209.546 39.4567C209.51 36.3907 208.926 33.4342 207.685 30.7332ZM175.054 39.5662C175.127 38.4712 175.346 37.3762 175.747 36.2812C176.149 35.2227 176.696 34.2372 177.463 33.3612C178.229 32.4852 179.215 31.7917 180.419 31.2077C181.624 30.6602 183.084 30.3682 184.726 30.3682C187.281 30.3682 189.252 31.0617 190.566 32.4487C191.88 33.8357 192.647 35.2227 192.866 36.6097L175.054 39.5662Z" fill="white"/>
<path d="M230.17 17.5205C233.929 17.5205 237.324 17.8855 240.426 18.652C243.529 19.4185 246.157 20.5865 248.347 22.156C250.537 23.7255 252.216 25.6965 253.384 28.0691C254.552 30.4781 255.136 33.2886 255.136 36.5371V59.8607C255.136 61.6492 254.625 63.1457 253.64 64.2772C252.618 65.4087 251.449 66.3942 250.062 67.2337C245.536 69.9347 239.222 71.2852 231.009 71.2852C227.323 71.2852 224.038 70.9202 221.081 70.2267C218.125 69.5332 215.606 68.5112 213.489 67.0877C211.372 65.7007 209.73 63.9487 208.598 61.7952C207.467 59.6417 206.883 57.1597 206.883 54.3127C206.883 49.5311 208.306 45.8446 211.153 43.2896C214 40.7346 218.417 39.1286 224.366 38.5081L237.981 37.0481V36.3181C237.981 34.3106 237.105 32.8871 235.316 32.0111C233.564 31.1351 231.009 30.6971 227.651 30.6971C225.023 30.6971 222.432 30.9891 219.95 31.5366C217.468 32.0841 215.205 32.7776 213.197 33.6171C212.285 32.9966 211.518 32.0476 210.898 30.7701C210.277 29.4926 209.949 28.142 209.949 26.755C209.949 24.9665 210.387 23.5065 211.263 22.448C212.139 21.3895 213.453 20.4405 215.278 19.674C217.285 18.9075 219.658 18.36 222.395 17.995C225.133 17.6665 227.724 17.5205 230.17 17.5205ZM230.973 58.4007C232.141 58.4007 233.455 58.2912 234.878 58.0357C236.302 57.7802 237.36 57.4517 238.054 57.0502V48.7281L230.571 49.3486C228.637 49.4946 227.031 49.8961 225.79 50.5897C224.549 51.2832 223.928 52.3416 223.928 53.7287C223.928 55.1157 224.476 56.2472 225.534 57.1232C226.593 57.9627 228.418 58.4007 230.973 58.4007Z" fill="white"/>
<path d="M300.434 55.0422C300.434 60.3347 298.463 64.4592 294.557 67.4157C290.615 70.3723 284.848 71.8688 277.183 71.8688C274.19 71.8688 271.452 71.6498 268.97 71.2118C266.488 70.7738 264.371 70.1533 262.583 69.2773C260.794 68.4378 259.407 67.3428 258.385 66.0652C257.4 64.7877 256.889 63.2912 256.889 61.5757C256.889 60.0062 257.217 58.6557 257.838 57.5607C258.495 56.4657 259.298 55.5532 260.32 54.8232C262.4 56.0277 264.736 57.1227 267.401 58.0352C270.029 58.9477 273.131 59.4222 276.599 59.4222C281.673 59.4222 284.191 57.9987 284.191 55.1517C284.191 53.9472 283.753 52.9982 282.841 52.3777C281.965 51.7207 280.432 51.1732 278.278 50.6622L274.007 49.7132C268.131 48.5087 263.787 46.6107 260.94 44.0921C258.093 41.5736 256.67 37.9966 256.67 33.4341C256.67 28.3606 258.714 24.3456 262.838 21.3891C266.963 18.4325 272.474 16.936 279.41 16.936C281.965 16.936 284.41 17.1185 286.71 17.52C289.009 17.9215 290.944 18.5055 292.586 19.272C294.229 20.075 295.543 21.0241 296.492 22.2286C297.441 23.3966 297.952 24.7836 297.952 26.3531C297.952 27.7766 297.66 29.0541 297.112 30.1491C296.528 31.2441 295.798 32.1566 294.849 32.8866C294.265 32.5216 293.426 32.1201 292.331 31.7186C291.236 31.2806 290.031 30.9156 288.754 30.5506C287.476 30.1856 286.126 29.8936 284.666 29.7111C283.242 29.4921 281.928 29.3826 280.687 29.3826C278.169 29.3826 276.234 29.7111 274.847 30.4046C273.46 31.0981 272.766 32.1201 272.766 33.4706C272.766 34.4561 273.168 35.2591 273.934 35.8431C274.737 36.4271 276.161 36.9381 278.205 37.4491L282.293 38.3981C288.79 39.8216 293.426 41.9021 296.236 44.6031C299.047 47.2677 300.434 50.7717 300.434 55.0422Z" fill="white"/>
<path d="M309.23 55.2981C308.464 53.5825 307.661 51.6845 306.821 49.5675C305.982 47.4505 305.069 45.0415 304.157 42.304C303.244 39.5665 302.295 36.464 301.31 32.96C300.324 29.4559 299.266 25.4044 298.207 20.8419C299.156 19.8929 300.434 19.0534 302.04 18.3234C303.646 17.5934 305.398 17.2649 307.296 17.2649C309.668 17.2649 311.639 17.7759 313.209 18.7614C314.778 19.7469 315.946 21.6084 316.676 24.3459C318.027 29.1274 319.377 33.836 320.728 38.508C322.042 43.18 323.392 47.8155 324.779 52.451H325.181C325.984 50.1515 326.787 47.5965 327.59 44.8955C328.356 42.158 329.123 39.3475 329.889 36.464C330.656 33.5805 331.349 30.6605 331.97 27.7769C332.627 24.8934 333.174 22.0464 333.649 19.2359C334.817 18.6154 335.985 18.1409 337.226 17.8124C338.467 17.4839 339.744 17.3014 341.095 17.3014C343.467 17.3014 345.548 17.8124 347.336 18.8344C349.125 19.8564 350.001 21.6449 350.001 24.1634C350.001 26.9009 349.563 30.1494 348.723 33.909C347.884 37.705 346.752 41.6105 345.402 45.662C344.051 49.7135 342.518 53.692 340.803 57.5611C339.087 61.4301 337.408 64.8611 335.693 67.7811C331.824 74.4606 328.247 79.3882 324.998 82.5637C321.75 85.7392 318.465 87.3087 315.143 87.3087C312.406 87.3087 310.143 86.4692 308.281 84.7537C306.456 83.0382 305.361 80.8482 304.996 78.1107C307.186 76.2856 309.34 74.2051 311.53 71.8691C313.72 69.5696 315.618 67.1971 317.26 64.8246C316.092 64.4961 314.851 63.6931 313.537 62.4156C312.223 61.1746 310.763 58.8021 309.23 55.2981Z" fill="white"/>
<path d="M286.307 100.595H207.649C204.948 100.595 202.758 98.4046 202.758 95.7036V84.6076C202.758 81.9066 204.948 79.7166 207.649 79.7166H286.307C289.008 79.7166 291.198 81.9066 291.198 84.6076V95.7036C291.198 98.4046 289.008 100.595 286.307 100.595Z" fill="#572680"/>
<path d="M21.7902 83.33C21.8267 83.2205 21.8632 83.111 21.9362 83.038C22.0092 82.965 22.1187 82.9285 22.2282 82.9285H25.7687C26.2797 82.9285 26.7542 83.0015 27.1922 83.184C27.6302 83.33 27.9587 83.5855 28.2507 83.8775C28.5427 84.1695 28.7252 84.571 28.8347 85.009C28.9442 85.447 28.9442 85.9945 28.8347 86.5785L27.6302 93.477C27.5207 94.061 27.3382 94.6085 27.0827 95.0465C26.8272 95.4845 26.4622 95.886 26.0972 96.178C25.6957 96.47 25.2577 96.7255 24.7832 96.8715C24.3087 97.0175 23.7977 97.0905 23.2867 97.0905H19.7462C19.5272 97.0905 19.4177 96.9445 19.4542 96.689L21.7902 83.33ZM24.1627 85.4105L22.5202 94.6085H23.5422C23.9072 94.6085 24.1992 94.499 24.4547 94.2435C24.7102 93.988 24.8562 93.696 24.9292 93.3675L26.1337 86.6515C26.2067 86.2135 26.1702 85.9215 25.9877 85.7025C25.8052 85.4835 25.5497 85.4105 25.1847 85.4105H24.1627Z" fill="white"/>
<path d="M34.8944 83.33C34.9309 83.2205 34.9674 83.111 35.0404 83.038C35.1134 82.965 35.2229 82.9285 35.3324 82.9285H41.428C41.6105 82.9285 41.6835 83.038 41.647 83.2935L41.355 85.0455C41.3185 85.301 41.209 85.4105 40.99 85.4105H37.2305L36.6464 88.6955H39.6395C39.7125 88.6955 39.7855 88.732 39.8585 88.7685C39.895 88.805 39.9315 88.9145 39.895 89.0605L39.603 90.8125C39.5665 90.922 39.53 91.0315 39.457 91.068C39.384 91.141 39.311 91.141 39.2015 91.141H36.2085L35.5879 94.6085H39.384C39.457 94.6085 39.53 94.645 39.5665 94.6815C39.603 94.7545 39.6395 94.8275 39.603 94.937L39.311 96.689C39.2745 96.7985 39.238 96.908 39.165 96.9445C39.092 97.0175 39.019 97.0175 38.946 97.0175H32.7774C32.5584 97.0175 32.4489 96.8715 32.4854 96.616L34.8944 83.33Z" fill="white"/>
<path d="M45.7335 83.33C45.77 83.2205 45.8066 83.111 45.8796 83.038C45.9526 82.965 46.0621 82.9285 46.1716 82.9285H49.7121C50.2231 82.9285 50.6976 83.0015 51.1356 83.184C51.5736 83.33 51.9021 83.5855 52.1941 83.8775C52.4861 84.1695 52.6686 84.571 52.7781 85.009C52.8876 85.447 52.8876 85.9945 52.7781 86.5785L51.5736 93.477C51.4641 94.061 51.2816 94.6085 51.0261 95.0465C50.7706 95.4845 50.4056 95.886 50.0406 96.178C49.6391 96.47 49.2011 96.7255 48.7266 96.8715C48.2521 97.0175 47.7411 97.0905 47.2301 97.0905H43.6895C43.4705 97.0905 43.361 96.9445 43.3975 96.689L45.7335 83.33ZM48.1061 85.4105L46.4636 94.6085H47.4856C47.8506 94.6085 48.1426 94.499 48.3981 94.2435C48.6536 93.988 48.7996 93.696 48.8726 93.3675L50.0771 86.6515C50.1501 86.2135 50.1136 85.9215 49.9311 85.7025C49.7486 85.4835 49.4931 85.4105 49.1281 85.4105H48.1061Z" fill="white"/>
<path d="M58.1451 83.33C58.1816 83.2205 58.2181 83.111 58.2911 83.038C58.3641 82.965 58.4736 82.9285 58.5831 82.9285H64.7151C64.8976 82.9285 64.9706 83.038 64.9341 83.2935L64.6421 85.0455C64.6056 85.301 64.4961 85.4105 64.2771 85.4105H60.5176L59.9336 88.6955H62.9266C62.9996 88.6955 63.0726 88.732 63.1456 88.7685C63.1821 88.805 63.2186 88.9145 63.1821 89.0605L62.8901 90.8125C62.8536 90.922 62.8171 91.0315 62.7441 91.068C62.6711 91.141 62.5981 91.141 62.4886 91.141H59.4956L58.8751 94.6085H62.6711C62.7441 94.6085 62.8171 94.645 62.8536 94.6815C62.8901 94.7545 62.9266 94.8275 62.8901 94.937L62.5981 96.689C62.5616 96.7985 62.5251 96.908 62.4521 96.9445C62.3791 97.0175 62.3061 97.0175 62.2331 97.0175H56.0645C55.8455 97.0175 55.736 96.8715 55.7725 96.616L58.1451 83.33Z" fill="white"/>
<path d="M58.1451 83.33C58.1816 83.2205 58.2181 83.111 58.2911 83.038C58.3641 82.965 58.4736 82.9285 58.5831 82.9285H64.7151C64.8976 82.9285 64.9706 83.038 64.9341 83.2935L64.6421 85.0455C64.6056 85.301 64.4961 85.4105 64.2771 85.4105H60.5176L59.9336 88.6955H62.9266C62.9996 88.6955 63.0726 88.732 63.1456 88.7685C63.1821 88.805 63.2186 88.9145 63.1821 89.0605L62.8901 90.8125C62.8536 90.922 62.8171 91.0315 62.7441 91.068C62.6711 91.141 62.5981 91.141 62.4886 91.141H59.4956L58.8751 94.6085H62.6711C62.7441 94.6085 62.8171 94.645 62.8536 94.6815C62.8901 94.7545 62.9266 94.8275 62.8901 94.937L62.5981 96.689C62.5616 96.7985 62.5251 96.908 62.4521 96.9445C62.3791 97.0175 62.3061 97.0175 62.2331 97.0175H56.0645C55.8455 97.0175 55.736 96.8715 55.7725 96.616L58.1451 83.33Z" fill="white"/>
<path d="M69.3872 83.2931C69.4237 83.1836 69.4602 83.0741 69.5332 83.0011C69.6062 82.9281 69.6792 82.8916 69.7522 82.8916H76.2857C76.3587 82.8916 76.4317 82.9281 76.4682 83.0011C76.5047 83.0741 76.5412 83.1471 76.5047 83.2931L76.2127 85.0451C76.1762 85.1546 76.1397 85.2641 76.0667 85.3371C75.9937 85.4101 75.9207 85.4466 75.8477 85.4466H73.9497L71.9422 96.7617C71.9057 96.8712 71.8692 96.9807 71.7962 97.0172C71.7232 97.0902 71.6502 97.1267 71.5772 97.1267H69.4237C69.3507 97.1267 69.2777 97.0902 69.2412 97.0172C69.2047 96.9442 69.1682 96.8712 69.2047 96.7617L71.2122 85.4466H69.3142C69.2412 85.4466 69.1682 85.4101 69.1317 85.3371C69.0952 85.2641 69.0587 85.1911 69.0952 85.0451L69.3872 83.2931Z" fill="white"/>
<path d="M81.4308 83.33C81.4673 83.2205 81.5038 83.111 81.5768 83.038C81.6498 82.965 81.7228 82.9285 81.8688 82.9285H83.9128C84.0223 82.9285 84.0953 82.965 84.1318 83.038C84.1683 83.111 84.1683 83.2205 84.1683 83.33L81.8323 96.7255C81.7958 96.981 81.6498 97.127 81.4308 97.127H79.3868C79.1678 97.127 79.0583 96.981 79.0948 96.7255L81.4308 83.33Z" fill="white"/>
<path d="M95.8494 82.9285C96.0319 82.9285 96.1414 83.038 96.0684 83.2935L95.8494 84.644L95.8129 84.717C95.7764 84.79 95.7764 84.863 95.7399 84.8995L90.4473 94.207L90.1918 94.572H93.9879C94.0609 94.572 94.1339 94.6085 94.1339 94.645C94.1339 94.6815 94.1704 94.791 94.1704 94.9005L93.8419 96.7985C93.8054 97.0175 93.6959 97.127 93.5499 97.127H87.1988C87.0163 97.127 86.9433 97.0175 86.9798 96.7985L87.1988 95.4115C87.2353 95.1925 87.3448 95.083 87.4908 95.0465L89.7903 94.572H90.1918L89.8268 95.083L87.1988 95.448C87.1988 95.375 87.2353 95.302 87.2718 95.2655C87.3083 95.229 87.3083 95.156 87.3448 95.1195L92.5279 85.7025L92.7469 85.374H89.3523C89.2063 85.374 89.1333 85.2645 89.1698 85.0455L89.4618 83.33C89.4618 83.2205 89.4983 83.111 89.5713 83.0745C89.6443 83.038 89.6808 83.0015 89.7538 83.0015H95.8494V82.9285Z" fill="white"/>
<path d="M101.434 83.33C101.471 83.2205 101.507 83.111 101.58 83.038C101.653 82.965 101.763 82.9285 101.872 82.9285H108.004C108.187 82.9285 108.26 83.038 108.223 83.2935L107.931 85.0455C107.895 85.301 107.785 85.4105 107.566 85.4105H103.807L103.223 88.6955H106.216C106.289 88.6955 106.362 88.732 106.435 88.7685C106.508 88.805 106.508 88.9145 106.471 89.0605L106.179 90.8125C106.143 90.922 106.106 91.0315 106.033 91.068C105.96 91.141 105.887 91.141 105.778 91.141H102.785L102.164 94.6085H105.96C106.033 94.6085 106.106 94.645 106.143 94.6815C106.179 94.7545 106.216 94.8275 106.179 94.937L105.887 96.689C105.851 96.7985 105.814 96.908 105.741 96.9445C105.668 97.0175 105.595 97.0175 105.522 97.0175H99.3536C99.1346 97.0175 99.0251 96.8715 99.0616 96.616L101.434 83.33Z" fill="white"/>
<path d="M122.02 93.6234C121.984 93.7694 121.984 93.9519 122.02 94.0979C122.057 94.2439 122.093 94.3899 122.166 94.4994C122.239 94.6089 122.349 94.7184 122.458 94.7914C122.568 94.8644 122.75 94.9009 122.896 94.9009C123.079 94.9009 123.261 94.8644 123.407 94.7914C123.553 94.7184 123.699 94.6454 123.809 94.4994C123.918 94.3899 124.028 94.2439 124.101 94.0979C124.174 93.9519 124.21 93.8059 124.247 93.6234L124.466 92.4189C124.502 92.2729 124.539 92.1634 124.575 92.0904C124.612 92.0174 124.721 92.0174 124.831 92.0174H126.729C126.838 92.0174 126.948 92.0539 126.984 92.0904C127.021 92.1269 127.021 92.2364 127.021 92.3824L126.765 93.7694C126.656 94.3169 126.473 94.8279 126.218 95.2659C125.962 95.7039 125.634 96.0689 125.232 96.3974C124.831 96.6894 124.429 96.9449 123.955 97.0909C123.48 97.2369 122.969 97.3464 122.458 97.3464C121.947 97.3464 121.473 97.2734 121.035 97.0909C120.597 96.9449 120.232 96.6894 119.94 96.3974C119.648 96.1054 119.429 95.7039 119.319 95.2659C119.21 94.8279 119.173 94.3169 119.283 93.7694L120.086 89.1704L120.597 86.2869C120.67 85.7759 120.852 85.3014 121.144 84.8634C121.4 84.4254 121.728 84.0603 122.13 83.7318C122.531 83.4033 122.969 83.1478 123.48 83.0018C123.991 82.8193 124.502 82.7463 125.05 82.7463C125.67 82.7463 126.181 82.8558 126.619 83.0748C127.021 83.2938 127.349 83.5493 127.605 83.8778C127.824 84.2063 128.006 84.6079 128.043 85.0459C128.116 85.4839 128.116 85.9219 128.006 86.3599L127.824 87.3454C127.787 87.4914 127.751 87.6009 127.714 87.6739C127.641 87.7469 127.568 87.7834 127.422 87.7834H125.524C125.415 87.7834 125.342 87.7469 125.305 87.6739C125.269 87.6009 125.269 87.4914 125.269 87.3454L125.451 86.3964C125.488 86.2504 125.488 86.1044 125.451 85.9584C125.415 85.8124 125.378 85.6664 125.305 85.5569C125.232 85.4474 125.123 85.3379 125.013 85.2649C124.904 85.1919 124.758 85.1554 124.575 85.1554C124.429 85.1554 124.247 85.1919 124.101 85.2649C123.955 85.3379 123.809 85.4109 123.699 85.5204C123.59 85.6299 123.48 85.7759 123.407 85.9219C123.334 86.0679 123.298 86.2139 123.261 86.3964L122.823 88.9514L122.02 93.6234Z" fill="white"/>
<path d="M133.188 86.2499C133.297 85.7024 133.48 85.1914 133.735 84.7534C134.027 84.3154 134.356 83.9504 134.757 83.6219C135.159 83.3299 135.597 83.0743 136.071 82.9283C136.546 82.7823 137.057 82.6729 137.568 82.6729C138.079 82.6729 138.553 82.7458 138.991 82.9283C139.429 83.0743 139.794 83.3299 140.086 83.6219C140.378 83.9139 140.597 84.3154 140.743 84.7534C140.889 85.1914 140.889 85.7024 140.78 86.2499L139.466 93.7689C139.356 94.3164 139.174 94.8274 138.882 95.2654C138.59 95.7034 138.261 96.0684 137.86 96.3969C137.458 96.6889 137.02 96.9444 136.509 97.0904C136.035 97.2364 135.524 97.3459 135.013 97.3459C134.502 97.3459 134.027 97.2729 133.589 97.0904C133.151 96.9079 132.786 96.6889 132.494 96.3969C132.202 96.1049 131.983 95.7034 131.837 95.2654C131.691 94.8274 131.691 94.3529 131.801 93.8054L133.188 86.2499ZM134.611 93.6229C134.575 93.7689 134.575 93.9514 134.611 94.0974C134.648 94.2434 134.684 94.3894 134.757 94.4989C134.83 94.6084 134.94 94.7179 135.049 94.7544C135.159 94.8274 135.305 94.8639 135.487 94.8639C135.67 94.8639 135.816 94.8274 135.962 94.7544C136.108 94.6814 136.254 94.6084 136.363 94.4989C136.473 94.3894 136.582 94.2799 136.655 94.1339C136.728 93.9879 136.765 93.8419 136.801 93.6959L138.079 86.4324C138.115 86.2864 138.115 86.1039 138.079 85.9579C138.042 85.8119 138.006 85.6659 137.933 85.5564C137.86 85.4469 137.75 85.3374 137.641 85.2644C137.531 85.1914 137.385 85.1549 137.203 85.1549C137.02 85.1549 136.874 85.1914 136.728 85.2644C136.582 85.3374 136.436 85.4104 136.327 85.5564C136.217 85.6659 136.108 85.8119 136.035 85.9579C135.962 86.1039 135.889 86.2499 135.889 86.4324L134.611 93.6229Z" fill="white"/>
<path d="M151.985 96.6889C151.985 96.7984 151.949 96.9079 151.876 96.9809C151.839 97.0539 151.73 97.0904 151.62 97.0904H149.467C149.394 97.0904 149.321 97.0539 149.284 96.9809C149.248 96.9079 149.248 96.7984 149.248 96.6889L151.073 86.2499C151.109 85.9579 151.036 85.7024 150.89 85.4834C150.744 85.2644 150.489 85.1549 150.197 85.1549C150.014 85.1549 149.868 85.1914 149.722 85.2644C149.576 85.3374 149.43 85.4104 149.321 85.5199C149.211 85.6294 149.102 85.7754 149.029 85.9214C148.956 86.0674 148.919 86.2134 148.883 86.3959L147.058 96.6889C147.021 96.7984 146.985 96.9079 146.948 96.9809C146.912 97.0539 146.802 97.0904 146.693 97.0904H144.539C144.466 97.0904 144.393 97.0539 144.357 96.9809C144.32 96.9079 144.32 96.7984 144.32 96.6889L146.145 86.2499C146.218 85.7754 146.437 85.3009 146.693 84.8629C146.985 84.4249 147.313 84.0599 147.715 83.7314C148.116 83.4029 148.554 83.1473 149.065 82.9648C149.576 82.7823 150.051 82.6729 150.562 82.6729C151.036 82.6729 151.438 82.7459 151.839 82.8919C152.241 83.0379 152.569 83.2568 152.861 83.5124C153.263 83.2568 153.664 83.0379 154.102 82.8919C154.54 82.7459 155.015 82.6729 155.453 82.6729C155.964 82.6729 156.438 82.7823 156.876 82.9648C157.314 83.1473 157.679 83.4029 157.971 83.7314C158.263 84.0599 158.482 84.4249 158.592 84.8629C158.738 85.3009 158.738 85.7389 158.665 86.2499L156.84 96.6889C156.84 96.7984 156.803 96.8714 156.73 96.9809C156.657 97.0539 156.584 97.1269 156.475 97.1269H154.394C154.285 97.1269 154.212 97.0904 154.175 97.0174C154.139 96.9444 154.102 96.8349 154.139 96.7254L155.964 86.4324C156 86.2864 156 86.1039 155.964 85.9579C155.927 85.8119 155.891 85.6659 155.818 85.5564C155.745 85.4469 155.635 85.3374 155.526 85.3009C155.416 85.2279 155.27 85.1914 155.088 85.1914C154.905 85.1914 154.759 85.2279 154.613 85.3009C154.467 85.3739 154.321 85.4469 154.212 85.5564C154.102 85.6659 153.993 85.8119 153.92 85.9579C153.847 86.1039 153.81 86.2499 153.774 86.4324L151.985 96.6889Z" fill="white"/>
<path d="M172.061 93.623C172.024 93.769 172.024 93.9515 172.061 94.0975C172.097 94.2435 172.134 94.3895 172.207 94.499C172.28 94.6085 172.389 94.718 172.499 94.791C172.608 94.864 172.754 94.9005 172.937 94.9005C173.119 94.9005 173.265 94.864 173.411 94.791C173.557 94.718 173.703 94.645 173.813 94.499C173.922 94.353 174.032 94.2435 174.105 94.0975C174.178 93.9515 174.214 93.8055 174.251 93.623L176.039 83.33C176.076 83.2205 176.112 83.111 176.185 83.038C176.258 82.965 176.331 82.9285 176.441 82.9285H178.521C178.631 82.9285 178.704 82.965 178.74 83.038C178.777 83.111 178.777 83.2205 178.777 83.33L176.952 93.769C176.879 94.2435 176.696 94.718 176.404 95.156C176.112 95.594 175.784 95.959 175.382 96.2875C174.981 96.616 174.506 96.8715 174.032 97.054C173.521 97.2365 173.046 97.346 172.535 97.346C172.024 97.346 171.55 97.2365 171.112 97.054C170.674 96.8715 170.309 96.616 170.017 96.2875C169.725 95.959 169.506 95.594 169.396 95.156C169.287 94.718 169.25 94.28 169.323 93.769L171.148 83.33C171.185 83.2205 171.221 83.111 171.294 83.038C171.367 82.965 171.44 82.9285 171.513 82.9285H173.667C173.776 82.9285 173.849 82.965 173.886 83.038C173.922 83.111 173.922 83.2205 173.886 83.33L172.061 93.623Z" fill="white"/>
<path d="M189.544 96.6889C189.544 96.7984 189.507 96.9079 189.434 96.9809C189.398 97.0539 189.288 97.0904 189.179 97.0904H187.025C186.952 97.0904 186.879 97.0539 186.843 96.9809C186.806 96.9079 186.806 96.7984 186.806 96.6889L188.631 86.2499C188.668 85.9579 188.595 85.7024 188.449 85.4834C188.303 85.2644 188.047 85.1549 187.755 85.1549C187.573 85.1549 187.427 85.1914 187.281 85.2644C187.135 85.3374 186.989 85.4104 186.879 85.5199C186.77 85.6294 186.66 85.7754 186.587 85.9214C186.514 86.0674 186.478 86.2134 186.441 86.3959L184.616 96.6889C184.58 96.7984 184.543 96.9079 184.507 96.9809C184.47 97.0539 184.361 97.0904 184.251 97.0904H182.098C182.025 97.0904 181.952 97.0539 181.915 96.9809C181.879 96.9079 181.879 96.7984 181.879 96.6889L183.704 86.2499C183.777 85.7754 183.996 85.3009 184.251 84.8629C184.543 84.4249 184.872 84.0599 185.273 83.7314C185.675 83.4029 186.113 83.1473 186.624 82.9648C187.135 82.7823 187.609 82.6729 188.12 82.6729C188.595 82.6729 188.996 82.7459 189.398 82.8919C189.799 83.0379 190.128 83.2568 190.42 83.5124C190.821 83.2568 191.223 83.0379 191.661 82.8919C192.099 82.7459 192.573 82.6729 193.011 82.6729C193.522 82.6729 193.997 82.7823 194.435 82.9648C194.873 83.1473 195.238 83.4029 195.53 83.7314C195.822 84.0599 196.041 84.4249 196.15 84.8629C196.296 85.3009 196.296 85.7389 196.223 86.2499L194.398 96.6889C194.398 96.7984 194.362 96.8714 194.289 96.9809C194.216 97.0539 194.143 97.1269 194.033 97.1269H191.953C191.843 97.1269 191.77 97.0904 191.734 97.0174C191.697 96.9444 191.661 96.8349 191.697 96.7254L193.522 86.4324C193.559 86.2864 193.559 86.1039 193.522 85.9579C193.486 85.8119 193.449 85.6659 193.376 85.5564C193.303 85.4469 193.194 85.3374 193.084 85.3009C192.975 85.2279 192.829 85.1914 192.646 85.1914C192.464 85.1914 192.318 85.2279 192.172 85.3009C192.026 85.3739 191.88 85.4469 191.77 85.5564C191.661 85.6659 191.551 85.8119 191.478 85.9579C191.405 86.1039 191.369 86.2499 191.332 86.4324L189.544 96.6889Z" fill="white"/>
<path d="M215.606 93.6234C215.57 93.7694 215.57 93.9519 215.606 94.0979C215.643 94.2439 215.679 94.3899 215.752 94.4994C215.825 94.6089 215.935 94.7184 216.044 94.7914C216.154 94.8644 216.336 94.9009 216.482 94.9009C216.665 94.9009 216.847 94.8644 216.993 94.7914C217.139 94.7184 217.285 94.6454 217.395 94.4994C217.504 94.3899 217.614 94.2439 217.687 94.0979C217.76 93.9519 217.796 93.8059 217.833 93.6234L218.052 92.4189C218.088 92.2729 218.125 92.1634 218.161 92.0904C218.198 92.0174 218.307 92.0174 218.417 92.0174H220.315C220.424 92.0174 220.534 92.0539 220.57 92.0904C220.607 92.1269 220.607 92.2364 220.607 92.3824L220.351 93.7694C220.242 94.3169 220.059 94.8279 219.804 95.2659C219.548 95.7039 219.22 96.0689 218.818 96.3974C218.417 96.6894 218.015 96.9449 217.541 97.0909C217.066 97.2369 216.555 97.3464 216.044 97.3464C215.533 97.3464 215.059 97.2734 214.621 97.0909C214.183 96.9449 213.818 96.6894 213.526 96.3974C213.234 96.1054 213.015 95.7039 212.905 95.2659C212.796 94.8279 212.759 94.3169 212.869 93.7694L213.672 89.1704L214.183 86.2869C214.256 85.7759 214.438 85.3014 214.73 84.8634C215.022 84.4254 215.314 84.0603 215.716 83.7318C216.117 83.4033 216.555 83.1478 217.066 83.0018C217.577 82.8193 218.088 82.7463 218.636 82.7463C219.256 82.7463 219.767 82.8558 220.205 83.0748C220.607 83.2938 220.935 83.5493 221.191 83.8778C221.41 84.2063 221.592 84.6079 221.629 85.0459C221.702 85.4839 221.702 85.9219 221.592 86.3599L221.41 87.3454C221.373 87.4914 221.337 87.6009 221.3 87.6739C221.227 87.7469 221.154 87.7834 221.008 87.7834H219.11C219.001 87.7834 218.928 87.7469 218.891 87.6739C218.855 87.6009 218.855 87.4914 218.855 87.3454L219.037 86.3964C219.074 86.2504 219.074 86.1044 219.037 85.9584C219.001 85.8124 218.964 85.6664 218.891 85.5569C218.818 85.4474 218.709 85.3379 218.599 85.2649C218.49 85.1919 218.344 85.1554 218.161 85.1554C218.015 85.1554 217.833 85.1919 217.687 85.2649C217.541 85.3379 217.395 85.4109 217.285 85.5204C217.176 85.6299 217.066 85.7759 216.993 85.9219C216.92 86.0679 216.884 86.2139 216.847 86.3964L216.409 88.9514L215.606 93.6234Z" fill="white"/>
<path d="M227.504 83.33C227.541 83.2205 227.577 83.111 227.65 83.038C227.723 82.965 227.796 82.9285 227.942 82.9285H229.986C230.096 82.9285 230.169 82.965 230.205 83.038C230.242 83.111 230.242 83.2205 230.242 83.33L228.234 94.645H231.702C231.884 94.645 231.957 94.7545 231.921 95.01L231.629 96.762C231.592 97.0175 231.446 97.127 231.264 97.127H225.424C225.205 97.127 225.095 96.981 225.132 96.7255L227.504 83.33Z" fill="white"/>
<path d="M239.112 83.33C239.149 83.2205 239.185 83.111 239.258 83.038C239.331 82.965 239.404 82.9285 239.55 82.9285H241.594C241.704 82.9285 241.777 82.965 241.813 83.038C241.85 83.111 241.85 83.2205 241.85 83.33L239.514 96.7255C239.441 96.981 239.331 97.127 239.112 97.127H237.068C236.849 97.127 236.74 96.981 236.776 96.7255L239.112 83.33Z" fill="white"/>
<path d="M251.632 98.6962C251.669 98.6962 251.742 98.6962 251.778 98.7327C251.815 98.7692 251.815 98.8057 251.815 98.8787L251.559 100.375C251.559 100.485 251.523 100.521 251.45 100.558C251.377 100.594 251.34 100.594 251.304 100.594H250.537C249.99 100.594 249.515 100.521 249.114 100.339C248.676 100.156 248.347 99.9372 248.092 99.6087C247.836 99.3167 247.654 98.9517 247.544 98.5137C247.435 98.0757 247.435 97.6012 247.508 97.0902C247.143 96.9807 246.851 96.8347 246.559 96.6157C246.267 96.3967 246.048 96.1777 245.865 95.8857C245.683 95.5937 245.573 95.2652 245.5 94.9002C245.427 94.5352 245.427 94.1337 245.5 93.6957L246.814 86.1766C246.924 85.6291 247.106 85.1181 247.398 84.6801C247.69 84.2421 248.019 83.8771 248.42 83.5486C248.822 83.2566 249.26 83.0011 249.771 82.8551C250.245 82.7091 250.756 82.5996 251.267 82.5996C251.778 82.5996 252.253 82.6726 252.691 82.8551C253.129 83.0011 253.494 83.2566 253.786 83.5486C254.078 83.8406 254.297 84.2421 254.406 84.6801C254.516 85.1181 254.552 85.6291 254.443 86.1766L253.129 93.7687C253.056 94.2432 252.91 94.6447 252.691 95.0462C252.472 95.4112 252.216 95.7762 251.924 96.0682C251.632 96.3602 251.267 96.6157 250.902 96.7982C250.537 96.9807 250.136 97.1267 249.698 97.2362L249.661 97.3822C249.625 97.5647 249.625 97.7472 249.661 97.8932C249.698 98.0392 249.771 98.1852 249.844 98.3312C249.953 98.4407 250.063 98.5502 250.209 98.6232C250.355 98.6962 250.537 98.7327 250.756 98.7327H251.632V98.6962ZM248.238 93.6227C248.201 93.7687 248.201 93.9512 248.238 94.0972C248.274 94.2432 248.311 94.3892 248.384 94.4987C248.457 94.6082 248.566 94.7177 248.676 94.7542C248.785 94.8272 248.931 94.8637 249.114 94.8637C249.296 94.8637 249.442 94.8272 249.588 94.7542C249.734 94.6812 249.88 94.6082 249.99 94.4987C250.099 94.3892 250.209 94.2797 250.282 94.1337C250.355 93.9877 250.391 93.8417 250.428 93.6957L251.705 86.4321C251.742 86.2861 251.742 86.1036 251.705 85.9576C251.669 85.8116 251.632 85.6656 251.559 85.5561C251.486 85.4466 251.377 85.3371 251.267 85.2641C251.158 85.1911 251.012 85.1546 250.829 85.1546C250.647 85.1546 250.501 85.1911 250.355 85.2641C250.209 85.3371 250.063 85.4101 249.953 85.5561C249.844 85.6656 249.734 85.8116 249.661 85.9576C249.588 86.1036 249.515 86.2496 249.515 86.4321L248.238 93.6227Z" fill="white"/>
<path d="M261.231 93.623C261.194 93.769 261.194 93.9515 261.231 94.0975C261.267 94.2435 261.304 94.3895 261.377 94.499C261.45 94.6085 261.559 94.718 261.669 94.791C261.778 94.864 261.924 94.9005 262.107 94.9005C262.289 94.9005 262.435 94.864 262.581 94.791C262.727 94.718 262.873 94.645 262.983 94.499C263.092 94.353 263.202 94.2435 263.275 94.0975C263.348 93.9515 263.384 93.8055 263.421 93.623L265.209 83.33C265.246 83.2205 265.282 83.111 265.355 83.038C265.428 82.965 265.501 82.9285 265.611 82.9285H267.691C267.801 82.9285 267.874 82.965 267.91 83.038C267.947 83.111 267.947 83.2205 267.947 83.33L266.122 93.769C266.049 94.2435 265.866 94.718 265.574 95.156C265.282 95.594 264.954 95.959 264.552 96.2875C264.151 96.616 263.676 96.8715 263.202 97.054C262.691 97.2365 262.216 97.346 261.705 97.346C261.194 97.346 260.72 97.2365 260.282 97.054C259.844 96.8715 259.479 96.616 259.187 96.2875C258.895 95.959 258.676 95.594 258.566 95.156C258.457 94.718 258.42 94.28 258.493 93.769L260.318 83.33C260.355 83.2205 260.391 83.111 260.464 83.038C260.537 82.965 260.61 82.9285 260.683 82.9285H262.837C262.946 82.9285 263.019 82.965 263.056 83.038C263.092 83.111 263.092 83.2205 263.056 83.33L261.231 93.623Z" fill="white"/>
<path d="M273.532 83.33C273.568 83.2205 273.605 83.111 273.678 83.038C273.751 82.965 273.86 82.9285 273.97 82.9285H280.102C280.284 82.9285 280.357 83.038 280.321 83.2935L280.029 85.0455C279.992 85.301 279.883 85.4105 279.664 85.4105H275.904L275.32 88.6955H278.313C278.386 88.6955 278.459 88.732 278.532 88.7685C278.569 88.805 278.605 88.9145 278.569 89.0605L278.277 90.8125C278.24 90.922 278.204 91.0315 278.131 91.068C278.058 91.141 277.985 91.141 277.875 91.141H274.882L274.262 94.6085H278.058C278.131 94.6085 278.204 94.645 278.24 94.6815C278.277 94.7545 278.313 94.8275 278.277 94.937L277.985 96.689C277.948 96.7985 277.912 96.908 277.839 96.9445C277.766 97.0175 277.693 97.0175 277.62 97.0175H271.451C271.232 97.0175 271.123 96.8715 271.159 96.616L273.532 83.33Z" fill="white"/>
</svg>
